<svg viewBox="0 0 220 199" fill="none" xmlns="http://www.w3.org/2000/svg">
<path d="M108.423 199C168.303 199 216.845 196.16 216.845 192.657C216.845 189.154 168.303 186.315 108.423 186.315C48.5424 186.315 0 189.154 0 192.657C0 196.16 48.5424 199 108.423 199Z" fill="#F5F5F5"/>
<path d="M47.2393 56.1903L47.5524 61.1547L50.6392 61.2611L51.4444 56.42L47.2393 56.1903Z" fill="#E4897B"/>
<path d="M75.8703 47.0742C75.0203 49.73 74.0864 52.2851 73.0463 54.8569C71.9999 57.4726 70.805 60.0262 69.4675 62.5051L68.9083 63.4689L68.282 64.4494C68.2205 64.5391 68.1981 64.5895 68.1086 64.7128C68.0192 64.836 67.9465 64.9425 67.857 65.0545C67.6826 65.283 67.4959 65.5019 67.2978 65.7101C66.859 66.1589 66.3534 66.537 65.7992 66.8307C64.7407 67.3703 63.5561 67.6123 62.3713 67.5311C61.4287 67.4577 60.5038 67.2345 59.6312 66.87C58.8769 66.5679 58.154 66.1926 57.4727 65.7493C56.8294 65.3474 56.213 64.9038 55.6274 64.4214C55.0603 63.9582 54.5172 63.4663 54.0001 62.9478C53.4725 62.4329 52.9722 61.8905 52.5015 61.3229L54.7383 58.9023C55.2415 59.1993 55.8175 59.5579 56.3599 59.8661C56.9023 60.1742 57.4783 60.46 58.0375 60.7402C59.0555 61.259 60.131 61.6558 61.2417 61.9224C61.6394 62.0026 62.0476 62.0159 62.4496 61.9616C62.7571 61.9168 62.8746 61.8159 62.9137 61.7431L62.9976 61.603L63.0591 61.4798L63.0982 61.4013L63.1821 61.2332L63.5847 60.4712L63.9818 59.6419C65.0163 57.3727 65.9669 54.9017 66.8728 52.4251C67.7787 49.9486 68.6902 47.4215 69.5681 44.9562L75.8703 47.0742Z" fill="#E4897B"/>
<path d="M54.8387 58.9752L51.45 56.4202L50.6392 61.2613C50.6392 61.2613 53.4351 63.4016 55.4371 61.5358L54.8387 58.9752Z" fill="#E4897B"/>
<path d="M78.8167 42.5861C80.237 46.3514 72.7158 59.7652 72.7158 59.7652L63.271 56.5434C63.271 56.5434 66.6262 47.3431 69.5116 43.0175C72.5145 38.5743 77.2621 38.4286 78.8167 42.5861Z" fill="#3578DE"/>
<path opacity="0.3" d="M78.8167 42.5861C80.237 46.3514 72.7158 59.7652 72.7158 59.7652L63.271 56.5434C63.271 56.5434 66.6262 47.3431 69.5116 43.0175C72.5145 38.5743 77.2621 38.4286 78.8167 42.5861Z" fill="black"/>
<path d="M73.8294 39.7005C73.8294 39.7005 68.8637 49.1082 73.5777 72.7925H96.063C96.2196 69.3354 94.0499 55.7815 97.3771 39.4876C94.8917 39.0055 92.3774 38.6873 89.8503 38.5351C86.6675 38.35 83.4765 38.35 80.2937 38.5351C78.112 38.7547 75.9506 39.1444 73.8294 39.7005Z" fill="#3578DE"/>
<path opacity="0.3" d="M73.8294 39.7005C73.8294 39.7005 68.8637 49.1082 73.5777 72.7925H96.063C96.2196 69.3354 94.0499 55.7815 97.3771 39.4876C94.8917 39.0055 92.3774 38.6873 89.8503 38.5351C86.6675 38.35 83.4765 38.35 80.2937 38.5351C78.112 38.7547 75.9506 39.1444 73.8294 39.7005Z" fill="black"/>
<path d="M101.861 183.347H97.7509L96.9736 173.817H101.078L101.861 183.347Z" fill="#E4897B"/>
<path d="M96.9736 173.822L97.3763 178.73H101.486L101.084 173.822H96.9736Z" fill="#CE6F64"/>
<path d="M77.7043 183.347H73.5998L73.46 173.817H77.57L77.7043 183.347Z" fill="#E4897B"/>
<path d="M73.46 173.822L73.5327 178.73H77.6427L77.57 173.822H73.46Z" fill="#CE6F64"/>
<path d="M73.5776 72.7924C73.5776 72.7924 70.5579 111.409 69.9931 124.251C69.406 137.604 72.202 177.554 72.202 177.554H78.8844C78.8844 177.554 81.3225 140.5 82.4688 127.423C83.7214 113.168 88.3572 72.7924 88.3572 72.7924H73.5776Z" fill="#3578DE"/>
<path opacity="0.7" d="M73.5776 72.7924C73.5776 72.7924 70.5579 111.409 69.9931 124.251C69.406 137.604 72.202 177.554 72.202 177.554H78.8844C78.8844 177.554 81.3225 140.5 82.4688 127.423C83.7214 113.168 88.3572 72.7924 88.3572 72.7924H73.5776Z" fill="black"/>
<path d="M97.5949 182.871H102.068C102.151 182.872 102.231 182.9 102.295 182.952C102.359 183.004 102.403 183.076 102.421 183.157L103.232 186.816C103.251 186.904 103.25 186.996 103.229 187.084C103.208 187.171 103.168 187.254 103.111 187.324C103.054 187.394 102.982 187.45 102.9 187.488C102.818 187.526 102.729 187.545 102.639 187.544C101.023 187.516 98.6853 187.421 96.6499 187.421C94.2733 187.421 93.9433 187.555 91.153 187.555C89.4754 187.555 88.9945 185.874 89.7046 185.69C92.9144 184.984 93.8147 184.911 96.5939 183.196C96.8899 182.995 97.2372 182.882 97.5949 182.871Z" fill="#263238"/>
<path d="M73.4375 182.871H77.9111C77.993 182.871 78.0725 182.899 78.1358 182.952C78.1991 183.004 78.2422 183.076 78.2578 183.157L79.0742 186.816C79.0936 186.904 79.0929 186.996 79.072 187.084C79.0511 187.171 79.0106 187.254 78.9536 187.324C78.8966 187.394 78.8245 187.45 78.7428 187.488C78.661 187.526 78.5717 187.545 78.4815 187.544C76.8598 187.516 74.5224 187.421 72.4925 187.421C70.1103 187.421 68.0581 187.555 65.2677 187.555C63.5901 187.555 63.1148 185.874 63.8194 185.69C67.0347 184.984 69.6574 184.911 72.4366 183.196C72.7321 182.994 73.0796 182.881 73.4375 182.871Z" fill="#263238"/>
<path d="M71.7429 183.504C71.4636 183.572 71.1698 183.542 70.9094 183.42C70.8222 183.371 70.7497 183.299 70.6995 183.213C70.6494 183.126 70.6233 183.027 70.6242 182.927C70.6149 182.87 70.6216 182.812 70.6433 182.759C70.665 182.705 70.7009 182.659 70.7472 182.625C71.1611 182.316 72.6379 182.927 72.8057 183C72.823 183.008 72.8379 183.021 72.8487 183.036C72.8596 183.052 72.866 183.071 72.8672 183.09C72.8663 183.11 72.8602 183.129 72.8494 183.146C72.8385 183.162 72.8235 183.176 72.8057 183.185C72.4635 183.328 72.1073 183.435 71.7429 183.504ZM70.9877 182.742C70.9434 182.746 70.9009 182.761 70.8647 182.787C70.8367 182.787 70.8143 182.832 70.8199 182.91C70.822 182.978 70.8404 183.043 70.8735 183.102C70.9067 183.161 70.9535 183.21 71.0101 183.247C71.5079 183.386 72.0402 183.33 72.498 183.09C72.0215 182.878 71.5088 182.76 70.9877 182.742Z" fill="#3578DE"/>
<path d="M72.7836 183.191H72.7332C72.2634 183.023 71.2901 182.244 71.3069 181.767C71.3085 181.693 71.3363 181.621 71.3854 181.565C71.4345 181.508 71.5017 181.471 71.5754 181.459C71.6493 181.439 71.7267 181.433 71.8027 181.444C71.8787 181.455 71.9518 181.481 72.0173 181.521C72.5766 181.84 72.8507 183.023 72.8619 183.073C72.8671 183.09 72.8672 183.108 72.8623 183.125C72.8573 183.142 72.8474 183.157 72.8339 183.168C72.8193 183.18 72.802 183.187 72.7836 183.191ZM71.6648 181.633H71.6201C71.497 181.672 71.497 181.728 71.4914 181.756C71.4914 182.036 72.1235 182.641 72.6102 182.877C72.506 182.408 72.2645 181.981 71.9166 181.65C71.8405 181.617 71.7558 181.611 71.676 181.633H71.6648Z" fill="#3578DE"/>
<path d="M80.17 177.722H71.8771L71.1558 174.584L80.3154 174.747L80.17 177.722Z" fill="#3578DE"/>
<path d="M95.9006 183.504C95.6213 183.572 95.3275 183.542 95.0671 183.42C94.9832 183.367 94.9133 183.295 94.8636 183.209C94.8139 183.123 94.7858 183.026 94.7819 182.927C94.7727 182.87 94.7793 182.812 94.801 182.759C94.8227 182.705 94.8586 182.659 94.9049 182.625C95.3244 182.316 96.7956 182.927 96.9634 183C96.9816 183.007 96.9972 183.019 97.0082 183.035C97.0192 183.051 97.025 183.07 97.0249 183.09C97.0254 183.11 97.0198 183.13 97.0088 183.147C96.9978 183.164 96.982 183.177 96.9634 183.185C96.6212 183.328 96.265 183.435 95.9006 183.504ZM95.1455 182.742C95.1014 182.747 95.0591 182.762 95.0224 182.787C95.0041 182.801 94.9902 182.82 94.9823 182.842C94.9744 182.864 94.9728 182.888 94.9776 182.91C94.9797 182.978 94.9981 183.043 95.0313 183.102C95.0644 183.161 95.1113 183.21 95.1678 183.247C95.6656 183.386 96.1979 183.33 96.6557 183.09C96.1792 182.878 95.6665 182.76 95.1455 182.742Z" fill="#3578DE"/>
<path d="M96.9413 183.191H96.891C96.4267 183.022 95.4478 182.244 95.4646 181.767C95.4676 181.692 95.4965 181.62 95.5465 181.564C95.5965 181.508 95.6644 181.471 95.7387 181.459C95.8115 181.437 95.8882 181.431 95.9636 181.442C96.0389 181.453 96.111 181.48 96.175 181.521C96.7343 181.84 97.0084 183.022 97.0196 183.073C97.0285 183.087 97.0333 183.104 97.0333 183.12C97.0333 183.137 97.0285 183.154 97.0196 183.168C96.9972 183.185 96.9693 183.193 96.9413 183.191ZM95.8226 181.633H95.7834C95.6548 181.672 95.6548 181.728 95.6548 181.756C95.6548 182.036 96.2812 182.641 96.7735 182.877C96.6674 182.407 96.424 181.98 96.0743 181.65C95.9982 181.617 95.9135 181.611 95.8338 181.633H95.8226Z" fill="#3578DE"/>
<path d="M81.5571 72.7924C81.5571 72.7924 83.464 110.541 86.081 122.598C88.9497 135.805 95.2127 177.554 95.2127 177.554H102.907C102.907 177.554 100.329 136.87 98.6909 123.797C96.9183 109.605 96.0627 72.8092 96.0627 72.8092L81.5571 72.7924Z" fill="#3578DE"/>
<path opacity="0.7" d="M81.5571 72.7924C81.5571 72.7924 83.464 110.541 86.081 122.598C88.9497 135.805 95.2127 177.554 95.2127 177.554H102.907C102.907 177.554 100.329 136.87 98.6909 123.797C96.9183 109.605 96.0627 72.8092 96.0627 72.8092L81.5571 72.7924Z" fill="black"/>
<path d="M99.8035 172.999C99.8123 172.997 99.8208 172.994 99.8285 172.989C99.8361 172.985 99.8427 172.978 99.848 172.971C99.8532 172.964 99.8569 172.956 99.8588 172.947C99.8608 172.938 99.861 172.929 99.8594 172.92C99.7979 172.528 97.9134 136.018 96.4427 124.274C94.849 111.527 94.3513 77.7064 94.3177 77.4206C94.3137 77.4018 94.303 77.3852 94.2875 77.3738C94.272 77.3625 94.253 77.3572 94.2339 77.359C94.2245 77.3596 94.2154 77.3622 94.2071 77.3666C94.1988 77.371 94.1915 77.3771 94.1857 77.3845C94.1799 77.3919 94.1757 77.4004 94.1734 77.4096C94.1711 77.4187 94.1708 77.4282 94.1724 77.4374C94.2059 77.7232 94.7315 111.544 96.3029 124.291C97.7736 136.057 99.6581 172.55 99.7196 172.942C99.7236 172.961 99.7346 172.977 99.7503 172.987C99.7659 172.998 99.785 173.002 99.8035 172.999Z" fill="#3578DE"/>
<path opacity="0.4" d="M99.8035 172.999C99.8123 172.997 99.8208 172.994 99.8285 172.989C99.8361 172.985 99.8427 172.978 99.848 172.971C99.8532 172.964 99.8569 172.956 99.8588 172.947C99.8608 172.938 99.861 172.929 99.8594 172.92C99.7979 172.528 97.9134 136.018 96.4427 124.274C94.849 111.527 94.3513 77.7064 94.3177 77.4206C94.3137 77.4018 94.303 77.3852 94.2875 77.3738C94.272 77.3625 94.253 77.3572 94.2339 77.359C94.2245 77.3596 94.2154 77.3622 94.2071 77.3666C94.1988 77.371 94.1915 77.3771 94.1857 77.3845C94.1799 77.3919 94.1757 77.4004 94.1734 77.4096C94.1711 77.4187 94.1708 77.4282 94.1724 77.4374C94.2059 77.7232 94.7315 111.544 96.3029 124.291C97.7736 136.057 99.6581 172.55 99.7196 172.942C99.7236 172.961 99.7346 172.977 99.7503 172.987C99.7659 172.998 99.785 173.002 99.8035 172.999Z" fill="black"/>
<path d="M103.209 177.722H94.9103L94.189 174.584L103.371 174.326L103.209 177.722Z" fill="#3578DE"/>
<path d="M88.9053 27.749C88.3014 30.8307 87.6974 36.4787 89.8503 38.535C89.8503 38.535 88.8829 40.6026 83.1679 40.6026C77.945 40.6026 80.2937 38.535 80.2937 38.535C83.7215 37.7114 83.6489 35.1731 83.0393 32.7694L88.9053 27.749Z" fill="#E4897B"/>
<path d="M86.4946 29.7997L83.022 32.7694C83.1708 33.3197 83.27 33.8823 83.3184 34.4503C84.4367 35.5149 86.4275 32.8198 86.5673 31.4471C86.6412 30.898 86.6166 30.3401 86.4946 29.7997Z" fill="#CE6F64"/>
<path d="M78.392 18.3582C76.5243 19.6077 76.4963 25.5245 79.3482 26.3426C82.2001 27.1607 81.9317 16.0161 78.392 18.3582Z" fill="#263238"/>
<path d="M89.29 23.1152C89.0384 27.2839 89.0999 29.7381 86.9973 31.8841C83.8323 35.1059 78.6933 33.1896 77.6979 29.0265C76.8032 25.278 77.3736 19.0866 81.4501 17.4224C82.3472 17.0516 83.3242 16.917 84.2879 17.0314C85.2517 17.1458 86.1702 17.5054 86.956 18.076C87.7418 18.6466 88.3688 19.4093 88.7774 20.2913C89.1859 21.1734 89.3624 22.1455 89.29 23.1152Z" fill="#E4897B"/>
<path d="M90.7329 17.8538L86.7123 19.658C88.2892 22.6053 84.7439 27.5808 88.3172 27.0373C89.9556 26.7852 95.1226 21.6639 90.7329 17.8538Z" fill="#263238"/>
<path d="M89.6937 25.4125C88.6983 25.1828 85.6004 24.544 85.5668 24.5384C85.5436 24.5331 85.5232 24.5191 85.5098 24.4994C85.4963 24.4797 85.4907 24.4556 85.4941 24.432C85.4962 24.4201 85.5005 24.4088 85.507 24.3986C85.5135 24.3885 85.5219 24.3798 85.5318 24.373C85.5417 24.3662 85.5529 24.3614 85.5647 24.3591C85.5765 24.3567 85.5886 24.3567 85.6004 24.3591C85.6339 24.3591 88.7375 25.0035 89.7384 25.2332C89.7622 25.2332 89.7849 25.2427 89.8017 25.2595C89.8185 25.2763 89.8279 25.2991 89.8279 25.3229C89.8279 25.3467 89.8185 25.3695 89.8017 25.3863C89.7849 25.4031 89.7622 25.4125 89.7384 25.4125H89.6937Z" fill="#263238"/>
<path d="M91.1526 27.7098C90.8761 28.1508 90.5154 28.5327 90.0913 28.8336C89.6671 29.1346 89.1879 29.3487 88.6809 29.4636C87.3221 29.7662 86.7182 28.5279 87.1599 27.284C87.5626 26.1634 88.748 24.6617 90.0789 24.9195C90.3685 24.9819 90.6379 25.1155 90.863 25.3083C91.0881 25.5011 91.2618 25.7471 91.3683 26.0239C91.4748 26.3008 91.5109 26.5999 91.4732 26.8942C91.4356 27.1885 91.3254 27.4688 91.1526 27.7098Z" fill="#E4897B"/>
<path d="M83.2127 24.2806C83.2127 24.6168 83.0281 24.8914 82.81 24.8914C82.5918 24.8914 82.4072 24.6168 82.4072 24.2806C82.4072 23.9445 82.5862 23.6643 82.81 23.6643C83.0337 23.6643 83.2127 23.9389 83.2127 24.2806Z" fill="#263238"/>
<path d="M79.3761 24.2806C79.3761 24.6168 79.1971 24.8914 78.9733 24.8914C78.7496 24.8914 78.5762 24.6168 78.5762 24.2806C78.5762 23.9445 78.7552 23.6643 78.9733 23.6643C79.1915 23.6643 79.3761 23.9389 79.3761 24.2806Z" fill="#263238"/>
<path d="M80.3441 24.4487C79.9402 25.4856 79.3962 26.4622 78.7275 27.3511C78.9578 27.5183 79.2221 27.6326 79.5015 27.6859C79.7809 27.7392 80.0686 27.7301 80.3441 27.6593V24.4487Z" fill="#DE5753"/>
<path d="M80.8472 29.1106C80.834 29.1099 80.821 29.1066 80.8091 29.1008C80.7971 29.0951 80.7864 29.0871 80.7776 29.0772C80.7688 29.0673 80.762 29.0557 80.7576 29.0432C80.7532 29.0307 80.7514 29.0174 80.7521 29.0042C80.7521 28.9912 80.7547 28.9783 80.7598 28.9664C80.765 28.9544 80.7725 28.9437 80.7819 28.9347C80.7914 28.9258 80.8025 28.9189 80.8147 28.9145C80.8269 28.91 80.8399 28.9081 80.8528 28.9089C81.2746 28.9361 81.6969 28.8635 82.0856 28.6971C82.4743 28.5306 82.8184 28.275 83.0903 27.9508C83.106 27.9296 83.129 27.915 83.1548 27.9098C83.1806 27.9046 83.2075 27.9092 83.2301 27.9228C83.2482 27.9416 83.2583 27.9667 83.2583 27.9928C83.2583 28.0189 83.2482 28.044 83.2301 28.0628C82.9443 28.4143 82.5792 28.6926 82.1649 28.8748C81.7505 29.0569 81.2989 29.1378 80.8472 29.1106Z" fill="#263238"/>
<path d="M84.9406 21.4175C84.9107 21.4208 84.8803 21.417 84.8521 21.4063C84.8239 21.3955 84.7986 21.3783 84.7784 21.3558C84.6177 21.1623 84.4128 21.0103 84.1811 20.9128C83.9494 20.8153 83.6976 20.7751 83.4471 20.7955C83.3947 20.8021 83.3417 20.7884 83.2991 20.7571C83.2565 20.7259 83.2274 20.6795 83.2178 20.6274C83.2096 20.5755 83.222 20.5225 83.2523 20.4795C83.2826 20.4366 83.3284 20.4073 83.38 20.3977C83.6934 20.369 84.0091 20.4156 84.3009 20.5335C84.5927 20.6514 84.8523 20.8372 85.0581 21.0757C85.0943 21.1133 85.1146 21.1635 85.1146 21.2157C85.1146 21.268 85.0943 21.3182 85.0581 21.3558C85.0261 21.3878 84.9851 21.4093 84.9406 21.4175Z" fill="#263238"/>
<path d="M92.3877 49.735L85.8208 49.5145L85.8028 50.0512L92.3697 50.2717L92.3877 49.735Z" fill="#E0E0E0"/>
<path d="M77.671 21.3783C77.642 21.369 77.6154 21.3537 77.5927 21.3335C77.5561 21.2949 77.5356 21.2438 77.5356 21.1906C77.5356 21.1374 77.5561 21.0862 77.5927 21.0477C77.8102 20.8176 78.0797 20.6431 78.3785 20.5388C78.6773 20.4345 78.9967 20.4034 79.3099 20.4482C79.3385 20.4501 79.3664 20.4581 79.3916 20.4717C79.4169 20.4852 79.439 20.504 79.4564 20.5268C79.4738 20.5496 79.4862 20.5759 79.4926 20.6038C79.4991 20.6318 79.4996 20.6608 79.4939 20.689C79.4883 20.7171 79.4768 20.7438 79.46 20.7671C79.4433 20.7904 79.4218 20.8099 79.397 20.8242C79.3722 20.8385 79.3446 20.8474 79.316 20.8502C79.2875 20.853 79.2587 20.8496 79.2316 20.8404C78.9836 20.8092 78.7317 20.8371 78.4965 20.9219C78.2613 21.0066 78.0494 21.1457 77.8779 21.3279C77.8512 21.3543 77.8179 21.3729 77.7814 21.3818C77.745 21.3907 77.7068 21.3895 77.671 21.3783Z" fill="#263238"/>
<path d="M81.8473 17.8539C81.8473 17.8539 81.7243 14.6041 85.0011 14.7722C87.5455 14.901 92.3154 18.5991 93.8085 17.8539C93.8085 17.8539 91.0125 21.1597 87.333 20.0951C85.4133 19.5951 83.5686 18.8414 81.8473 17.8539Z" fill="#263238"/>
<path d="M81.8474 17.8535C81.8474 17.8535 84.5987 16.1726 82.7757 15.2145C80.1251 13.8361 76.9377 18.8453 75.4502 18.1001C75.4502 18.1001 75.7745 20.4814 79.3254 19.0862C80.1963 18.7404 81.0394 18.3283 81.8474 17.8535Z" fill="#263238"/>
<path d="M83.2122 27.1494C81.8589 27.1494 80.7573 25.7711 80.7573 24.0789C80.7573 22.5773 81.6297 21.748 83.2122 21.748C84.7947 21.748 85.6727 22.5773 85.6727 24.0789C85.6727 25.7711 84.571 27.1494 83.2122 27.1494ZM83.2122 21.9273C82.1777 21.9273 80.9363 22.3028 80.9363 24.0789C80.9363 25.6702 81.9596 26.9645 83.2122 26.9645C84.4648 26.9645 85.4881 25.6702 85.4881 24.0789C85.4881 22.3028 84.2579 21.9273 83.2122 21.9273Z" fill="#263238"/>
<path d="M77.6645 27.1494C76.5461 27.1494 75.6011 25.7711 75.6011 24.0789C75.6011 22.0506 76.8928 21.748 77.6645 21.748C78.4362 21.748 79.7279 22.0506 79.7279 24.0789C79.7279 25.7711 78.8053 27.1494 77.6645 27.1494ZM77.6645 21.9273C76.8033 21.9273 75.78 22.3028 75.78 24.0789C75.78 25.6702 76.6244 26.9645 77.6645 26.9645C78.7046 26.9645 79.549 25.6702 79.549 24.0789C79.549 22.3028 78.5257 21.9273 77.6645 21.9273Z" fill="#263238"/>
<path d="M79.4717 23.0866C79.4559 23.0867 79.4403 23.0826 79.4265 23.0748C79.4128 23.0669 79.4014 23.0555 79.3934 23.0418C79.3866 23.0318 79.382 23.0204 79.3801 23.0084C79.3781 22.9965 79.3787 22.9842 79.3819 22.9725C79.3851 22.9609 79.3907 22.95 79.3985 22.9407C79.4063 22.9314 79.416 22.9239 79.427 22.9188C79.6805 22.7669 79.9705 22.6868 80.266 22.6868C80.5616 22.6868 80.8515 22.7669 81.1051 22.9188C81.1259 22.9306 81.1415 22.9498 81.1488 22.9726C81.156 22.9954 81.1544 23.0201 81.1442 23.0418C81.1389 23.0526 81.1315 23.0623 81.1223 23.0701C81.1132 23.078 81.1026 23.084 81.0911 23.0876C81.0796 23.0913 81.0675 23.0926 81.0554 23.0914C81.0434 23.0903 81.0318 23.0867 81.0212 23.081C80.7963 22.9436 80.5379 22.8708 80.2744 22.8708C80.0109 22.8708 79.7525 22.9436 79.5277 23.081L79.4717 23.0866Z" fill="#263238"/>
<path d="M84.3359 40.003C84.3359 40.003 85.7787 42.0257 86.0583 43.4881C87.7806 42.7709 91.0407 40.9779 91.4769 38.4453C90.8476 38.2458 90.2477 37.9632 89.693 37.6049C89.693 37.6049 87.9539 39.0841 84.3359 40.003Z" fill="#F0F0F0"/>
<path d="M83.1731 39.9078C82.2742 40.7689 81.6844 41.9035 81.4955 43.1352C79.7732 42.418 79.0966 40.0759 79.5495 38.5238C80.2032 38.2255 80.8877 38 81.5906 37.8514C81.5647 38.3273 81.7103 38.7967 82.0007 39.1741C82.2912 39.5515 82.7072 39.8118 83.1731 39.9078Z" fill="#F0F0F0"/>
<path d="M94.0449 38.7255L92.9821 38.6303C92.9315 38.6267 92.8813 38.6418 92.8411 38.6728C92.8009 38.7037 92.7735 38.7485 92.764 38.7984C89.805 54.6944 91.4663 71.571 91.4663 71.571H92.6465C92.0026 60.675 92.539 49.7412 94.2463 38.9609C94.2503 38.9319 94.248 38.9023 94.2398 38.8742C94.2315 38.8462 94.2174 38.8201 94.1984 38.7979C94.1794 38.7757 94.1558 38.7577 94.1294 38.7453C94.103 38.7328 94.0742 38.7261 94.0449 38.7255Z" fill="#3578DE"/>
<path opacity="0.7" d="M94.0449 38.7255L92.9821 38.6303C92.9315 38.6267 92.8813 38.6418 92.8411 38.6728C92.8009 38.7037 92.7735 38.7485 92.764 38.7984C89.805 54.6944 91.4663 71.571 91.4663 71.571H92.6465C92.0026 60.675 92.539 49.7412 94.2463 38.9609C94.2503 38.9319 94.248 38.9023 94.2398 38.8742C94.2315 38.8462 94.2174 38.8201 94.1984 38.7979C94.1794 38.7757 94.1558 38.7577 94.1294 38.7453C94.103 38.7328 94.0742 38.7261 94.0449 38.7255Z" fill="black"/>
<path d="M92.4285 71.9464H91.6174C91.5181 71.9464 91.4227 71.9068 91.3524 71.8364C91.2822 71.766 91.2427 71.6705 91.2427 71.5709C91.2427 71.4709 91.282 71.3748 91.3521 71.3035C91.4222 71.2322 91.5175 71.1914 91.6174 71.1899H92.4285C92.529 71.1914 92.6249 71.232 92.6959 71.3031C92.7669 71.3743 92.8074 71.4703 92.8089 71.5709C92.8074 71.671 92.7667 71.7665 92.6955 71.8367C92.6244 71.907 92.5284 71.9464 92.4285 71.9464Z" fill="#E0E0E0"/>
<path d="M91.5273 72.9381V71.8735C91.5273 71.8083 91.5403 71.7437 91.5653 71.6835C91.5904 71.6233 91.6272 71.5687 91.6735 71.5228C91.7198 71.477 91.7747 71.4408 91.8351 71.4163C91.8955 71.3919 91.9601 71.3797 92.0252 71.3804C92.1557 71.3804 92.2809 71.4324 92.3732 71.5248C92.4656 71.6173 92.5174 71.7427 92.5174 71.8735V72.9381C92.516 73.0684 92.4636 73.193 92.3716 73.2851C92.2796 73.3773 92.1553 73.4297 92.0252 73.4311C91.8941 73.4312 91.7683 73.3794 91.6751 73.2871C91.5819 73.1948 91.5288 73.0694 91.5273 72.9381Z" fill="#E0E0E0"/>
<path d="M76.2452 38.9384L75.1936 39.1345C75.1502 39.1426 75.1105 39.1643 75.0803 39.1966C75.0501 39.2288 75.031 39.2699 75.0258 39.3138C72.7884 55.2154 75.244 71.5709 75.244 71.5709H76.4298C74.679 54.2629 76.234 41.2189 76.5025 39.1681C76.5089 39.134 76.5063 39.0988 76.4951 39.0659C76.4839 39.0331 76.4644 39.0037 76.4386 38.9806C76.4127 38.9575 76.3813 38.9414 76.3474 38.9341C76.3136 38.9267 76.2784 38.9282 76.2452 38.9384Z" fill="#3578DE"/>
<path opacity="0.7" d="M76.2452 38.9384L75.1936 39.1345C75.1502 39.1426 75.1105 39.1643 75.0803 39.1966C75.0501 39.2288 75.031 39.2699 75.0258 39.3138C72.7884 55.2154 75.244 71.5709 75.244 71.5709H76.4298C74.679 54.2629 76.234 41.2189 76.5025 39.1681C76.5089 39.134 76.5063 39.0988 76.4951 39.0659C76.4839 39.0331 76.4644 39.0037 76.4386 38.9806C76.4127 38.9575 76.3813 38.9414 76.3474 38.9341C76.3136 38.9267 76.2784 38.9282 76.2452 38.9384Z" fill="black"/>
<path d="M76.2231 71.9464H75.412C75.3108 71.9452 75.2138 71.9059 75.1402 71.8364C75.0666 71.7668 75.0218 71.6721 75.0148 71.5709C75.0133 71.5219 75.0216 71.4731 75.0391 71.4273C75.0567 71.3815 75.0831 71.3396 75.117 71.3042C75.1508 71.2687 75.1913 71.2404 75.2362 71.2207C75.2811 71.2011 75.3294 71.1907 75.3784 71.1899H76.1895C76.291 71.1913 76.3881 71.2315 76.461 71.3024C76.5338 71.3732 76.5768 71.4693 76.581 71.5709C76.5841 71.6196 76.5771 71.6684 76.5605 71.7143C76.5438 71.7601 76.5178 71.802 76.4842 71.8372C76.4505 71.8725 76.41 71.9004 76.365 71.9192C76.3201 71.938 76.2717 71.9472 76.2231 71.9464Z" fill="#E0E0E0"/>
<path d="M75.3663 72.9381L75.316 71.8735C75.3129 71.8093 75.323 71.7453 75.3456 71.6852C75.3682 71.6251 75.4028 71.5702 75.4473 71.524C75.4919 71.4779 75.5454 71.4413 75.6046 71.4166C75.6637 71.3919 75.7273 71.3796 75.7914 71.3804C75.9237 71.3816 76.0506 71.4333 76.1462 71.5249C76.2418 71.6165 76.2989 71.7412 76.306 71.8735L76.3564 72.9381C76.3594 73.0017 76.3495 73.0654 76.3273 73.1251C76.305 73.1848 76.2709 73.2394 76.2269 73.2855C76.183 73.3316 76.1302 73.3683 76.0716 73.3933C76.0131 73.4183 75.9502 73.4312 75.8865 73.4312C75.7537 73.43 75.6262 73.3785 75.5297 73.287C75.4331 73.1956 75.3748 73.0709 75.3663 72.9381Z" fill="#E0E0E0"/>
<path d="M87.2496 51.876C87.1685 51.8703 87.0928 51.8331 87.0385 51.7725C86.9842 51.7118 86.9556 51.6324 86.9587 51.551L87.1153 48.7495C87.1167 48.7087 87.1263 48.6687 87.1436 48.6318C87.1608 48.5948 87.1853 48.5618 87.2156 48.5346C87.2459 48.5074 87.2814 48.4866 87.3199 48.4734C87.3584 48.4603 87.3992 48.4551 87.4398 48.4581C87.4802 48.4603 87.5198 48.4704 87.5563 48.4879C87.5928 48.5054 87.6255 48.53 87.6525 48.5601C87.6796 48.5903 87.7004 48.6256 87.7138 48.6638C87.7272 48.7021 87.7329 48.7426 87.7307 48.7831L87.574 51.5847C87.5726 51.6254 87.563 51.6654 87.5458 51.7024C87.5286 51.7393 87.5041 51.7724 87.4738 51.7996C87.4435 51.8268 87.408 51.8476 87.3695 51.8607C87.3309 51.8739 87.2902 51.8791 87.2496 51.876Z" fill="#3578DE"/>
<path d="M88.2061 52.8846C88.1812 52.8847 88.1564 52.8796 88.1335 52.8696C88.1107 52.8595 88.0901 52.8448 88.0733 52.8263C88.0564 52.8078 88.0436 52.786 88.0356 52.7623C88.0277 52.7386 88.0248 52.7134 88.0272 52.6885L88.2173 48.6991C88.2202 48.6481 88.2429 48.6002 88.2805 48.5656C88.3181 48.5311 88.3677 48.5126 88.4187 48.5142C88.4437 48.5156 88.4682 48.522 88.4907 48.5329C88.5132 48.5438 88.5334 48.5591 88.55 48.5778C88.5666 48.5966 88.5794 48.6184 88.5876 48.6421C88.5958 48.6658 88.5992 48.6909 88.5977 48.7159L88.4075 52.7053C88.4061 52.7303 88.3997 52.7549 88.3888 52.7774C88.3779 52.8 88.3627 52.8202 88.344 52.8368C88.3253 52.8535 88.3035 52.8663 88.2798 52.8745C88.2562 52.8827 88.2311 52.8861 88.2061 52.8846Z" fill="#3578DE"/>
<path opacity="0.7" d="M87.2496 51.876C87.1685 51.8703 87.0928 51.8331 87.0385 51.7725C86.9842 51.7118 86.9556 51.6324 86.9587 51.551L87.1153 48.7495C87.1167 48.7087 87.1263 48.6687 87.1436 48.6318C87.1608 48.5948 87.1853 48.5618 87.2156 48.5346C87.2459 48.5074 87.2814 48.4866 87.3199 48.4734C87.3584 48.4603 87.3992 48.4551 87.4398 48.4581C87.4802 48.4603 87.5198 48.4704 87.5563 48.4879C87.5928 48.5054 87.6255 48.53 87.6525 48.5601C87.6796 48.5903 87.7004 48.6256 87.7138 48.6638C87.7272 48.7021 87.7329 48.7426 87.7307 48.7831L87.574 51.5847C87.5726 51.6254 87.563 51.6654 87.5458 51.7024C87.5286 51.7393 87.5041 51.7724 87.4738 51.7996C87.4435 51.8268 87.408 51.8476 87.3695 51.8607C87.3309 51.8739 87.2902 51.8791 87.2496 51.876Z" fill="black"/>
<path opacity="0.7" d="M88.2061 52.8846C88.1812 52.8847 88.1564 52.8796 88.1335 52.8696C88.1107 52.8595 88.0901 52.8448 88.0733 52.8263C88.0564 52.8078 88.0436 52.786 88.0356 52.7623C88.0277 52.7386 88.0248 52.7134 88.0272 52.6885L88.2173 48.6991C88.2202 48.6481 88.2429 48.6002 88.2805 48.5656C88.3181 48.5311 88.3677 48.5126 88.4187 48.5142C88.4437 48.5156 88.4682 48.522 88.4907 48.5329C88.5132 48.5438 88.5334 48.5591 88.55 48.5778C88.5666 48.5966 88.5794 48.6184 88.5876 48.6421C88.5958 48.6658 88.5992 48.6909 88.5977 48.7159L88.4075 52.7053C88.4061 52.7303 88.3997 52.7549 88.3888 52.7774C88.3779 52.8 88.3627 52.8202 88.344 52.8368C88.3253 52.8535 88.3035 52.8663 88.2798 52.8745C88.2562 52.8827 88.2311 52.8861 88.2061 52.8846Z" fill="black"/>
<path d="M83.5142 40.597L84.3364 40.0031L86.0816 41.684L83.5142 40.597Z" fill="#3578DE"/>
<path opacity="0.5" d="M83.5142 40.597L84.3364 40.0031L86.0816 41.684L83.5142 40.597Z" fill="black"/>
<path d="M83.5154 40.597L83.1742 39.9078L80.9199 41.684L83.5154 40.597Z" fill="#3578DE"/>
<path opacity="0.5" d="M83.5154 40.597L83.1742 39.9078L80.9199 41.684L83.5154 40.597Z" fill="black"/>
<path d="M84.2974 41.4598C85.2704 41.0956 89.1624 37.9467 90.2696 39.5828C91.3768 41.2189 89.8837 41.824 90.3702 42.9447C90.8567 44.0653 91.5893 45.9591 89.1456 45.4661C86.4167 44.9057 85.1865 42.9951 84.398 42.9503C84.3533 42.2891 84.2974 41.4598 84.2974 41.4598Z" fill="#3578DE"/>
<path opacity="0.7" d="M84.2974 41.4598C85.2704 41.0956 89.1624 37.9467 90.2696 39.5828C91.3768 41.2189 89.8837 41.824 90.3702 42.9447C90.8567 44.0653 91.5893 45.9591 89.1456 45.4661C86.4167 44.9057 85.1865 42.9951 84.398 42.9503C84.3533 42.2891 84.2974 41.4598 84.2974 41.4598Z" fill="black"/>
<path d="M82.7478 41.23C81.9313 40.8826 78.565 37.9354 77.7486 39.4482C76.9321 40.9611 78.1903 41.5158 77.8492 42.5468C77.5081 43.5777 77.016 45.3483 78.9956 44.9001C81.1988 44.407 82.1047 42.6308 82.7478 42.5916V41.23Z" fill="#3578DE"/>
<path opacity="0.7" d="M82.7478 41.23C81.9313 40.8826 78.565 37.9354 77.7486 39.4482C76.9321 40.9611 78.1903 41.5158 77.8492 42.5468C77.5081 43.5777 77.016 45.3483 78.9956 44.9001C81.1988 44.407 82.1047 42.6308 82.7478 42.5916V41.23Z" fill="black"/>
<path d="M84.4712 43.0343C84.8739 42.3563 85.1424 40.4905 84.281 40.8211C83.4196 41.1517 83.3245 41.1965 83.0784 41.034C82.8322 40.8715 82.189 40.5745 82.0771 41.2581C81.9652 41.9417 82.133 43.3032 82.7707 43.2752C83.4084 43.2472 84.0628 43.7291 84.4712 43.0343Z" fill="#3578DE"/>
<path opacity="0.7" d="M84.4712 43.0343C84.8739 42.3563 85.1424 40.4905 84.281 40.8211C83.4196 41.1517 83.3245 41.1965 83.0784 41.034C82.8322 40.8715 82.189 40.5745 82.0771 41.2581C81.9652 41.9417 82.133 43.3032 82.7707 43.2752C83.4084 43.2472 84.0628 43.7291 84.4712 43.0343Z" fill="black"/>
<path d="M54.3751 55.0809L53.1448 64.2028C53.1339 64.2741 53.0969 64.3387 53.0411 64.3842C52.9854 64.4298 52.9147 64.453 52.8429 64.4493L48.9285 64.214C48.8567 64.2072 48.7899 64.1745 48.7405 64.1219C48.6911 64.0693 48.6625 64.0004 48.6601 63.9283L48.6321 61.8719L48.5594 57.0756L48.5259 54.7448L54.3751 55.0809Z" fill="#3578DE"/>
<path opacity="0.3" d="M54.3751 55.0809L53.1448 64.2028C53.1339 64.2741 53.0969 64.3387 53.0411 64.3842C52.9854 64.4298 52.9147 64.453 52.8429 64.4493L48.9285 64.214C48.8567 64.2072 48.7899 64.1745 48.7405 64.1219C48.6911 64.0693 48.6625 64.0004 48.6601 63.9283L48.6321 61.8719L48.5594 57.0756L48.5259 54.7448L54.3751 55.0809Z" fill="black"/>
<path d="M55.0396 54.6663L47.9004 54.2364L47.845 55.1592L54.9843 55.5891L55.0396 54.6663Z" fill="#3578DE"/>
<path d="M54.5869 54.1749L48.4077 53.8028L48.3523 54.7256L54.5315 55.0977L54.5869 54.1749Z" fill="#3578DE"/>
<path d="M54.5869 54.1749L48.4077 53.8028L48.3523 54.7256L54.5315 55.0977L54.5869 54.1749Z" fill="#F5F5F5"/>
<path d="M55.0396 54.6663L47.9004 54.2364L47.845 55.1592L54.9843 55.5891L55.0396 54.6663Z" fill="#EBEBEB"/>
<path opacity="0.43" d="M50.8642 57.199L50.579 61.9728L48.5932 61.8552L48.5205 57.0589L50.8642 57.199Z" fill="#EBEBEB"/>
<path d="M105.116 85.4947L83.9841 85.0185C83.7098 85.0027 83.4417 84.9299 83.197 84.8047C82.9522 84.6795 82.7362 84.5046 82.5626 84.2911C82.389 84.0777 82.2617 83.8303 82.1887 83.5649C82.1158 83.2994 82.0988 83.0216 82.1388 82.7492L83.8891 64.1861C83.8969 63.9145 83.9643 63.648 84.0865 63.4054C84.2088 63.1629 84.3829 62.9503 84.5965 62.7829C84.81 62.6155 85.0578 62.4972 85.3221 62.4366C85.5865 62.376 85.8609 62.3746 86.1259 62.4323L106.816 67.1838C107.521 67.3463 108.024 68.2596 107.935 69.2121L106.592 83.7802C106.492 84.7215 105.838 85.4947 105.116 85.4947Z" fill="#3578DE"/>
<path opacity="0.3" d="M105.116 85.4947L83.9841 85.0185C83.7098 85.0027 83.4417 84.9299 83.197 84.8047C82.9522 84.6795 82.7362 84.5046 82.5626 84.2911C82.389 84.0777 82.2617 83.8303 82.1887 83.5649C82.1158 83.2994 82.0988 83.0216 82.1388 82.7492L83.8891 64.1861C83.8969 63.9145 83.9643 63.648 84.0865 63.4054C84.2088 63.1629 84.3829 62.9503 84.5965 62.7829C84.81 62.6155 85.0578 62.4972 85.3221 62.4366C85.5865 62.376 85.8609 62.3746 86.1259 62.4323L106.816 67.1838C107.521 67.3463 108.024 68.2596 107.935 69.2121L106.592 83.7802C106.492 84.7215 105.838 85.4947 105.116 85.4947Z" fill="white"/>
<path d="M105.508 85.4947L84.5659 85.0184C84.2953 85.0018 84.0311 84.9292 83.7899 84.8052C83.5487 84.6812 83.3357 84.5085 83.1645 84.2979C82.9932 84.0873 82.8673 83.8435 82.7947 83.5818C82.7222 83.32 82.7045 83.0461 82.7429 82.7772L84.482 64.2869C84.4868 64.0192 84.5501 63.7557 84.6675 63.5151C84.7848 63.2746 84.9534 63.0627 85.1613 62.8944C85.3692 62.7261 85.6114 62.6056 85.8708 62.5412C86.1303 62.4769 86.4006 62.4703 86.6629 62.5219L107.163 67.2285C107.868 67.3854 108.365 68.2987 108.281 69.2513L106.945 83.7577C106.855 84.7327 106.201 85.4947 105.508 85.4947Z" fill="#3578DE"/>
<path opacity="0.7" d="M105.508 85.4947L84.5659 85.0184C84.2953 85.0018 84.0311 84.9292 83.7899 84.8052C83.5487 84.6812 83.3357 84.5085 83.1645 84.2979C82.9932 84.0873 82.8673 83.8435 82.7947 83.5818C82.7222 83.32 82.7045 83.0461 82.7429 82.7772L84.482 64.2869C84.4868 64.0192 84.5501 63.7557 84.6675 63.5151C84.7848 63.2746 84.9534 63.0627 85.1613 62.8944C85.3692 62.7261 85.6114 62.6056 85.8708 62.5412C86.1303 62.4769 86.4006 62.4703 86.6629 62.5219L107.163 67.2285C107.868 67.3854 108.365 68.2987 108.281 69.2513L106.945 83.7577C106.855 84.7327 106.201 85.4947 105.508 85.4947Z" fill="white"/>
<path d="M105.586 84.6318L84.6664 83.9482C84.5385 83.9448 84.4127 83.9147 84.2972 83.8597C84.1816 83.8047 84.0788 83.726 83.9954 83.6289C83.8989 83.514 83.8264 83.381 83.7822 83.2376C83.738 83.0942 83.723 82.9433 83.7381 82.794L85.4604 64.4998C85.4731 64.3546 85.5153 64.2135 85.5846 64.0853C85.6538 63.9572 85.7486 63.8446 85.8631 63.7546C85.9663 63.6808 86.0837 63.6292 86.2079 63.6032C86.3321 63.5771 86.4603 63.5772 86.5844 63.6033L107.113 68.0858C107.31 68.169 107.472 68.3171 107.574 68.5056C107.676 68.6941 107.71 68.9116 107.672 69.1224L106.33 83.7409C106.334 83.9543 106.261 84.162 106.124 84.3257C105.987 84.4894 105.796 84.5981 105.586 84.6318ZM86.3663 63.693C86.2029 63.6926 86.0439 63.7457 85.9134 63.8443C85.8104 63.924 85.7253 64.0246 85.6637 64.1395C85.602 64.2544 85.5652 64.381 85.5555 64.511L83.8276 82.8052C83.8022 83.076 83.8846 83.3458 84.0569 83.556C84.131 83.6412 84.2219 83.7101 84.324 83.7583C84.426 83.8065 84.5369 83.833 84.6496 83.8362L105.569 84.5254C105.882 84.5254 106.167 84.178 106.207 83.7465L107.549 69.128C107.586 68.9407 107.556 68.7463 107.465 68.5785C107.375 68.4107 107.228 68.28 107.051 68.2091L86.5285 63.7266C86.4761 63.7086 86.4216 63.6973 86.3663 63.693Z" fill="white"/>
<path d="M96.9465 78.5244H96.734C96.4062 78.4862 96.0892 78.3834 95.8012 78.2218C95.5133 78.0603 95.2601 77.8432 95.0564 77.5831C94.4516 76.8145 94.1725 75.8385 94.2791 74.8656C94.3109 74.3906 94.4388 73.9271 94.6551 73.5032C94.8714 73.0794 95.1716 72.7041 95.5373 72.4002C95.7932 72.1947 96.0887 72.0443 96.4052 71.9585C96.7218 71.8727 97.0526 71.8533 97.377 71.9015C97.7325 71.9642 98.0709 72.1008 98.3704 72.3025C98.6699 72.5042 98.924 72.7665 99.1161 73.0726C99.1211 73.0773 99.1249 73.0829 99.1276 73.0892C99.1303 73.0955 99.1317 73.1022 99.1317 73.109C99.1317 73.1158 99.1303 73.1226 99.1276 73.1288C99.1249 73.1351 99.1211 73.1407 99.1161 73.1454C99.1114 73.1503 99.1058 73.1543 99.0996 73.1569C99.0933 73.1596 99.0866 73.161 99.0798 73.161C99.073 73.161 99.0663 73.1596 99.06 73.1569C99.0538 73.1543 99.0481 73.1503 99.0434 73.1454C98.856 72.8528 98.6103 72.6023 98.3216 72.4094C98.0329 72.2166 97.7075 72.0856 97.3659 72.0248C97.0558 71.9794 96.7398 71.9987 96.4376 72.0817C96.1354 72.1646 95.8536 72.3093 95.61 72.5067C95.2566 72.8004 94.9664 73.1628 94.7569 73.5721C94.5473 73.9814 94.4228 74.4291 94.3909 74.888C94.2879 75.8345 94.5589 76.7839 95.1458 77.5327C95.5492 78.0356 96.1336 78.3595 96.7731 78.4348C97.1104 78.4597 97.4491 78.411 97.7657 78.292C98.0824 78.173 98.3695 77.9866 98.6073 77.7456C98.6177 77.7353 98.6318 77.7296 98.6464 77.7296C98.6611 77.7296 98.6751 77.7353 98.6856 77.7456C98.6947 77.7566 98.6996 77.7705 98.6996 77.7848C98.6996 77.7991 98.6947 77.813 98.6856 77.824C98.4561 78.05 98.1843 78.2282 97.8859 78.3484C97.5874 78.4686 97.2681 78.5284 96.9465 78.5244Z" fill="white"/>
<path d="M98.6122 77.8127C98.5978 77.8179 98.582 77.8179 98.5675 77.8127C98.0815 77.084 97.8657 76.2077 97.9578 75.3362C98.0261 74.4863 98.3997 73.69 99.0094 73.0949C99.0205 73.0845 99.0353 73.079 99.0505 73.0795C99.0657 73.08 99.0801 73.0866 99.0905 73.0977C99.1009 73.1089 99.1064 73.1237 99.1059 73.1389C99.1054 73.1542 99.0988 73.1686 99.0877 73.179C98.4869 73.7567 98.1221 74.5376 98.0641 75.3698C97.9777 76.2139 98.1873 77.0618 98.657 77.7679C98.6628 77.7727 98.6675 77.7786 98.6708 77.7854C98.674 77.7922 98.6757 77.7996 98.6757 77.8071C98.6757 77.8147 98.674 77.8221 98.6708 77.8289C98.6675 77.8357 98.6628 77.8416 98.657 77.8464L98.6122 77.8127Z" fill="white"/>
<path d="M101.492 44.4799C102.258 47.4328 102.923 50.38 103.516 53.3721C103.812 54.8681 104.075 56.3641 104.338 57.8826C104.467 58.639 104.595 59.401 104.702 60.1742L104.858 61.3397L104.948 61.9616L104.987 62.2586L105.02 62.6172C105.14 64.3433 105.054 66.0777 104.763 67.7833C104.512 69.3581 104.176 70.918 103.757 72.4563C102.944 75.4601 101.899 78.3957 100.631 81.2363L97.4991 80.2222C98.0583 77.331 98.5113 74.3669 98.8748 71.4869C99.0537 70.0469 99.1823 68.6125 99.2494 67.2174C99.3301 65.9284 99.2757 64.6345 99.0872 63.3568L99.0537 63.1551L98.9978 62.8974L98.8915 62.3707L98.6567 61.3117L98.159 59.1601L97.1189 54.7896C96.4143 51.8928 95.7153 48.9624 95.061 46.0544L101.492 44.4799Z" fill="#E4897B"/>
<path d="M100.765 78.8326L98.0808 79.208L95.9223 82.7548L94.9717 85.4611L99.2607 85.2482L100.29 83.6065C100.29 83.6065 102.196 81.1747 100.765 78.8326Z" fill="#E4897B"/>
<path d="M97.3767 39.4875C101.85 40.2831 106.743 56.9972 106.743 56.9972L96.4149 60.5328C96.4149 60.5328 92.9703 52.2346 93.6189 47.0853C94.234 41.9977 93.1324 38.7311 97.3767 39.4875Z" fill="#3578DE"/>
<path opacity="0.3" d="M97.3767 39.4875C101.85 40.2831 106.743 56.9972 106.743 56.9972L96.4149 60.5328C96.4149 60.5328 92.9703 52.2346 93.6189 47.0853C94.234 41.9977 93.1324 38.7311 97.3767 39.4875Z" fill="black"/>
<path d="M147.998 43.5796C146.08 42.84 141.081 41.0526 144.151 35.0181C147.221 28.9835 154.703 37.2201 157.247 34.4578C156.912 37.9597 153.92 45.8601 147.998 43.5796Z" fill="#263238"/>
<path d="M144.565 43.7926C142.295 42.6439 141.769 41.5513 141.618 41.0582C141.599 40.9893 141.598 40.9167 141.615 40.8471C141.631 40.7776 141.665 40.7134 141.713 40.6604C142.138 40.1785 143.475 38.8618 144.621 39.9936C145.767 41.1255 146.858 41.2431 145.113 43.6525C145.053 43.7372 144.965 43.7979 144.865 43.8236C144.764 43.8492 144.658 43.8382 144.565 43.7926Z" fill="#3578DE"/>
<path opacity="0.3" d="M144.565 43.7926C142.295 42.6439 141.769 41.5513 141.618 41.0582C141.599 40.9893 141.598 40.9167 141.615 40.8471C141.631 40.7776 141.665 40.7134 141.713 40.6604C142.138 40.1785 143.475 38.8618 144.621 39.9936C145.767 41.1255 146.858 41.2431 145.113 43.6525C145.053 43.7372 144.965 43.7979 144.865 43.8236C144.764 43.8492 144.658 43.8382 144.565 43.7926Z" fill="black"/>
<path d="M141.026 63.5885C138.261 63.3893 135.486 63.3893 132.722 63.5885C134.595 61.8011 134.069 56.6518 133.544 53.9735L137.072 56.9936L138.644 58.3383C138.516 58.8138 138.43 59.2993 138.386 59.7895C138.247 61.4425 138.727 63.0337 141.026 63.5885Z" fill="#E4897B"/>
<path d="M150.101 69.7126C150.196 70.7324 150.314 71.853 150.453 72.9232C150.593 73.9934 150.761 75.0916 150.94 76.1674C151.293 78.3087 151.76 80.4297 152.338 82.5214C152.634 83.5523 152.953 84.5721 153.322 85.5638L153.809 86.8301C153.886 87.0279 154.004 87.2073 154.155 87.3568C154.364 87.5146 154.611 87.6116 154.871 87.637C155.279 87.6806 155.691 87.6693 156.096 87.6034C157.074 87.4324 158.029 87.1485 158.942 86.7573L160.245 88.6344C159.775 89.0632 159.27 89.4513 158.735 89.7942C158.193 90.1541 157.616 90.4582 157.013 90.7019C156.342 90.9779 155.633 91.1517 154.91 91.2174C154.012 91.306 153.107 91.1435 152.296 90.7478C151.484 90.3522 150.798 89.7389 150.314 88.9761C150.098 88.6651 149.911 88.335 149.754 87.99L149.385 87.1663C148.899 86.0457 148.485 84.9251 148.116 83.8045C147.388 81.5692 146.81 79.2873 146.388 76.9743C146.159 75.8537 145.98 74.677 145.829 73.5228C145.678 72.3685 145.549 71.2311 145.477 69.9928L150.101 69.7126Z" fill="#E4897B"/>
<path d="M148.642 64.4905C150.498 64.9612 151.796 72.615 151.796 72.615L146.679 76.1002C146.679 76.1002 141.775 68.3791 143.201 66.3395C144.688 64.216 145.93 63.8125 148.642 64.4905Z" fill="#3578DE"/>
<path opacity="0.7" d="M148.642 64.4905C150.498 64.9612 151.796 72.615 151.796 72.615L146.679 76.1002C146.679 76.1002 141.775 68.3791 143.201 66.3395C144.688 64.216 145.93 63.8125 148.642 64.4905Z" fill="black"/>
<path d="M167.515 77.9772L159.926 76.7613L159.54 78.3302L155.76 86.5387L163.349 87.7546L167.129 79.546L167.515 77.9772Z" fill="#263238"/>
<path d="M167.945 78.05L160.357 76.8341L159.971 78.3974L156.191 86.6115L163.779 87.8274L167.559 79.6133L167.945 78.05Z" fill="#3578DE"/>
<path d="M160.055 88.7464L163.64 85.9448L159.166 85.0035C159.166 85.0035 157.282 87.1999 157.958 88.9257L160.055 88.7464Z" fill="#E4897B"/>
<path d="M164.552 82.2579L160.755 81.6696L159.155 84.9979L163.64 85.9392L164.552 82.2579Z" fill="#E4897B"/>
<path d="M148.642 64.4905C148.642 64.4905 150.784 65.2469 146.489 91.7272H128.198C128.505 84.2639 128.511 79.6693 124.955 64.3616C127.516 63.8432 130.112 63.5117 132.722 63.3699C135.486 63.1707 138.261 63.1707 141.026 63.3699C144.61 63.6724 148.642 64.4905 148.642 64.4905Z" fill="#3578DE"/>
<path opacity="0.7" d="M148.642 64.4905C148.642 64.4905 150.784 65.2469 146.489 91.7272H128.198C128.505 84.2639 128.511 79.6693 124.955 64.3616C127.516 63.8432 130.112 63.5117 132.722 63.3699C135.486 63.1707 138.261 63.1707 141.026 63.3699C144.61 63.6724 148.642 64.4905 148.642 64.4905Z" fill="black"/>
<path d="M138.447 193.317H142.949L143.553 182.867H139.051L138.447 193.317Z" fill="#E4897B"/>
<path d="M117.959 193.317H122.461L124.396 182.867H119.894L117.959 193.317Z" fill="#E4897B"/>
<path d="M122.919 192.802H117.886C117.799 192.801 117.715 192.832 117.649 192.888C117.584 192.945 117.541 193.024 117.528 193.11L116.969 197.122C116.958 197.223 116.969 197.326 117 197.423C117.031 197.52 117.082 197.609 117.151 197.684C117.219 197.76 117.302 197.82 117.395 197.862C117.488 197.903 117.589 197.924 117.69 197.923C119.452 197.895 120.302 197.789 122.528 197.789C123.898 197.789 125.883 197.934 127.79 197.934C129.696 197.934 129.78 196.057 128.992 195.889C125.463 195.127 124.904 194.079 123.719 193.088C123.496 192.898 123.211 192.796 122.919 192.802Z" fill="#263238"/>
<path d="M143.256 192.802H138.196C138.109 192.8 138.024 192.83 137.958 192.887C137.892 192.944 137.849 193.023 137.838 193.11L137.279 197.122C137.268 197.223 137.278 197.326 137.309 197.423C137.341 197.519 137.392 197.609 137.46 197.684C137.528 197.76 137.612 197.82 137.705 197.862C137.798 197.903 137.898 197.924 138 197.923C139.761 197.895 140.611 197.789 142.837 197.789C144.207 197.789 147.037 197.934 148.927 197.934C150.817 197.934 150.917 196.057 150.135 195.889C146.6 195.127 145.214 194.079 144.023 193.088C143.81 192.903 143.538 192.802 143.256 192.802Z" fill="#263238"/>
<path d="M143.553 182.873L143.24 188.258H138.738L139.051 182.873H143.553Z" fill="#CE6F64"/>
<path d="M119.894 182.873H124.396L123.4 188.258H118.893L119.894 182.873Z" fill="#CE6F64"/>
<path d="M133.51 61.9915C132.902 62.2706 132.38 62.7056 131.994 63.2522C132.436 63.975 135.841 65.3254 136.764 65.2413C136.731 64.5067 136.954 63.7835 137.396 63.1962C137.396 63.1962 135.025 63.1177 133.51 61.9915Z" fill="#3578DE"/>
<path d="M139.018 62.1091C139.633 62.3758 140.2 62.7432 140.695 63.1961C140.505 63.8125 139.018 64.9331 138.369 65.1796C138.239 64.4361 137.895 63.7468 137.379 63.1961C138.001 62.9636 138.561 62.5918 139.018 62.1091Z" fill="#3578DE"/>
<path d="M146.489 91.7385C146.489 91.7385 150.04 126.478 149.743 140.256C149.436 154.572 144.202 187.215 144.202 187.215H138.112C138.112 187.215 139.08 155.407 138.537 141.348C137.95 126.024 133.096 91.7385 133.096 91.7385H146.489Z" fill="#3578DE"/>
<path d="M141.658 91.7385C141.658 91.7385 139.046 122.707 136.334 140.161C134.142 154.258 124.429 187.227 124.429 187.227H118.278C118.278 187.227 123.344 155.401 124.429 141.455C127.225 106.155 122.31 99.9246 128.17 91.7497L141.658 91.7385Z" fill="#3578DE"/>
<path opacity="0.57" d="M137.471 77.3749L139.913 77.4612C141.052 77.5015 142.008 76.609 142.048 75.4679L142.131 73.1216C142.171 71.9804 141.28 71.0227 140.141 70.9825L137.699 70.8962C136.56 70.8559 135.605 71.7484 135.564 72.8895L135.482 75.2358C135.442 76.377 136.332 77.3347 137.471 77.3749Z" fill="#3578DE"/>
<path d="M138.644 58.3271C138.517 58.8025 138.431 59.288 138.387 59.7783C137.162 59.5653 135.556 58.3495 135.433 57.1896C135.359 56.7081 135.382 56.2166 135.5 55.744L137.072 56.9823L138.644 58.3271Z" fill="#CE6F64"/>
<path d="M132.095 47.8828C132.369 52.3653 132.392 54.248 134.645 56.5452C138.034 59.9968 143.453 58.68 144.515 54.2199C145.477 50.2025 144.867 43.574 140.5 41.7866C139.539 41.389 138.492 41.2444 137.459 41.3665C136.427 41.4887 135.442 41.8736 134.6 42.4846C133.757 43.0956 133.085 43.9124 132.647 44.8572C132.208 45.8021 132.018 46.8437 132.095 47.8828Z" fill="#E4897B"/>
<path d="M131.396 49.7992C131.376 49.8049 131.355 49.8049 131.335 49.7992C131.318 49.792 131.302 49.7813 131.29 49.7679C131.277 49.7545 131.267 49.7387 131.261 49.7213C131.255 49.704 131.252 49.6855 131.253 49.6671C131.254 49.6487 131.259 49.6307 131.268 49.6143C131.827 48.46 136.34 47.67 136.86 47.5803C138.323 47.3716 139.805 47.334 141.277 47.4683C141.452 47.3851 141.643 47.3419 141.836 47.3419C142.03 47.3419 142.221 47.3851 142.396 47.4683C143.351 47.362 144.315 47.362 145.27 47.4683C145.289 47.4696 145.307 47.4748 145.323 47.4836C145.34 47.4924 145.355 47.5046 145.366 47.5193C145.378 47.5341 145.386 47.5512 145.391 47.5694C145.395 47.5876 145.396 47.6066 145.393 47.6252C145.387 47.6614 145.368 47.694 145.339 47.716C145.309 47.738 145.273 47.7476 145.236 47.7428C144.29 47.6387 143.336 47.6387 142.39 47.7428C142.366 47.7483 142.341 47.7483 142.317 47.7428C142.176 47.6687 142.018 47.63 141.859 47.63C141.699 47.63 141.542 47.6687 141.4 47.7428C141.385 47.7491 141.369 47.7524 141.353 47.7524C141.336 47.7524 141.32 47.7491 141.305 47.7428C139.843 47.6024 138.369 47.6401 136.915 47.8549C135.568 48.0846 131.961 48.8634 131.542 49.7319C131.528 49.7573 131.506 49.7775 131.48 49.7897C131.454 49.8018 131.424 49.8051 131.396 49.7992Z" fill="#263238"/>
<path d="M139.046 51.2392H138.912C138.627 51.2377 138.346 51.1731 138.089 51.0501C137.831 50.9271 137.605 50.7487 137.424 50.5276C136.619 49.5023 136.938 47.7709 136.949 47.7261C136.95 47.7166 136.953 47.7075 136.959 47.6994C136.964 47.6913 136.97 47.6843 136.978 47.679C136.986 47.6737 136.995 47.6702 137.005 47.6687C137.014 47.6671 137.024 47.6676 137.033 47.67C137.042 47.6714 137.05 47.6745 137.058 47.6792C137.065 47.6839 137.072 47.6901 137.077 47.6974C137.083 47.7048 137.086 47.713 137.088 47.7218C137.09 47.7306 137.09 47.7396 137.089 47.7485C137.089 47.7485 136.77 49.4967 137.536 50.4716C137.704 50.6773 137.916 50.8429 138.156 50.9563C138.396 51.0697 138.658 51.1281 138.923 51.1272C139.177 51.1528 139.433 51.1213 139.673 51.035C139.913 50.9488 140.13 50.8099 140.31 50.6285C141.255 49.6704 141.132 47.6532 141.132 47.6308C141.131 47.622 141.132 47.6131 141.135 47.6046C141.137 47.5962 141.142 47.5884 141.147 47.5816C141.153 47.5748 141.16 47.5692 141.168 47.5652C141.176 47.5611 141.184 47.5587 141.193 47.558C141.212 47.5579 141.229 47.5648 141.243 47.5773C141.256 47.5898 141.265 47.6069 141.266 47.6252C141.266 47.7093 141.389 49.7264 140.405 50.7293C140.224 50.9014 140.011 51.0352 139.777 51.1228C139.544 51.2104 139.295 51.25 139.046 51.2392Z" fill="#263238"/>
<path d="M144.006 51.1383C143.791 51.1463 143.577 51.108 143.378 51.0258C143.18 50.9436 143.001 50.8196 142.854 50.662C142.004 49.7263 142.295 47.7764 142.295 47.6924C142.295 47.6831 142.298 47.6741 142.302 47.666C142.307 47.6578 142.313 47.6508 142.32 47.6454C142.328 47.6401 142.336 47.6365 142.346 47.6349C142.355 47.6333 142.364 47.6338 142.373 47.6363C142.382 47.6377 142.39 47.6408 142.398 47.6455C142.406 47.6502 142.412 47.6564 142.417 47.6637C142.423 47.671 142.426 47.6793 142.428 47.6881C142.43 47.6969 142.43 47.7059 142.429 47.7148C142.429 47.7148 142.138 49.6815 142.938 50.5668C143.087 50.7251 143.27 50.8465 143.474 50.9214C143.678 50.9963 143.897 51.0226 144.113 50.9982C144.258 50.9931 144.4 50.9551 144.529 50.8872C144.658 50.8193 144.77 50.7232 144.856 50.606C145.522 49.7207 145.052 47.6307 145.047 47.6083C145.045 47.5899 145.049 47.5714 145.059 47.5561C145.07 47.5407 145.085 47.5294 145.103 47.5243C145.112 47.5218 145.121 47.5213 145.131 47.5229C145.14 47.5244 145.149 47.528 145.157 47.5333C145.165 47.5386 145.172 47.5455 145.177 47.5536C145.182 47.5617 145.185 47.5708 145.187 47.5803C145.187 47.67 145.673 49.7543 144.968 50.69C144.869 50.8233 144.741 50.9327 144.594 51.0102C144.447 51.0878 144.284 51.1315 144.118 51.1383H144.006Z" fill="#263238"/>
<path d="M131.396 50.2474C138.291 48.8466 141.204 42.5431 141.204 42.5431C141.204 42.5431 140.327 39.7415 136.3 40.117C133.096 40.4251 126.626 46.045 131.396 50.2474Z" fill="#263238"/>
<path d="M128.651 43.6469C130.832 42.9465 136.479 41.2712 132.677 34.6539C128.874 28.0367 120.621 36.5142 117.579 33.4324C118.143 37.1977 121.94 45.8041 128.651 43.6469Z" fill="#263238"/>
<path d="M144.56 47.4066C141.965 41.9716 137.514 41.5625 137.514 41.5625C137.514 41.5625 140.013 39.3717 143.441 41.5009C145.896 43.0305 145.516 45.664 144.56 47.4066Z" fill="#263238"/>
<path d="M131.016 50.365C131.109 51.2271 131.539 52.0171 132.213 52.5614C133.108 53.273 133.997 52.5614 134.12 51.4968C134.232 50.5219 133.897 48.9811 132.817 48.6953C132.581 48.636 132.333 48.6366 132.097 48.6971C131.861 48.7576 131.644 48.8761 131.465 49.0418C131.286 49.2076 131.152 49.4154 131.073 49.6464C130.995 49.8774 130.975 50.1244 131.016 50.365Z" fill="#E4897B"/>
<path d="M138.834 49.7935C139.071 49.7935 139.264 49.4974 139.264 49.1323C139.264 48.7671 139.071 48.4711 138.834 48.4711C138.596 48.4711 138.403 48.7671 138.403 49.1323C138.403 49.4974 138.596 49.7935 138.834 49.7935Z" fill="#263238"/>
<path d="M143.011 49.7935C143.249 49.7935 143.442 49.4974 143.442 49.1323C143.442 48.7671 143.249 48.4711 143.011 48.4711C142.773 48.4711 142.58 48.7671 142.58 49.1323C142.58 49.4974 142.773 49.7935 143.011 49.7935Z" fill="#263238"/>
<path d="M142.933 48.4933L143.805 48.2416C143.805 48.2416 143.33 48.924 142.933 48.4933Z" fill="#263238"/>
<path d="M141.881 49.7543C142.207 50.5847 142.643 51.367 143.179 52.0796C142.993 52.212 142.781 52.3021 142.557 52.3437C142.333 52.3853 142.102 52.3774 141.881 52.3206V49.7543Z" fill="#DE5753"/>
<path d="M140.607 53.755C140.119 53.7688 139.634 53.665 139.194 53.4525C138.755 53.2399 138.372 52.9248 138.079 52.5335C138.064 52.5088 138.059 52.4793 138.065 52.4511C138.071 52.423 138.088 52.3983 138.112 52.3822C138.136 52.3676 138.165 52.3629 138.192 52.3692C138.219 52.3755 138.243 52.3922 138.258 52.4159C138.535 52.7729 138.892 53.0601 139.3 53.2546C139.708 53.4491 140.155 53.5457 140.607 53.5365C140.635 53.5378 140.661 53.5495 140.681 53.5692C140.7 53.5889 140.712 53.6152 140.713 53.6429C140.714 53.6574 140.712 53.6718 140.707 53.6854C140.702 53.699 140.694 53.7114 140.684 53.7219C140.674 53.7324 140.662 53.7407 140.649 53.7464C140.636 53.7521 140.621 53.755 140.607 53.755Z" fill="#263238"/>
<path d="M137.827 46.0956C137.781 46.095 137.737 46.0796 137.701 46.0518C137.664 46.024 137.638 45.9852 137.625 45.9412C137.613 45.8971 137.615 45.8502 137.631 45.8074C137.647 45.7645 137.677 45.728 137.715 45.7033C138.091 45.4841 138.512 45.3522 138.945 45.3173C139.379 45.2824 139.815 45.3454 140.221 45.5016C140.247 45.5121 140.271 45.5277 140.291 45.5475C140.312 45.5673 140.328 45.5909 140.339 45.617C140.349 45.6431 140.355 45.6711 140.355 45.6994C140.355 45.7277 140.349 45.7557 140.339 45.7818C140.315 45.8329 140.273 45.8731 140.221 45.8939C140.169 45.9148 140.111 45.9148 140.059 45.8938C139.714 45.7668 139.346 45.7165 138.98 45.7465C138.614 45.7765 138.258 45.8861 137.939 46.0675C137.905 46.0873 137.866 46.097 137.827 46.0956Z" fill="#263238"/>
<path d="M143.878 45.8769C143.836 45.8771 143.796 45.8655 143.761 45.8433C143.54 45.6918 143.286 45.5955 143.02 45.5624C142.754 45.5292 142.485 45.5602 142.233 45.6528C142.208 45.6646 142.18 45.6711 142.152 45.6722C142.123 45.6732 142.095 45.6686 142.069 45.6587C142.042 45.6488 142.018 45.6338 141.997 45.6145C141.977 45.5953 141.96 45.5721 141.948 45.5463C141.936 45.5206 141.93 45.4927 141.929 45.4645C141.928 45.4362 141.932 45.4079 141.942 45.3814C141.952 45.3549 141.967 45.3305 141.986 45.3098C142.006 45.2891 142.029 45.2723 142.054 45.2606C142.371 45.1397 142.713 45.097 143.049 45.136C143.386 45.175 143.709 45.2946 143.99 45.4847C144.037 45.5147 144.071 45.562 144.083 45.6166C144.096 45.6711 144.086 45.7284 144.057 45.7761C144.039 45.807 144.012 45.8326 143.981 45.8503C143.949 45.868 143.914 45.8771 143.878 45.8769Z" fill="#263238"/>
<path d="M124.479 193.586C124.078 193.577 123.678 193.524 123.288 193.429C123.267 193.424 123.247 193.413 123.232 193.397C123.217 193.381 123.208 193.361 123.204 193.34C123.199 193.319 123.201 193.297 123.209 193.277C123.217 193.257 123.231 193.24 123.249 193.228C123.405 193.121 124.781 192.236 125.301 192.477C125.361 192.504 125.412 192.547 125.45 192.599C125.488 192.652 125.512 192.714 125.52 192.779C125.539 192.88 125.532 192.984 125.501 193.082C125.47 193.18 125.415 193.269 125.341 193.34C125.092 193.523 124.787 193.611 124.479 193.586ZM123.601 193.267C124.378 193.424 124.96 193.396 125.19 193.188C125.237 193.14 125.272 193.08 125.291 193.014C125.31 192.949 125.311 192.879 125.296 192.813C125.296 192.785 125.288 192.758 125.273 192.734C125.258 192.71 125.237 192.691 125.212 192.679C124.921 192.555 124.138 192.931 123.584 193.267H123.601Z" fill="#3578DE"/>
<path d="M123.294 193.429C123.276 193.434 123.256 193.434 123.238 193.429C123.222 193.419 123.209 193.405 123.2 193.389C123.191 193.372 123.187 193.353 123.188 193.334C123.188 193.278 123.188 191.978 123.68 191.541C123.741 191.485 123.814 191.444 123.893 191.419C123.973 191.395 124.056 191.389 124.139 191.401C124.224 191.403 124.307 191.434 124.373 191.489C124.439 191.544 124.484 191.619 124.502 191.704C124.603 192.213 123.781 193.188 123.35 193.429C123.332 193.435 123.312 193.435 123.294 193.429ZM124.06 191.603C123.975 191.602 123.893 191.634 123.831 191.692C123.55 192.107 123.403 192.598 123.411 193.099C123.842 192.757 124.345 192.034 124.284 191.726C124.284 191.681 124.245 191.62 124.111 191.603H124.06Z" fill="#3578DE"/>
<path d="M144.946 193.586C144.47 193.577 143.997 193.524 143.531 193.429C143.508 193.425 143.488 193.414 143.472 193.397C143.456 193.381 143.446 193.36 143.442 193.337C143.438 193.315 143.442 193.292 143.451 193.271C143.461 193.25 143.477 193.233 143.497 193.222C143.704 193.116 145.499 192.197 146.053 192.499C146.106 192.527 146.151 192.568 146.183 192.618C146.215 192.668 146.234 192.725 146.238 192.785C146.249 192.882 146.237 192.98 146.203 193.072C146.169 193.163 146.114 193.245 146.042 193.312C145.718 193.524 145.332 193.621 144.946 193.586ZM143.9 193.267C144.89 193.435 145.623 193.39 145.891 193.144C145.937 193.102 145.973 193.049 145.994 192.991C146.016 192.932 146.023 192.869 146.014 192.807C146.015 192.784 146.008 192.762 145.997 192.742C145.985 192.722 145.968 192.706 145.947 192.695C145.651 192.527 144.61 192.919 143.9 193.267Z" fill="#3578DE"/>
<path d="M143.548 193.429C143.528 193.437 143.506 193.437 143.486 193.429C143.47 193.42 143.457 193.405 143.449 193.388C143.442 193.371 143.439 193.353 143.441 193.334C143.441 193.278 143.548 192.062 144.118 191.591C144.199 191.521 144.293 191.469 144.395 191.437C144.497 191.405 144.605 191.395 144.711 191.407C145.024 191.407 145.097 191.608 145.114 191.709C145.198 192.23 144.146 193.194 143.598 193.441L143.548 193.429ZM144.622 191.603C144.488 191.603 144.359 191.65 144.258 191.737C143.931 192.128 143.736 192.612 143.699 193.121C144.258 192.785 144.957 192.029 144.907 191.726C144.907 191.698 144.907 191.625 144.7 191.603H144.622Z" fill="#3578DE"/>
<path d="M138.727 48.4933L139.577 48.2416C139.577 48.2416 139.152 48.924 138.727 48.4933Z" fill="#263238"/>
<path d="M124.686 187.361H117.814L117.875 183.349L126.017 183.439L124.686 187.361Z" fill="#3578DE"/>
<path opacity="0.7" d="M124.686 187.361H117.814L117.875 183.349L126.017 183.439L124.686 187.361Z" fill="white"/>
<path d="M145.007 187.361H137.559L137.614 183.349L145.494 183.439L145.007 187.361Z" fill="#3578DE"/>
<path opacity="0.7" d="M145.007 187.361H137.559L137.614 183.349L145.494 183.439L145.007 187.361Z" fill="white"/>
<path d="M127.996 90.8252L127.174 92.4669C127.107 92.5902 127.258 92.7191 127.47 92.7191H146.651C146.813 92.7191 146.953 92.6406 146.964 92.5341L147.126 90.898C147.126 90.7804 146.997 90.6851 146.813 90.6851H128.292C128.235 90.68 128.177 90.6903 128.125 90.7149C128.073 90.7395 128.028 90.7776 127.996 90.8252Z" fill="#3578DE"/>
<path opacity="0.6" d="M127.996 90.8252L127.174 92.4669C127.107 92.5902 127.258 92.7191 127.47 92.7191H146.651C146.813 92.7191 146.953 92.6406 146.964 92.5341L147.126 90.898C147.126 90.7804 146.997 90.6851 146.813 90.6851H128.292C128.235 90.68 128.177 90.6903 128.125 90.7149C128.073 90.7395 128.028 90.7776 127.996 90.8252Z" fill="white"/>
<path d="M129.702 92.7358H129.204C129.104 92.7358 129.031 92.6854 129.036 92.6237L129.271 90.489C129.271 90.4273 129.361 90.3769 129.462 90.3769H129.959C130.054 90.3769 130.133 90.4273 130.127 90.489L129.892 92.6237C129.887 92.6854 129.797 92.7358 129.702 92.7358Z" fill="#3578DE"/>
<path d="M145.728 92.7358H145.23C145.135 92.7358 145.057 92.6854 145.062 92.6237L145.297 90.489C145.297 90.4273 145.392 90.3769 145.487 90.3769H145.985C146.086 90.3769 146.159 90.4273 146.153 90.489L145.918 92.6237C145.913 92.6854 145.829 92.7358 145.728 92.7358Z" fill="#3578DE"/>
<path d="M139.247 92.7358H138.755C138.654 92.7358 138.582 92.6854 138.587 92.6237L138.817 90.489C138.817 90.4273 138.912 90.3769 139.012 90.3769H139.51C139.605 90.3769 139.684 90.4273 139.672 90.489L139.443 92.6237C139.437 92.6854 139.348 92.7358 139.247 92.7358Z" fill="#3578DE"/>
<path d="M131.637 89.7044H132.448C132.552 89.7028 132.652 89.6641 132.73 89.5953C132.808 89.5265 132.859 89.4321 132.873 89.329C132.881 89.2816 132.877 89.2331 132.864 89.187C132.851 89.1409 132.828 89.0982 132.796 89.0619C132.765 89.0257 132.726 88.9967 132.682 88.977C132.639 88.9574 132.591 88.9475 132.543 88.948H131.749C131.644 88.9498 131.544 88.9893 131.466 89.0593C131.388 89.1292 131.337 89.225 131.324 89.329C131.317 89.3748 131.319 89.4216 131.332 89.4663C131.344 89.5109 131.366 89.5524 131.395 89.588C131.425 89.6235 131.462 89.6523 131.504 89.6724C131.545 89.6925 131.591 89.7034 131.637 89.7044Z" fill="#E0E0E0"/>
<path d="M132.42 90.6907L132.548 89.6261C132.558 89.5639 132.554 89.5002 132.537 89.4396C132.519 89.3791 132.488 89.3232 132.447 89.2761C132.405 89.2289 132.353 89.1916 132.295 89.1669C132.237 89.1421 132.175 89.1306 132.112 89.133C131.974 89.132 131.841 89.1817 131.738 89.2727C131.635 89.3636 131.569 89.4894 131.552 89.6261L131.424 90.6907C131.414 90.7529 131.418 90.8166 131.435 90.8771C131.453 90.9377 131.484 90.9935 131.525 91.0407C131.567 91.0879 131.619 91.1252 131.677 91.1499C131.735 91.1747 131.797 91.1862 131.86 91.1838C131.998 91.1847 132.131 91.135 132.234 91.0441C132.337 90.9532 132.403 90.8273 132.42 90.6907Z" fill="#E0E0E0"/>
<path d="M143.235 89.7044H144.052C144.155 89.7026 144.254 89.6637 144.331 89.5948C144.408 89.5259 144.458 89.4316 144.471 89.329C144.479 89.2816 144.476 89.2331 144.462 89.187C144.449 89.1409 144.426 89.0982 144.394 89.0619C144.363 89.0257 144.324 88.9967 144.28 88.977C144.237 88.9574 144.189 88.9475 144.141 88.948H143.325C143.221 88.9521 143.121 88.9923 143.044 89.0619C142.966 89.1314 142.915 89.2259 142.9 89.329C142.893 89.3765 142.897 89.4249 142.911 89.4707C142.925 89.5166 142.949 89.5588 142.981 89.5945C143.013 89.6302 143.052 89.6586 143.096 89.6775C143.14 89.6965 143.187 89.7057 143.235 89.7044Z" fill="#E0E0E0"/>
<path d="M144.012 90.6907L144.141 89.6261C144.151 89.5639 144.147 89.5002 144.129 89.4396C144.112 89.3791 144.081 89.3232 144.039 89.2761C143.998 89.2289 143.946 89.1916 143.888 89.1669C143.83 89.1421 143.768 89.1306 143.705 89.133C143.567 89.132 143.434 89.1817 143.331 89.2727C143.228 89.3636 143.162 89.4894 143.145 89.6261L143.017 90.6907C143.008 90.7528 143.012 90.816 143.03 90.8761C143.048 90.9362 143.079 90.9917 143.121 91.0386C143.162 91.0855 143.213 91.1228 143.271 91.1479C143.328 91.173 143.39 91.1852 143.453 91.1838C143.59 91.1847 143.723 91.135 143.827 91.0441C143.93 90.9532 143.996 90.8273 144.012 90.6907Z" fill="#E0E0E0"/>
<path d="M129.092 63.3698L130.004 63.2802C130.073 63.2749 130.142 63.2938 130.199 63.3336C130.256 63.3734 130.298 63.4317 130.317 63.4987C134.114 76.1393 132.666 89.3514 132.666 89.3514H131.497C132.38 73.6291 129.322 65.4206 128.841 63.734C128.83 63.6933 128.828 63.6508 128.835 63.6093C128.843 63.5678 128.859 63.5284 128.883 63.4938C128.907 63.4592 128.938 63.4302 128.974 63.4088C129.01 63.3874 129.051 63.3741 129.092 63.3698Z" fill="#3578DE"/>
<path opacity="0.6" d="M129.092 63.3698L130.004 63.2802C130.073 63.2749 130.142 63.2938 130.199 63.3336C130.256 63.3734 130.298 63.4317 130.317 63.4987C134.114 76.1393 132.666 89.3514 132.666 89.3514H131.497C132.38 73.6291 129.322 65.4206 128.841 63.734C128.83 63.6933 128.828 63.6508 128.835 63.6093C128.843 63.5678 128.859 63.5284 128.883 63.4938C128.907 63.4592 128.938 63.4302 128.974 63.4088C129.01 63.3874 129.051 63.3741 129.092 63.3698Z" fill="white"/>
<path d="M143.123 63.3194L143.923 63.4315C143.985 63.4433 144.041 63.4737 144.085 63.5188C144.129 63.5639 144.158 63.6214 144.169 63.6836C146.44 73.5003 144.264 89.3235 144.264 89.3235H143.089C144.577 72.15 143.056 65.2301 142.798 63.65C142.792 63.6056 142.796 63.5603 142.81 63.5177C142.824 63.4751 142.847 63.4362 142.879 63.4042C142.91 63.3722 142.949 63.3479 142.991 63.3332C143.033 63.3185 143.078 63.3138 143.123 63.3194Z" fill="#3578DE"/>
<path opacity="0.6" d="M143.123 63.3194L143.923 63.4315C143.985 63.4433 144.041 63.4737 144.085 63.5188C144.129 63.5639 144.158 63.6214 144.169 63.6836C146.44 73.5003 144.264 89.3235 144.264 89.3235H143.089C144.577 72.15 143.056 65.2301 142.798 63.65C142.792 63.6056 142.796 63.5603 142.81 63.5177C142.824 63.4751 142.847 63.4362 142.879 63.4042C142.91 63.3722 142.949 63.3479 142.991 63.3332C143.033 63.3185 143.078 63.3138 143.123 63.3194Z" fill="white"/>
<path d="M127.415 69.8807C127.415 71.1414 127.454 72.4862 127.527 73.8029C127.599 75.1196 127.655 76.4195 127.789 77.7251C127.924 79.0306 128.091 80.2801 128.349 81.5016C128.472 82.1067 128.611 82.7006 128.774 83.2609C128.859 83.5411 128.949 83.8101 129.042 84.0678L129.171 84.3928C129.168 84.398 129.167 84.4038 129.167 84.4096C129.167 84.4154 129.168 84.4211 129.171 84.4264C129.171 84.4768 129.383 84.6561 129.803 84.7794C130.301 84.9119 130.814 84.9797 131.329 84.9811C132.564 84.9901 133.797 84.8888 135.014 84.6785C136.284 84.4824 137.57 84.2079 138.845 83.8941C140.12 83.5803 141.423 83.2329 142.675 82.8743L143.536 84.9867C141.042 86.2483 138.431 87.2653 135.741 88.0236C134.326 88.4332 132.871 88.6943 131.402 88.8024C130.566 88.8614 129.726 88.8144 128.902 88.6623C128.409 88.5661 127.93 88.4079 127.476 88.1917C126.927 87.933 126.436 87.5651 126.034 87.1103C125.817 86.8659 125.629 86.597 125.474 86.309C125.385 86.1466 125.363 86.0905 125.312 85.9897L125.178 85.7151C125.016 85.3453 124.865 84.9811 124.731 84.5945C124.471 83.8902 124.25 83.1719 124.071 82.4429C123.723 81.0518 123.46 79.641 123.282 78.2181C122.917 75.4322 122.758 72.623 122.807 69.8135L127.415 69.8807Z" fill="#E4897B"/>
<path d="M141.685 83.4458L143.099 79.1146L145.509 83.0368C145.509 83.0368 144.095 85.5638 142.221 85.5246L141.685 83.4458Z" fill="#E4897B"/>
<path d="M146.243 77.0023L148.088 80.3753L145.51 83.0144L143.1 79.1146L146.243 77.0023Z" fill="#E4897B"/>
<path d="M124.954 64.3729C123.12 64.9332 120.922 71.2535 120.922 71.2535L128.03 76.3467C128.03 76.3467 130.624 71.0686 129.853 68.6929C129.053 66.2219 127.046 63.7341 124.954 64.3729Z" fill="#3578DE"/>
<path opacity="0.7" d="M124.954 64.3729C123.12 64.9332 120.922 71.2535 120.922 71.2535L128.03 76.3467C128.03 76.3467 130.624 71.0686 129.853 68.6929C129.053 66.2219 127.046 63.7341 124.954 64.3729Z" fill="black"/>
<path d="M132.196 43.6188C134.684 42.6831 135.383 41.5849 135.551 41.1087C135.578 41.0387 135.587 40.963 135.577 40.8886C135.567 40.8142 135.539 40.7434 135.495 40.6828C135.109 40.1225 133.868 38.6097 132.548 39.6574C131.228 40.7052 130.099 40.7052 131.614 43.4115C131.668 43.5124 131.757 43.5896 131.865 43.6279C131.972 43.6663 132.09 43.663 132.196 43.6188Z" fill="#3578DE"/>
<path opacity="0.3" d="M132.196 43.6188C134.684 42.6831 135.383 41.5849 135.551 41.1087C135.578 41.0387 135.587 40.963 135.577 40.8886C135.567 40.8142 135.539 40.7434 135.495 40.6828C135.109 40.1225 133.868 38.6097 132.548 39.6574C131.228 40.7052 130.099 40.7052 131.614 43.4115C131.668 43.5124 131.757 43.5896 131.865 43.6279C131.972 43.6663 132.09 43.663 132.196 43.6188Z" fill="black"/>
</svg>
