<?xml version="1.0" encoding="UTF-8"?>
<svg width="84px" height="109px" viewBox="0 0 84 109" version="1.1" xmlns="http://www.w3.org/2000/svg" xmlns:xlink="http://www.w3.org/1999/xlink">
    <title>img_3</title>
    <g id="Page-1" stroke="none" stroke-width="1" fill="none" fill-rule="evenodd">
        <g id="Frame-1" transform="translate(-357.000000, -83.000000)">
            <g id="img_3" transform="translate(357.179551, 83.141026)">
                <path d="M37.8190887,6.30172486 C37.8190887,6.30172486 34.9892539,-1.34019977 26.1621095,0.206737122 C15.8567135,2.01103542 13.82047,4.35897428 11.3204657,14.3589173 C8.82046139,24.3588562 10.2752884,30.5949317 7.8204533,43.3589147 C3.63841912,65.0957429 12.6575604,58.5118883 19.2514193,54.016979 C25.845278,49.5220706 24.8775517,27.1589921 24.8775517,27.1589921 L37.8190887,6.30172486 Z" id="Fill-78" fill="#734D13"></path>
                <path d="M33.9689134,5.81171239 C37.4451555,4.35101443 41.9692197,3.92442177 44.3204223,7.35897537 C46.6716265,10.7935263 46.8203716,10.3589561 47.320381,16.358947 C47.8203912,22.358939 43.3329142,36.4677692 39.8203849,41.8589229 C36.8203868,49.358921 39.9376794,47.8036762 38.3204158,56.858932 C36.7031522,65.9141877 38.2318622,61.7986979 31.2064856,55.5075752 C24.1811087,49.2164535 23.8570778,24.8487059 26.477371,15.8551542 C29.0976633,6.86160234 33.9689134,5.81171239 33.9689134,5.81171239 Z" id="Fill-79" fill="#734D13"></path>
                <polygon id="Fill-80" fill="#CE7A63" points="8.59481 108.337721 11.122695 86.5998494 0 88.6219774 1.516731 108.337721"></polygon>
                <path d="M40.951958,66.8841094 L44.995872,108.337749 L10.111777,108.337749 L13.145243,66.8841094 L11.122931,86.5998804 L0.000239,88.6220054 C0.000239,88.6220054 2.022548,58.2900884 4.044856,54.2458344 C6.067164,50.2015804 11.628508,45.6516494 16.684279,46.1573414 C21.74005,46.6630324 34.820193,46.2624704 40.951958,50.7070694 C47.083725,55.1516724 53.729597,70.5266994 54.407832,72.5293314 C55.070215,74.4851574 61.417204,79.0190694 60.180832,82.0080534 C59.786446,82.9614984 60.180714,84.1144374 57.031915,86.7474134 C53.883115,89.3803904 51.259114,88.8537984 48.635114,87.8006064 C46.011115,86.7474134 40.951958,66.8841094 40.951958,66.8841094 Z" id="Fill-81" fill="#407BFF"></path>
                <path d="M22.441413,28.3508099 C22.2863577,33.7742406 20.1969703,44.0977369 16.6991713,46.0997453 C16.6991713,46.0997453 18.3506119,54.6696825 27.4169494,56.8135407 C36.4832878,58.9573992 31.3987195,47.6917162 31.3987195,47.6917162 C26.3018751,45.1407783 28.5703425,42.932861 30.5072261,39.1512606 L22.441413,28.3508099 Z" id="Fill-82" fill="#CE7A63"></path>
                <path d="M25.7573931,32.7354232 L30.5270841,39.1209214 C30.0662742,39.9988969 29.6814827,40.9148931 29.3768317,41.8591371 C27.2205871,41.0138455 24.7101511,37.8662903 25.003881,35.503283 C25.0837291,34.5408932 25.339043,33.6030731 25.7573931,32.7354232 L25.7573931,32.7354232 Z" id="Fill-83" fill-opacity="0.2" fill="#000000"></path>
                <path d="M17.8956771,16.8589285 C17.5969127,25.7542592 17.2947501,29.5131312 21.3623966,34.5196146 C27.4823916,42.0586844 38.5559358,40.6051338 41.518082,32.0045505 C44.1824042,24.267924 44.2053044,11.0204933 35.7876657,6.57569938 C33.9429681,5.59522775 31.8826251,5.09543683 29.801759,5.12363745 C27.7208928,5.15183395 25.6883918,5.70709739 23.8967095,6.73684489 C22.1050285,7.76659577 20.6134741,9.23673904 19.5633192,11.008061 C18.5131663,12.7793784 17.9391717,14.7932409 17.8956771,16.8589285 L17.8956771,16.8589285 Z" id="Fill-84" fill="#CE7A63"></path>
                <path d="M36.6222955,5.79539392 C39.313331,8.23570393 36.5813818,10.7761914 30.5314992,11.6049663 C24.4816169,12.4337401 24.0574145,12.7468851 23.9514527,17.4128673 C23.8454921,22.0788488 14.8039405,24.2816333 15.7499773,19.6575414 C16.6960126,15.0334512 17.0318147,5.91615867 21.9099012,4.51074828 C26.7879867,3.10533767 33.7690534,3.24541983 36.6222955,5.79539392 Z" id="Fill-85" fill="#734C13"></path>
                <path d="M36.5611851,7.96055982 C39.09175,9.4775827 43.7739725,17.6121641 43.8173138,15.3085589 C43.8606543,13.0049524 43.3937074,9.69069131 40.3742779,7.79460438 C38.9652598,6.82098757 37.4277243,6.04744663 35.8069027,5.49675236 L36.5611851,7.96055982 Z" id="Fill-86" fill="#734C13"></path>
                <path d="M14.6926847,23.7037951 C15.1628988,25.3604661 16.2489685,26.7848489 17.7298225,27.6870183 C19.6999992,28.8659262 21.1871216,27.3002416 21.0597672,25.1744155 C20.9423487,23.2576599 19.7861525,20.3395658 17.6049785,20.0231539 C15.4238042,19.706743 14.1396447,21.6768552 14.6926847,23.7037951 Z" id="Fill-87" fill="#CE7A63"></path>
                <path d="M37.3361475,23.1623581 C37.3361475,23.1623581 38.2741405,26.3891062 39.4951807,28.0268262 C38.4496862,28.8146025 36.8567355,28.2381187 36.8567355,28.2381187 L37.3361475,23.1623581 Z" id="Fill-88" fill="#BA4D3C"></path>
                <path d="M28.8379581,16.618736 C28.7945445,16.6308964 28.7485864,16.6317947 28.7044405,16.6213553 C28.6602945,16.610916 28.619428,16.5894861 28.5857191,16.5590883 C28.5603237,16.5335396 28.5401984,16.5033197 28.5265109,16.4701669 C28.5128244,16.4370143 28.5058498,16.4015844 28.5059697,16.3659122 C28.5060927,16.3302399 28.5133181,16.2950237 28.5272286,16.2623029 C28.54114,16.2295823 28.5614647,16.1999956 28.5870319,16.1752459 C29.0336825,15.708949 29.5887302,15.3583705 30.2047564,15.1534593 C30.8207816,14.9485478 31.4794621,14.8953918 32.1245146,14.9985492 C32.1639145,15.0014535 32.2023138,15.0128201 32.2370581,15.0318498 C32.2718036,15.0508787 32.3020688,15.0771238 32.3257538,15.1087701 C32.3494379,15.1404162 32.3659722,15.1767092 32.3742294,15.2151365 C32.3824863,15.2535648 32.3822561,15.2932084 32.3735625,15.3313326 C32.3648692,15.3694557 32.3479206,15.4051459 32.3238794,15.4359365 C32.2998382,15.4667272 32.2692906,15.4918866 32.2343358,15.5096662 C32.1993801,15.5274456 32.160855,15.5374225 32.1214306,15.5389122 C32.0820069,15.5404032 32.0426204,15.5333653 32.0059958,15.5182908 C31.4490761,15.4403219 30.8831175,15.4944079 30.3545724,15.6761065 C29.8260283,15.8578054 29.3499766,16.1619333 28.9655102,16.5635246 C28.9279467,16.5914577 28.8842997,16.6103537 28.8379581,16.618736 Z" id="Fill-89" fill="#5B3700"></path>
                <path d="M34.21174,20.4123567 C34.2702634,20.4145905 34.3267396,20.4354668 34.3727825,20.471886 C34.4188265,20.5083055 34.4519874,20.5583343 34.467351,20.6145433 C34.482714,20.670751 34.4794584,20.7301504 34.4580675,20.7839281 C34.4366775,20.8377059 34.3982918,20.8829954 34.3486029,20.9130847 C33.8041648,21.2615109 33.1820518,21.4748636 32.5340747,21.5353938 C31.8860966,21.5959238 31.2310041,21.5018773 30.6233272,21.2610745 C30.5579924,21.2286896 30.5076491,21.1724679 30.4829965,21.1043609 C30.4583443,21.036253 30.461313,20.9616239 30.4912914,20.8963305 C30.521474,20.8320923 30.5761735,20.7825963 30.6434803,20.7586159 C30.7107872,20.7346354 30.7852661,20.738113 30.8506747,20.7682929 C31.3751333,20.9733771 31.9398459,21.0518756 32.4978293,20.9972543 C33.0558127,20.9426329 33.5909256,20.7564739 34.0586376,20.4542662 C34.1043006,20.4257947 34.1575001,20.4112311 34.21174,20.4123567 L34.21174,20.4123567 Z" id="Fill-90" fill="#5B3700"></path>
                <path d="M43.0961736,21.7401131 C43.1406928,21.7400455 43.1846121,21.751392 43.223677,21.773052 C43.2627426,21.7947133 43.2956311,21.8259588 43.3191366,21.8637451 C43.3575475,21.9258821 43.3700403,22.0001764 43.3539424,22.0706804 C43.3378443,22.1411855 43.294439,22.2022783 43.2330355,22.2408422 C42.6886727,22.5889824 42.0664886,22.8016435 41.4186119,22.8610181 C40.7707362,22.920393 40.1160307,22.8247531 39.5093239,22.5821022 C39.4441712,22.5513723 39.3935833,22.4965095 39.3685688,22.4294575 C39.3435532,22.3624063 39.3461369,22.2885914 39.3757617,22.224092 C39.4076108,22.1596926 39.4636825,22.1104571 39.5320581,22.0868493 C39.6004339,22.0632405 39.6757249,22.0671186 39.7419383,22.0976593 C40.2657758,22.303517 40.8303773,22.3817094 41.3878916,22.325591 C41.945406,22.2694725 42.4793975,22.0807068 42.9446089,21.7752931 C42.9908274,21.7501606 43.0432053,21.7380004 43.0961736,21.7401131 L43.0961736,21.7401131 Z" id="Fill-91" fill="#5B3700"></path>
                <path d="M42.9544154,16.7950044 C42.9077145,16.8095798 42.857745,16.8113091 42.8098099,16.8 C42.7618758,16.7886911 42.7177698,16.7647669 42.6821695,16.7307746 C42.3419288,16.2829354 41.8984558,15.9219047 41.3895441,15.6784465 C40.8806335,15.4349886 40.3213694,15.3163196 39.7594176,15.3325582 C39.6876019,15.3385618 39.6158824,15.3167468 39.5593105,15.2716907 C39.5027396,15.2266348 39.4657135,15.1618346 39.4559894,15.0908891 C39.4516309,15.0554412 39.4544056,15.0195793 39.4641472,14.9853723 C39.4738898,14.9511656 39.4904051,14.9192975 39.5127441,14.8916132 C39.5350832,14.863929 39.5628025,14.8409734 39.5942892,14.8240856 C39.6257769,14.8071981 39.6604123,14.796711 39.696186,14.793226 C40.347159,14.7674743 40.9968113,14.8966466 41.5907947,15.1699377 C42.184778,15.4432288 42.705811,15.8526912 43.1103005,16.364061 C43.1333445,16.391714 43.1506794,16.4235536 43.1613062,16.4577352 C43.171933,16.4919168 43.1756353,16.5277585 43.1722058,16.5631958 C43.1687752,16.5986338 43.1582745,16.6329668 43.141317,16.6641933 C43.1243596,16.6954197 43.1012808,16.7229253 43.0734111,16.7451253 C43.039534,16.772772 42.99823,16.7900867 42.9544154,16.7950044 L42.9544154,16.7950044 Z" id="Fill-92" fill="#5B3700"></path>
                <path d="M19.6417372,21.7112513 L24.8783765,27.2620626 C24.8783765,27.2620626 24.876702,31.8882188 22.0652231,33.1612291 L18.2229698,27.879278 C18.2229698,27.879278 19.1125957,37.5578443 30.0750547,40.9929841 C41.0375123,44.4281255 42.7226595,29.013477 42.7226595,29.013477 C42.7226595,29.013477 39.053677,25.2950078 37.00824,25.1164884 C34.9628013,24.9379673 29.7650333,25.8367116 27.312708,25.7833129 C24.8603834,25.7299162 19.6417372,21.7112513 19.6417372,21.7112513 Z" id="Fill-93" fill="#FFFFFF"></path>
                <path d="M69.1020533,47.7793549 C69.6282853,47.7793549 70.1485203,48.3061443 70.1531394,49.3592075 C70.1550138,49.7866477 69.0966459,51.9778773 68.5836467,53.5719729 C68.2657836,54.4649605 69.7272546,54.8494053 71.7260522,55.1516954 C73.7021669,55.4505556 76.2034825,55.6753501 78.0298,55.1517594 C77.3161605,57.3342766 67.5276538,59.8910579 67.5276538,59.8910579 C67.5276538,59.8910579 60.4443343,61.4709085 60.9691345,59.3645258 C61.4939346,57.2581431 62.8044553,56.2048867 64.903655,54.6250992 C65.9850934,52.4983472 66.9262984,51.3587787 67.5276538,49.8857386 C67.8061253,49.2036117 68.5758214,47.7793549 69.1020533,47.7793549 Z" id="Fill-94" fill="#C46950"></path>
                <path d="M80.0193998,51.9753021 L80.2294149,52.0558259 L80.4335803,52.1425978 L80.0193998,51.9753021 Z M80.0193998,51.9753021 L80.4335803,52.1425978 L80.814925,52.3297895 L80.0193998,51.9753021 Z M79.5912668,51.838104 L79.8058977,51.9023028 L80.0193998,51.9753021 L79.5912668,51.838104 Z M80.4335803,52.1425978 L80.6295366,52.2343447 L80.814925,52.3297895 L80.4335803,52.1425978 Z M80.814925,52.3297895 L80.9873849,52.4276586 L81.1445541,52.5266778 L80.814925,52.3297895 Z M80.0193998,51.9753021 L80.814925,52.3297895 L81.4035815,52.7230609 L80.0193998,51.9753021 Z M80.814925,52.3297895 L81.1445541,52.5266778 L81.4035815,52.7230609 L80.814925,52.3297895 Z M81.1445541,52.5266778 L81.2840738,52.62557 L81.4035815,52.7230609 L81.1445541,52.5266778 Z M81.4035815,52.7230609 L81.500716,52.8178766 L81.5731143,52.9087396 L81.4035815,52.7230609 Z M62.8117593,47.1962103 L79.5912668,51.838104 L80.0193998,51.9753021 L62.8117593,47.1962103 Z M80.0193998,51.9753021 L81.4035815,52.7230609 L83.2289955,55.7750468 L80.0193998,51.9753021 Z M81.4035815,52.7230609 L81.5731143,52.9087396 L83.3343554,55.5558505 L81.4035815,52.7230609 Z M62.8117593,47.1962103 L63.0187929,47.2487773 L79.5912668,51.838104 L62.8117593,47.1962103 Z M62.1578544,47.1191404 L62.8117593,47.1962103 L80.0193998,51.9753021 L62.1578544,47.1191404 Z M81.5731143,52.9087396 L83.2902573,55.4727541 L83.3343554,55.5558505 L81.5731143,52.9087396 Z M81.4035815,52.7230609 L83.3343554,55.5558505 L83.2289955,55.7750468 L81.4035815,52.7230609 Z M62.4472755,47.1315353 L62.6208052,47.1572125 L62.8117593,47.1962103 L62.4472755,47.1315353 Z M62.1578544,47.1191404 L62.4472755,47.1315353 L62.8117593,47.1962103 L62.1578544,47.1191404 Z M62.1578544,47.1191404 L62.2925118,47.118928 L62.4472755,47.1315353 L62.1578544,47.1191404 Z M63.6000294,50.0216009 L62.1578544,47.1191404 L80.0193998,51.9753021 L63.6000294,50.0216009 Z M61.9542429,47.1570296 L62.0446502,47.1319245 L62.1578544,47.1191404 L61.9542429,47.1570296 Z M83.3343554,55.5558505 L83.34894,55.6278802 L83.3353486,55.6885917 L83.3343554,55.5558505 Z M61.8471952,47.2432069 L61.9542429,47.1570296 L62.1578544,47.1191404 L61.8471952,47.2432069 Z M63.6000294,50.0216009 L80.0193998,51.9753021 L83.2289955,55.7750468 L63.6000294,50.0216009 Z M83.3353486,55.6885917 L83.075845,56.3408928 L83.0354137,56.3900438 L83.3353486,55.6885917 Z M83.3343554,55.5558505 L83.3353486,55.6885917 L83.2289955,55.7750468 L83.3343554,55.5558505 Z M61.8471952,47.2432069 L61.8879756,47.1942062 L61.9542429,47.1570296 L61.8471952,47.2432069 Z M83.2949209,55.7377312 L83.3353486,55.6885917 L83.0354137,56.3900438 L83.2949209,55.7377312 Z M83.2949209,55.7377312 L83.0354137,56.3900438 L82.9694843,56.4273696 L83.2949209,55.7377312 Z M83.3353486,55.6885917 L83.2949209,55.7377312 L83.2289955,55.7750468 L83.3353486,55.6885917 Z M61.8471952,47.2432069 L61.8332454,47.3037805 L61.5878914,47.8956034 L61.8471952,47.2432069 Z M83.2289955,55.7750468 L83.2949209,55.7377312 L82.9694843,56.4273696 L83.2289955,55.7750468 Z M61.8332454,47.3037805 L61.5739357,47.9561865 L61.5878914,47.8956034 L61.8332454,47.3037805 Z M83.2289955,55.7750468 L82.9694843,56.4273696 L82.8793932,56.4526185 L83.2289955,55.7750468 Z M61.847473,47.3756771 L61.8332454,47.3037805 L61.8471952,47.2432069 L61.847473,47.3756771 Z M83.1389081,55.8002863 L83.2289955,55.7750468 L82.8793932,56.4526185 L83.1389081,55.8002863 Z M61.8332454,47.3037805 L61.847473,47.3756771 L61.5739357,47.9561865 L61.8332454,47.3037805 Z M61.847473,47.3756771 L61.5881579,48.0280939 L61.5739357,47.9561865 L61.847473,47.3756771 Z M83.1389081,55.8002863 L82.8793932,56.4526185 L82.7664822,56.4655394 L83.1389081,55.8002863 Z M83.2289955,55.7750468 L83.1389081,55.8002863 L83.0259998,55.8131977 L83.2289955,55.7750468 Z M83.0259998,55.8131977 L83.1389081,55.8002863 L82.7664822,56.4655394 L83.0259998,55.8131977 Z M61.847473,47.3756771 L61.8912201,47.4586493 L61.5881579,48.0280939 L61.847473,47.3756771 Z M61.8912201,47.4586493 L61.6319032,48.1110762 L61.5881579,48.0280939 L61.8912201,47.4586493 Z M83.0259998,55.8131977 L82.7664822,56.4655394 L82.6320875,56.4658786 L83.0259998,55.8131977 Z M83.2289955,55.7750468 L83.0259998,55.8131977 L82.737071,55.801026 L83.2289955,55.7750468 Z M82.8916066,55.8135277 L83.0259998,55.8131977 L82.6320875,56.4658786 L82.8916066,55.8135277 Z M82.8916066,55.8135277 L82.6320875,56.4658786 L82.4775499,56.4533847 L82.8916066,55.8135277 Z M83.0259998,55.8131977 L82.8916066,55.8135277 L82.737071,55.801026 L83.0259998,55.8131977 Z M82.737071,55.801026 L82.8916066,55.8135277 L82.4775499,56.4533847 L82.737071,55.801026 Z M82.737071,55.801026 L82.4775499,56.4533847 L82.304208,56.4278036 L82.737071,55.801026 Z M82.5637308,55.7754381 L82.737071,55.801026 L82.304208,56.4278036 L82.5637308,55.7754381 Z M82.5637308,55.7754381 L82.304208,56.4278036 L82.1134017,56.388886 L82.5637308,55.7754381 Z M82.737071,55.801026 L82.5637308,55.7754381 L82.3729239,55.7365137 L82.737071,55.801026 Z M82.3729239,55.7365137 L82.5637308,55.7754381 L82.1134017,56.388886 L82.3729239,55.7365137 Z M82.3729239,55.7365137 L82.1134017,56.388886 L81.9064718,56.3363774 L82.3729239,55.7365137 Z M82.1659944,55.6839988 L82.3729239,55.7365137 L81.9064718,56.3363774 L82.1659944,55.6839988 Z M63.6000294,50.0216009 L61.8471952,47.2432069 L62.1578544,47.1191404 L63.6000294,50.0216009 Z M63.6000294,50.0216009 L61.847473,47.3756771 L61.8471952,47.2432069 L63.6000294,50.0216009 Z M63.6000294,50.0216009 L61.8912201,47.4586493 L61.847473,47.3756771 L63.6000294,50.0216009 Z M61.8912201,47.4586493 L63.6000294,50.0216009 L61.6319032,48.1110762 L61.8912201,47.4586493 Z M83.2289955,55.7750468 L82.737071,55.801026 L65.5829949,51.09333 L83.2289955,55.7750468 Z M82.737071,55.801026 L82.3729239,55.7365137 L65.5829949,51.09333 L82.737071,55.801026 Z M82.1659944,55.6839988 L81.9064718,56.3363774 L65.3234991,51.7460796 L82.1659944,55.6839988 Z M82.3729239,55.7365137 L82.1659944,55.6839988 L65.5829949,51.09333 L82.3729239,55.7365137 Z M63.6000294,50.0216009 L63.3405725,50.6743122 L61.6319032,48.1110762 L63.6000294,50.0216009 Z M83.2289955,55.7750468 L64.7395413,50.7884558 L63.6000294,50.0216009 L83.2289955,55.7750468 Z M83.2289955,55.7750468 L65.5829949,51.09333 L64.7395413,50.7884558 L83.2289955,55.7750468 Z M65.5829949,51.09333 L82.1659944,55.6839988 L65.3234991,51.7460796 L65.5829949,51.09333 Z M63.6000294,50.0216009 L63.6722262,50.1125184 L63.3405725,50.6743122 L63.6000294,50.0216009 Z M63.6722262,50.1125184 L63.4127636,50.7652414 L63.3405725,50.6743122 L63.6722262,50.1125184 Z M63.7692156,50.2074014 L63.6722262,50.1125184 L63.6000294,50.0216009 L63.7692156,50.2074014 Z M63.6722262,50.1125184 L63.7692156,50.2074014 L63.4127636,50.7652414 L63.6722262,50.1125184 Z M63.7692156,50.2074014 L63.5097488,50.8601323 L63.4127636,50.7652414 L63.7692156,50.2074014 Z M64.0281308,50.4039583 L63.7692156,50.2074014 L63.6000294,50.0216009 L64.0281308,50.4039583 Z M63.7692156,50.2074014 L63.8886383,50.3049736 L63.5097488,50.8601323 L63.7692156,50.2074014 Z M63.8886383,50.3049736 L63.6291675,50.9577117 L63.5097488,50.8601323 L63.8886383,50.3049736 Z M64.0281308,50.4039583 L63.8886383,50.3049736 L63.7692156,50.2074014 L64.0281308,50.4039583 Z M63.8886383,50.3049736 L64.0281308,50.4039583 L63.6291675,50.9577117 L63.8886383,50.3049736 Z M64.0281308,50.4039583 L63.7686556,51.0567021 L63.6291675,50.9577117 L64.0281308,50.4039583 Z M64.7395413,50.7884558 L64.0281308,50.4039583 L63.6000294,50.0216009 L64.7395413,50.7884558 Z M64.1853309,50.5030759 L63.925852,51.1558236 L63.7686556,51.0567021 L64.1853309,50.5030759 Z M64.0281308,50.4039583 L64.1853309,50.5030759 L63.7686556,51.0567021 L64.0281308,50.4039583 Z M64.3578748,50.6010504 L64.0983922,51.253802 L63.925852,51.1558236 L64.3578748,50.6010504 Z M64.1853309,50.5030759 L64.3578748,50.6010504 L63.925852,51.1558236 L64.1853309,50.5030759 Z M64.3578748,50.6010504 L64.1853309,50.5030759 L64.0281308,50.4039583 L64.3578748,50.6010504 Z M65.5829949,51.09333 L65.3234991,51.7460796 L65.1085312,51.6817998 L65.5829949,51.09333 Z M64.5433993,50.6966019 L64.2839121,51.3493571 L64.0983922,51.253802 L64.5433993,50.6966019 Z M64.7395413,50.7884558 L64.3578748,50.6010504 L64.0281308,50.4039583 L64.7395413,50.7884558 Z M64.3578748,50.6010504 L64.5433993,50.6966019 L64.0983922,51.253802 L64.3578748,50.6010504 Z M65.3680278,51.0290483 L65.1085312,51.6817998 L64.8947243,51.6087119 L65.3680278,51.0290483 Z M64.7395413,50.7884558 L64.4800501,51.4412127 L64.2839121,51.3493571 L64.7395413,50.7884558 Z M65.3680278,51.0290483 L65.5829949,51.09333 L65.1085312,51.6817998 L65.3680278,51.0290483 Z M64.5433993,50.6966019 L64.7395413,50.7884558 L64.2839121,51.3493571 L64.5433993,50.6966019 Z M64.9439339,50.875333 L64.6844433,51.5280911 L64.4800501,51.4412127 L64.9439339,50.875333 Z M65.1542192,50.9559565 L64.8947243,51.6087119 L64.6844433,51.5280911 L65.1542192,50.9559565 Z M64.7395413,50.7884558 L64.5433993,50.6966019 L64.3578748,50.6010504 L64.7395413,50.7884558 Z M65.1542192,50.9559565 L65.3680278,51.0290483 L64.8947243,51.6087119 L65.1542192,50.9559565 Z M65.5829949,51.09333 L65.3680278,51.0290483 L65.1542192,50.9559565 L65.5829949,51.09333 Z M64.7395413,50.7884558 L64.9439339,50.875333 L64.4800501,51.4412127 L64.7395413,50.7884558 Z M65.5829949,51.09333 L65.1542192,50.9559565 L64.7395413,50.7884558 L65.5829949,51.09333 Z M64.9439339,50.875333 L65.1542192,50.9559565 L64.6844433,51.5280911 L64.9439339,50.875333 Z M65.1542192,50.9559565 L64.9439339,50.875333 L64.7395413,50.7884558 L65.1542192,50.9559565 Z" id="Fill-95" fill="#000000"></path>
                <path d="M65.4352572,49.3590245 C66.2518555,49.3590245 66.7042597,50.5678181 67.0104273,50.9389431 C67.3165959,51.310068 67.7368027,51.9920973 68.3179463,54.7719418 C68.0933132,55.577962 67.6501739,56.338623 67.2317843,57.3090591 C67.4997522,57.1714156 67.6749645,57.1509433 67.7368006,57.0728293 C67.7368006,57.0728293 70.0317272,54.2897811 70.0906283,53.5369342 C70.1495283,52.7840875 68.5828435,49.8857443 69.628008,49.8857446 C70.6731715,49.8857451 71.4248752,51.4654714 71.4248752,51.4654714 C71.4248752,51.4654714 72.2326665,52.7983124 72.3757673,53.3482916 C72.5188641,53.8982702 70.1566785,58.3112651 70.1566785,58.3112651 C70.7523665,57.6391113 73.3756635,54.5065028 73.6470701,53.833011 C73.9184767,53.1595201 72.776809,51.9920966 72.776809,51.9920966 C72.2564466,51.4654716 72.2589034,50.4031312 72.7768133,50.4123099 C73.2947232,50.4214886 74.3576349,51.4653826 74.8760131,51.9920963 C75.3943953,52.5188106 75.5723791,53.2668398 75.404547,54.6250656 C75.2367187,55.9832899 73.3053435,57.7846402 73.3053435,57.7846402 C74.0562179,57.3488882 76.2114983,55.3242824 76.3328231,54.4480778 C76.3328231,54.4480778 75.6179516,52.3348509 76.3328264,51.9920964 C77.3276293,51.5151253 78.2376423,54.448141 78.2376423,54.448141 C78.2376423,54.448141 78.5486098,55.8344596 77.4990199,57.072828 C76.4494272,58.3111977 75.0533646,59.8908911 74.3502167,60.4175343 C73.6470647,60.944177 67.0162565,61.9899544 66.4848378,62.2569594 C65.9534193,62.5239653 64.3612671,71.2195987 64.3612671,71.2195987 C63.1349757,74.3756412 61.9437158,77.5275895 60.7174234,80.6836321 C60.5525434,81.0927833 60.3567417,81.540991 60.1918606,81.9501424 C59.1633275,83.1690896 58.165713,84.3489979 56.5558277,84.8560974 C55.6344247,85.1764234 54.7315635,85.352802 53.7524082,85.1836563 C51.6889687,84.8576484 49.8810316,83.0839998 49.3717278,80.8750789 C49.2954352,80.5295503 49.1840959,80.1881157 49.4190623,79.7707754 C52.7827994,73.9547809 56.1424174,68.1038242 59.4669867,62.2569616 C59.9946294,61.3092046 60.5181522,60.3264865 61.0416698,59.343767 C61.2972608,59.1012392 61.5136771,58.8278372 61.8125617,58.6511378 C62.6391311,58.1292286 63.4698331,57.642285 64.2964025,57.1203758 C64.4942842,56.9909223 64.6097041,56.7647695 64.764291,56.5694858 C65.520734,55.4532182 65.9522539,53.8330118 65.9522539,53.8330118 C65.8625721,53.1009101 65.4222399,52.393149 65.1657423,51.6660469 C64.9092437,50.9389438 64.6186559,49.3590245 65.4352572,49.3590245 Z" id="Fill-96" fill="#CE7A63"></path>
                <path d="M45.3356739,31.911362 C45.066128,32.0997791 45.0003605,32.4710307 45.1887777,32.7405755 C45.3771939,33.0101203 45.7484453,33.0758888 46.0179902,32.8874716 L45.3356739,31.911362 Z M59.0909813,33.7341495 C59.3605271,33.5457333 59.4262946,33.1744818 59.2378774,32.904936 C59.0494603,32.6353911 58.6782098,32.5696237 58.408664,32.7580398 L59.0909813,33.7341495 Z M45.676832,32.3994173 C46.0179902,32.8874716 46.0177466,32.8876423 46.0175137,32.8878045 C46.0174517,32.8878476 46.0172303,32.8880026 46.0171064,32.8880888 C46.0168578,32.8882611 46.0166552,32.8884023 46.0164989,32.8885104 C46.0161863,32.8887267 46.0160573,32.8888155 46.0161108,32.8887789 C46.0162178,32.8887047 46.0170536,32.8881315 46.0186085,32.8870848 C46.0217184,32.8849894 46.0276956,32.8810024 46.0364545,32.8753296 C46.0539818,32.8639787 46.0825796,32.8459212 46.1215635,32.8227984 C46.1996274,32.7764929 46.3187151,32.710243 46.4733686,32.6369771 C46.7836866,32.4899657 47.2308353,32.3177239 47.7725821,32.2189725 C48.8413646,32.0241517 50.299005,32.1089053 51.8516875,33.2958344 L52.5749666,32.3496771 C50.7162293,30.9287876 48.905623,30.8018707 47.5590126,31.0473353 C46.893063,31.1687267 46.345728,31.3796173 45.9634884,31.5607017 C45.7718627,31.6514827 45.6201521,31.7355213 45.5139872,31.7984945 C45.4608564,31.8300095 45.4189833,31.8563373 45.3890675,31.8757123 C45.374104,31.8854025 45.3621174,31.8933635 45.3531932,31.8993753 C45.3487305,31.9023821 45.3450319,31.9049023 45.3421091,31.9069086 C45.3406472,31.9079123 45.33938,31.9087872 45.3383067,31.9095304 C45.3377706,31.9099025 45.3372827,31.9102407 45.336843,31.9105459 C45.3366237,31.910699 45.3363309,31.9109025 45.3362057,31.9109796 C45.3359415,31.9111749 45.3356739,31.911362 45.676832,32.3994173 Z M51.8516875,33.2958344 C53.7104249,34.7167239 55.5210311,34.8436407 56.8676425,34.5981762 C57.5335911,34.4767847 58.0809272,34.2658942 58.4631656,34.0848107 C58.6547914,33.9940287 58.806503,33.9099902 58.9126668,33.8470179 C58.9657977,33.8155029 59.0076719,33.7891742 59.0375876,33.7698001 C59.0525502,33.7601089 59.0645367,33.752148 59.0734619,33.7461362 C59.0779245,33.7431304 59.0816222,33.7406101 59.084545,33.7386028 C59.0860069,33.7375992 59.0872751,33.7367243 59.0883484,33.7359811 C59.0888845,33.73561 59.0893724,33.7352708 59.0898111,33.7349655 C59.0900304,33.7348134 59.0903232,33.7346089 59.0904484,33.7345328 C59.0907126,33.7343365 59.0909813,33.7341495 58.7498231,33.2460952 C58.408664,32.7580398 58.4089085,32.7578692 58.4091405,32.7577069 C58.4092034,32.7576639 58.4094238,32.7575098 58.4095486,32.7574237 C58.4097963,32.7572503 58.4099998,32.7571102 58.4101551,32.757002 C58.4104688,32.7567848 58.4105968,32.7566969 58.4105433,32.7567335 C58.4104363,32.7568068 58.4096006,32.7573799 58.4080456,32.7584276 C58.4049357,32.760523 58.3989585,32.7645101 58.3901996,32.7701818 C58.3726724,32.7815328 58.3440745,32.7995902 58.3050905,32.822714 C58.2270267,32.8690186 58.10794,32.9352685 57.9532865,33.0085354 C57.6429674,33.1555467 57.1958198,33.3277876 56.654073,33.4265389 C55.5852905,33.6213598 54.127649,33.5366072 52.5749666,32.3496771 L51.8516875,33.2958344 Z" id="Fill-97" fill="#BDCCE3"></path>
                <path d="M45.0661429,36.070938 C44.796597,36.2593551 44.7308295,36.6306067 44.9192467,36.9001515 C45.1076629,37.1696963 45.4789143,37.2354648 45.7484592,37.0470476 L45.0661429,36.070938 Z M58.8214503,37.8937255 C59.0909961,37.7053093 59.1567636,37.3340578 58.9683464,37.064512 C58.7799293,36.7949671 58.4086788,36.7291997 58.139133,36.9176158 L58.8214503,37.8937255 Z M45.407301,36.5589933 C45.7484592,37.0470476 45.7482156,37.0472183 45.7479827,37.0473805 C45.7479207,37.0474236 45.7476993,37.0475786 45.7475754,37.0476648 C45.7473268,37.0478371 45.7471242,37.0479783 45.7469679,37.0480864 C45.7466553,37.0483027 45.7465263,37.0483915 45.7465798,37.0483549 C45.7466868,37.0482807 45.7475226,37.0477075 45.7490775,37.0466608 C45.7521874,37.0445654 45.7581646,37.0405784 45.7669235,37.0349056 C45.7844508,37.0235547 45.8130486,37.0054972 45.8520325,36.9823744 C45.9300964,36.9360689 46.0491841,36.869819 46.2038376,36.7965531 C46.5141556,36.6495417 46.9613043,36.4772999 47.5030511,36.3785485 C48.5718336,36.1837277 50.029474,36.2684813 51.5821565,37.4554104 L52.3054356,36.5092531 C50.4466983,35.0883636 48.636092,34.9614467 47.2894816,35.2069113 C46.623532,35.3283027 46.076197,35.5391933 45.6939574,35.7202777 C45.5023317,35.8110587 45.3506211,35.8950973 45.2444562,35.9580705 C45.1913254,35.9895855 45.1494523,36.0159133 45.1195365,36.0352883 C45.104573,36.0449785 45.0925864,36.0529395 45.0836622,36.0589513 C45.0791995,36.0619581 45.0755009,36.0644783 45.0725781,36.0664846 C45.0711162,36.0674883 45.069849,36.0683632 45.0687757,36.0691064 C45.0682396,36.0694785 45.0677517,36.0698167 45.067312,36.0701219 C45.0670927,36.070275 45.0667999,36.0704785 45.0666747,36.0705556 C45.0664105,36.0707509 45.0661429,36.070938 45.407301,36.5589933 Z M51.5821565,37.4554104 C53.4408939,38.8762999 55.2515001,39.0032167 56.5981115,38.7577522 C57.2640601,38.6363607 57.8113962,38.4254702 58.1936346,38.2443867 C58.3852604,38.1536047 58.536972,38.0695662 58.6431358,38.0065939 C58.6962667,37.9750789 58.7381409,37.9487502 58.7680566,37.9293761 C58.7830192,37.9196849 58.7950057,37.911724 58.8039309,37.9057122 C58.8083935,37.9027064 58.8120912,37.9001861 58.815014,37.8981788 C58.8164759,37.8971752 58.8177441,37.8963003 58.8188174,37.8955571 C58.8193535,37.895186 58.8198414,37.8948468 58.8202801,37.8945415 C58.8204994,37.8943894 58.8207922,37.8941849 58.8209174,37.8941088 C58.8211816,37.8939125 58.8214503,37.8937255 58.4802921,37.4056712 C58.139133,36.9176158 58.1393775,36.9174452 58.1396095,36.9172829 C58.1396724,36.9172399 58.1398928,36.9170858 58.1400176,36.9169997 C58.1402653,36.9168263 58.1404688,36.9166862 58.1406241,36.916578 C58.1409378,36.9163608 58.1410658,36.9162729 58.1410123,36.9163095 C58.1409053,36.9163828 58.1400696,36.9169559 58.1385146,36.9180036 C58.1354047,36.920099 58.1294275,36.9240861 58.1206686,36.9297578 C58.1031414,36.9411088 58.0745435,36.9591662 58.0355595,36.98229 C57.9574957,37.0285946 57.838409,37.0948445 57.6837555,37.1681114 C57.3734364,37.3151227 56.9262888,37.4873636 56.384542,37.5861149 C55.3157595,37.7809358 53.858118,37.6961832 52.3054356,36.5092531 L51.5821565,37.4554104 Z" id="Fill-98" fill="#BDCCE3"></path>
                <path d="M44.7968559,40.230545 C44.52731,40.4189621 44.4615425,40.7902137 44.6499597,41.0597585 C44.8383759,41.3293033 45.2096273,41.3950718 45.4791722,41.2066546 L44.7968559,40.230545 Z M58.5521633,42.0533325 C58.8217091,41.8649163 58.8874766,41.4936648 58.6990594,41.224119 C58.5106423,40.9545741 58.1393918,40.8888067 57.869846,41.0772228 L58.5521633,42.0533325 Z M45.138014,40.7186003 C45.4791722,41.2066546 45.4789286,41.2068253 45.4786957,41.2069875 C45.4786337,41.2070306 45.4784123,41.2071856 45.4782884,41.2072718 C45.4780398,41.2074441 45.4778372,41.2075853 45.4776809,41.2076934 C45.4773683,41.2079097 45.4772393,41.2079985 45.4772928,41.2079619 C45.4773998,41.2078877 45.4782356,41.2073145 45.4797905,41.2062678 C45.4829004,41.2041724 45.4888776,41.2001854 45.4976365,41.1945126 C45.5151638,41.1831617 45.5437616,41.1651042 45.5827455,41.1419814 C45.6608094,41.0956759 45.7798971,41.029426 45.9345506,40.9561601 C46.2448686,40.8091487 46.6920173,40.6369069 47.2337641,40.5381555 C48.3025466,40.3433347 49.760187,40.4280883 51.3128695,41.6150174 L52.0361486,40.6688601 C50.1774113,39.2479706 48.366805,39.1210537 47.0201946,39.3665183 C46.354245,39.4879097 45.80691,39.6988003 45.4246704,39.8798847 C45.2330447,39.9706657 45.0813341,40.0547043 44.9751692,40.1176775 C44.9220384,40.1491925 44.8801653,40.1755203 44.8502495,40.1948953 C44.835286,40.2045855 44.8232994,40.2125465 44.8143752,40.2185583 C44.8099125,40.2215651 44.8062139,40.2240853 44.8032911,40.2260916 C44.8018292,40.2270953 44.800562,40.2279702 44.7994887,40.2287134 C44.7989526,40.2290855 44.7984647,40.2294237 44.798025,40.2297289 C44.7978057,40.229882 44.7975129,40.2300855 44.7973877,40.2301626 C44.7971235,40.2303579 44.7968559,40.230545 45.138014,40.7186003 Z M51.3128695,41.6150174 C53.1716069,43.0359069 54.9822131,43.1628237 56.3288245,42.9173592 C56.9947731,42.7959677 57.5421092,42.5850772 57.9243476,42.4039937 C58.1159734,42.3132117 58.267685,42.2291732 58.3738488,42.1662009 C58.4269797,42.1346859 58.4688539,42.1083572 58.4987696,42.0889831 C58.5137322,42.0792919 58.5257187,42.071331 58.5346439,42.0653192 C58.5391065,42.0623134 58.5428042,42.0597931 58.545727,42.0577858 C58.5471889,42.0567822 58.5484571,42.0559073 58.5495304,42.0551641 C58.5500665,42.054793 58.5505544,42.0544538 58.5509931,42.0541485 C58.5512124,42.0539964 58.5515052,42.0537919 58.5516304,42.0537158 C58.5518946,42.0535195 58.5521633,42.0533325 58.2110051,41.5652782 C57.869846,41.0772228 57.8700905,41.0770522 57.8703225,41.0768899 C57.8703854,41.0768469 57.8706058,41.0766928 57.8707306,41.0766067 C57.8709783,41.0764333 57.8711818,41.0762932 57.8713371,41.076185 C57.8716508,41.0759678 57.8717788,41.0758799 57.8717253,41.0759165 C57.8716183,41.0759898 57.8707826,41.0765629 57.8692276,41.0776106 C57.8661177,41.079706 57.8601405,41.0836931 57.8513816,41.0893648 C57.8338544,41.1007158 57.8052565,41.1187732 57.7662725,41.141897 C57.6882087,41.1882016 57.569122,41.2544515 57.4144685,41.3277184 C57.1041494,41.4747297 56.6570018,41.6469706 56.115255,41.7457219 C55.0464725,41.9405428 53.588831,41.8557902 52.0361486,40.6688601 L51.3128695,41.6150174 Z" id="Fill-99" fill="#BDCCE3"></path>
            </g>
        </g>
    </g>
</svg>