<svg viewBox="0 0 99 108" fill="none" xmlns="http://www.w3.org/2000/svg">
<g clip-path="url(#clip0)">
<path d="M50.0015 6.44275C50.0015 6.44275 52.8313 -1.19917 61.6585 0.347762C71.9639 2.15206 70.0166 7.13907 73.8425 15.8309C77.6684 24.5227 88.5273 23.7057 90.9821 36.4697C95.1642 58.2065 75.163 58.6529 68.5692 54.158C61.9753 49.6631 62.943 27.3 62.943 27.3L50.0015 6.44275Z" fill="#734C13"/>
<path d="M53.8517 5.95279C50.3754 4.49208 45.0625 3.82434 43.8514 7.56546C42.6402 11.3066 42.5414 18.613 39.6453 21.0492C36.7492 23.4854 34.394 31.1024 37.9065 36.4936C41.419 41.8847 32.5606 42.2718 34.1778 51.3271C35.7951 60.3823 49.5887 61.9398 56.6141 55.6486C63.6395 49.3575 63.9635 24.9898 61.3432 15.9962C58.7229 7.00268 53.8517 5.95279 53.8517 5.95279Z" fill="#734C13"/>
<path d="M79.2256 108.479L76.6978 86.7409L87.8204 88.763L86.3037 108.479H79.2256Z" fill="#CE7A63"/>
<path d="M46.8686 67.0251L42.8247 108.479H77.7088L74.6753 67.0251L76.6976 86.7409L87.8203 88.763C87.8203 88.763 85.798 58.4311 83.7757 54.3869C81.7534 50.3426 76.1921 45.7927 71.1363 46.2984C66.0805 46.8041 53.0004 46.4035 46.8686 50.8481C40.7368 55.2927 34.091 70.6677 33.4127 72.6704C32.7504 74.6262 26.4034 79.1601 27.6397 82.1491C28.0341 83.1025 27.6399 84.2555 30.7887 86.8884C33.9375 89.5214 36.5615 88.9948 39.1855 87.9416C41.8095 86.8884 46.8686 67.0251 46.8686 67.0251Z" fill="#407BFF"/>
<path d="M65.379 28.4918C65.5341 33.9153 67.6235 44.2388 71.1213 46.2408C71.1213 46.2408 69.4698 54.8107 60.4035 56.9546C51.3372 59.0984 56.4217 47.8327 56.4217 47.8327C61.5186 45.2818 59.2501 43.0739 57.3132 39.2923L65.379 28.4918Z" fill="#CE7A63"/>
<path opacity="0.2" d="M62.0632 32.8764L57.2935 39.2619C57.7543 40.1399 58.1391 41.0559 58.4437 42.0002C60.6 41.1549 63.1104 38.0073 62.8167 35.6443C62.7368 34.6819 62.4815 33.7441 62.0632 32.8764Z" fill="black"/>
<path d="M69.9244 16.9999C70.2232 25.8952 70.5253 29.6541 66.4577 34.6606C60.3377 42.1997 49.2641 40.7461 46.302 32.1455C43.6377 24.4089 43.6148 11.1615 52.0324 6.71668C53.8771 5.73621 55.9375 5.23642 58.0183 5.26462C60.0992 5.29282 62.1317 5.84808 63.9234 6.87783C65.715 7.90758 67.2066 9.37773 68.2568 11.149C69.3069 12.9204 69.8809 14.9342 69.9244 16.9999Z" fill="#CE7A63"/>
<path d="M51.1978 5.93644C48.5067 8.37675 51.2387 10.9172 57.2886 11.746C63.3385 12.5748 63.7627 12.8879 63.8686 17.5539C63.9746 22.2199 73.0161 24.4227 72.0701 19.7986C71.1241 15.1745 70.7883 6.05721 65.9102 4.6518C61.0321 3.24639 54.051 3.38647 51.1978 5.93644Z" fill="#734C13"/>
<path d="M51.2591 8.10155C48.7286 9.61858 44.0463 17.7532 44.003 15.4496C43.9597 13.1459 44.4266 9.83168 47.446 7.9356C48.855 6.96198 50.3926 6.18844 52.0134 5.63775L51.2591 8.10155Z" fill="#734C13"/>
<path d="M73.1277 23.8448C72.6574 25.5015 71.5714 26.9259 70.0905 27.828C68.1203 29.007 66.6332 27.4413 66.7606 25.3154C66.878 23.3987 68.0342 20.4806 70.2154 20.1642C72.3965 19.8478 73.6807 21.8179 73.1277 23.8448Z" fill="#CE7A63"/>
<path d="M50.4841 23.3034C50.4841 23.3034 49.5461 26.5302 48.325 28.1679C49.3705 28.9557 50.9635 28.3792 50.9635 28.3792L50.4841 23.3034Z" fill="#BA4D3C"/>
<path d="M58.9824 16.7598C59.0258 16.7719 59.0717 16.7728 59.1159 16.7624C59.16 16.7519 59.2009 16.7305 59.2346 16.7001C59.26 16.6746 59.2801 16.6443 59.2938 16.6112C59.3075 16.578 59.3145 16.5426 59.3143 16.5069C59.3142 16.4713 59.307 16.436 59.2931 16.4033C59.2792 16.3706 59.2588 16.341 59.2333 16.3163C58.7866 15.85 58.2316 15.4994 57.6156 15.2945C56.9995 15.0896 56.3408 15.0364 55.6958 15.1396C55.6564 15.1425 55.618 15.1538 55.5833 15.1729C55.5485 15.1919 55.5182 15.2181 55.4946 15.2498C55.4709 15.2814 55.4543 15.3177 55.4461 15.3562C55.4378 15.3946 55.4381 15.4342 55.4467 15.4724C55.4554 15.5105 55.4724 15.5462 55.4964 15.577C55.5205 15.6077 55.551 15.6329 55.586 15.6507C55.6209 15.6685 55.6595 15.6784 55.6989 15.6799C55.7383 15.6814 55.7777 15.6744 55.8143 15.6593C56.3712 15.5813 56.9372 15.6354 57.4657 15.8171C57.9943 15.9988 58.4703 16.303 58.8548 16.7045C58.8924 16.7325 58.936 16.7514 58.9824 16.7598Z" fill="#5B3700"/>
<path d="M53.6085 20.5534C53.5499 20.5556 53.4935 20.5765 53.4474 20.6129C53.4014 20.6493 53.3682 20.6993 53.3529 20.7555C53.3375 20.8117 53.3408 20.8711 53.3621 20.9249C53.3835 20.9787 53.4219 21.024 53.4716 21.0541C54.016 21.4025 54.6382 21.6159 55.2861 21.6764C55.9341 21.7369 56.5892 21.6429 57.1969 21.4021C57.2622 21.3697 57.3126 21.3135 57.3372 21.2454C57.3619 21.1773 57.3589 21.1026 57.3289 21.0373C57.2987 20.9731 57.244 20.9236 57.1767 20.8996C57.1094 20.8756 57.0349 20.8791 56.9695 20.9093C56.4451 21.1144 55.8804 21.1929 55.3224 21.1383C54.7644 21.0836 54.2293 20.8975 53.7616 20.5953C53.7159 20.5668 53.6627 20.5522 53.6085 20.5534Z" fill="#5B3700"/>
<path d="M44.724 21.8811C44.6795 21.881 44.6356 21.8924 44.5965 21.9141C44.5575 21.9357 44.5246 21.967 44.5011 22.0047C44.4626 22.0669 44.4502 22.1412 44.4663 22.2117C44.4824 22.2822 44.5258 22.3433 44.5872 22.3818C45.1315 22.73 45.7537 22.9426 46.4016 23.002C47.0495 23.0614 47.7042 22.9658 48.3109 22.7231C48.376 22.6924 48.4266 22.6375 48.4516 22.5705C48.4766 22.5034 48.4741 22.4296 48.4444 22.3651C48.4126 22.3007 48.3565 22.2515 48.2881 22.2278C48.2198 22.2042 48.1445 22.2081 48.0783 22.2387C47.5544 22.4445 46.9898 22.5227 46.4323 22.4666C45.8748 22.4105 45.3408 22.2217 44.8756 21.9163C44.8294 21.8912 44.777 21.879 44.724 21.8811Z" fill="#5B3700"/>
<path d="M44.8658 16.936C44.9125 16.9506 44.9624 16.9523 45.0104 16.941C45.0583 16.9297 45.1024 16.9058 45.138 16.8718C45.4783 16.4239 45.9217 16.0629 46.4306 15.8194C46.9396 15.576 47.4988 15.4573 48.0608 15.4736C48.1326 15.4796 48.2043 15.4577 48.2609 15.4127C48.3175 15.3676 48.3545 15.3028 48.3642 15.2319C48.3686 15.1964 48.3658 15.1606 48.356 15.1264C48.3463 15.0922 48.3298 15.0603 48.3074 15.0326C48.2851 15.0049 48.2574 14.982 48.2259 14.9651C48.1944 14.9482 48.1598 14.9377 48.124 14.9342C47.473 14.9085 46.8234 15.0376 46.2294 15.3109C45.6354 15.5842 45.1144 15.9937 44.7099 16.5051C44.6868 16.5327 44.6695 16.5645 44.6589 16.5987C44.6483 16.6329 44.6446 16.6688 44.648 16.7042C44.6514 16.7396 44.6619 16.774 44.6789 16.8052C44.6958 16.8364 44.7189 16.8639 44.7468 16.8861C44.7807 16.9138 44.822 16.9311 44.8658 16.936Z" fill="#5B3700"/>
<path d="M68.1783 21.8523L62.9417 27.4031C62.9417 27.4031 62.9434 32.0292 65.7549 33.3023L69.5971 28.0203C69.5971 28.0203 68.7075 37.6989 57.745 41.134C46.7826 44.5691 45.0974 29.1545 45.0974 29.1545C45.0974 29.1545 48.7664 25.436 50.8118 25.2575C52.8573 25.079 58.0551 25.9777 60.5074 25.9243C62.9597 25.8709 68.1783 21.8523 68.1783 21.8523Z" fill="white"/>
<path d="M18.7183 47.9204C18.192 47.9204 17.6718 48.4472 17.6672 49.5002C17.6653 49.9277 18.7237 52.1189 19.2367 53.713C19.5545 54.606 18.0931 54.9904 16.0943 55.2927C14.1182 55.5916 11.6168 55.8164 9.79053 55.2928C10.5042 57.4753 20.2927 60.0321 20.2927 60.0321C20.2927 60.0321 27.376 61.6119 26.8512 59.5055C26.3264 57.3992 25.0159 56.3459 22.9167 54.7661C21.8352 52.6394 20.894 51.4998 20.2927 50.0268C20.0142 49.3446 19.2445 47.9203 18.7183 47.9204Z" fill="#C46950"/>
<path d="M7.80094 52.1163L7.59092 52.1968L7.38676 52.2836L7.80094 52.1163ZM7.80094 52.1163L7.38676 52.2836L7.00541 52.4708L7.80094 52.1163ZM8.22907 51.9791L8.01444 52.0433L7.80094 52.1163L8.22907 51.9791ZM7.38676 52.2836L7.1908 52.3754L7.00541 52.4708L7.38676 52.2836ZM7.00541 52.4708L6.83295 52.5687L6.67578 52.6677L7.00541 52.4708ZM7.80094 52.1163L7.00541 52.4708L6.41675 52.8641L7.80094 52.1163ZM7.00541 52.4708L6.67578 52.6677L6.41675 52.8641L7.00541 52.4708ZM6.67578 52.6677L6.53626 52.7666L6.41675 52.8641L6.67578 52.6677ZM6.41675 52.8641L6.31962 52.9589L6.24722 53.0498L6.41675 52.8641ZM25.0086 47.3372L8.22907 51.9791L7.80094 52.1163L25.0086 47.3372ZM7.80094 52.1163L6.41675 52.8641L4.59134 55.9161L7.80094 52.1163ZM6.41675 52.8641L6.24722 53.0498L4.48598 55.6969L6.41675 52.8641ZM25.0086 47.3372L24.8015 47.3898L8.22907 51.9791L25.0086 47.3372ZM25.6625 47.2602L25.0086 47.3372L7.80094 52.1163L25.6625 47.2602ZM6.24722 53.0498L4.53008 55.6138L4.48598 55.6969L6.24722 53.0498ZM6.41675 52.8641L4.48598 55.6969L4.59134 55.9161L6.41675 52.8641ZM25.3731 47.2726L25.1995 47.2982L25.0086 47.3372L25.3731 47.2726ZM25.6625 47.2602L25.3731 47.2726L25.0086 47.3372L25.6625 47.2602ZM25.6625 47.2602L25.5278 47.26L25.3731 47.2726L25.6625 47.2602ZM24.2203 50.1626L25.6625 47.2602L7.80094 52.1163L24.2203 50.1626ZM25.8661 47.2981L25.7757 47.273L25.6625 47.2602L25.8661 47.2981ZM4.48598 55.6969L4.47139 55.7689L4.48499 55.8296L4.48598 55.6969ZM25.9731 47.3842L25.8661 47.2981L25.6625 47.2602L25.9731 47.3842ZM24.2203 50.1626L7.80094 52.1163L4.59134 55.9161L24.2203 50.1626ZM4.48499 55.8296L4.74449 56.4819L4.78492 56.5311L4.48499 55.8296ZM4.48598 55.6969L4.48499 55.8296L4.59134 55.9161L4.48598 55.6969ZM25.9731 47.3842L25.9324 47.3352L25.8661 47.2981L25.9731 47.3842ZM4.52541 55.8788L4.48499 55.8296L4.78492 56.5311L4.52541 55.8788ZM4.52541 55.8788L4.78492 56.5311L4.85085 56.5684L4.52541 55.8788ZM4.48499 55.8296L4.52541 55.8788L4.59134 55.9161L4.48499 55.8296ZM25.9731 47.3842L25.9871 47.4448L26.2325 48.0366L25.9731 47.3842ZM4.59134 55.9161L4.52541 55.8788L4.85085 56.5684L4.59134 55.9161ZM25.9871 47.4448L26.2464 48.0972L26.2325 48.0366L25.9871 47.4448ZM4.59134 55.9161L4.85085 56.5684L4.94094 56.5936L4.59134 55.9161ZM25.9729 47.5167L25.9871 47.4448L25.9731 47.3842L25.9729 47.5167ZM4.68143 55.9413L4.59134 55.9161L4.94094 56.5936L4.68143 55.9413ZM25.9871 47.4448L25.9729 47.5167L26.2464 48.0972L25.9871 47.4448ZM25.9729 47.5167L26.2322 48.1691L26.2464 48.0972L25.9729 47.5167ZM4.68143 55.9413L4.94094 56.5936L5.05385 56.6066L4.68143 55.9413ZM4.59134 55.9161L4.68143 55.9413L4.79433 55.9542L4.59134 55.9161ZM4.79433 55.9542L4.68143 55.9413L5.05385 56.6066L4.79433 55.9542ZM25.9729 47.5167L25.9291 47.5997L26.2322 48.1691L25.9729 47.5167ZM25.9291 47.5997L26.1884 48.2521L26.2322 48.1691L25.9291 47.5997ZM4.79433 55.9542L5.05385 56.6066L5.18825 56.6069L4.79433 55.9542ZM4.59134 55.9161L4.79433 55.9542L5.08326 55.942L4.59134 55.9161ZM4.92873 55.9545L4.79433 55.9542L5.18825 56.6069L4.92873 55.9545ZM4.92873 55.9545L5.18825 56.6069L5.34278 56.5944L4.92873 55.9545ZM4.79433 55.9542L4.92873 55.9545L5.08326 55.942L4.79433 55.9542ZM5.08326 55.942L4.92873 55.9545L5.34278 56.5944L5.08326 55.942ZM5.08326 55.942L5.34278 56.5944L5.51613 56.5688L5.08326 55.942ZM5.2566 55.9165L5.08326 55.942L5.51613 56.5688L5.2566 55.9165ZM5.2566 55.9165L5.51613 56.5688L5.70693 56.5299L5.2566 55.9165ZM5.08326 55.942L5.2566 55.9165L5.44741 55.8775L5.08326 55.942ZM5.44741 55.8775L5.2566 55.9165L5.70693 56.5299L5.44741 55.8775ZM5.44741 55.8775L5.70693 56.5299L5.91386 56.4774L5.44741 55.8775ZM5.65434 55.825L5.44741 55.8775L5.91386 56.4774L5.65434 55.825ZM24.2203 50.1626L25.9731 47.3842L25.6625 47.2602L24.2203 50.1626ZM24.2203 50.1626L25.9729 47.5167L25.9731 47.3842L24.2203 50.1626ZM24.2203 50.1626L25.9291 47.5997L25.9729 47.5167L24.2203 50.1626ZM25.9291 47.5997L24.2203 50.1626L26.1884 48.2521L25.9291 47.5997ZM4.59134 55.9161L5.08326 55.942L22.2373 51.2344L4.59134 55.9161ZM5.08326 55.942L5.44741 55.8775L22.2373 51.2344L5.08326 55.942ZM5.65434 55.825L5.91386 56.4774L22.4968 51.8871L5.65434 55.825ZM5.44741 55.8775L5.65434 55.825L22.2373 51.2344L5.44741 55.8775ZM24.2203 50.1626L24.4798 50.8153L26.1884 48.2521L24.2203 50.1626ZM4.59134 55.9161L23.0808 50.9295L24.2203 50.1626L4.59134 55.9161ZM4.59134 55.9161L22.2373 51.2344L23.0808 50.9295L4.59134 55.9161ZM22.2373 51.2344L5.65434 55.825L22.4968 51.8871L22.2373 51.2344ZM24.2203 50.1626L24.1481 50.2535L24.4798 50.8153L24.2203 50.1626ZM24.1481 50.2535L24.4076 50.9063L24.4798 50.8153L24.1481 50.2535ZM24.0511 50.3484L24.1481 50.2535L24.2203 50.1626L24.0511 50.3484ZM24.1481 50.2535L24.0511 50.3484L24.4076 50.9063L24.1481 50.2535ZM24.0511 50.3484L24.3106 51.0012L24.4076 50.9063L24.0511 50.3484ZM23.7922 50.545L24.0511 50.3484L24.2203 50.1626L23.7922 50.545ZM24.0511 50.3484L23.9317 50.446L24.3106 51.0012L24.0511 50.3484ZM23.9317 50.446L24.1912 51.0987L24.3106 51.0012L23.9317 50.446ZM23.7922 50.545L23.9317 50.446L24.0511 50.3484L23.7922 50.545ZM23.9317 50.446L23.7922 50.545L24.1912 51.0987L23.9317 50.446ZM23.7922 50.545L24.0517 51.1977L24.1912 51.0987L23.7922 50.545ZM23.0808 50.9295L23.7922 50.545L24.2203 50.1626L23.0808 50.9295ZM23.635 50.6441L23.8945 51.2969L24.0517 51.1977L23.635 50.6441ZM23.7922 50.545L23.635 50.6441L24.0517 51.1977L23.7922 50.545ZM23.4625 50.7421L23.7219 51.3948L23.8945 51.2969L23.4625 50.7421ZM23.635 50.6441L23.4625 50.7421L23.8945 51.2969L23.635 50.6441ZM23.4625 50.7421L23.635 50.6441L23.7922 50.545L23.4625 50.7421ZM22.2373 51.2344L22.4968 51.8871L22.7118 51.8228L22.2373 51.2344ZM23.2769 50.8376L23.5364 51.4904L23.7219 51.3948L23.2769 50.8376ZM23.0808 50.9295L23.4625 50.7421L23.7922 50.545L23.0808 50.9295ZM23.4625 50.7421L23.2769 50.8376L23.7219 51.3948L23.4625 50.7421ZM22.4523 51.1701L22.7118 51.8228L22.9256 51.7497L22.4523 51.1701ZM23.0808 50.9295L23.3403 51.5822L23.5364 51.4904L23.0808 50.9295ZM22.4523 51.1701L22.2373 51.2344L22.7118 51.8228L22.4523 51.1701ZM23.2769 50.8376L23.0808 50.9295L23.5364 51.4904L23.2769 50.8376ZM22.8764 51.0164L23.1359 51.6691L23.3403 51.5822L22.8764 51.0164ZM22.6661 51.097L22.9256 51.7497L23.1359 51.6691L22.6661 51.097ZM23.0808 50.9295L23.2769 50.8376L23.4625 50.7421L23.0808 50.9295ZM22.6661 51.097L22.4523 51.1701L22.9256 51.7497L22.6661 51.097ZM22.2373 51.2344L22.4523 51.1701L22.6661 51.097L22.2373 51.2344ZM23.0808 50.9295L22.8764 51.0164L23.3403 51.5822L23.0808 50.9295ZM22.2373 51.2344L22.6661 51.097L23.0808 50.9295L22.2373 51.2344ZM22.8764 51.0164L22.6661 51.097L23.1359 51.6691L22.8764 51.0164ZM22.6661 51.097L22.8764 51.0164L23.0808 50.9295L22.6661 51.097Z" fill="black"/>
<path d="M22.3855 49.5001C21.5689 49.5003 21.1165 50.7088 20.8103 51.08C20.5041 51.4511 20.0839 52.1331 19.5028 54.913C19.7274 55.719 20.1705 56.4797 20.5889 57.4501C20.321 57.3124 20.1457 57.292 20.0839 57.2139C20.0839 57.2139 17.789 54.4308 17.7301 53.678C17.6712 52.9251 19.2379 50.0268 18.1927 50.0268C17.1475 50.0268 16.3958 51.6065 16.3958 51.6065C16.3958 51.6065 15.588 52.9393 15.4449 53.4893C15.3019 54.0393 17.664 58.4523 17.664 58.4523C17.0683 57.7801 14.4451 54.6475 14.1736 53.974C13.9022 53.3005 15.0439 52.1331 15.0439 52.1331C15.5643 51.6065 15.5618 50.5442 15.0439 50.5533C14.526 50.5625 13.4631 51.6064 12.9447 52.1331C12.4263 52.6598 12.2483 53.4079 12.4162 54.7661C12.584 56.1243 14.5154 57.9257 14.5154 57.9257C13.7645 57.4899 11.6092 55.4653 11.4879 54.5891C11.4879 54.5891 12.2028 52.4759 11.4879 52.1331C10.4931 51.6562 9.58307 54.5892 9.58307 54.5892C9.58307 54.5892 9.27211 55.9755 10.3217 57.2139C11.3713 58.4522 12.7673 60.0319 13.4705 60.5586C14.1736 61.0852 20.8045 62.131 21.3359 62.398C21.8673 62.665 23.4594 71.3606 23.4594 71.3606C24.6857 74.5167 25.877 77.6686 27.1033 80.8247C27.2682 81.2338 27.464 81.682 27.6288 82.0912C28.6574 83.3101 29.655 84.49 31.2649 84.9971C32.1863 85.3175 33.0891 85.4938 34.0683 85.3247C36.1317 84.9987 37.9397 83.225 38.449 81.0161C38.5253 80.6706 38.6366 80.3291 38.4016 79.9118C35.0379 74.0958 31.6783 68.2449 28.3537 62.398C27.8261 61.4502 27.3026 60.4675 26.779 59.4848C26.5234 59.2423 26.307 58.9689 26.0081 58.7922C25.1816 58.2703 24.3509 57.7833 23.5243 57.2614C23.3264 57.1319 23.211 56.9058 23.0564 56.7105C22.3 55.5942 21.8685 53.974 21.8685 53.974C21.9581 53.2419 22.3985 52.5342 22.655 51.8071C22.9115 51.08 23.2021 49.4998 22.3855 49.5001Z" fill="#CE7A63"/>
</g>
<defs>
<clipPath id="clip0">
<rect width="99" height="108" fill="white"/>
</clipPath>
</defs>
</svg>
