<?xml version="1.0" encoding="UTF-8"?>
<svg width="84px" height="109px" viewBox="0 0 84 109" version="1.1" xmlns="http://www.w3.org/2000/svg" xmlns:xlink="http://www.w3.org/1999/xlink">
    <title>img_1</title>
    <g id="Page-1" stroke="none" stroke-width="1" fill="none" fill-rule="evenodd">
        <g id="Frame-1" transform="translate(-91.000000, -83.000000)">
            <g id="img_1" transform="translate(91.179551, 83.141026)">
                <path d="M37.8190887,6.30172486 C37.8190887,6.30172486 34.9892539,-1.34019977 26.1621095,0.206737122 C15.8567135,2.01103542 13.82047,4.35897428 11.3204657,14.3589173 C8.82046139,24.3588562 10.2752884,30.5949317 7.8204533,43.3589147 C3.63841912,65.0957429 12.6575604,58.5118883 19.2514193,54.016979 C25.845278,49.5220706 24.8775517,27.1589921 24.8775517,27.1589921 L37.8190887,6.30172486 Z" id="Fill-2" fill="#734D13"></path>
                <path d="M33.9689204,5.81171239 C37.4451625,4.35101443 41.9692267,3.92442177 44.3204293,7.35897537 C46.6716335,10.7935263 46.8203786,10.3589561 47.320388,16.358947 C47.8203982,22.358939 43.3329212,36.4677692 39.8203919,41.8589229 C36.8203938,49.358921 39.9376864,47.8036762 38.3204228,56.858932 C36.7031592,65.9141877 38.2318692,61.7986979 31.2064926,55.5075752 C24.1811157,49.2164535 23.8570848,24.8487059 26.477378,15.8551542 C29.0976703,6.86160234 33.9689204,5.81171239 33.9689204,5.81171239 Z" id="Fill-3" fill="#734D13"></path>
                <polygon id="Fill-4" fill="#CE7A63" points="8.59481 108.337721 11.122695 86.5998494 -1.42108547e-14 88.6219774 1.516731 108.337721"></polygon>
                <path d="M40.951958,66.8841094 L44.995872,108.337749 L10.111777,108.337749 L13.145243,66.8841094 L11.122931,86.5998804 L0.000239,88.6220054 C0.000239,88.6220054 2.022548,58.2900884 4.044856,54.2458344 C6.067164,50.2015804 11.628508,45.6516494 16.684279,46.1573414 C21.74005,46.6630324 34.820193,46.2624704 40.951958,50.7070694 C47.083725,55.1516724 53.729597,70.5266994 54.407832,72.5293314 C55.070215,74.4851574 61.417204,79.0190694 60.180832,82.0080534 C59.786446,82.9614984 60.180714,84.1144374 57.031915,86.7474134 C53.883115,89.3803904 51.259114,88.8537984 48.635114,87.8006064 C46.011115,86.7474134 40.951958,66.8841094 40.951958,66.8841094 Z" id="Fill-5" fill="#407BFF"></path>
                <path d="M22.441413,28.3508099 C22.2863577,33.7742406 20.1969703,44.0977369 16.6991713,46.0997453 C16.6991713,46.0997453 18.3506119,54.6696825 27.4169494,56.8135407 C36.4832878,58.9573992 31.3987195,47.6917162 31.3987195,47.6917162 C26.3018751,45.1407783 28.5703425,42.932861 30.5072261,39.1512606 L22.441413,28.3508099 Z" id="Fill-6" fill="#CE7A63"></path>
                <path d="M25.7574081,32.7354232 L30.5270991,39.1209214 C30.0662892,39.9988969 29.6814977,40.9148931 29.3768467,41.8591371 C27.2206021,41.0138455 24.7101661,37.8662903 25.003896,35.503283 C25.0837441,34.5408932 25.339058,33.6030731 25.7574081,32.7354232 L25.7574081,32.7354232 Z" id="Fill-7" fill-opacity="0.2" fill="#000000"></path>
                <path d="M17.8956771,16.8589285 C17.5969127,25.7542592 17.2947501,29.5131312 21.3623966,34.5196146 C27.4823916,42.0586844 38.5559358,40.6051338 41.518082,32.0045505 C44.1824042,24.267924 44.2053044,11.0204933 35.7876657,6.57569938 C33.9429681,5.59522775 31.8826251,5.09543683 29.801759,5.12363745 C27.7208928,5.15183395 25.6883918,5.70709739 23.8967095,6.73684489 C22.1050285,7.76659577 20.6134741,9.23673904 19.5633192,11.008061 C18.5131663,12.7793784 17.9391717,14.7932409 17.8956771,16.8589285 L17.8956771,16.8589285 Z" id="Fill-8" fill="#CE7A63"></path>
                <path d="M36.6223035,5.79539392 C39.313339,8.23570393 36.5813898,10.7761914 30.5315072,11.6049663 C24.4816249,12.4337401 24.0574225,12.7468851 23.9514607,17.4128673 C23.8455001,22.0788488 14.8039485,24.2816333 15.7499853,19.6575414 C16.6960206,15.0334512 17.0318227,5.91615867 21.9099092,4.51074828 C26.7879947,3.10533767 33.7690614,3.24541983 36.6223035,5.79539392 Z" id="Fill-9" fill="#734C13"></path>
                <path d="M36.5612001,7.96055982 C39.091765,9.4775827 43.7739875,17.6121641 43.8173288,15.3085589 C43.8606693,13.0049524 43.3937224,9.69069131 40.3742929,7.79460438 C38.9652748,6.82098757 37.4277393,6.04744663 35.8069177,5.49675236 L36.5612001,7.96055982 Z" id="Fill-10" fill="#734C13"></path>
                <path d="M14.6926697,23.7037951 C15.1628838,25.3604661 16.2489535,26.7848489 17.7298075,27.6870183 C19.6999842,28.8659262 21.1871066,27.3002416 21.0597522,25.1744155 C20.9423337,23.2576599 19.7861375,20.3395658 17.6049635,20.0231539 C15.4237892,19.706743 14.1396297,21.6768552 14.6926697,23.7037951 Z" id="Fill-11" fill="#CE7A63"></path>
                <path d="M37.3361315,23.1623581 C37.3361315,23.1623581 38.2741245,26.3891062 39.4951647,28.0268262 C38.4496702,28.8146025 36.8567195,28.2381187 36.8567195,28.2381187 L37.3361315,23.1623581 Z" id="Fill-12" fill="#BA4D3C"></path>
                <path d="M19.6417222,21.7112513 L24.8783615,27.2620626 C24.8783615,27.2620626 24.876687,31.8882188 22.0652081,33.1612291 L18.2229548,27.879278 C18.2229548,27.879278 19.1125807,37.5578443 30.0750397,40.9929841 C41.0374973,44.4281255 42.7226445,29.013477 42.7226445,29.013477 C42.7226445,29.013477 39.053662,25.2950078 37.008225,25.1164884 C34.9627863,24.9379673 29.7650183,25.8367116 27.312693,25.7833129 C24.8603684,25.7299162 19.6417222,21.7112513 19.6417222,21.7112513 Z" id="Fill-13" fill="#FFFFFF"></path>
                <path d="M69.1020533,47.7793549 C69.6282853,47.7793549 70.1485203,48.3061443 70.1531394,49.3592075 C70.1550138,49.7866477 69.0966459,51.9778773 68.5836467,53.5719729 C68.2657836,54.4649605 69.7272546,54.8494053 71.7260522,55.1516954 C73.7021669,55.4505556 76.2034825,55.6753501 78.0298,55.1517594 C77.3161605,57.3342766 67.5276538,59.8910579 67.5276538,59.8910579 C67.5276538,59.8910579 60.4443343,61.4709085 60.9691345,59.3645258 C61.4939346,57.2581431 62.8044553,56.2048867 64.903655,54.6250992 C65.9850934,52.4983472 66.9262984,51.3587787 67.5276538,49.8857386 C67.8061253,49.2036117 68.5758214,47.7793549 69.1020533,47.7793549 Z" id="Fill-14" fill="#C46950"></path>
                <path d="M80.0193998,51.9753021 L80.2294149,52.0558259 L80.4335803,52.1425978 L80.0193998,51.9753021 Z M80.0193998,51.9753021 L80.4335803,52.1425978 L80.814925,52.3297895 L80.0193998,51.9753021 Z M79.5912668,51.838104 L79.8058977,51.9023028 L80.0193998,51.9753021 L79.5912668,51.838104 Z M80.4335803,52.1425978 L80.6295366,52.2343447 L80.814925,52.3297895 L80.4335803,52.1425978 Z M80.814925,52.3297895 L80.9873849,52.4276586 L81.1445541,52.5266778 L80.814925,52.3297895 Z M80.0193998,51.9753021 L80.814925,52.3297895 L81.4035815,52.7230609 L80.0193998,51.9753021 Z M80.814925,52.3297895 L81.1445541,52.5266778 L81.4035815,52.7230609 L80.814925,52.3297895 Z M81.1445541,52.5266778 L81.2840738,52.62557 L81.4035815,52.7230609 L81.1445541,52.5266778 Z M81.4035815,52.7230609 L81.500716,52.8178766 L81.5731143,52.9087396 L81.4035815,52.7230609 Z M62.8117593,47.1962103 L79.5912668,51.838104 L80.0193998,51.9753021 L62.8117593,47.1962103 Z M80.0193998,51.9753021 L81.4035815,52.7230609 L83.2289955,55.7750468 L80.0193998,51.9753021 Z M81.4035815,52.7230609 L81.5731143,52.9087396 L83.3343554,55.5558505 L81.4035815,52.7230609 Z M62.8117593,47.1962103 L63.0187929,47.2487773 L79.5912668,51.838104 L62.8117593,47.1962103 Z M62.1578544,47.1191404 L62.8117593,47.1962103 L80.0193998,51.9753021 L62.1578544,47.1191404 Z M81.5731143,52.9087396 L83.2902573,55.4727541 L83.3343554,55.5558505 L81.5731143,52.9087396 Z M81.4035815,52.7230609 L83.3343554,55.5558505 L83.2289955,55.7750468 L81.4035815,52.7230609 Z M62.4472755,47.1315353 L62.6208052,47.1572125 L62.8117593,47.1962103 L62.4472755,47.1315353 Z M62.1578544,47.1191404 L62.4472755,47.1315353 L62.8117593,47.1962103 L62.1578544,47.1191404 Z M62.1578544,47.1191404 L62.2925118,47.118928 L62.4472755,47.1315353 L62.1578544,47.1191404 Z M63.6000294,50.0216009 L62.1578544,47.1191404 L80.0193998,51.9753021 L63.6000294,50.0216009 Z M61.9542429,47.1570296 L62.0446502,47.1319245 L62.1578544,47.1191404 L61.9542429,47.1570296 Z M83.3343554,55.5558505 L83.34894,55.6278802 L83.3353486,55.6885917 L83.3343554,55.5558505 Z M61.8471952,47.2432069 L61.9542429,47.1570296 L62.1578544,47.1191404 L61.8471952,47.2432069 Z M63.6000294,50.0216009 L80.0193998,51.9753021 L83.2289955,55.7750468 L63.6000294,50.0216009 Z M83.3353486,55.6885917 L83.075845,56.3408928 L83.0354137,56.3900438 L83.3353486,55.6885917 Z M83.3343554,55.5558505 L83.3353486,55.6885917 L83.2289955,55.7750468 L83.3343554,55.5558505 Z M61.8471952,47.2432069 L61.8879756,47.1942062 L61.9542429,47.1570296 L61.8471952,47.2432069 Z M83.2949209,55.7377312 L83.3353486,55.6885917 L83.0354137,56.3900438 L83.2949209,55.7377312 Z M83.2949209,55.7377312 L83.0354137,56.3900438 L82.9694843,56.4273696 L83.2949209,55.7377312 Z M83.3353486,55.6885917 L83.2949209,55.7377312 L83.2289955,55.7750468 L83.3353486,55.6885917 Z M61.8471952,47.2432069 L61.8332454,47.3037805 L61.5878914,47.8956034 L61.8471952,47.2432069 Z M83.2289955,55.7750468 L83.2949209,55.7377312 L82.9694843,56.4273696 L83.2289955,55.7750468 Z M61.8332454,47.3037805 L61.5739357,47.9561865 L61.5878914,47.8956034 L61.8332454,47.3037805 Z M83.2289955,55.7750468 L82.9694843,56.4273696 L82.8793932,56.4526185 L83.2289955,55.7750468 Z M61.847473,47.3756771 L61.8332454,47.3037805 L61.8471952,47.2432069 L61.847473,47.3756771 Z M83.1389081,55.8002863 L83.2289955,55.7750468 L82.8793932,56.4526185 L83.1389081,55.8002863 Z M61.8332454,47.3037805 L61.847473,47.3756771 L61.5739357,47.9561865 L61.8332454,47.3037805 Z M61.847473,47.3756771 L61.5881579,48.0280939 L61.5739357,47.9561865 L61.847473,47.3756771 Z M83.1389081,55.8002863 L82.8793932,56.4526185 L82.7664822,56.4655394 L83.1389081,55.8002863 Z M83.2289955,55.7750468 L83.1389081,55.8002863 L83.0259998,55.8131977 L83.2289955,55.7750468 Z M83.0259998,55.8131977 L83.1389081,55.8002863 L82.7664822,56.4655394 L83.0259998,55.8131977 Z M61.847473,47.3756771 L61.8912201,47.4586493 L61.5881579,48.0280939 L61.847473,47.3756771 Z M61.8912201,47.4586493 L61.6319032,48.1110762 L61.5881579,48.0280939 L61.8912201,47.4586493 Z M83.0259998,55.8131977 L82.7664822,56.4655394 L82.6320875,56.4658786 L83.0259998,55.8131977 Z M83.2289955,55.7750468 L83.0259998,55.8131977 L82.737071,55.801026 L83.2289955,55.7750468 Z M82.8916066,55.8135277 L83.0259998,55.8131977 L82.6320875,56.4658786 L82.8916066,55.8135277 Z M82.8916066,55.8135277 L82.6320875,56.4658786 L82.4775499,56.4533847 L82.8916066,55.8135277 Z M83.0259998,55.8131977 L82.8916066,55.8135277 L82.737071,55.801026 L83.0259998,55.8131977 Z M82.737071,55.801026 L82.8916066,55.8135277 L82.4775499,56.4533847 L82.737071,55.801026 Z M82.737071,55.801026 L82.4775499,56.4533847 L82.304208,56.4278036 L82.737071,55.801026 Z M82.5637308,55.7754381 L82.737071,55.801026 L82.304208,56.4278036 L82.5637308,55.7754381 Z M82.5637308,55.7754381 L82.304208,56.4278036 L82.1134017,56.388886 L82.5637308,55.7754381 Z M82.737071,55.801026 L82.5637308,55.7754381 L82.3729239,55.7365137 L82.737071,55.801026 Z M82.3729239,55.7365137 L82.5637308,55.7754381 L82.1134017,56.388886 L82.3729239,55.7365137 Z M82.3729239,55.7365137 L82.1134017,56.388886 L81.9064718,56.3363774 L82.3729239,55.7365137 Z M82.1659944,55.6839988 L82.3729239,55.7365137 L81.9064718,56.3363774 L82.1659944,55.6839988 Z M63.6000294,50.0216009 L61.8471952,47.2432069 L62.1578544,47.1191404 L63.6000294,50.0216009 Z M63.6000294,50.0216009 L61.847473,47.3756771 L61.8471952,47.2432069 L63.6000294,50.0216009 Z M63.6000294,50.0216009 L61.8912201,47.4586493 L61.847473,47.3756771 L63.6000294,50.0216009 Z M61.8912201,47.4586493 L63.6000294,50.0216009 L61.6319032,48.1110762 L61.8912201,47.4586493 Z M83.2289955,55.7750468 L82.737071,55.801026 L65.5829949,51.09333 L83.2289955,55.7750468 Z M82.737071,55.801026 L82.3729239,55.7365137 L65.5829949,51.09333 L82.737071,55.801026 Z M82.1659944,55.6839988 L81.9064718,56.3363774 L65.3234991,51.7460796 L82.1659944,55.6839988 Z M82.3729239,55.7365137 L82.1659944,55.6839988 L65.5829949,51.09333 L82.3729239,55.7365137 Z M63.6000294,50.0216009 L63.3405725,50.6743122 L61.6319032,48.1110762 L63.6000294,50.0216009 Z M83.2289955,55.7750468 L64.7395413,50.7884558 L63.6000294,50.0216009 L83.2289955,55.7750468 Z M83.2289955,55.7750468 L65.5829949,51.09333 L64.7395413,50.7884558 L83.2289955,55.7750468 Z M65.5829949,51.09333 L82.1659944,55.6839988 L65.3234991,51.7460796 L65.5829949,51.09333 Z M63.6000294,50.0216009 L63.6722262,50.1125184 L63.3405725,50.6743122 L63.6000294,50.0216009 Z M63.6722262,50.1125184 L63.4127636,50.7652414 L63.3405725,50.6743122 L63.6722262,50.1125184 Z M63.7692156,50.2074014 L63.6722262,50.1125184 L63.6000294,50.0216009 L63.7692156,50.2074014 Z M63.6722262,50.1125184 L63.7692156,50.2074014 L63.4127636,50.7652414 L63.6722262,50.1125184 Z M63.7692156,50.2074014 L63.5097488,50.8601323 L63.4127636,50.7652414 L63.7692156,50.2074014 Z M64.0281308,50.4039583 L63.7692156,50.2074014 L63.6000294,50.0216009 L64.0281308,50.4039583 Z M63.7692156,50.2074014 L63.8886383,50.3049736 L63.5097488,50.8601323 L63.7692156,50.2074014 Z M63.8886383,50.3049736 L63.6291675,50.9577117 L63.5097488,50.8601323 L63.8886383,50.3049736 Z M64.0281308,50.4039583 L63.8886383,50.3049736 L63.7692156,50.2074014 L64.0281308,50.4039583 Z M63.8886383,50.3049736 L64.0281308,50.4039583 L63.6291675,50.9577117 L63.8886383,50.3049736 Z M64.0281308,50.4039583 L63.7686556,51.0567021 L63.6291675,50.9577117 L64.0281308,50.4039583 Z M64.7395413,50.7884558 L64.0281308,50.4039583 L63.6000294,50.0216009 L64.7395413,50.7884558 Z M64.1853309,50.5030759 L63.925852,51.1558236 L63.7686556,51.0567021 L64.1853309,50.5030759 Z M64.0281308,50.4039583 L64.1853309,50.5030759 L63.7686556,51.0567021 L64.0281308,50.4039583 Z M64.3578748,50.6010504 L64.0983922,51.253802 L63.925852,51.1558236 L64.3578748,50.6010504 Z M64.1853309,50.5030759 L64.3578748,50.6010504 L63.925852,51.1558236 L64.1853309,50.5030759 Z M64.3578748,50.6010504 L64.1853309,50.5030759 L64.0281308,50.4039583 L64.3578748,50.6010504 Z M65.5829949,51.09333 L65.3234991,51.7460796 L65.1085312,51.6817998 L65.5829949,51.09333 Z M64.5433993,50.6966019 L64.2839121,51.3493571 L64.0983922,51.253802 L64.5433993,50.6966019 Z M64.7395413,50.7884558 L64.3578748,50.6010504 L64.0281308,50.4039583 L64.7395413,50.7884558 Z M64.3578748,50.6010504 L64.5433993,50.6966019 L64.0983922,51.253802 L64.3578748,50.6010504 Z M65.3680278,51.0290483 L65.1085312,51.6817998 L64.8947243,51.6087119 L65.3680278,51.0290483 Z M64.7395413,50.7884558 L64.4800501,51.4412127 L64.2839121,51.3493571 L64.7395413,50.7884558 Z M65.3680278,51.0290483 L65.5829949,51.09333 L65.1085312,51.6817998 L65.3680278,51.0290483 Z M64.5433993,50.6966019 L64.7395413,50.7884558 L64.2839121,51.3493571 L64.5433993,50.6966019 Z M64.9439339,50.875333 L64.6844433,51.5280911 L64.4800501,51.4412127 L64.9439339,50.875333 Z M65.1542192,50.9559565 L64.8947243,51.6087119 L64.6844433,51.5280911 L65.1542192,50.9559565 Z M64.7395413,50.7884558 L64.5433993,50.6966019 L64.3578748,50.6010504 L64.7395413,50.7884558 Z M65.1542192,50.9559565 L65.3680278,51.0290483 L64.8947243,51.6087119 L65.1542192,50.9559565 Z M65.5829949,51.09333 L65.3680278,51.0290483 L65.1542192,50.9559565 L65.5829949,51.09333 Z M64.7395413,50.7884558 L64.9439339,50.875333 L64.4800501,51.4412127 L64.7395413,50.7884558 Z M65.5829949,51.09333 L65.1542192,50.9559565 L64.7395413,50.7884558 L65.5829949,51.09333 Z M64.9439339,50.875333 L65.1542192,50.9559565 L64.6844433,51.5280911 L64.9439339,50.875333 Z M65.1542192,50.9559565 L64.9439339,50.875333 L64.7395413,50.7884558 L65.1542192,50.9559565 Z" id="Fill-15" fill="#000000"></path>
                <path d="M65.4352422,49.3590245 C66.2518405,49.3590245 66.7042447,50.5678181 67.0104123,50.9389431 C67.3165809,51.310068 67.7367877,51.9920973 68.3179313,54.7719418 C68.0932982,55.577962 67.6501589,56.338623 67.2317693,57.3090591 C67.4997372,57.1714156 67.6749495,57.1509433 67.7367856,57.0728293 C67.7367856,57.0728293 70.0317122,54.2897811 70.0906133,53.5369342 C70.1495133,52.7840875 68.5828285,49.8857443 69.627993,49.8857446 C70.6731565,49.8857451 71.4248602,51.4654714 71.4248602,51.4654714 C71.4248602,51.4654714 72.2326515,52.7983124 72.3757523,53.3482916 C72.5188491,53.8982702 70.1566635,58.3112651 70.1566635,58.3112651 C70.7523515,57.6391113 73.3756485,54.5065028 73.6470551,53.833011 C73.9184617,53.1595201 72.776794,51.9920966 72.776794,51.9920966 C72.2564316,51.4654716 72.2588884,50.4031312 72.7767983,50.4123099 C73.2947082,50.4214886 74.3576199,51.4653826 74.8759981,51.9920963 C75.3943803,52.5188106 75.5723641,53.2668398 75.404532,54.6250656 C75.2367037,55.9832899 73.3053285,57.7846402 73.3053285,57.7846402 C74.0562029,57.3488882 76.2114833,55.3242824 76.3328081,54.4480778 C76.3328081,54.4480778 75.6179366,52.3348509 76.3328114,51.9920964 C77.3276143,51.5151253 78.2376273,54.448141 78.2376273,54.448141 C78.2376273,54.448141 78.5485948,55.8344596 77.4990049,57.072828 C76.4494122,58.3111977 75.0533496,59.8908911 74.3502017,60.4175343 C73.6470497,60.944177 67.0162415,61.9899544 66.4848228,62.2569594 C65.9534043,62.5239653 64.3612521,71.2195987 64.3612521,71.2195987 C63.1349607,74.3756412 61.9437008,77.5275895 60.7174084,80.6836321 C60.5525284,81.0927833 60.3567267,81.540991 60.1918456,81.9501424 C59.1633125,83.1690896 58.165698,84.3489979 56.5558127,84.8560974 C55.6344097,85.1764234 54.7315485,85.352802 53.7523932,85.1836563 C51.6889537,84.8576484 49.8810166,83.0839998 49.3717128,80.8750789 C49.2954202,80.5295503 49.1840809,80.1881157 49.4190473,79.7707754 C52.7827844,73.9547809 56.1424024,68.1038242 59.4669717,62.2569616 C59.9946144,61.3092046 60.5181372,60.3264865 61.0416548,59.343767 C61.2972458,59.1012392 61.5136621,58.8278372 61.8125467,58.6511378 C62.6391161,58.1292286 63.4698181,57.642285 64.2963875,57.1203758 C64.4942692,56.9909223 64.6096891,56.7647695 64.764276,56.5694858 C65.520719,55.4532182 65.9522389,53.8330118 65.9522389,53.8330118 C65.8625571,53.1009101 65.4222249,52.393149 65.1657273,51.6660469 C64.9092287,50.9389438 64.6186409,49.3590245 65.4352422,49.3590245 Z" id="Fill-16" fill="#CE7A63"></path>
                <path d="M46.529685,36.4003323 C47.7230069,36.5700472 48.8964584,36.7908867 50.0761552,37.0259188 C51.255852,37.260951 52.4165145,37.5297755 53.5874107,37.8025787 C54.7583078,38.0753815 55.9141623,38.3717625 57.0612093,38.7059087 C58.2082573,39.0400546 59.3757547,39.3821494 60.49753,39.7358931 C59.2971083,39.5693029 58.1236601,39.3484685 56.9510622,39.1103121 C55.7784648,38.8721543 54.6035869,38.6095731 53.4397896,38.3336455 C52.2759931,38.0577176 51.1130483,37.7644704 49.9589014,37.4334488 C48.8047546,37.1024272 47.6631069,36.7997959 46.529685,36.4003323 Z" id="Fill-17" fill="#263238"></path>
                <path d="M58.8112608,35.7494615 C57.6261858,35.6947607 56.4445075,35.5707584 55.2841303,35.437391 C54.1237541,35.3040233 52.9335594,35.1414115 51.7606853,34.9796463 C50.5878115,34.8178821 49.4206193,34.6112477 48.2613702,34.3841652 C47.1021207,34.1570819 45.9326467,33.9260234 44.7799234,33.6367471 C45.9649997,33.6914484 47.1435514,33.8083464 48.3070519,33.948813 C49.4705524,34.0892796 50.6545017,34.2376911 51.8234013,34.4096795 C52.9923013,34.5816687 54.1705763,34.774957 55.3298267,35.0020399 C56.4890745,35.2291219 57.6585388,35.4601857 58.8112608,35.7494615 Z" id="Fill-18" fill="#263238"></path>
                <path d="M55.9338777,42.1512207 C54.8754431,41.9221408 53.8408536,41.6317184 52.8062686,41.3412963 C51.7716832,41.0508733 50.7498723,40.7124519 49.7209622,40.3771593 C48.6920531,40.0418663 47.7168141,39.6744776 46.6975541,39.28409 C45.6782954,38.8937029 44.6527845,38.4891196 43.7155925,38.0541393 C44.7740271,38.2832192 45.8086185,38.5736484 46.8463286,38.8711712 C47.8840379,39.1686922 48.8995971,39.4929085 49.9285071,39.8282011 C50.9574163,40.1634941 51.9357809,40.5379822 52.9519148,40.9212695 C53.9680492,41.3045577 54.952666,41.693242 55.9338777,42.1512207 Z" id="Fill-19" fill="#263238"></path>
                <path d="M63.7400298,33.2581133 C62.5419015,33.3277989 61.3503065,33.3352851 60.1555807,33.3356775 C58.9608539,33.3360703 57.7709454,33.3089175 56.581895,33.2644403 C55.3928441,33.2199622 54.2046528,33.1581656 53.0150287,33.0546202 C51.8254042,32.9510738 50.6349306,32.8648522 49.4629064,32.685764 C50.6610346,32.6160785 51.8526264,32.6085849 53.0442289,32.6010932 C54.2358309,32.5936006 55.4248869,32.6380754 56.6366598,32.7149251 C57.8484327,32.7917749 59.0139064,32.8212099 60.2035305,32.9247554 C61.3931549,33.0283018 62.5592058,33.1167959 63.7400298,33.2581133 Z" id="Fill-20" fill="#263238"></path>
                <path d="M58.8879196,46.2833254 C57.893656,45.9497335 56.8837596,45.580639 55.9417426,45.1732062 C54.9997264,44.7657729 54.0034661,44.3313661 53.0520758,43.9026357 C52.100686,43.4739039 51.1705998,43.0358049 50.2234614,42.5204574 C49.2763234,42.0051107 48.3644013,41.5505262 47.4607089,40.9991087 C48.4549726,41.3327005 49.4679903,41.7088898 50.4100077,42.1163236 C51.3520239,42.5237568 52.3482842,42.9581636 53.2996745,43.386894 C54.2510652,43.8156254 55.1882552,44.2506111 56.1282934,44.7690824 C57.0683329,45.2875543 57.9873516,45.7390068 58.8879196,46.2833254 Z" id="Fill-21" fill="#263238"></path>
                <path d="M53.3281489,22.8489223 C53.1164594,22.5276445 52.9309541,22.189865 52.7734314,21.8388414 C52.619942,21.4832316 52.4951277,21.115916 52.400176,20.7404147 C52.6139992,21.0633036 52.7983214,21.4047897 52.9509148,21.7607294 C53.1092695,22.1113223 53.2355325,22.4755398 53.3281489,22.8489223 L53.3281489,22.8489223 Z" id="Fill-22" fill="#263238"></path>
                <path d="M52.1480419,24.0379499 C51.7646847,23.9523474 51.3893831,23.8339985 51.026268,23.6842068 C50.6583878,23.552114 50.3027113,23.3882376 49.9632664,23.194431 C50.3475486,23.2765596 50.7231598,23.395006 51.0850403,23.5481741 C51.4537581,23.6782102 51.8096154,23.8421699 52.1480419,24.0379499 L52.1480419,24.0379499 Z" id="Fill-23" fill="#263238"></path>
                <path d="M52.1532983,25.7051827 C51.4987026,26.1307119 50.7794314,26.4472695 50.0234931,26.642529 C50.6780874,26.2169993 51.3973586,25.9004417 52.1532983,25.7051827 Z" id="Fill-24" fill="#263238"></path>
                <path d="M53.3350069,26.8884365 C53.1814336,27.6465268 52.8991038,28.3727021 52.5002808,29.0354433 C52.583076,28.6513375 52.7015033,28.2757872 52.8540249,27.913669 C52.9827664,27.5579795 53.1437666,27.2148059 53.3350069,26.8884365 Z" id="Fill-25" fill="#263238"></path>
                <path d="M55.0023491,26.8834914 C55.2184209,27.2051393 55.4051224,27.5455695 55.5601917,27.9006731 C55.7162582,28.2525287 55.8401391,28.6177979 55.9303221,28.991999 C55.7175535,28.6714965 55.5342684,28.3323695 55.3827083,27.9787851 C55.2233154,27.6258379 55.0960128,27.2592635 55.0023491,26.8834914 L55.0023491,26.8834914 Z" id="Fill-26" fill="#263238"></path>
                <path d="M56.185566,25.7015603 C56.9436567,25.8551345 57.6698237,26.1374603 58.3325649,26.5362833 C57.5744746,26.38271 56.8483076,26.1003842 56.185566,25.7015603 Z" id="Fill-27" fill="#263238"></path>
                <path d="M56.187867,24.0313768 C56.5071281,23.8163609 56.8451988,23.6306957 57.1979479,23.4766593 C57.5521551,23.3195557 57.919783,23.1946345 58.2963746,23.1034038 C57.9734858,23.3172271 57.6319997,23.5015493 57.2760604,23.6541436 C56.9254665,23.8124987 56.5612496,23.9387604 56.187867,24.0313768 Z" id="Fill-28" fill="#263238"></path>
                <path d="M54.9988567,22.8511979 C55.0841609,22.4677611 55.2025182,22.0924339 55.3526007,21.7294236 C55.4866961,21.3601878 55.6529601,21.0034419 55.8494777,20.6632978 C55.7673481,21.0475803 55.6489017,21.4231915 55.4957336,21.7850721 C55.3636017,22.1551175 55.1972558,22.5120371 54.9988567,22.8511979 Z" id="Fill-29" fill="#263238"></path>
                <path d="M66.253,37.2304646 C65.8928164,36.7206831 65.6388617,36.1436562 65.5062478,35.5337204 C65.8752191,36.0384827 66.1300221,36.6174372 66.253,37.2304646 Z" id="Fill-30" fill="#263238"></path>
                <path d="M65.3068254,38.1807139 C64.9991385,38.1319398 64.6979863,38.0484164 64.4091314,37.9317428 C64.1171049,37.8231625 63.83855,37.6812976 63.5789944,37.5089618 C63.8848841,37.5578003 64.1847518,37.6388747 64.4735758,37.7508332 C64.7655646,37.8646602 65.0448337,38.0087412 65.3068254,38.1807139 L65.3068254,38.1807139 Z" id="Fill-31" fill="#263238"></path>
                <path d="M65.3037259,39.5211596 C65.0540814,39.7057912 64.7842865,39.861494 64.4995212,39.9852692 C64.2134131,40.1123012 63.9140588,40.207096 63.6069817,40.2679118 C63.8605301,40.0847699 64.1336906,39.9304462 64.4214092,39.8077858 C64.7037095,39.6791344 64.9997136,39.5829735 65.3037259,39.5211596 L65.3037259,39.5211596 Z" id="Fill-32" fill="#263238"></path>
                <path d="M66.2570586,40.4743616 C66.2082192,40.7802517 66.1271458,41.080119 66.0151863,41.3689434 C65.9035909,41.6619341 65.7593887,41.941439 65.5853052,42.2021921 C65.6354608,41.8928406 65.7178547,41.5895886 65.8311492,41.2973928 C65.9436838,41.0087927 66.0864518,40.7329105 66.2570586,40.4743616 L66.2570586,40.4743616 Z" id="Fill-33" fill="#263238"></path>
                <path d="M67.6015842,40.4675215 C67.7847265,40.7210707 67.9390546,40.9942413 68.0617151,41.2819599 C68.1899949,41.564404 68.2861378,41.8603549 68.3483364,42.1642657 C68.167213,41.9123397 68.0117384,41.6429415 67.8842317,41.3600719 C67.7608361,41.0725993 67.6661603,40.7736221 67.6015842,40.4675215 Z" id="Fill-34" fill="#263238"></path>
                <path d="M68.5507964,39.5242518 C68.8601479,39.5744074 69.1633999,39.6568013 69.4555957,39.7700958 C69.7441967,39.8826299 70.020078,40.0253983 70.2786274,40.1960039 C69.9727368,40.1471657 69.6728691,40.0660914 69.3840451,39.9541329 C69.0920563,39.8403058 68.8127872,39.6962249 68.5507964,39.5242518 L68.5507964,39.5242518 Z" id="Fill-35" fill="#263238"></path>
                <path d="M68.5724693,38.1674974 C69.0772317,37.7985261 69.6561871,37.5437227 70.2692135,37.4207452 C69.759433,37.7809284 69.182406,38.0348831 68.5724693,38.1674974 Z" id="Fill-36" fill="#263238"></path>
                <path d="M67.5975049,37.2234655 C67.6457477,36.9156638 67.7292985,36.6144472 67.8464873,36.3257675 C67.9555656,36.0339589 68.0973952,35.7554753 68.2692627,35.4956451 C68.2214984,35.8055097 68.1390302,36.1090075 68.0234134,36.4004347 C67.9108788,36.6890347 67.7681108,36.964917 67.5975049,37.2234655 L67.5975049,37.2234655 Z" id="Fill-37" fill="#263238"></path>
                <path d="M47.6666879,45.9235515 C47.4835459,45.6700032 47.3292174,45.3968317 47.206557,45.1091131 C47.0782772,44.826669 46.9821294,44.5307071 46.9199308,44.2267964 C47.1041757,44.4766941 47.2598524,44.7464447 47.3840404,45.0310011 C47.5110725,45.3171092 47.605872,45.6164745 47.6666879,45.9235515 L47.6666879,45.9235515 Z" id="Fill-38" fill="#263238"></path>
                <path d="M46.7360254,46.9092909 C46.1208622,46.8035104 45.5332611,46.5750606 45.0081944,46.2375388 C45.6253243,46.3361474 46.2143533,46.5651532 46.7360254,46.9092909 L46.7360254,46.9092909 Z" id="Fill-39" fill="#263238"></path>
                <path d="M46.7173763,48.2142151 C46.2150594,48.5822216 45.6384013,48.8360139 45.0277383,48.9578399 C45.5356473,48.5996254 46.1101563,48.3467788 46.7173763,48.2142151 L46.7173763,48.2142151 Z" id="Fill-40" fill="#263238"></path>
                <path d="M47.6706064,49.1672858 C47.6247542,49.4738092 47.5435927,49.7740027 47.4287341,50.0618676 C47.3173828,50.3526696 47.1756765,50.6309121 47.0059597,50.8919897 C47.0483743,50.5827991 47.1285552,50.279978 47.244708,49.9903122 C47.3572426,49.7017121 47.5,49.4258356 47.6706064,49.1672858 L47.6706064,49.1672858 Z" id="Fill-41" fill="#263238"></path>
                <path d="M49.0150897,49.1605114 C49.1981256,49.4025482 49.3575357,49.6615798 49.4911231,49.9340466 C49.6135808,50.2191372 49.7072185,50.5157634 49.7706431,50.8194908 C49.5885559,50.5683441 49.4352618,50.2975328 49.3136397,50.0121586 C49.1839099,49.739788 49.0838167,49.4542671 49.0150897,49.1605114 L49.0150897,49.1605114 Z" id="Fill-42" fill="#263238"></path>
                <path d="M49.9611935,48.2100853 C50.2710582,48.2578495 50.574566,48.3403133 50.8659932,48.4559302 C51.1558449,48.5656785 51.4320214,48.7085912 51.6890201,48.8818272 C51.3831295,48.8329891 51.0832727,48.75191 50.7944487,48.6399514 C50.50246,48.5261244 50.2231843,48.3820584 49.9611935,48.2100853 L49.9611935,48.2100853 Z" id="Fill-43" fill="#263238"></path>
                <path d="M49.9645593,46.8697984 C50.4693217,46.5008271 51.0482771,46.2460237 51.6613035,46.1230462 C51.151523,46.4832294 50.574496,46.7371841 49.9645593,46.8697984 L49.9645593,46.8697984 Z" id="Fill-44" fill="#263238"></path>
                <path d="M49.0080342,45.9093151 C49.0592367,45.602161 49.1426877,45.3012713 49.2570057,45.011622 C49.3660844,44.7198143 49.5079201,44.4413148 49.6797876,44.1814846 C49.6296311,44.4908365 49.5472262,44.7940934 49.4339317,45.0862891 C49.3213981,45.3748888 49.1786401,45.6507666 49.0080342,45.9093151 L49.0080342,45.9093151 Z" id="Fill-45" fill="#263238"></path>
                <path d="M38.6371177,21.0949971 C38.7902103,20.9746272 39.5007615,21.6920372 40.6468233,21.8632589 C41.7928862,22.0344806 42.706872,21.5898087 42.8111439,21.7468923 C42.8632918,21.8194001 42.6898634,22.0483318 42.2872024,22.2566997 C41.7418462,22.5223481 41.1279762,22.6138149 40.5288661,22.5186876 C39.9364356,22.4308487 39.3874481,22.1563978 38.9616636,21.7352125 C38.636493,21.4087464 38.5766849,21.143147 38.6371177,21.0949971 Z" id="Fill-46" fill="#734C13"></path>
                <path d="M28.8509179,20.0719464 C29.0120315,19.9636595 29.6782618,20.7212135 30.8040757,20.9607771 C31.9298907,21.2003406 32.8759355,20.8160646 32.9681564,20.9650793 C33.0162814,21.0375791 32.8308069,21.2544208 32.4161269,21.4386298 C31.8559957,21.6710717 31.237698,21.7246366 30.6459386,21.5919859 C30.0593757,21.4690876 29.5273257,21.1622433 29.1271889,20.7160929 C28.8422342,20.3937288 28.7784171,20.1200714 28.8509179,20.0719464 Z" id="Fill-47" fill="#734C13"></path>
                <path d="M28.6561231,16.5839399 C28.9065584,16.3632983 29.8414071,17.0514969 31.1018709,17.5621359 C32.3623349,18.072774 33.4987666,18.2815912 33.5210519,18.613763 C33.5236144,18.768489 33.2156241,18.936336 32.6844071,18.9874389 C31.9899398,19.0269458 31.2955537,18.9083598 30.6535565,18.6406169 C30.0115604,18.3728741 29.4386887,17.9629519 28.9780762,17.4417213 C28.6422058,17.0288182 28.5425745,16.6979357 28.6561231,16.5839399 Z" id="Fill-48" fill="#734C13"></path>
                <path d="M38.7318408,18.9718145 C38.8927845,18.6857081 39.7198616,18.8320037 40.6643999,18.7013269 C41.6089373,18.5706503 42.3792343,18.2659514 42.6018342,18.507217 C42.7046765,18.6247892 42.6165843,18.9104802 42.3064151,19.2018837 C41.8861034,19.5723216 41.361353,19.8034467 40.8043226,19.8634778 C40.5316947,19.9487625 40.2425822,19.9674097 39.9612584,19.9178521 C39.6799336,19.8682945 39.414604,19.751979 39.1875308,19.5786676 C38.8140452,19.3631421 38.6633552,19.1134664 38.7318408,18.9718145 Z" id="Fill-49" fill="#734C13"></path>
                <path d="M34.8838946,17.2415343 C34.8871332,17.2208756 34.9858246,17.1763775 35.1641188,17.1866891 C35.4026511,17.2066322 35.6271245,17.3078181 35.80003,17.4733439 C35.9731962,17.6394733 36.0820822,17.8614522 36.1074597,18.1000766 C36.1252314,18.2792458 36.0838591,18.385643 36.0632004,18.3824044 C36.0425417,18.3791659 36.0262935,17.9427154 35.6719035,17.6155279 C35.4424988,17.4303113 35.1724405,17.3021419 34.8838946,17.2415343 Z" id="Fill-50" fill="#BA4D3C"></path>
                <path d="M37.9354297,17.1060366 C37.9718893,17.1435012 37.7520372,17.3983052 37.6587726,17.7682009 C37.5655092,18.1380958 37.6265654,18.4686836 37.5735054,18.4921146 C37.5204443,18.5155456 37.3675091,18.1634982 37.4824372,17.7229178 C37.5973644,17.2823372 37.9114589,17.0564194 37.9354297,17.1060366 Z" id="Fill-51" fill="#BA4D3C"></path>
                <path d="M37.2598677,17.6351541 C37.3042927,17.6668123 37.1661197,17.8956166 37.1238881,18.2100144 C37.0816566,18.5244112 37.1402849,18.7805365 37.0917472,18.7976214 C37.0432086,18.8147061 36.8871003,18.5503545 36.9448537,18.1819479 C37.0026073,17.8135404 37.233738,17.5993088 37.2598677,17.6351541 Z" id="Fill-52" fill="#BA4D3C"></path>
            </g>
        </g>
    </g>
</svg>