<svg viewBox="0 0 88 96" fill="none" xmlns="http://www.w3.org/2000/svg">
<g clip-path="url(#clip0)">
<path d="M44.4458 5.72711C44.4458 5.72711 46.9612 -1.06571 54.8075 0.309338C63.9679 1.91316 62.2369 6.34606 65.6377 14.0721C69.0385 21.7982 78.6909 21.072 80.873 32.4177C84.5903 51.7394 66.8115 52.1361 60.9503 48.1407C55.0891 44.1452 55.9493 24.2669 55.9493 24.2669L44.4458 5.72711Z" fill="#393939"/>
<path d="M47.8677 5.29126C44.7777 3.99285 40.0551 3.39931 38.9786 6.72475C37.902 10.0502 37.8141 16.5448 35.2398 18.7103C32.6655 20.8758 30.572 27.6465 33.6942 32.4386C36.8165 37.2307 28.9423 37.5749 30.3799 45.624C31.8174 53.6731 44.0784 55.0575 50.3232 49.4654C56.568 43.8733 56.856 22.213 54.5269 14.2188C52.1977 6.22449 47.8677 5.29126 47.8677 5.29126Z" fill="#393939"/>
<path d="M70.4223 96.4258L68.1753 77.1033L78.0621 78.9007L76.7139 96.4258H70.4223Z" fill="#CCF6EF"/>
<path d="M41.6607 59.578L38.0661 96.4257H69.0742L66.3777 59.578L68.1754 77.1032L78.0622 78.9006C78.0622 78.9006 76.2646 51.9389 74.467 48.344C72.6694 44.7491 67.7259 40.7047 63.2319 41.1542C58.7379 41.6037 47.1111 41.2477 41.6607 45.1984C36.2102 49.1492 30.3028 62.8159 29.6999 64.596C29.1111 66.3345 23.4693 70.3647 24.5683 73.0215C24.9189 73.869 24.5684 74.8939 27.3674 77.2343C30.1663 79.5747 32.4987 79.1066 34.8312 78.1705C37.1636 77.2343 41.6607 59.578 41.6607 59.578Z" fill="#00A588"/>
<path d="M58.1143 25.3262C58.2521 30.147 60.1093 39.3234 63.2185 41.103C63.2185 41.103 61.7506 48.7207 53.6916 50.6264C45.6326 52.532 50.1522 42.5181 50.1522 42.5181C54.6828 40.2506 52.6664 38.288 50.9447 34.9266L58.1143 25.3262Z" fill="#CCF6EF"/>
<path opacity="0.2" d="M55.1669 29.2236L50.9271 34.8996C51.3367 35.6801 51.6788 36.4943 51.9496 37.3336C53.8662 36.5822 56.0977 33.7844 55.8366 31.684C55.7657 30.8285 55.5387 29.9949 55.1669 29.2236Z" fill="#393939"/>
<path d="M62.155 15.1109C62.4205 23.0179 62.6891 26.3591 59.0734 30.8093C53.6334 37.5107 43.7903 36.2186 41.1573 28.5737C38.789 21.6967 38.7686 9.92118 46.251 5.97025C47.8907 5.09872 49.7221 4.65446 51.5718 4.67953C53.4214 4.70459 55.2281 5.19816 56.8207 6.11349C58.4133 7.02882 59.7391 8.33562 60.6726 9.91013C61.6061 11.4846 62.1163 13.2747 62.155 15.1109Z" fill="#CCF6EF"/>
<path d="M45.509 5.27697C43.117 7.44614 45.5454 9.70435 50.923 10.441C56.3007 11.1777 56.6778 11.4561 56.772 15.6036C56.8662 19.7512 64.9031 21.7092 64.0622 17.5989C63.2212 13.4886 62.9228 5.38433 58.5867 4.13507C54.2506 2.88581 48.0452 3.01033 45.509 5.27697Z" fill="#393939"/>
<path d="M45.5634 7.20144C43.314 8.5499 39.1521 15.7806 39.1135 13.733C39.075 11.6853 39.4901 8.73933 42.174 7.05392C43.4265 6.18848 44.7932 5.50089 46.2339 5.01138L45.5634 7.20144Z" fill="#393939"/>
<path d="M65.002 21.1955C64.5841 22.6681 63.6187 23.9342 62.3024 24.7362C60.5511 25.7841 59.2292 24.3924 59.3424 22.5028C59.4468 20.799 60.4745 18.2051 62.4133 17.9239C64.3521 17.6426 65.4936 19.3938 65.002 21.1955Z" fill="#CCF6EF"/>
<path d="M44.8746 20.714C44.8746 20.714 44.0408 23.5822 42.9555 25.0379C43.8848 25.7382 45.3007 25.2257 45.3007 25.2257L44.8746 20.714Z" fill="#393939"/>
<path d="M52.4285 14.8979C52.4671 14.9087 52.508 14.9095 52.5472 14.9002C52.5865 14.8909 52.6228 14.8719 52.6528 14.8449C52.6753 14.8222 52.6932 14.7953 52.7054 14.7658C52.7175 14.7364 52.7238 14.7049 52.7236 14.6732C52.7235 14.6414 52.7171 14.6101 52.7047 14.5811C52.6924 14.552 52.6743 14.5257 52.6516 14.5037C52.2546 14.0892 51.7612 13.7776 51.2136 13.5954C50.666 13.4133 50.0805 13.366 49.5072 13.4577C49.4721 13.4603 49.438 13.4704 49.4071 13.4873C49.3762 13.5042 49.3493 13.5276 49.3283 13.5557C49.3072 13.5838 49.2925 13.6161 49.2852 13.6502C49.2778 13.6844 49.2781 13.7196 49.2858 13.7535C49.2935 13.7874 49.3086 13.8191 49.3299 13.8465C49.3513 13.8739 49.3785 13.8962 49.4095 13.912C49.4406 13.9279 49.4749 13.9367 49.5099 13.938C49.5449 13.9394 49.58 13.9331 49.6125 13.9197C50.1075 13.8504 50.6106 13.8985 51.0804 14.06C51.5503 14.2215 51.9734 14.4918 52.3152 14.8488C52.3486 14.8736 52.3873 14.8904 52.4285 14.8979Z" fill="#393939"/>
<path d="M47.6517 18.2699C47.5997 18.2719 47.5495 18.2904 47.5086 18.3228C47.4676 18.3552 47.4381 18.3996 47.4245 18.4496C47.4108 18.4996 47.4137 18.5524 47.4327 18.6002C47.4518 18.648 47.4859 18.6882 47.53 18.715C48.014 19.0247 48.567 19.2143 49.143 19.2681C49.7189 19.322 50.3012 19.2384 50.8414 19.0243C50.8995 18.9955 50.9442 18.9455 50.9661 18.885C50.9881 18.8245 50.9854 18.7581 50.9588 18.7001C50.9319 18.643 50.8833 18.599 50.8235 18.5777C50.7637 18.5564 50.6975 18.5595 50.6393 18.5863C50.1731 18.7686 49.6712 18.8384 49.1752 18.7898C48.6792 18.7412 48.2035 18.5758 47.7878 18.3071C47.7472 18.2818 47.6999 18.2689 47.6517 18.2699Z" fill="#393939"/>
<path d="M39.7544 19.45C39.7148 19.45 39.6758 19.46 39.6411 19.4793C39.6063 19.4985 39.5771 19.5263 39.5562 19.5599C39.5221 19.6151 39.511 19.6812 39.5253 19.7439C39.5396 19.8065 39.5782 19.8608 39.6327 19.8951C40.1166 20.2046 40.6697 20.3936 41.2456 20.4464C41.8214 20.4991 42.4034 20.4141 42.9427 20.1984C43.0006 20.1711 43.0456 20.1224 43.0678 20.0628C43.0901 20.0032 43.0878 19.9375 43.0614 19.8802C43.0331 19.823 42.9833 19.7792 42.9225 19.7582C42.8617 19.7372 42.7948 19.7407 42.7359 19.7678C42.2703 19.9508 41.7684 20.0203 41.2729 19.9704C40.7773 19.9206 40.3026 19.7528 39.8891 19.4813C39.848 19.4589 39.8015 19.4481 39.7544 19.45Z" fill="#393939"/>
<path d="M39.8804 15.0545C39.9219 15.0674 39.9663 15.069 40.0089 15.0589C40.0515 15.0489 40.0907 15.0276 40.1224 14.9974C40.4248 14.5993 40.819 14.2784 41.2714 14.062C41.7238 13.8456 42.2209 13.7401 42.7204 13.7545C42.7842 13.7598 42.848 13.7405 42.8983 13.7004C42.9485 13.6604 42.9815 13.6028 42.9901 13.5397C42.994 13.5082 42.9915 13.4763 42.9829 13.4459C42.9742 13.4155 42.9595 13.3872 42.9397 13.3626C42.9198 13.338 42.8952 13.3175 42.8672 13.3025C42.8392 13.2875 42.8084 13.2782 42.7766 13.2751C42.198 13.2522 41.6205 13.367 41.0925 13.61C40.5645 13.8529 40.1014 14.2169 39.7418 14.6714C39.7213 14.696 39.7059 14.7243 39.6965 14.7547C39.687 14.7851 39.6838 14.8169 39.6868 14.8484C39.6898 14.8799 39.6992 14.9104 39.7143 14.9382C39.7293 14.9659 39.7498 14.9904 39.7746 15.0101C39.8047 15.0347 39.8414 15.0501 39.8804 15.0545Z" fill="#393939"/>
<path d="M60.6028 19.4241L55.9481 24.3581C55.9481 24.3581 55.9495 28.4703 58.4486 29.6018L61.864 24.9068C61.864 24.9068 61.0732 33.5099 51.3288 36.5634C41.5844 39.6168 40.0865 25.9149 40.0865 25.9149C40.0865 25.9149 43.3478 22.6096 45.1659 22.451C46.9841 22.2923 51.6044 23.0912 53.7842 23.0437C55.964 22.9962 60.6028 19.4241 60.6028 19.4241Z" fill="white"/>
<path d="M16.6384 42.5959C16.1707 42.596 15.7082 43.0642 15.7041 44.0003C15.7024 44.3802 16.6432 46.328 17.0992 47.7449C17.3818 48.5387 16.0827 48.8804 14.306 49.1491C12.5494 49.4148 10.326 49.6146 8.70264 49.1492C9.33698 51.0892 18.0379 53.3619 18.0379 53.3619C18.0379 53.3619 24.3342 54.7662 23.8677 52.8939C23.4012 51.0215 22.2363 50.0853 20.3703 48.6811C19.409 46.7906 18.5724 45.7777 18.0379 44.4683C17.7904 43.862 17.1062 42.5959 16.6384 42.5959Z" fill="#A5F1E4"/>
<path d="M6.93416 46.3257L6.74749 46.3973L6.566 46.4744L6.93416 46.3257ZM6.93416 46.3257L6.566 46.4744L6.22703 46.6408L6.93416 46.3257ZM7.31473 46.2037L7.12394 46.2608L6.93416 46.3257L7.31473 46.2037ZM6.566 46.4744L6.39182 46.556L6.22703 46.6408L6.566 46.4744ZM6.22703 46.6408L6.07373 46.7278L5.93403 46.8158L6.22703 46.6408ZM6.93416 46.3257L6.22703 46.6408L5.70378 46.9904L6.93416 46.3257ZM6.22703 46.6408L5.93403 46.8158L5.70378 46.9904L6.22703 46.6408ZM5.93403 46.8158L5.81001 46.9037L5.70378 46.9904L5.93403 46.8158ZM5.70378 46.9904L5.61744 47.0747L5.55308 47.1554L5.70378 46.9904ZM22.2298 42.0776L7.31473 46.2037L6.93416 46.3257L22.2298 42.0776ZM6.93416 46.3257L5.70378 46.9904L4.08119 49.7033L6.93416 46.3257ZM5.70378 46.9904L5.55308 47.1554L3.98754 49.5084L5.70378 46.9904ZM22.2298 42.0776L22.0458 42.1244L7.31473 46.2037L22.2298 42.0776ZM22.8111 42.0091L22.2298 42.0776L6.93416 46.3257L22.8111 42.0091ZM5.55308 47.1554L4.02674 49.4345L3.98754 49.5084L5.55308 47.1554ZM5.70378 46.9904L3.98754 49.5084L4.08119 49.7033L5.70378 46.9904ZM22.5538 42.0201L22.3996 42.043L22.2298 42.0776L22.5538 42.0201ZM22.8111 42.0091L22.5538 42.0201L22.2298 42.0776L22.8111 42.0091ZM22.8111 42.0091L22.6914 42.0089L22.5538 42.0201L22.8111 42.0091ZM21.5292 44.5891L22.8111 42.0091L6.93416 46.3257L21.5292 44.5891ZM22.9921 42.0428L22.9117 42.0205L22.8111 42.0091L22.9921 42.0428ZM3.98754 49.5084L3.97457 49.5724L3.98665 49.6264L3.98754 49.5084ZM23.0872 42.1194L22.9921 42.0428L22.8111 42.0091L23.0872 42.1194ZM21.5292 44.5891L6.93416 46.3257L4.08119 49.7033L21.5292 44.5891ZM3.98665 49.6264L4.21732 50.2062L4.25326 50.2499L3.98665 49.6264ZM3.98754 49.5084L3.98665 49.6264L4.08119 49.7033L3.98754 49.5084ZM23.0872 42.1194L23.051 42.0758L22.9921 42.0428L23.0872 42.1194ZM4.02259 49.6701L3.98665 49.6264L4.25326 50.2499L4.02259 49.6701ZM4.02259 49.6701L4.25326 50.2499L4.31187 50.2831L4.02259 49.6701ZM3.98665 49.6264L4.02259 49.6701L4.08119 49.7033L3.98665 49.6264ZM23.0872 42.1194L23.0996 42.1732L23.3177 42.6993L23.0872 42.1194ZM4.08119 49.7033L4.02259 49.6701L4.31187 50.2831L4.08119 49.7033ZM23.0996 42.1732L23.3301 42.7532L23.3177 42.6993L23.0996 42.1732ZM4.08119 49.7033L4.31187 50.2831L4.39195 50.3055L4.08119 49.7033ZM23.087 42.2372L23.0996 42.1732L23.0872 42.1194L23.087 42.2372ZM4.16127 49.7257L4.08119 49.7033L4.39195 50.3055L4.16127 49.7257ZM23.0996 42.1732L23.087 42.2372L23.3301 42.7532L23.0996 42.1732ZM23.087 42.2372L23.3175 42.8171L23.3301 42.7532L23.087 42.2372ZM4.16127 49.7257L4.39195 50.3055L4.49231 50.317L4.16127 49.7257ZM4.08119 49.7033L4.16127 49.7257L4.26163 49.7372L4.08119 49.7033ZM4.26163 49.7372L4.16127 49.7257L4.49231 50.317L4.26163 49.7372ZM23.087 42.2372L23.0481 42.3109L23.3175 42.8171L23.087 42.2372ZM23.0481 42.3109L23.2786 42.8908L23.3175 42.8171L23.0481 42.3109ZM4.26163 49.7372L4.49231 50.317L4.61177 50.3173L4.26163 49.7372ZM4.08119 49.7033L4.26163 49.7372L4.51846 49.7263L4.08119 49.7033ZM4.38109 49.7375L4.26163 49.7372L4.61177 50.3173L4.38109 49.7375ZM4.38109 49.7375L4.61177 50.3173L4.74914 50.3062L4.38109 49.7375ZM4.26163 49.7372L4.38109 49.7375L4.51846 49.7263L4.26163 49.7372ZM4.51846 49.7263L4.38109 49.7375L4.74914 50.3062L4.51846 49.7263ZM4.51846 49.7263L4.74914 50.3062L4.90322 50.2835L4.51846 49.7263ZM4.67254 49.7036L4.51846 49.7263L4.90322 50.2835L4.67254 49.7036ZM4.67254 49.7036L4.90322 50.2835L5.07283 50.2489L4.67254 49.7036ZM4.51846 49.7263L4.67254 49.7036L4.84214 49.669L4.51846 49.7263ZM4.84214 49.669L4.67254 49.7036L5.07283 50.2489L4.84214 49.669ZM4.84214 49.669L5.07283 50.2489L5.25677 50.2022L4.84214 49.669ZM5.02608 49.6223L4.84214 49.669L5.25677 50.2022L5.02608 49.6223ZM21.5292 44.5891L23.0872 42.1194L22.8111 42.0091L21.5292 44.5891ZM21.5292 44.5891L23.087 42.2372L23.0872 42.1194L21.5292 44.5891ZM21.5292 44.5891L23.0481 42.3109L23.087 42.2372L21.5292 44.5891ZM23.0481 42.3109L21.5292 44.5891L23.2786 42.8908L23.0481 42.3109ZM4.08119 49.7033L4.51846 49.7263L19.7665 45.5417L4.08119 49.7033ZM4.51846 49.7263L4.84214 49.669L19.7665 45.5417L4.51846 49.7263ZM5.02608 49.6223L5.25677 50.2022L19.9972 46.122L5.02608 49.6223ZM4.84214 49.669L5.02608 49.6223L19.7665 45.5417L4.84214 49.669ZM21.5292 44.5891L21.7598 45.1693L23.2786 42.8908L21.5292 44.5891ZM4.08119 49.7033L20.5163 45.2707L21.5292 44.5891L4.08119 49.7033ZM4.08119 49.7033L19.7665 45.5417L20.5163 45.2707L4.08119 49.7033ZM19.7665 45.5417L5.02608 49.6223L19.9972 46.122L19.7665 45.5417ZM21.5292 44.5891L21.465 44.6699L21.7598 45.1693L21.5292 44.5891ZM21.465 44.6699L21.6956 45.2501L21.7598 45.1693L21.465 44.6699ZM21.3788 44.7542L21.465 44.6699L21.5292 44.5891L21.3788 44.7542ZM21.465 44.6699L21.3788 44.7542L21.6956 45.2501L21.465 44.6699ZM21.3788 44.7542L21.6094 45.3344L21.6956 45.2501L21.3788 44.7542ZM21.1486 44.929L21.3788 44.7542L21.5292 44.5891L21.1486 44.929ZM21.3788 44.7542L21.2726 44.841L21.6094 45.3344L21.3788 44.7542ZM21.2726 44.841L21.5033 45.4212L21.6094 45.3344L21.2726 44.841ZM21.1486 44.929L21.2726 44.841L21.3788 44.7542L21.1486 44.929ZM21.2726 44.841L21.1486 44.929L21.5033 45.4212L21.2726 44.841ZM21.1486 44.929L21.3793 45.5092L21.5033 45.4212L21.1486 44.929ZM20.5163 45.2707L21.1486 44.929L21.5292 44.5891L20.5163 45.2707ZM21.0089 45.0171L21.2395 45.5973L21.3793 45.5092L21.0089 45.0171ZM21.1486 44.929L21.0089 45.0171L21.3793 45.5092L21.1486 44.929ZM20.8555 45.1042L21.0862 45.6844L21.2395 45.5973L20.8555 45.1042ZM21.0089 45.0171L20.8555 45.1042L21.2395 45.5973L21.0089 45.0171ZM20.8555 45.1042L21.0089 45.0171L21.1486 44.929L20.8555 45.1042ZM19.7665 45.5417L19.9972 46.122L20.1883 46.0648L19.7665 45.5417ZM20.6906 45.1891L20.9213 45.7693L21.0862 45.6844L20.6906 45.1891ZM20.5163 45.2707L20.8555 45.1042L21.1486 44.929L20.5163 45.2707ZM20.8555 45.1042L20.6906 45.1891L21.0862 45.6844L20.8555 45.1042ZM19.9576 45.4846L20.1883 46.0648L20.3783 45.9999L19.9576 45.4846ZM20.5163 45.2707L20.7469 45.851L20.9213 45.7693L20.5163 45.2707ZM19.9576 45.4846L19.7665 45.5417L20.1883 46.0648L19.9576 45.4846ZM20.6906 45.1891L20.5163 45.2707L20.9213 45.7693L20.6906 45.1891ZM20.3346 45.348L20.5652 45.9282L20.7469 45.851L20.3346 45.348ZM20.1477 45.4196L20.3783 45.9999L20.5652 45.9282L20.1477 45.4196ZM20.5163 45.2707L20.6906 45.1891L20.8555 45.1042L20.5163 45.2707ZM20.1477 45.4196L19.9576 45.4846L20.3783 45.9999L20.1477 45.4196ZM19.7665 45.5417L19.9576 45.4846L20.1477 45.4196L19.7665 45.5417ZM20.5163 45.2707L20.3346 45.348L20.7469 45.851L20.5163 45.2707ZM19.7665 45.5417L20.1477 45.4196L20.5163 45.2707L19.7665 45.5417ZM20.3346 45.348L20.1477 45.4196L20.5652 45.9282L20.3346 45.348ZM20.1477 45.4196L20.3346 45.348L20.5163 45.2707L20.1477 45.4196Z" fill="#393939"/>
<path d="M19.8979 44.0001C19.172 44.0003 18.7699 45.0746 18.4977 45.4044C18.2256 45.7343 17.8521 46.3406 17.3355 48.8116C17.5352 49.528 17.9291 50.2042 18.301 51.0668C18.0628 50.9444 17.907 50.9262 17.8521 50.8568C17.8521 50.8568 15.8121 48.383 15.7598 47.7138C15.7074 47.0446 17.1 44.4683 16.171 44.4683C15.242 44.4683 14.5738 45.8725 14.5738 45.8725C14.5738 45.8725 13.8557 47.0572 13.7285 47.5461C13.6013 48.035 15.7011 51.9576 15.7011 51.9576C15.1716 51.3602 12.8397 48.5756 12.5985 47.977C12.3572 47.3783 13.3721 46.3406 13.3721 46.3406C13.8346 45.8725 13.8324 44.9282 13.3721 44.9363C12.9117 44.9445 11.9669 45.8724 11.5061 46.3406C11.0453 46.8088 10.8871 47.4737 11.0363 48.681C11.1855 49.8883 12.9023 51.4895 12.9023 51.4895C12.2348 51.1022 10.319 49.3025 10.2112 48.5237C10.2112 48.5237 10.8466 46.6453 10.2112 46.3406C9.32689 45.9166 8.51799 48.5237 8.51799 48.5237C8.51799 48.5237 8.24157 49.756 9.17454 50.8568C10.1075 51.9576 11.3485 53.3617 11.9735 53.8299C12.5985 54.298 18.4925 55.2276 18.9649 55.4649C19.4373 55.7022 20.8525 63.4317 20.8525 63.4317C21.9426 66.2371 23.0015 69.0388 24.0915 71.8442C24.2381 72.2079 24.4121 72.6063 24.5587 72.97C25.4729 74.0535 26.3597 75.1023 27.7907 75.553C28.6097 75.8378 29.4123 75.9945 30.2826 75.8442C32.1168 75.5544 33.7238 73.9778 34.1766 72.0143C34.2444 71.7072 34.3433 71.4037 34.1345 71.0327C31.1445 65.863 28.1582 60.6621 25.203 55.4649C24.734 54.6225 24.2686 53.7489 23.8033 52.8754C23.5761 52.6598 23.3837 52.4168 23.1181 52.2597C22.3833 51.7958 21.6449 51.363 20.9102 50.8991C20.7343 50.784 20.6317 50.583 20.4943 50.4094C19.8219 49.4171 19.4383 47.977 19.4383 47.977C19.5181 47.3262 19.9095 46.6971 20.1375 46.0508C20.3655 45.4044 20.6238 43.9998 19.8979 44.0001Z" fill="#CCF6EF"/>
</g>
<defs>
<clipPath id="clip0">
<rect width="88" height="96" fill="white"/>
</clipPath>
</defs>
</svg>
