<!-- Generated by IcoMoon.io -->
<svg version="1.1" xmlns="http://www.w3.org/2000/svg" width="1015" height="1024" viewBox="0 0 1015 1024">
<title></title>
<g id="icomoon-ignore">
</g>
<path fill="#000" d="M901.101 91.407c-0.145-0.003-0.316-0.005-0.487-0.005-2.598 0-5.097 0.422-7.434 1.2l0.166-0.048-253.574 81.772c-9.522 3.145-16.272 11.962-16.272 22.357 0 2.571 0.413 5.045 1.176 7.361l-0.047-0.166c3.14 9.529 11.962 16.285 22.361 16.285 2.587 0 5.076-0.418 7.403-1.19l-0.166 0.048 206.539-66.628c-140.606 352.673-341.584 535.107-509.028 630.165-172.43 97.903-307.165 103.063-307.165 103.063-12.563 0.52-22.551 10.832-22.551 23.475 0 0.345 0.007 0.689 0.022 1.031l-0.002-0.049c0.52 12.563 10.832 22.551 23.475 22.551 0.345 0 0.689-0.007 1.031-0.022l-0.049 0.002s147.368-6.343 328.451-109.166c173.031-98.246 378.423-285.62 522.467-636.273l49.925 169.187c2.966 9.815 11.929 16.839 22.532 16.839 2.372 0 4.661-0.351 6.819-1.005l-0.166 0.043c9.815-2.966 16.839-11.929 16.839-22.532 0-2.372-0.351-4.661-1.005-6.819l0.043 0.166-69.336-234.805c-2.911-9.642-11.601-16.587-21.951-16.84l-0.029-0.001z"></path>
</svg>
