<svg viewBox="0 0 375 331" fill="none" xmlns="http://www.w3.org/2000/svg">
<path opacity="0.1" d="M-22 154.804V218.127H77.074V154.804H-22ZM-22 220.081V274.46C-21.4333 274.579 -20.8711 274.694 -20.3135 274.79C-19.5548 274.936 -18.8007 275.069 -18.0283 275.183C-17.882 275.206 -17.7312 275.229 -17.5712 275.243C-17.2696 275.293 -16.9588 275.335 -16.6571 275.376C-15.8939 275.481 -15.1352 275.568 -14.3719 275.637C-14.0108 275.673 -13.6452 275.705 -13.2795 275.733L-12.3975 275.801C-11.9176 275.838 -11.4422 275.865 -10.9715 275.879C-10.679 275.879 -10.3864 275.907 -10.0848 275.916C-9.85627 275.916 -9.62775 275.916 -9.39008 275.916C-9.15242 275.916 -8.8142 275.916 -8.52627 275.916C-8.1332 275.916 -7.74014 275.916 -7.35165 275.916H-6.82605C-6.43299 275.916 -6.03993 275.916 -5.65144 275.879H-5.62402C-5.35436 275.879 -5.08013 275.879 -4.8059 275.843C-4.7298 275.847 -4.65349 275.847 -4.57738 275.843C-4.34886 275.843 -4.12034 275.843 -3.90095 275.811H-3.74099L-2.20988 275.692C-1.70712 275.646 -1.19981 275.586 -0.687916 275.531L0.354156 275.408C4.59362 274.813 8.78597 273.92 12.9001 272.735C22.1416 270.153 31.182 266.541 40.4189 263.896C52.3615 260.486 65.5564 258.81 77.0969 262.98V220.081H-22ZM77.074 84.3084V0.00748571C66.2271 -0.110209 55.4096 1.16037 44.8842 3.78837C19.7969 10.1005 -2.71263 23.7913 -22 41.2768V84.3038H-17.0273V86.2583H-22V152.849H77.074V86.2629H3.38895V84.3084H77.074ZM204.33 55.8327C198.123 55.613 191.953 53.6448 186.372 50.6054C175.7 44.7922 167.176 35.816 157.651 28.2405C137.861 12.4624 113.318 2.94156 88.1391 0.579653V84.3084H229.572L229.924 83.9376L204.33 55.8327ZM217.214 53.5441L230.875 68.5577V49.6075C226.3 50.1751 222.291 51.5255 217.232 53.5258L217.214 53.5441ZM230.875 287.963V220.081H201.766C201.688 219.793 201.61 219.5 201.519 219.207C201.606 219.5 201.679 219.793 201.761 220.081H88.1574V269.173C89.236 269.974 90.3009 270.817 91.3567 271.673C92.4948 272.588 93.6191 273.554 94.748 274.501L95.8861 275.444C96.4299 275.902 96.9784 276.36 97.5314 276.79C98.6283 277.681 99.7359 278.56 100.854 279.427C101.407 279.884 101.974 280.296 102.536 280.727C111.461 287.56 120.876 293.728 130.704 299.178C132.907 300.398 135.13 301.59 137.372 302.753C138.867 303.517 140.37 304.277 141.879 305.014C144.146 306.122 146.431 307.19 148.734 308.218C169.972 317.766 192.429 324.317 215.463 327.686C220.579 328.442 225.715 329.037 230.87 329.471V287.959H231.327L230.875 287.963ZM88.1574 86.2629V152.849H230.893V86.2629H88.1574ZM88.1574 154.804V218.127H230.893V154.804H88.1574ZM241.972 49.5252V70.6633L259.408 51.5026C253.631 50.5688 247.819 49.902 241.972 49.5023V49.5252ZM241.972 154.827V218.127H380.8V154.804L241.972 154.827ZM380.293 292.989L380.782 220.081H241.972V330.199C250.914 330.575 259.87 330.468 268.801 329.878H268.956C273.222 329.61 277.468 329.219 281.694 328.706H281.79C304.336 326.078 326.382 320.187 347.239 311.216L380.293 292.989ZM407.569 165.231C407.048 164 406.504 162.778 405.951 161.569C404.918 159.281 403.826 157.056 402.702 154.831H391.87V218.127H419.256C419.242 200.202 414.713 181.893 407.583 165.208L407.569 165.231ZM391.87 220.104V282.814C399.584 275.408 406.102 266.935 410.796 257.249C416.44 245.586 419.023 232.958 419.233 220.095L391.87 220.104ZM391.87 136.376V152.854H401.687C398.717 147.181 395.444 141.673 391.883 136.353L391.87 136.376ZM297.718 61.9481C296.996 61.6734 296.274 61.3942 295.547 61.1241C287.883 58.2895 280.051 55.9323 272.096 54.0659L245.413 83.3929L244.902 83.9376L245.244 84.313H340.21C326.984 75.1951 312.725 67.68 297.732 61.9252L297.718 61.9481ZM342.993 86.2858H243.919L241.972 88.0709V152.849H259.038H259.065H380.818V121.472C369.804 108.131 357.092 96.2944 343.007 86.2629L342.993 86.2858Z" fill="#407BFF"/>
<path opacity="0.1" d="M12.8772 95.7974V152.849H-22V95.7974H-17.0273V76.481H3.38437V95.7974H12.8772Z" fill="#407BFF"/>
<path opacity="0.1" d="M12.877 154.804H-21.9956V218.122H12.877V154.804Z" fill="#407BFF"/>
<path opacity="0.1" d="M-22 220.086H12.8772V272.725C8.76312 273.909 4.57074 274.801 0.331301 275.394L-0.710764 275.522C-1.22266 275.582 -1.72998 275.632 -2.23273 275.682C-2.73548 275.733 -3.25652 275.769 -3.76384 275.801H-3.9238C-4.14318 275.801 -4.38085 275.829 -4.59566 275.833H-4.82876C-5.10299 275.833 -5.37721 275.861 -5.65144 275.87C-6.03993 275.893 -6.42842 275.897 -6.82605 275.902C-6.99516 275.902 -7.15512 275.902 -7.32423 275.902C-7.71729 275.902 -8.10578 275.902 -8.49884 275.902H-9.36266C-9.59576 275.902 -9.81971 275.902 -10.0619 275.902L-10.944 275.87C-11.4011 275.87 -11.8947 275.82 -12.37 275.788L-13.2476 275.723L-14.3399 275.623C-15.1077 275.554 -15.871 275.467 -16.6251 275.362L-17.5392 275.234L-17.9963 275.17C-18.7595 275.051 -19.5137 274.922 -20.2815 274.776C-20.8437 274.68 -21.4013 274.561 -21.968 274.446L-22 220.086Z" fill="#407BFF"/>
<path opacity="0.1" d="M230.893 89.0594H202.136V152.845H230.893V89.0594Z" fill="#407BFF"/>
<path opacity="0.1" d="M230.898 154.804V218.127H88.1573V190.814H164.187V206.926H202.136V154.804H230.898Z" fill="#407BFF"/>
<path opacity="0.1" d="M231.35 287.977H230.893V329.516C225.744 329.08 220.609 328.487 215.491 327.736C192.445 324.357 169.978 317.791 148.734 308.227C142.601 305.463 136.592 302.445 130.708 299.173C120.88 293.72 111.464 287.553 102.536 280.722C100.293 279.001 98.0798 277.24 95.8951 275.44C94.3823 274.19 92.8786 272.908 91.3567 271.663C90.3009 270.807 89.236 269.965 88.1573 269.16V220.086H201.756C201.679 219.793 201.601 219.5 201.519 219.212C201.605 219.5 201.688 219.793 201.765 220.086H230.893V287.95C231.048 287.954 231.199 287.968 231.35 287.977Z" fill="#407BFF"/>
<path opacity="0.1" d="M305.894 84.3083H287.155V78.4768H295.556V61.1057C296.284 61.3712 297.009 61.6443 297.731 61.9251V78.4768H305.894V84.3083Z" fill="#407BFF"/>
<path opacity="0.1" d="M351.042 152.849H259.047C259.047 152.849 259.047 152.849 259.079 152.872L259.038 152.849H241.972V89.0642H246.807V136.211H268.906V108.289H287.16V86.2675H305.899V108.307H324.153V136.229H351.042V152.849Z" fill="#407BFF"/>
<path opacity="0.1" d="M241.972 154.804V218.127H351.042V154.804H241.972ZM380.649 292.664L380.8 242.542H351.042V220.113H241.972V330.198C250.914 330.575 259.87 330.468 268.801 329.878H268.956C273.222 329.609 277.468 329.219 281.694 328.706H281.79C304.336 326.078 326.382 320.187 347.239 311.216" fill="#407BFF"/>
<path opacity="0.1" d="M230.898 106.792H215.49V126.791H230.898V106.792Z" fill="#6C63FF"/>
<path opacity="0.1" d="M230.898 148.245H215.49V152.849H230.898V148.245Z" fill="#6C63FF"/>
<path opacity="0.1" d="M230.898 154.804H215.49V168.238H230.898V154.804Z" fill="#6C63FF"/>
<path opacity="0.1" d="M230.898 189.697H215.49V209.695H230.898V189.697Z" fill="#6C63FF"/>
<path opacity="0.1" d="M230.898 231.149H215.49V251.148H230.898V231.149Z" fill="#6C63FF"/>
<path opacity="0.1" d="M230.893 287.95C231.048 287.95 231.199 287.95 231.35 287.977H230.893V292.623H215.49V272.602H230.893V287.95Z" fill="#6C63FF"/>
<path opacity="0.1" d="M230.893 314.045V329.494C225.744 329.057 220.609 328.464 215.49 327.713V314.045H230.893Z" fill="#6C63FF"/>
<path opacity="0.1" d="M154.187 216.658H88.1573V218.127H154.187V216.658Z" fill="#6C63FF"/>
<path opacity="0.1" d="M154.187 220.081H88.1573V225.711H154.187V220.081Z" fill="#6C63FF"/>
<path opacity="0.1" d="M154.187 244.167H88.1573V253.221H154.187V244.167Z" fill="#6C63FF"/>
<path opacity="0.1" d="M154.182 271.677V280.731H102.536C100.293 279.016 98.0783 277.255 95.8905 275.449C94.3777 274.199 92.8786 272.918 91.3521 271.677H154.182Z" fill="#6C63FF"/>
<path opacity="0.1" d="M154.182 299.182V308.227H148.73C142.602 305.459 136.595 302.44 130.708 299.169L154.182 299.182Z" fill="#6C63FF"/>
<path opacity="0.1" d="M281.803 160.942H268.805V173.96H281.803V160.942Z" fill="#6C63FF"/>
<path opacity="0.1" d="M0.363155 100.288H-12.6353V113.306H0.363155V100.288Z" fill="#6C63FF"/>
<path opacity="0.1" d="M0.363155 130.526H-12.6353V143.544H0.363155V130.526Z" fill="#6C63FF"/>
<path opacity="0.1" d="M0.363155 160.764H-12.6353V173.782H0.363155V160.764Z" fill="#6C63FF"/>
<path opacity="0.1" d="M0.363155 190.997H-12.6353V204.015H0.363155V190.997Z" fill="#6C63FF"/>
<path opacity="0.1" d="M0.363155 221.235H-12.6353V234.253H0.363155V221.235Z" fill="#6C63FF"/>
<path opacity="0.1" d="M0.363155 251.473H-12.6353V264.491H0.363155V251.473Z" fill="#6C63FF"/>
<path opacity="0.1" d="M331.425 160.942H318.427V173.96H331.425V160.942Z" fill="#6C63FF"/>
<path opacity="0.1" d="M281.803 193.052H268.805V206.07H281.803V193.052Z" fill="#6C63FF"/>
<path opacity="0.1" d="M331.425 193.052H318.427V206.07H331.425V193.052Z" fill="#6C63FF"/>
<path opacity="0.1" d="M281.803 225.158H268.805V238.176H281.803V225.158Z" fill="#6C63FF"/>
<path opacity="0.1" d="M331.425 225.158H318.427V238.176H331.425V225.158Z" fill="#6C63FF"/>
<path opacity="0.1" d="M281.803 257.268H268.805V270.286H281.803V257.268Z" fill="#6C63FF"/>
<path opacity="0.1" d="M331.425 257.268H318.427V270.286H331.425V257.268Z" fill="#6C63FF"/>
<path opacity="0.1" d="M281.803 289.378H268.805V302.396H281.803V289.378Z" fill="#6C63FF"/>
<path opacity="0.1" d="M331.425 289.378H318.427V302.396H331.425V289.378Z" fill="#6C63FF"/>
<path opacity="0.1" d="M268.805 329.878V321.483H281.799V328.683L268.805 329.878Z" fill="#6C63FF"/>
<path opacity="0.1" d="M259.047 152.849H259.074H259.047ZM230.893 287.945H231.35H230.893ZM201.519 219.207C201.605 219.5 201.679 219.793 201.761 220.081C201.688 219.793 201.61 219.5 201.519 219.207ZM259.047 152.836H259.074H259.047ZM-17.0092 84.2946V86.2491H3.40712V84.2946H-17.0092ZM230.893 287.945H231.35H230.893ZM201.519 219.207C201.605 219.5 201.679 219.793 201.761 220.081C201.688 219.793 201.61 219.5 201.519 219.207ZM259.047 152.836H259.074H259.047ZM230.893 287.931H231.35H230.893ZM201.519 219.207C201.605 219.5 201.679 219.793 201.761 220.081C201.688 219.793 201.61 219.5 201.519 219.207Z" fill="#6C63FF"/>
<path d="M56.8985 61.0523C44.7633 60.374 37.6508 72.2434 44.69 79.7958C51.7291 87.3482 46.7247 91.0603 43.8926 92.4351C46.9905 101.362 71.7925 102.591 77.0536 95.0565C81.4714 88.7322 64.2218 80.5932 68.383 73.6916C72.5441 66.7899 66.339 60.8598 56.8985 61.0523Z" fill="#263238"/>
<path d="M130.251 114.597L128.546 116.513C128.231 116.869 127.835 117.145 127.392 117.318C126.949 117.49 126.471 117.553 125.998 117.503L121.516 117.026C120.631 116.932 119.782 116.627 119.039 116.137C118.296 115.648 117.681 114.988 117.245 114.212L116.704 113.241C119.307 109.868 124.614 108.136 124.614 108.136L126.071 107.476C126.366 107.331 126.687 107.247 127.015 107.227C127.343 107.207 127.672 107.253 127.982 107.361C128.293 107.469 128.578 107.638 128.823 107.858C129.068 108.077 129.266 108.343 129.407 108.64L130.755 111.509C130.98 112.017 131.052 112.58 130.963 113.128C130.873 113.677 130.626 114.187 130.251 114.597Z" fill="#FFB573"/>
<path d="M72.9292 114.157C73.9099 115.257 74.7623 116.211 75.7431 117.21C76.7238 118.209 77.622 119.153 78.5752 120.115C80.4908 122.031 82.4247 123.928 84.4412 125.761C88.5377 129.627 93.0045 133.081 97.7771 136.072H97.8229C97.9412 136.146 98.0636 136.214 98.1895 136.274C99.5257 136.917 100.997 137.232 102.479 137.191C103.595 137.142 104.698 136.929 105.751 136.558C107.272 136.013 108.712 135.263 110.031 134.331C112.125 132.833 114.073 131.142 115.852 129.281C117.556 127.558 119.124 125.798 120.618 124.001C122.112 122.205 123.541 120.454 125.008 118.502L115.934 112.04C114.797 113.635 113.468 115.386 112.158 116.971C110.847 118.557 109.408 120.115 108.024 121.554C106.719 122.873 105.295 124.07 103.771 125.129C103.277 125.47 102.741 125.747 102.177 125.954C102.039 125.999 102.012 125.954 102.177 125.954C102.548 125.94 102.918 126.022 103.249 126.192L103.661 126.412C101.707 125.123 99.8336 123.715 98.052 122.196C96.2189 120.638 94.3858 118.942 92.6535 117.182C90.9212 115.422 89.1798 113.598 87.5116 111.729C86.6867 110.812 85.8618 109.841 85.0553 108.878C84.2487 107.916 83.433 106.926 82.7364 106.037L72.9292 114.157Z" fill="#407BFF"/>
<path opacity="0.7" d="M72.9292 114.157C73.9099 115.257 74.7623 116.211 75.7431 117.21C76.7238 118.209 77.622 119.153 78.5752 120.115C80.4908 122.031 82.4247 123.928 84.4412 125.761C88.5377 129.627 93.0045 133.081 97.7771 136.072H97.8229C97.9412 136.146 98.0636 136.214 98.1895 136.274C99.5257 136.917 100.997 137.232 102.479 137.191C103.595 137.142 104.698 136.929 105.751 136.558C107.272 136.013 108.712 135.263 110.031 134.331C112.125 132.833 114.073 131.142 115.852 129.281C117.556 127.558 119.124 125.798 120.618 124.001C122.112 122.205 123.541 120.454 125.008 118.502L115.934 112.04C114.797 113.635 113.468 115.386 112.158 116.971C110.847 118.557 109.408 120.115 108.024 121.554C106.719 122.873 105.295 124.07 103.771 125.129C103.277 125.47 102.741 125.747 102.177 125.954C102.039 125.999 102.012 125.954 102.177 125.954C102.548 125.94 102.918 126.022 103.249 126.192L103.661 126.412C101.707 125.123 99.8336 123.715 98.052 122.196C96.2189 120.638 94.3858 118.942 92.6535 117.182C90.9212 115.422 89.1798 113.598 87.5116 111.729C86.6867 110.812 85.8618 109.841 85.0553 108.878C84.2487 107.916 83.433 106.926 82.7364 106.037L72.9292 114.157Z" fill="white"/>
<path d="M51.2068 326.872C44.7909 326.872 45.2859 326.771 41.7021 326.652C38.6317 326.542 37.9076 326.927 35.4512 326.872C33.389 326.826 33.4165 324.855 33.9847 322.591C34.278 321.455 34.7271 320.062 35.1213 318.219H44.8001C45.598 319.581 46.7081 320.733 48.0387 321.58C49.3694 322.428 50.8825 322.947 52.4533 323.095C55.9179 323.554 53.7457 326.872 51.2068 326.872Z" fill="#407BFF"/>
<path d="M99.2435 326.872C92.9834 326.872 90.8753 326.459 87.3282 326.34C84.3036 326.23 83.8362 326.872 80.7749 326.872C78.7493 326.872 78.3643 324.589 79.0242 322.876C79.7535 321.382 80.3397 319.823 80.7749 318.219H89.418C91.1045 320.969 95.4398 322.985 100.206 323.325C103.643 323.572 101.746 326.872 99.2435 326.872Z" fill="#407BFF"/>
<path d="M83.9371 156.182C83.9371 156.182 87.2916 201.239 85.9626 229.854C87.3925 256.719 89.4456 318.238 89.4456 318.238C89.2989 319.613 82.0673 319.063 80.8024 318.238C80.8024 318.238 65.221 273.427 69.1622 229.854C52.0409 184.393 53.9565 156.182 53.9565 156.182H83.9371Z" fill="#263238"/>
<path d="M74.9457 156.182C74.9457 156.182 61.6464 207.041 56.3671 232.017C50.8127 258.24 43.3153 300.814 44.8001 318.238C43.3337 319.109 38.0818 319.154 35.1213 318.238C35.1213 318.238 23.6919 258.423 38.1093 233.172C33.0682 171.039 49.5387 156.182 49.5387 156.182H74.9457Z" fill="#263238"/>
<path d="M45.4325 314.59C45.4935 315.793 45.6375 316.99 45.8633 318.174C45.8934 318.273 45.9015 318.378 45.8868 318.481C45.8722 318.584 45.8352 318.683 45.7784 318.77C45.7217 318.858 45.6466 318.932 45.5583 318.987C45.4701 319.042 45.3708 319.077 45.2675 319.09C41.7388 319.658 36.5877 318.834 34.9562 318.54C34.8029 318.514 34.6615 318.441 34.5515 318.331C34.4415 318.221 34.3684 318.079 34.3421 317.926L33.7189 314.581C33.6982 314.474 33.7018 314.364 33.7294 314.259C33.757 314.154 33.8079 314.056 33.8783 313.974C33.9487 313.891 34.0369 313.825 34.1362 313.781C34.2355 313.737 34.3435 313.716 34.4521 313.719L44.6901 313.912C44.8751 313.915 45.0527 313.986 45.1893 314.111C45.326 314.235 45.4124 314.406 45.4325 314.59Z" fill="#263238"/>
<path opacity="0.1" d="M45.4325 314.59C45.4935 315.793 45.6375 316.99 45.8633 318.174C45.8934 318.273 45.9015 318.378 45.8868 318.481C45.8722 318.584 45.8352 318.683 45.7784 318.77C45.7217 318.858 45.6466 318.932 45.5583 318.987C45.4701 319.042 45.3708 319.077 45.2675 319.09C41.7388 319.658 36.5877 318.834 34.9562 318.54C34.8029 318.514 34.6615 318.441 34.5515 318.331C34.4415 318.221 34.3684 318.079 34.3421 317.926L33.7189 314.581C33.6982 314.474 33.7018 314.364 33.7294 314.259C33.757 314.154 33.8079 314.056 33.8783 313.974C33.9487 313.891 34.0369 313.825 34.1362 313.781C34.2355 313.737 34.3435 313.716 34.4521 313.719L44.6901 313.912C44.8751 313.915 45.0527 313.986 45.1893 314.111C45.326 314.235 45.4124 314.406 45.4325 314.59Z" fill="white"/>
<path d="M90.2521 314.434C90.3254 315.351 90.4537 317.028 90.6004 318.256C90.6238 318.45 90.5695 318.646 90.4493 318.801C90.3292 318.955 90.1529 319.056 89.9588 319.081C86.7818 319.341 83.5876 319.304 80.4175 318.971C80.2612 318.96 80.1124 318.9 79.9922 318.8C79.872 318.7 79.7867 318.564 79.7484 318.412L78.951 315.066C78.9268 314.959 78.9263 314.848 78.9495 314.741C78.9728 314.634 79.0192 314.533 79.0856 314.446C79.152 314.358 79.2367 314.287 79.3338 314.236C79.4309 314.185 79.538 314.155 79.6476 314.15L89.4639 313.765C89.5597 313.756 89.6564 313.767 89.7482 313.796C89.84 313.825 89.9251 313.872 89.9985 313.934C90.0719 313.996 90.1321 314.073 90.1757 314.158C90.2192 314.244 90.2452 314.338 90.2521 314.434Z" fill="#263238"/>
<path opacity="0.1" d="M90.2521 314.434C90.3254 315.351 90.4537 317.028 90.6004 318.256C90.6238 318.45 90.5695 318.646 90.4493 318.801C90.3292 318.955 90.1529 319.056 89.9588 319.081C86.7818 319.341 83.5876 319.304 80.4175 318.971C80.2612 318.96 80.1124 318.9 79.9922 318.8C79.872 318.7 79.7867 318.564 79.7484 318.412L78.951 315.066C78.9268 314.959 78.9263 314.848 78.9495 314.741C78.9728 314.634 79.0192 314.533 79.0856 314.446C79.152 314.358 79.2367 314.287 79.3338 314.236C79.4309 314.185 79.538 314.155 79.6476 314.15L89.4639 313.765C89.5597 313.756 89.6564 313.767 89.7482 313.796C89.84 313.825 89.9251 313.872 89.9985 313.934C90.0719 313.996 90.1321 314.073 90.1757 314.158C90.2192 314.244 90.2452 314.338 90.2521 314.434Z" fill="white"/>
<path d="M85.8802 115.661C86.0763 120.907 86.0028 126.159 85.6602 131.398C85.3944 138.235 84.9269 144.954 83.9371 156.145H49.5021C50.1895 146.448 49.0621 135.412 42.8845 113.608C42.5208 112.467 42.4166 111.26 42.5797 110.074C42.7428 108.888 43.169 107.753 43.8271 106.754C44.4853 105.754 45.3587 104.914 46.3834 104.295C47.4081 103.676 48.5582 103.294 49.7495 103.177C51.1152 103.04 52.5542 102.93 54.039 102.856C59.2261 102.482 64.4334 102.482 69.6205 102.856C71.3253 103.012 73.0759 103.223 74.7623 103.452C77.7473 103.874 80.4915 105.324 82.5213 107.553C84.551 109.782 85.739 112.649 85.8802 115.661Z" fill="white"/>
<path d="M55.1754 85.2859C56.5319 90.3086 58.2 99.52 54.9371 102.875C54.9371 102.875 59.694 102.16 69.8036 108.374C72.7274 104.176 70.5552 102.875 70.5552 102.875C64.8542 101.536 64.6892 97.3753 65.3675 93.4708L55.1754 85.2859Z" fill="#FFB573"/>
<path d="M67.6772 107.146C65.78 108.411 64.9276 113.323 64.9276 113.323C64.9276 113.323 52.3524 108.566 52.8107 103.012C53.8174 102.454 54.7934 101.842 55.7345 101.179C55.7345 101.179 65.7341 105.23 67.6772 107.146Z" fill="#407BFF"/>
<path d="M70.8393 106.614C71.781 108.344 72.481 110.194 72.9199 112.114C77.9701 107.943 72.095 102.884 72.095 102.884C71.1798 102.376 70.1097 102.223 69.0887 102.453C69.8171 102.837 70.3897 103.461 70.709 104.22C71.0282 104.979 71.0743 105.825 70.8393 106.614Z" fill="#407BFF"/>
<path opacity="0.2" d="M59.3276 88.6222L65.3677 93.4708C65.1965 94.3776 65.1045 95.2977 65.0927 96.2204C62.9296 95.9088 59.8134 93.5624 59.4192 91.326C59.2272 90.4375 59.1961 89.5217 59.3276 88.6222Z" fill="black"/>
<path d="M50.886 75.2038C52.4075 83.3153 52.8841 86.7707 57.5127 90.6661C64.4785 96.5229 74.0107 93.4158 74.9273 85.1668C75.743 77.7243 73.0942 65.6991 64.7535 63.0228C62.9805 62.3933 61.0716 62.2485 59.224 62.6035C57.3763 62.9584 55.6569 63.8001 54.2434 65.0418C52.8298 66.2834 51.7734 67.8799 51.1832 69.6664C50.593 71.4528 50.4904 73.3644 50.886 75.2038Z" fill="#FFB573"/>
<path d="M56.7519 64.6635C59.2175 71.226 53.9381 75.1305 52.7649 80.804C46.6515 76.7437 46.2207 59.769 56.7519 64.6635Z" fill="#263238"/>
<path d="M55.5146 75.6346C55.7407 75.6342 55.9635 75.5808 56.1653 75.4788C56.3297 75.3862 56.4737 75.2613 56.5886 75.1117C56.7036 74.9621 56.7872 74.7908 56.8344 74.6081C56.8937 74.4283 56.9169 74.2387 56.9027 74.0499C56.8886 73.8612 56.8373 73.6771 56.7519 73.5082C56.5778 73.1702 56.2785 72.9137 55.9178 72.7933L51.6284 71.4001C51.4478 71.34 51.2572 71.3159 51.0674 71.3294C50.8775 71.3429 50.6922 71.3937 50.522 71.4788C50.3518 71.5639 50.2 71.6817 50.0753 71.8255C49.9506 71.9692 49.8554 72.1362 49.7953 72.3167C49.7351 72.4972 49.711 72.6879 49.7245 72.8777C49.738 73.0676 49.7888 73.2529 49.8739 73.4231C49.959 73.5933 50.0768 73.7451 50.2206 73.8698C50.3643 73.9945 50.5313 74.0896 50.7118 74.1498L55.0746 75.5246C55.2147 75.5838 55.3631 75.6209 55.5146 75.6346ZM51.2251 71.8218C51.3283 71.8229 51.4305 71.8415 51.5275 71.8768L55.817 73.2699C56.0632 73.3498 56.2677 73.5237 56.3862 73.7538C56.5047 73.9838 56.5274 74.2514 56.4494 74.4981C56.368 74.7437 56.1936 74.9477 55.9637 75.0664C55.8488 75.1261 55.7233 75.1626 55.5943 75.1736C55.4653 75.1846 55.3354 75.17 55.2121 75.1305L50.9226 73.7282C50.8009 73.6887 50.6881 73.6256 50.5908 73.5425C50.4936 73.4593 50.4137 73.3577 50.3557 73.2436C50.2978 73.1295 50.263 73.0051 50.2534 72.8775C50.2437 72.7498 50.2593 72.6216 50.2994 72.5C50.3358 72.3765 50.398 72.262 50.4817 72.1641C50.5654 72.0662 50.6688 71.987 50.7851 71.9317C50.9235 71.8715 51.0746 71.8463 51.2251 71.8584V71.8218Z" fill="white"/>
<path d="M63.736 76.5512C63.8368 77.2386 64.2676 77.7702 64.7075 77.7335C65.1475 77.6969 65.4224 77.1194 65.3308 76.432C65.2391 75.7446 64.79 75.213 64.3501 75.2497C63.9101 75.2863 63.6352 75.8637 63.736 76.5512Z" fill="#263238"/>
<path d="M72.0217 76.0654C72.1225 76.7528 72.5625 77.2844 73.0024 77.2477C73.4424 77.2111 73.7173 76.6336 73.6165 75.9462C73.5157 75.2588 73.0849 74.7272 72.645 74.7638C72.205 74.8005 71.93 75.3779 72.0217 76.0654Z" fill="#263238"/>
<path d="M72.4159 74.8097L73.9648 74.2231C73.9648 74.2231 73.3324 75.5705 72.4159 74.8097Z" fill="#263238"/>
<path d="M69.8771 77.3577C70.7052 78.8835 71.7247 80.2972 72.9109 81.5647C72.5954 81.8415 72.2207 82.0424 71.8156 82.152C71.4105 82.2617 70.9857 82.2771 70.5737 82.1971L69.8771 77.3577Z" fill="#ED893E"/>
<path d="M67.0725 85.0202C67.4537 85.0526 67.837 85.0526 68.2182 85.0202C68.2441 85.0181 68.2693 85.0106 68.2921 84.998C68.3149 84.9855 68.3347 84.9682 68.3503 84.9474C68.3659 84.9266 68.3769 84.9027 68.3826 84.8773C68.3882 84.852 68.3884 84.8257 68.3831 84.8002C68.3742 84.7468 68.3459 84.6986 68.3036 84.6648C68.2613 84.6309 68.2081 84.6139 68.154 84.6169C67.2915 84.6801 66.4258 84.5481 65.6213 84.2307C64.8168 83.9134 64.0942 83.4188 63.5071 82.7838C63.489 82.764 63.4671 82.7483 63.4426 82.7375C63.4182 82.7267 63.3917 82.7212 63.365 82.7212C63.3383 82.7212 63.3118 82.7267 63.2874 82.7375C63.2629 82.7483 63.241 82.764 63.2229 82.7838C63.1854 82.8215 63.1644 82.8726 63.1644 82.9258C63.1644 82.9791 63.1854 83.0301 63.2229 83.0679C64.2255 84.1657 65.5944 84.8599 67.0725 85.0202Z" fill="#263238"/>
<path d="M49.9695 82.0964C50.4043 82.7554 50.9723 83.316 51.6369 83.7422C52.3014 84.1684 53.0479 84.4508 53.8282 84.5711C55.7713 84.791 56.2662 82.5271 55.3222 80.4832C54.4698 78.6501 52.4442 76.3129 50.6844 77.0461C48.9246 77.7794 48.7505 80.3549 49.9695 82.0964Z" fill="#FFB573"/>
<path d="M50.9776 84.901C50.9776 85.2925 51.0937 85.6753 51.3113 86.0009C51.5288 86.3264 51.838 86.5802 52.1997 86.73C52.5615 86.8799 52.9596 86.9191 53.3436 86.8427C53.7277 86.7663 54.0804 86.5777 54.3573 86.3009C54.6342 86.024 54.8227 85.6712 54.8991 85.2872C54.9755 84.9032 54.9363 84.5051 54.7864 84.1433C54.6366 83.7816 54.3828 83.4724 54.0573 83.2548C53.7317 83.0373 53.3489 82.9212 52.9574 82.9212C52.6974 82.9212 52.4399 82.9724 52.1997 83.0719C51.9595 83.1714 51.7413 83.3172 51.5575 83.5011C51.3736 83.6849 51.2278 83.9031 51.1283 84.1433C51.0288 84.3835 50.9776 84.641 50.9776 84.901Z" fill="white"/>
<path d="M61.1789 72.5641C61.2311 72.563 61.2826 72.5511 61.3299 72.529C61.3773 72.5069 61.4195 72.4751 61.4539 72.4358C61.7761 72.0651 62.1846 71.7792 62.6433 71.6034C63.102 71.4276 63.5969 71.3672 64.0844 71.4276C64.1345 71.4382 64.1862 71.4384 64.2364 71.4282C64.2865 71.4181 64.3341 71.3978 64.3762 71.3686C64.4182 71.3395 64.4539 71.302 64.4809 71.2586C64.508 71.2151 64.5259 71.1666 64.5335 71.116C64.5449 71.0075 64.5155 70.8987 64.4511 70.8106C64.3868 70.7225 64.292 70.6615 64.1852 70.6394C63.5698 70.5454 62.9406 70.6097 62.3569 70.8262C61.7732 71.0426 61.2543 71.4042 60.849 71.8767C60.7797 71.9582 60.7456 72.0638 60.7542 72.1703C60.7628 72.2769 60.8134 72.3757 60.8948 72.445C60.974 72.5145 61.0738 72.5563 61.1789 72.5641Z" fill="#263238"/>
<path d="M74.3499 72.0142C74.4505 72.0273 74.5523 72.001 74.634 71.9409C74.675 71.9072 74.7089 71.8658 74.7339 71.819C74.7588 71.7722 74.7743 71.721 74.7794 71.6682C74.7845 71.6154 74.7791 71.5621 74.7636 71.5114C74.7481 71.4607 74.7228 71.4135 74.689 71.3726C74.3066 70.8459 73.8089 70.4135 73.2339 70.1085C72.6588 69.8035 72.0217 69.634 71.3711 69.6129C71.3195 69.6148 71.2689 69.6277 71.2226 69.6506C71.1764 69.6735 71.1355 69.7059 71.1026 69.7457C71.0697 69.7855 71.0456 69.8318 71.0318 69.8816C71.0181 69.9313 71.015 69.9834 71.0228 70.0345C71.0343 70.1422 71.0859 70.2417 71.1675 70.313C71.249 70.3843 71.3544 70.4223 71.4627 70.4194C71.9778 70.4453 72.4803 70.5874 72.9327 70.835C73.3851 71.0826 73.7756 71.4293 74.0749 71.8493C74.1437 71.9356 74.2413 71.9941 74.3499 72.0142Z" fill="#263238"/>
<path d="M64.1668 75.3047L65.7158 74.7089C65.7158 74.7089 65.0834 76.0563 64.1668 75.3047Z" fill="#263238"/>
<path d="M52.4166 101.188C56.2386 103.81 61.353 132.003 62.8195 173.944C63.707 199.289 62.8404 224.665 60.2256 249.89C60.2256 249.89 43.4801 231.486 33.0222 226.06C32.8206 186.923 41.1521 160.187 40.1897 150.306C39.2273 140.426 33.7738 113.103 37.9625 107.971C42.1512 102.838 52.4166 101.188 52.4166 101.188Z" fill="#407BFF"/>
<path opacity="0.8" d="M52.4166 101.188C56.2386 103.81 61.353 132.003 62.8195 173.944C63.707 199.289 62.8404 224.665 60.2256 249.89C60.2256 249.89 43.4801 231.486 33.0222 226.06C32.8206 186.923 41.1521 160.187 40.1897 150.306C39.2273 140.426 33.7738 113.103 37.9625 107.971C42.1512 102.838 52.4166 101.188 52.4166 101.188Z" fill="white"/>
<path d="M71.7925 102.591C76.247 109.199 86.1 191.496 76.8061 249.854C84.1385 245.784 89.4454 234.547 89.4454 234.547C89.4454 234.547 90.1694 183.752 86.6957 156.163C87.4106 123.772 91.2602 101.83 71.7925 102.591Z" fill="#407BFF"/>
<path opacity="0.8" d="M71.7925 102.591C76.247 109.199 86.1 191.496 76.8061 249.854C84.1385 245.784 89.4454 234.547 89.4454 234.547C89.4454 234.547 90.1694 183.752 86.6957 156.163C87.4106 123.772 91.2602 101.83 71.7925 102.591Z" fill="white"/>
<path d="M58.5851 156.557C60.8967 152.149 62.986 147.628 64.8451 143.011C67.6681 135.88 69.9228 127.429 69.9228 127.429C69.9228 127.429 91.2969 126.623 95.2748 129.033C92.9467 138.098 82.8463 159.967 82.8463 159.967C82.8463 159.967 66.6874 159.683 58.5851 156.557Z" fill="#E0E0E0"/>
<path d="M80.5549 161.388L61.1239 160.801C59.1716 160.746 58.1634 159.316 58.8966 157.63L71.151 129.391C71.616 128.497 72.3176 127.748 73.1791 127.226C74.0406 126.704 75.0289 126.429 76.0362 126.43L95.4672 127.017C97.4195 127.072 98.4185 128.502 97.6853 130.188L85.4309 158.427C84.9666 159.319 84.2665 160.067 83.4068 160.589C82.547 161.111 81.5606 161.387 80.5549 161.388Z" fill="#407BFF"/>
<path d="M81.5813 162.533C82.6107 162.508 83.6147 162.208 84.4884 161.663C85.3622 161.118 86.0738 160.349 86.549 159.435L98.8125 131.196C98.9971 130.832 99.0872 130.427 99.0744 130.018C99.0615 129.61 98.9463 129.211 98.7392 128.859C98.4739 128.486 98.1194 128.184 97.708 127.983C97.2967 127.781 96.8414 127.685 96.3837 127.704L76.9618 127.118C75.9089 127.118 74.8762 127.406 73.9761 127.953C73.0759 128.499 72.3429 129.282 71.8566 130.216L59.5839 158.455C59.4018 158.821 59.3131 159.228 59.3259 159.637C59.3387 160.046 59.4525 160.446 59.6573 160.801C59.9236 161.173 60.2786 161.472 60.6899 161.672C61.1012 161.872 61.5559 161.967 62.0128 161.947L81.4438 162.533H81.5813ZM81.4621 162.075L62.0312 161.488C61.653 161.507 61.2761 161.433 60.9328 161.273C60.5896 161.113 60.2902 160.873 60.0605 160.572C59.9009 160.278 59.8173 159.949 59.8173 159.614C59.8173 159.279 59.9009 158.95 60.0605 158.656L72.3149 130.417C72.7555 129.561 73.4248 128.844 74.2484 128.346C75.0719 127.848 76.0176 127.587 76.9802 127.594L96.4112 128.181C96.7906 128.163 97.1688 128.236 97.5135 128.396C97.8583 128.556 98.1593 128.796 98.3909 129.097C98.5498 129.392 98.6329 129.721 98.6329 130.055C98.6329 130.39 98.5498 130.719 98.3909 131.013L86.1641 159.252C85.7189 160.11 85.0447 160.828 84.2164 161.326C83.3881 161.825 82.4379 162.084 81.4713 162.075H81.4621Z" fill="white"/>
<path d="M70.0695 140.261L67.7689 139.134C67.3393 138.923 66.8657 138.819 66.3874 138.828C65.9092 138.838 65.4401 138.961 65.0193 139.189L61.0597 141.343C60.2755 141.762 59.6047 142.366 59.1051 143.102C58.6054 143.838 58.2917 144.684 58.1909 145.568L58.0534 146.677C61.7196 148.803 67.3106 148.382 67.3106 148.382L68.9146 148.437C69.2431 148.458 69.5726 148.413 69.8838 148.306C70.1949 148.199 70.4817 148.03 70.7273 147.811C70.9729 147.592 71.1725 147.326 71.3145 147.029C71.4565 146.732 71.538 146.41 71.5543 146.081L71.701 142.919C71.7178 142.365 71.5724 141.818 71.2825 141.346C70.9926 140.874 70.571 140.497 70.0695 140.261Z" fill="#FFB573"/>
<path opacity="0.2" d="M45.1301 118.685C45.9 131.279 45.9458 142.809 42.582 144.752C38.6408 140.875 38.925 135.449 45.1301 118.685Z" fill="#407BFF"/>
<path d="M36.6701 109.795C36.1752 111.206 35.7536 112.462 35.3778 113.791C35.002 115.12 34.5895 116.412 34.2229 117.732C33.4897 120.372 32.7839 123.021 32.1882 125.715C30.8385 131.285 30.107 136.987 30.0068 142.717C29.9976 142.855 29.9976 142.992 30.0068 143.13V143.185C30.1701 144.915 30.8612 146.553 31.9865 147.878C32.834 148.854 33.8647 149.654 35.0203 150.233C36.5368 150.984 38.1597 151.497 39.8323 151.755C42.4002 152.148 44.9991 152.301 47.5955 152.213C50.0427 152.213 52.4074 152.02 54.7538 151.8C57.1002 151.58 59.3824 151.333 61.8296 150.966L59.9965 139.968C58.0167 140.298 55.817 140.6 53.7272 140.811C51.6375 141.022 49.5111 141.132 47.4763 141.15C45.5888 141.184 43.702 141.046 41.8395 140.738C41.2949 140.646 40.7649 140.482 40.263 140.252C40.1989 140.252 40.3363 140.252 40.648 140.582C41.0402 141.046 41.283 141.618 41.3446 142.222V142.699C41.4437 140.372 41.6978 138.054 42.1053 135.761C42.5177 133.378 43.1043 130.958 43.7459 128.557C44.3875 126.155 45.1391 123.745 45.9548 121.362C46.3673 120.17 46.7889 118.979 47.238 117.805C47.6871 116.632 48.1546 115.413 48.5762 114.368L36.6701 109.795Z" fill="#407BFF"/>
<path opacity="0.8" d="M36.6701 109.795C36.1752 111.206 35.7536 112.462 35.3778 113.791C35.002 115.12 34.5895 116.412 34.2229 117.732C33.4897 120.372 32.7839 123.021 32.1882 125.715C30.8385 131.285 30.107 136.987 30.0068 142.717C29.9976 142.855 29.9976 142.992 30.0068 143.13V143.185C30.1701 144.915 30.8612 146.553 31.9865 147.878C32.834 148.854 33.8647 149.654 35.0203 150.233C36.5368 150.984 38.1597 151.497 39.8323 151.755C42.4002 152.148 44.9991 152.301 47.5955 152.213C50.0427 152.213 52.4074 152.02 54.7538 151.8C57.1002 151.58 59.3824 151.333 61.8296 150.966L59.9965 139.968C58.0167 140.298 55.817 140.6 53.7272 140.811C51.6375 141.022 49.5111 141.132 47.4763 141.15C45.5888 141.184 43.702 141.046 41.8395 140.738C41.2949 140.646 40.7649 140.482 40.263 140.252C40.1989 140.252 40.3363 140.252 40.648 140.582C41.0402 141.046 41.283 141.618 41.3446 142.222V142.699C41.4437 140.372 41.6978 138.054 42.1053 135.761C42.5177 133.378 43.1043 130.958 43.7459 128.557C44.3875 126.155 45.1391 123.745 45.9548 121.362C46.3673 120.17 46.7889 118.979 47.238 117.805C47.6871 116.632 48.1546 115.413 48.5762 114.368L36.6701 109.795Z" fill="white"/>
<path d="M54.2773 67.0098C58.411 71.1435 76.9529 64.4435 76.2196 71.3177C79.0793 64.9018 74.579 58.0001 63.1496 58.0001C49.1629 58.0001 51.7659 64.526 54.2773 67.0098Z" fill="#263238"/>
</svg>
