<svg width="354" height="306" viewBox="0 0 354 306" fill="none" xmlns="http://www.w3.org/2000/svg">
<path d="M336.115 215.301L334.768 213.956C334.29 213.478 333.515 213.478 333.036 213.956L326.444 220.539C325.966 221.017 325.966 221.791 326.444 222.269L327.791 223.614C328.269 224.092 329.044 224.092 329.523 223.614L336.115 217.03C336.593 216.553 336.593 215.778 336.115 215.301Z" fill="#263238"/>
<path d="M295.543 249.184L289.485 260.533L300.842 254.484L328.89 224.701L325.359 221.175L295.543 249.184Z" fill="#407BFF"/>
<path opacity="0.7" d="M295.543 249.184L289.485 260.533L300.842 254.484L328.89 224.701L325.359 221.175L295.543 249.184Z" fill="white"/>
<path d="M331.287 227.095C330.961 227.421 330.518 227.603 330.056 227.603C329.595 227.603 329.152 227.421 328.825 227.095L322.994 221.272C322.671 220.943 322.49 220.5 322.49 220.039C322.49 219.578 322.671 219.136 322.994 218.807C323.324 218.484 323.767 218.303 324.228 218.303C324.69 218.303 325.133 218.484 325.463 218.807L331.294 224.662C331.611 224.988 331.788 225.425 331.787 225.88C331.786 226.335 331.606 226.771 331.287 227.095Z" fill="#407BFF"/>
<path d="M324.614 217.137C324.94 217.463 325.162 217.878 325.253 218.33C325.343 218.782 325.297 219.25 325.12 219.676C324.944 220.101 324.645 220.465 324.261 220.721C323.877 220.977 323.426 221.114 322.965 221.114C322.504 221.114 322.053 220.977 321.669 220.721C321.285 220.465 320.987 220.101 320.81 219.676C320.633 219.25 320.587 218.782 320.677 218.33C320.768 217.878 320.99 217.463 321.316 217.137C321.754 216.702 322.347 216.458 322.965 216.458C323.583 216.458 324.176 216.702 324.614 217.137Z" fill="#407BFF"/>
<path d="M332.939 225.452C333.266 225.777 333.488 226.192 333.578 226.644C333.668 227.096 333.622 227.564 333.445 227.99C333.269 228.416 332.97 228.78 332.586 229.036C332.203 229.292 331.752 229.428 331.29 229.428C330.829 229.428 330.378 229.292 329.994 229.036C329.611 228.78 329.312 228.416 329.135 227.99C328.959 227.564 328.913 227.096 329.003 226.644C329.093 226.192 329.315 225.777 329.641 225.452C330.08 225.016 330.673 224.772 331.29 224.772C331.908 224.772 332.501 225.016 332.939 225.452Z" fill="#407BFF"/>
<path d="M280.168 167.53C279.837 183.421 270.19 204.947 258.787 206.921C247.384 208.894 238.566 190.57 238.896 174.686C239.227 158.801 248.576 151.36 259.973 149.387C271.369 147.413 280.492 151.645 280.168 167.53Z" fill="white"/>
<path opacity="0.5" d="M280.169 167.53C279.838 183.421 270.191 204.947 258.788 206.921C247.385 208.894 239.785 190.46 240.109 174.569C240.433 158.678 248.577 151.36 259.973 149.387C271.37 147.413 280.492 151.645 280.169 167.53Z" fill="#407BFF"/>
<path d="M298.879 167.575C297.823 171.205 299.721 175.811 302.495 178.083C297.792 178.957 293.524 181.395 290.385 184.999C288.746 181.149 291.001 178.943 291.001 178.943C293.022 177.5 291.752 175.889 291.292 172.958L298.879 167.575Z" fill="#7F3E3B"/>
<path d="M282.474 189.095C282.325 191.586 277.57 200.14 282.39 200.67C282.967 205.484 285.17 214.763 288.176 216.846C291.312 219.337 300.531 218.431 312.453 216.982C312.597 216.965 312.736 216.918 312.862 216.846C312.988 216.773 313.098 216.676 313.185 216.56C313.272 216.444 313.335 216.311 313.37 216.17C313.404 216.029 313.41 215.883 313.386 215.74C312.245 208.849 309.848 200.754 311.883 185.329C312 184.439 311.929 183.534 311.673 182.673C311.418 181.812 310.984 181.014 310.4 180.332C309.816 179.649 309.095 179.097 308.283 178.71C307.471 178.324 306.588 178.112 305.689 178.089C304.671 178.089 303.596 178.057 302.495 178.089C298.648 178.104 294.807 178.391 291.001 178.95C289.77 179.157 288.493 179.409 287.282 179.674C282.908 180.612 282.811 183.291 282.474 189.095Z" fill="#407BFF"/>
<path d="M286.46 158.762C286.337 159.254 285.98 159.584 285.656 159.5C285.332 159.416 285.176 158.963 285.299 158.471C285.423 157.979 285.786 157.656 286.103 157.733C286.421 157.811 286.583 158.277 286.46 158.762Z" fill="#263238"/>
<path d="M286.239 157.798L285.15 157.151C285.15 157.151 285.52 158.232 286.239 157.798Z" fill="#263238"/>
<path d="M286.699 154.563C286.692 154.526 286.692 154.488 286.7 154.452C286.708 154.415 286.723 154.38 286.744 154.35C286.765 154.317 286.792 154.289 286.824 154.267C286.856 154.245 286.892 154.23 286.931 154.222C286.969 154.214 287.008 154.214 287.046 154.221C287.084 154.229 287.12 154.244 287.152 154.265C287.553 154.511 287.889 154.849 288.132 155.251C288.374 155.653 288.516 156.107 288.546 156.575C288.552 156.618 288.549 156.661 288.537 156.702C288.526 156.743 288.505 156.781 288.477 156.814C288.449 156.846 288.414 156.872 288.375 156.89C288.336 156.908 288.294 156.917 288.251 156.917C288.208 156.917 288.166 156.908 288.127 156.89C288.088 156.872 288.053 156.846 288.025 156.814C287.997 156.781 287.977 156.743 287.965 156.702C287.953 156.661 287.95 156.618 287.956 156.575C287.926 156.205 287.808 155.847 287.612 155.531C287.415 155.215 287.147 154.95 286.828 154.757C286.794 154.736 286.765 154.707 286.743 154.674C286.72 154.641 286.705 154.603 286.699 154.563Z" fill="#263238"/>
<path d="M285.753 159.765C285.118 160.823 284.34 161.787 283.44 162.632C283.661 162.858 283.93 163.033 284.226 163.145C284.523 163.257 284.84 163.303 285.157 163.279L285.753 159.765Z" fill="#630F0F"/>
<path d="M302.896 160.807C301.497 166.844 301.03 169.425 297.473 172.039C292.128 175.98 285.163 172.952 284.761 166.624C284.405 160.93 286.763 152.02 293.035 150.59C299.177 149.173 304.27 154.777 302.896 160.807Z" fill="#7F3E3B"/>
<path d="M288.921 158.614C285.092 161.325 283.09 163.9 283.09 165.595C283.09 167.29 283.99 171.865 287.625 172.712C288.296 169.186 289.614 165.815 291.513 162.767C288.74 164.987 287.69 166.553 286.329 165.666C284.969 164.78 288.027 159.752 289.31 159.086C289.122 158.394 288.921 158.614 288.921 158.614Z" fill="#407BFF"/>
<path d="M290.418 160.36C286.135 159.539 288.085 154.537 290.029 153.515C286.368 152.033 286.349 145.977 291.927 145.751C296.819 145.524 301.05 148.41 301.244 150.002C304.866 150.157 309.382 154.531 307.671 157.559C310.671 159.681 312.271 166.992 308.047 168.862C313.399 178.186 294.15 179.377 288.571 173.113C284.107 168.079 290.418 160.36 290.418 160.36Z" fill="#263238"/>
<path d="M292.076 162.243C291.813 162.771 291.44 163.237 290.984 163.61C290.527 163.984 289.996 164.257 289.426 164.411C287.969 164.747 287.327 163.117 287.8 161.557C288.228 160.134 289.504 158.245 290.93 158.62C292.355 158.995 292.802 160.859 292.076 162.243Z" fill="#7F3E3B"/>
<path d="M291.882 218.787C291.882 218.787 299.456 251.786 305.74 263.71C311.099 273.862 329.609 284.745 341.913 298.462L345.308 293.985C345.308 293.985 335.226 273.015 321.083 259.589C317.02 225.419 313.263 216.044 313.263 216.044L291.882 218.787Z" fill="#263238"/>
<path opacity="0.5" d="M295.821 234.51C296.501 237.02 297.233 239.686 298.011 242.345C301.716 240.049 304.556 236.593 306.09 232.517L295.821 234.51Z" fill="black"/>
<path d="M353.31 302.81C350.984 300.623 348.23 296.185 346.001 291.604C345.93 291.455 345.827 291.322 345.701 291.215C345.575 291.108 345.428 291.029 345.269 290.982C345.11 290.936 344.943 290.924 344.779 290.946C344.615 290.968 344.457 291.025 344.317 291.112C342.256 292.406 337.138 295.052 338.149 296.288C340.585 299.2 344.887 302.668 339.691 303.205C337.151 303.477 338.809 306 340.688 306C345.386 306 345.049 305.922 347.692 305.832C349.953 305.754 350.491 306.032 352.312 305.994C352.675 305.974 353.023 305.845 353.311 305.622C353.598 305.4 353.81 305.095 353.919 304.748C354.027 304.402 354.027 304.03 353.918 303.684C353.809 303.337 353.597 303.033 353.31 302.81Z" fill="#407BFF"/>
<path d="M313.263 216.044C306.563 214.258 297.901 214.103 288.13 215.345C288.13 215.345 252.787 229.521 252.904 247.133C253.325 266.932 253.396 300.487 253.396 300.487H258.398C258.398 300.487 268.998 272.484 267.385 250.064C280.278 244.772 291.947 240.191 300.564 237.771C307.587 235.785 316.703 230.317 313.263 216.044Z" fill="#263238"/>
<path d="M260.782 302.377C260.394 300.863 259.849 301.354 260.659 296.76C260.703 296.524 260.697 296.281 260.642 296.046C260.588 295.812 260.486 295.591 260.342 295.398C260.199 295.204 260.018 295.042 259.809 294.922C259.601 294.801 259.37 294.724 259.13 294.696C256.539 294.405 252.204 294.127 252.327 295.609C252.651 299.439 249.14 302.946 243.496 303.373C240.989 303.554 242.376 305.994 244.222 305.961C248.848 305.961 252.126 305.709 254.731 305.767C256.953 305.812 257.783 306.006 259.571 305.961C261.048 305.935 261.204 304.072 260.782 302.377Z" fill="#407BFF"/>
<path d="M256.753 168.06L257.264 169.548C257.264 169.548 258.139 173.534 260.413 175.546L261.158 175.158C261.76 174.846 262.285 174.404 262.693 173.863C263.101 173.322 263.383 172.697 263.517 172.033L263.387 168.371L262.091 165.783C261.914 165.434 261.61 165.166 261.241 165.034C260.873 164.901 260.468 164.915 260.109 165.071L257.608 166.145C257.25 166.298 256.964 166.581 256.805 166.936C256.647 167.29 256.628 167.692 256.753 168.06Z" fill="#7F3E3B"/>
<path d="M288.798 188.953C288.254 189.224 287.865 189.406 287.411 189.6C286.958 189.794 286.524 189.981 286.077 190.156C285.189 190.518 284.289 190.803 283.375 191.133C281.523 191.74 279.628 192.205 277.706 192.524C275.666 192.881 273.592 192.999 271.525 192.874C269.187 192.755 266.901 192.142 264.819 191.075L264.566 190.945C264.238 190.77 263.944 190.538 263.698 190.26C262.593 188.97 261.705 187.511 261.068 185.937C260.503 184.577 260.053 183.173 259.72 181.738C259.407 180.37 259.171 178.985 259.014 177.591C258.858 176.203 258.791 174.807 258.813 173.411C258.821 172.891 259.009 172.39 259.346 171.992C259.682 171.595 260.146 171.326 260.658 171.232C261.17 171.137 261.699 171.223 262.155 171.474C262.612 171.725 262.967 172.126 263.16 172.609L263.212 172.738C263.666 173.851 264.126 175.061 264.605 176.193C265.085 177.325 265.577 178.464 266.108 179.532C266.599 180.562 267.153 181.56 267.767 182.521C268.245 183.305 268.836 184.014 269.523 184.624L268.402 183.848C269.509 184.221 270.675 184.392 271.842 184.352C272.534 184.344 273.224 184.292 273.909 184.197C274.615 184.106 275.341 183.99 276.08 183.822C277.589 183.492 279.077 183.075 280.537 182.573C281.282 182.327 282.027 182.049 282.76 181.771L283.854 181.337C284.198 181.201 284.613 181.026 284.852 180.923L284.995 180.858C286.072 180.355 287.306 180.299 288.424 180.704C289.543 181.108 290.454 181.94 290.959 183.016C291.463 184.092 291.519 185.324 291.114 186.441C290.708 187.558 289.875 188.468 288.798 188.972V188.953Z" fill="#803E3C"/>
<path d="M286.699 179.804C283.977 180.399 279.397 182.029 275.257 183.556C274.609 187.62 276.267 192.188 278.613 195.171C300.518 190.544 292.381 178.568 286.699 179.804Z" fill="#407BFF"/>
<path d="M328.074 213.753L328.903 220.01L334.248 217.519C334.248 217.519 333.6 212.472 330.516 212L328.074 213.753Z" fill="#7F3E3B"/>
<path d="M332.94 221.945L333.918 221.343C334.175 221.184 334.398 220.976 334.575 220.731C334.751 220.486 334.878 220.209 334.947 219.915C335.016 219.621 335.027 219.317 334.978 219.019C334.929 218.721 334.822 218.435 334.663 218.179L334.248 217.532L328.903 220.023L329.875 221.362C330.218 221.827 330.725 222.146 331.293 222.254C331.861 222.362 332.449 222.251 332.94 221.945Z" fill="#7F3E3B"/>
<path d="M309.926 180.341C312.518 182.431 315.012 184.605 317.468 186.869C318.69 187.995 319.899 189.153 321.096 190.344C322.308 191.534 323.467 192.751 324.685 194.161L324.815 194.31L324.996 194.53C325.119 194.679 325.242 194.834 325.32 194.951L325.579 195.332L325.8 195.682C326.078 196.148 326.305 196.562 326.519 196.976C326.94 197.817 327.296 198.613 327.64 199.415C328.333 201.007 328.903 202.592 329.473 204.177C330.582 207.337 331.523 210.553 332.292 213.812C332.412 214.333 332.342 214.88 332.095 215.355C331.847 215.829 331.438 216.199 330.941 216.399C330.444 216.599 329.891 216.615 329.384 216.444C328.876 216.273 328.446 215.927 328.171 215.468C326.486 212.66 324.932 209.781 323.318 206.972C322.541 205.555 321.724 204.171 320.934 202.831C320.539 202.184 320.137 201.537 319.735 200.923C319.469 200.478 319.144 200.071 318.77 199.713C317.733 198.736 316.502 197.694 315.297 196.659L311.578 193.553C309.103 191.476 306.589 189.38 304.166 187.238C303.291 186.463 302.753 185.377 302.667 184.212C302.582 183.047 302.955 181.894 303.707 181C304.459 180.105 305.532 179.539 306.695 179.422C307.859 179.305 309.023 179.646 309.939 180.373L309.926 180.341Z" fill="#803E3C"/>
<path d="M303.894 178.18C309.174 177.94 312.446 180.121 316.483 185.116C315.148 189.289 313.12 192.79 309.848 194.737C298.711 187.581 298.102 178.439 303.894 178.18Z" fill="#407BFF"/>
<path d="M254.342 177.118C262.052 180.095 266.374 175.624 266.607 173.806C268.59 177.177 266.491 180.677 262.869 181.492C259.247 182.308 255.392 180.211 254.342 177.118Z" fill="#407BFF"/>
<g opacity="0.05">
<path d="M194.585 127.242C204.541 126.553 212.053 117.935 211.364 107.992C210.675 98.0493 202.045 90.547 192.089 91.2353C182.132 91.9236 174.62 100.542 175.309 110.485C175.998 120.428 184.628 127.93 194.585 127.242Z" fill="#263238"/>
<path d="M202.049 99.211C201.847 99.0493 201.68 98.8474 201.56 98.6182C201.44 98.3889 201.369 98.1371 201.352 97.8789C201.334 97.6208 201.37 97.3618 201.458 97.1183C201.546 96.8749 201.684 96.6523 201.862 96.4648L205.604 92.1868C205.949 91.8002 206.432 91.5641 206.95 91.5292C207.467 91.4942 207.978 91.6633 208.372 92C208.759 92.3448 208.996 92.8274 209.031 93.3443C209.066 93.8611 208.896 94.3711 208.559 94.7648L204.818 99.0242C204.656 99.2292 204.453 99.3981 204.222 99.5199C203.99 99.6416 203.736 99.7137 203.475 99.7313C203.214 99.7489 202.953 99.7117 202.707 99.622C202.461 99.5324 202.237 99.3924 202.049 99.211Z" fill="#263238"/>
<path d="M204.725 88.8615C204.886 88.6594 205.089 88.4932 205.318 88.3732C205.548 88.2532 205.8 88.1822 206.058 88.1646C206.317 88.1471 206.576 88.1834 206.82 88.2712C207.064 88.359 207.287 88.4964 207.474 88.6747L211.739 92.411C211.943 92.5713 212.111 92.7721 212.233 93.0007C212.355 93.2293 212.428 93.4806 212.447 93.7389C212.466 93.9971 212.432 94.2565 212.345 94.5007C212.259 94.7448 212.123 94.9684 211.945 95.1572C211.783 95.3622 211.58 95.531 211.349 95.6528C211.118 95.7746 210.863 95.8466 210.602 95.8642C210.342 95.8819 210.08 95.8446 209.834 95.755C209.589 95.6654 209.365 95.5254 209.177 95.344L204.912 91.6077C204.53 91.2635 204.297 90.7847 204.262 90.2724C204.227 89.76 204.393 89.2541 204.725 88.8615Z" fill="#263238"/>
<path d="M184.596 119.163C184.986 119.505 185.226 119.986 185.264 120.503C185.303 121.02 185.137 121.532 184.802 121.928L181.06 126.187C180.715 126.574 180.232 126.81 179.714 126.845C179.197 126.879 178.686 126.71 178.292 126.374C177.906 126.032 177.67 125.553 177.635 125.039C177.6 124.525 177.769 124.018 178.105 123.628L181.846 119.35C182.008 119.147 182.21 118.981 182.44 118.861C182.669 118.741 182.921 118.67 183.18 118.653C183.439 118.635 183.698 118.671 183.942 118.759C184.185 118.847 184.408 118.984 184.596 119.163Z" fill="#263238"/>
<path d="M181.921 129.568C181.759 129.77 181.557 129.937 181.327 130.057C181.098 130.177 180.846 130.248 180.587 130.265C180.329 130.283 180.069 130.246 179.826 130.159C179.582 130.071 179.359 129.933 179.171 129.755L174.906 126.019C174.702 125.858 174.534 125.658 174.412 125.429C174.291 125.2 174.218 124.949 174.198 124.691C174.179 124.433 174.214 124.173 174.3 123.929C174.386 123.685 174.523 123.461 174.7 123.273C175.046 122.886 175.529 122.65 176.046 122.615C176.564 122.58 177.075 122.749 177.469 123.086L181.734 126.822C181.936 126.984 182.103 127.186 182.223 127.415C182.343 127.644 182.414 127.896 182.432 128.154C182.449 128.412 182.413 128.671 182.325 128.915C182.237 129.158 182.1 129.381 181.921 129.568Z" fill="#263238"/>
<path d="M203.415 117.93C203.577 117.728 203.779 117.561 204.009 117.441C204.238 117.321 204.49 117.25 204.749 117.233C205.007 117.215 205.267 117.252 205.511 117.339C205.754 117.427 205.977 117.565 206.165 117.743L210.449 121.479C210.836 121.824 211.072 122.307 211.107 122.824C211.142 123.34 210.973 123.85 210.636 124.244C210.474 124.446 210.272 124.612 210.042 124.732C209.813 124.852 209.56 124.923 209.302 124.941C209.043 124.959 208.784 124.922 208.54 124.834C208.297 124.747 208.074 124.609 207.886 124.431L203.602 120.695C203.397 120.533 203.228 120.33 203.106 120.099C202.984 119.868 202.912 119.614 202.894 119.354C202.876 119.093 202.914 118.832 203.003 118.587C203.093 118.341 203.233 118.118 203.415 117.93Z" fill="#263238"/>
<path d="M213.704 120.601C213.906 120.763 214.072 120.965 214.193 121.194C214.313 121.423 214.384 121.675 214.401 121.933C214.419 122.191 214.383 122.45 214.295 122.694C214.207 122.937 214.069 123.16 213.891 123.347L210.149 127.625C209.807 128.011 209.327 128.246 208.813 128.281C208.298 128.316 207.791 128.148 207.399 127.812C207.012 127.467 206.776 126.985 206.741 126.468C206.706 125.951 206.875 125.441 207.212 125.047L210.954 120.788C211.116 120.586 211.318 120.42 211.547 120.3C211.777 120.18 212.029 120.109 212.288 120.091C212.546 120.074 212.805 120.11 213.049 120.198C213.293 120.285 213.516 120.423 213.704 120.601Z" fill="#263238"/>
<path d="M183.305 100.481C183.145 100.685 182.944 100.853 182.715 100.974C182.486 101.096 182.234 101.169 181.976 101.188C181.717 101.207 181.457 101.173 181.213 101.086C180.968 101 180.744 100.864 180.555 100.687L176.272 96.9506C176.069 96.7889 175.903 96.587 175.783 96.3578C175.663 96.1285 175.591 95.8767 175.574 95.6185C175.556 95.3604 175.593 95.1014 175.68 94.8579C175.768 94.6145 175.906 94.3919 176.085 94.2044C176.245 94.001 176.446 93.8332 176.675 93.7115C176.904 93.5899 177.156 93.5171 177.414 93.4978C177.673 93.4784 177.933 93.513 178.177 93.5993C178.422 93.6856 178.645 93.8217 178.834 93.9989L183.118 97.7352C183.321 97.8968 183.487 98.0987 183.607 98.328C183.727 98.5573 183.798 98.809 183.816 99.0672C183.834 99.3254 183.797 99.5844 183.709 99.8279C183.622 100.071 183.484 100.294 183.305 100.481Z" fill="#263238"/>
<path d="M172.943 97.8473C172.555 97.5024 172.319 97.0198 172.284 96.503C172.249 95.9861 172.418 95.4761 172.755 95.0824L176.497 90.8231C176.659 90.621 176.861 90.4547 177.09 90.3347C177.32 90.2148 177.572 90.1438 177.831 90.1262C178.089 90.1086 178.349 90.1449 178.592 90.2327C178.836 90.3205 179.059 90.4579 179.247 90.6363C179.449 90.7979 179.616 90.9998 179.736 91.2291C179.856 91.4584 179.927 91.7101 179.944 91.9683C179.962 92.2265 179.926 92.4855 179.838 92.7289C179.75 92.9724 179.612 93.1949 179.434 93.3824L175.692 97.6418C175.532 97.8452 175.331 98.013 175.102 98.1347C174.873 98.2563 174.621 98.3291 174.363 98.3484C174.104 98.3677 173.844 98.3332 173.6 98.2469C173.355 98.1606 173.132 98.0245 172.943 97.8473Z" fill="#263238"/>
<path d="M205.286 108.402C205.268 108.173 205.296 107.942 205.368 107.723C205.441 107.504 205.556 107.302 205.708 107.128C205.859 106.954 206.044 106.812 206.251 106.71C206.458 106.608 206.683 106.548 206.913 106.534L211.983 106.179C212.213 106.161 212.444 106.19 212.663 106.262C212.882 106.334 213.085 106.449 213.259 106.601C213.433 106.752 213.575 106.936 213.677 107.143C213.779 107.35 213.839 107.574 213.853 107.804C213.884 108.267 213.73 108.724 213.425 109.074C213.12 109.424 212.689 109.639 212.226 109.673L207.156 110.028C206.693 110.058 206.236 109.905 205.885 109.6C205.535 109.296 205.319 108.865 205.286 108.402Z" fill="#263238"/>
<path d="M213.498 103.526C213.728 103.509 213.959 103.537 214.178 103.609C214.397 103.682 214.6 103.797 214.774 103.948C214.948 104.099 215.09 104.283 215.192 104.49C215.294 104.697 215.354 104.922 215.369 105.152L215.724 110.214C215.742 110.444 215.714 110.675 215.641 110.894C215.569 111.113 215.453 111.315 215.302 111.489C215.15 111.663 214.966 111.805 214.759 111.907C214.552 112.009 214.327 112.068 214.097 112.083C213.64 112.086 213.197 111.923 212.853 111.624C212.508 111.324 212.285 110.91 212.226 110.457L211.87 105.395C211.84 104.932 211.993 104.475 212.298 104.125C212.603 103.775 213.035 103.56 213.498 103.526Z" fill="#263238"/>
<path d="M181.417 110.046C181.448 110.509 181.294 110.966 180.989 111.316C180.684 111.666 180.253 111.881 179.789 111.914L174.72 112.269C174.489 112.285 174.257 112.254 174.038 112.18C173.819 112.105 173.616 111.988 173.443 111.835C173.269 111.683 173.127 111.497 173.025 111.29C172.923 111.082 172.863 110.856 172.849 110.625C172.818 110.162 172.972 109.706 173.277 109.356C173.582 109.006 174.013 108.791 174.477 108.757L179.546 108.421C179.776 108.403 180.008 108.431 180.227 108.504C180.446 108.576 180.648 108.691 180.822 108.842C180.996 108.994 181.139 109.178 181.241 109.385C181.343 109.591 181.403 109.816 181.417 110.046Z" fill="#263238"/>
<path d="M173.148 114.922C172.684 114.953 172.227 114.799 171.877 114.495C171.526 114.19 171.311 113.76 171.277 113.297L170.922 108.215C170.891 107.752 171.045 107.296 171.349 106.946C171.654 106.596 172.086 106.381 172.549 106.347C173.006 106.343 173.448 106.507 173.793 106.806C174.137 107.105 174.36 107.52 174.42 107.973L174.775 113.054C174.779 113.51 174.616 113.952 174.316 114.296C174.016 114.64 173.601 114.863 173.148 114.922Z" fill="#263238"/>
<path d="M194.155 121.031C194.612 121.027 195.054 121.19 195.399 121.49C195.743 121.789 195.966 122.204 196.026 122.656L196.363 127.719C196.38 127.949 196.352 128.18 196.28 128.398C196.207 128.617 196.092 128.819 195.941 128.993C195.789 129.167 195.605 129.309 195.398 129.411C195.191 129.513 194.965 129.573 194.735 129.587C194.272 129.618 193.815 129.464 193.464 129.16C193.114 128.855 192.898 128.424 192.864 127.962L192.528 122.899C192.497 122.436 192.651 121.98 192.956 121.63C193.261 121.28 193.692 121.064 194.155 121.031Z" fill="#263238"/>
<path d="M199.038 129.381C199.042 129.838 198.878 130.279 198.578 130.623C198.279 130.968 197.863 131.19 197.41 131.25L192.322 131.586C191.858 131.617 191.401 131.463 191.051 131.158C190.7 130.854 190.485 130.423 190.451 129.961C190.447 129.504 190.611 129.063 190.911 128.718C191.21 128.374 191.626 128.152 192.079 128.092L197.167 127.737C197.627 127.734 198.071 127.9 198.416 128.203C198.761 128.506 198.983 128.926 199.038 129.381Z" fill="#263238"/>
<path d="M192.49 97.3241C192.027 97.355 191.57 97.2013 191.219 96.8968C190.869 96.5923 190.653 96.1616 190.62 95.6989L190.283 90.6362C190.265 90.4065 190.293 90.1754 190.366 89.9567C190.438 89.7379 190.553 89.5357 190.705 89.3618C190.856 89.1879 191.041 89.0459 191.248 88.944C191.455 88.842 191.68 88.7823 191.91 88.7681C192.367 88.7642 192.809 88.9273 193.154 89.2267C193.499 89.5261 193.722 89.9411 193.781 90.3933L194.136 95.456C194.152 95.6867 194.121 95.9182 194.047 96.137C193.972 96.3559 193.855 96.558 193.702 96.7315C193.549 96.9051 193.363 97.0468 193.155 97.1485C192.947 97.2502 192.721 97.3099 192.49 97.3241Z" fill="#263238"/>
<path d="M187.608 89.067C187.593 88.8363 187.623 88.6049 187.698 88.386C187.772 88.1671 187.89 87.9651 188.042 87.7915C188.195 87.6179 188.381 87.4762 188.589 87.3745C188.797 87.2728 189.023 87.2131 189.254 87.1989L194.324 86.8439C194.78 86.8401 195.223 87.0032 195.567 87.3026C195.912 87.602 196.135 88.017 196.194 88.4692C196.225 88.9322 196.071 89.3885 195.766 89.7385C195.461 90.0886 195.03 90.3038 194.567 90.3374L189.497 90.6923C189.037 90.7008 188.59 90.5397 188.242 90.2399C187.893 89.9401 187.668 89.5225 187.608 89.067Z" fill="#263238"/>
<path d="M85.6331 157.188C95.5894 156.499 103.102 147.881 102.413 137.938C101.723 127.995 93.0935 120.493 83.1372 121.181C73.1809 121.87 65.6684 130.488 66.3576 140.431C67.0469 150.374 75.6768 157.876 85.6331 157.188Z" fill="#263238"/>
<path d="M93.0979 129.157C92.8955 128.995 92.729 128.794 92.6089 128.564C92.4887 128.335 92.4177 128.083 92.4001 127.825C92.3825 127.567 92.4188 127.308 92.5067 127.064C92.5946 126.821 92.7322 126.599 92.9108 126.411L96.6521 122.133C96.9974 121.746 97.4807 121.51 97.9982 121.475C98.5158 121.44 99.0265 121.609 99.4207 121.946C99.8078 122.291 100.044 122.774 100.079 123.29C100.114 123.807 99.9449 124.317 99.6078 124.711L95.8665 128.97C95.7046 129.175 95.5014 129.344 95.2701 129.466C95.0388 129.588 94.7846 129.66 94.5237 129.677C94.2628 129.695 94.0012 129.658 93.7556 129.568C93.51 129.479 93.2859 129.339 93.0979 129.157Z" fill="#263238"/>
<path d="M95.773 118.808C95.9349 118.606 96.137 118.439 96.3667 118.319C96.5963 118.199 96.8483 118.128 97.1069 118.111C97.3654 118.093 97.6248 118.13 97.8685 118.217C98.1123 118.305 98.3351 118.443 98.5229 118.621L102.788 122.357C102.992 122.517 103.16 122.718 103.282 122.947C103.403 123.175 103.476 123.427 103.496 123.685C103.515 123.943 103.48 124.203 103.394 124.447C103.308 124.691 103.171 124.915 102.994 125.103C102.832 125.308 102.629 125.477 102.397 125.599C102.166 125.721 101.912 125.793 101.651 125.81C101.39 125.828 101.128 125.791 100.883 125.701C100.637 125.612 100.413 125.472 100.225 125.29L95.9601 121.554C95.5784 121.21 95.3456 120.731 95.3107 120.219C95.2758 119.706 95.4415 119.2 95.773 118.808Z" fill="#263238"/>
<path d="M75.6445 149.109C76.0344 149.451 76.2743 149.932 76.3128 150.449C76.3512 150.966 76.1852 151.478 75.8503 151.874L72.109 156.133C71.7637 156.52 71.2804 156.756 70.7629 156.791C70.2453 156.826 69.7346 156.657 69.3404 156.32C68.9545 155.978 68.7185 155.499 68.6835 154.985C68.6485 154.471 68.8173 153.964 69.1533 153.574L72.8947 149.296C73.0565 149.094 73.2587 148.927 73.4883 148.807C73.7179 148.687 73.97 148.616 74.2285 148.599C74.487 148.581 74.7464 148.618 74.9902 148.705C75.2339 148.793 75.4568 148.931 75.6445 149.109Z" fill="#263238"/>
<path d="M72.9695 159.514C72.8076 159.716 72.6055 159.883 72.3759 160.003C72.1463 160.123 71.8942 160.194 71.6357 160.211C71.3772 160.229 71.1178 160.193 70.874 160.105C70.6303 160.017 70.4074 159.88 70.2196 159.701L65.9545 155.965C65.7509 155.805 65.5828 155.604 65.461 155.375C65.3392 155.147 65.2663 154.895 65.2469 154.637C65.2276 154.379 65.2622 154.119 65.3486 153.875C65.435 153.631 65.5712 153.408 65.7487 153.219C66.094 152.832 66.5773 152.596 67.0949 152.561C67.6125 152.526 68.1231 152.695 68.5174 153.032L72.7825 156.768C72.9848 156.93 73.1513 157.132 73.2715 157.361C73.3916 157.59 73.4627 157.842 73.4803 158.1C73.4979 158.358 73.4615 158.617 73.3736 158.861C73.2857 159.104 73.1481 159.327 72.9695 159.514Z" fill="#263238"/>
<path d="M94.4635 147.876C94.6254 147.674 94.8276 147.508 95.0572 147.388C95.2868 147.268 95.5388 147.197 95.7974 147.179C96.0559 147.161 96.3153 147.198 96.559 147.286C96.8028 147.373 97.0256 147.511 97.2134 147.689L101.497 151.425C101.884 151.77 102.121 152.253 102.156 152.77C102.191 153.287 102.021 153.797 101.684 154.19C101.522 154.392 101.32 154.559 101.091 154.679C100.861 154.799 100.609 154.87 100.35 154.887C100.092 154.905 99.8326 154.868 99.5888 154.781C99.345 154.693 99.1222 154.555 98.9344 154.377L94.6506 150.641C94.4453 150.479 94.2762 150.276 94.1543 150.045C94.0323 149.814 93.9602 149.56 93.9426 149.3C93.9249 149.039 93.9622 148.778 94.0519 148.533C94.1416 148.287 94.2819 148.064 94.4635 147.876Z" fill="#263238"/>
<path d="M104.752 150.547C104.954 150.709 105.121 150.911 105.241 151.14C105.361 151.37 105.432 151.621 105.45 151.879C105.468 152.138 105.431 152.397 105.343 152.64C105.255 152.883 105.118 153.106 104.939 153.294L101.198 157.572C100.856 157.957 100.376 158.193 99.8612 158.228C99.3468 158.262 98.8392 158.094 98.448 157.758C98.0609 157.414 97.8245 156.931 97.7895 156.414C97.7545 155.897 97.9238 155.387 98.2609 154.994L102.002 150.734C102.164 150.532 102.366 150.366 102.596 150.246C102.825 150.126 103.078 150.055 103.336 150.037C103.595 150.02 103.854 150.056 104.098 150.144C104.342 150.232 104.564 150.369 104.752 150.547Z" fill="#263238"/>
<path d="M74.3539 130.428C74.1934 130.631 73.9923 130.799 73.7634 130.92C73.5345 131.042 73.2827 131.115 73.0242 131.134C72.7656 131.154 72.5058 131.119 72.2614 131.033C72.0169 130.946 71.793 130.81 71.604 130.633L67.3202 126.897C67.1178 126.735 66.9513 126.533 66.8312 126.304C66.711 126.075 66.6399 125.823 66.6224 125.565C66.6048 125.307 66.6411 125.048 66.729 124.804C66.8169 124.561 66.9545 124.338 67.1331 124.151C67.2936 123.947 67.4947 123.779 67.7236 123.658C67.9525 123.536 68.2042 123.463 68.4628 123.444C68.7214 123.425 68.9811 123.459 69.2256 123.545C69.4701 123.632 69.694 123.768 69.883 123.945L74.1668 127.681C74.3691 127.843 74.5357 128.045 74.6558 128.274C74.7759 128.503 74.847 128.755 74.8646 129.013C74.8822 129.272 74.8459 129.531 74.758 129.774C74.67 130.017 74.5324 130.24 74.3539 130.428Z" fill="#263238"/>
<path d="M63.991 127.793C63.6039 127.449 63.3675 126.966 63.3325 126.449C63.2975 125.932 63.4668 125.422 63.804 125.029L67.5453 120.769C67.7072 120.567 67.9093 120.401 68.1389 120.281C68.3685 120.161 68.6206 120.09 68.8791 120.072C69.1377 120.055 69.397 120.091 69.6408 120.179C69.8845 120.267 70.1074 120.404 70.2952 120.582C70.4975 120.744 70.664 120.946 70.7841 121.175C70.9043 121.405 70.9754 121.656 70.993 121.914C71.0106 122.173 70.9742 122.432 70.8863 122.675C70.7984 122.919 70.6608 123.141 70.4822 123.329L66.7409 127.588C66.5804 127.791 66.3793 127.959 66.1504 128.081C65.9215 128.202 65.6698 128.275 65.4112 128.295C65.1526 128.314 64.8929 128.279 64.6484 128.193C64.4039 128.107 64.18 127.971 63.991 127.793Z" fill="#263238"/>
<path d="M96.3341 138.348C96.3163 138.119 96.3444 137.888 96.4169 137.669C96.4893 137.45 96.6047 137.248 96.7561 137.074C96.9076 136.9 97.0922 136.758 97.2991 136.656C97.5061 136.554 97.7313 136.494 97.9616 136.48L103.031 136.125C103.261 136.108 103.492 136.136 103.712 136.208C103.931 136.28 104.133 136.395 104.307 136.547C104.481 136.698 104.624 136.882 104.726 137.089C104.828 137.296 104.888 137.521 104.902 137.751C104.933 138.214 104.779 138.67 104.474 139.02C104.169 139.37 103.738 139.585 103.274 139.619L98.2048 139.974C97.7412 140.004 97.2843 139.851 96.9338 139.546C96.5833 139.242 96.3677 138.811 96.3341 138.348Z" fill="#263238"/>
<path d="M104.546 133.473C104.776 133.455 105.008 133.483 105.227 133.555C105.446 133.628 105.648 133.743 105.822 133.894C105.997 134.045 106.139 134.23 106.241 134.436C106.343 134.643 106.403 134.868 106.417 135.098L106.772 140.161C106.79 140.39 106.762 140.621 106.69 140.84C106.617 141.059 106.502 141.261 106.35 141.435C106.199 141.609 106.014 141.751 105.807 141.853C105.6 141.955 105.375 142.015 105.145 142.029C104.688 142.033 104.246 141.869 103.901 141.57C103.557 141.271 103.334 140.856 103.274 140.403L102.919 135.341C102.888 134.878 103.042 134.422 103.347 134.071C103.652 133.721 104.083 133.506 104.546 133.473Z" fill="#263238"/>
<path d="M72.4653 139.992C72.4962 140.455 72.3424 140.912 72.0374 141.262C71.7325 141.612 71.3012 141.827 70.8378 141.861L65.7684 142.215C65.5373 142.231 65.3056 142.2 65.0864 142.126C64.8672 142.051 64.6649 141.934 64.4911 141.782C64.3173 141.629 64.1754 141.443 64.0736 141.236C63.9717 141.028 63.912 140.802 63.8977 140.572C63.8668 140.109 64.0207 139.652 64.3256 139.302C64.6305 138.952 65.0618 138.737 65.5252 138.703L70.5947 138.367C70.8247 138.349 71.056 138.377 71.2751 138.45C71.4942 138.522 71.6967 138.637 71.8708 138.789C72.0449 138.94 72.1871 139.124 72.2892 139.331C72.3913 139.538 72.4511 139.762 72.4653 139.992Z" fill="#263238"/>
<path d="M64.1962 144.868C63.7326 144.899 63.2757 144.745 62.9252 144.441C62.5747 144.136 62.3591 143.706 62.3255 143.243L61.9701 138.162C61.9392 137.699 62.093 137.242 62.398 136.892C62.7029 136.542 63.1342 136.327 63.5975 136.293C64.0543 136.29 64.4966 136.453 64.8412 136.752C65.1858 137.052 65.4088 137.466 65.4682 137.919L65.8236 143C65.8275 143.456 65.6641 143.898 65.3643 144.242C65.0645 144.586 64.6491 144.809 64.1962 144.868Z" fill="#263238"/>
<path d="M85.2037 150.977C85.6604 150.973 86.1028 151.136 86.4473 151.436C86.7919 151.735 87.015 152.15 87.0743 152.602L87.411 157.665C87.4288 157.895 87.4007 158.126 87.3282 158.345C87.2558 158.563 87.1405 158.766 86.989 158.939C86.8376 159.113 86.653 159.255 86.446 159.357C86.2391 159.459 86.0139 159.519 85.7836 159.533C85.32 159.564 84.863 159.41 84.5125 159.106C84.162 158.801 83.9465 158.371 83.9129 157.908L83.5762 152.845C83.5453 152.382 83.6991 151.926 84.0041 151.576C84.309 151.226 84.7403 151.011 85.2037 150.977Z" fill="#263238"/>
<path d="M90.0861 159.328C90.09 159.784 89.9266 160.225 89.6268 160.57C89.327 160.914 88.9115 161.136 88.4586 161.196L83.3704 161.532C82.9069 161.563 82.4499 161.409 82.0994 161.105C81.7489 160.8 81.5333 160.369 81.4998 159.907C81.4959 159.451 81.6592 159.009 81.959 158.665C82.2588 158.321 82.6744 158.098 83.1272 158.039L88.2154 157.684C88.675 157.68 89.1197 157.846 89.4648 158.149C89.8098 158.452 90.031 158.872 90.0861 159.328Z" fill="#263238"/>
<path d="M83.5388 127.27C83.0753 127.301 82.6183 127.148 82.2678 126.843C81.9173 126.538 81.7017 126.108 81.6682 125.645L81.3314 120.582C81.3136 120.353 81.3418 120.122 81.4142 119.903C81.4867 119.684 81.602 119.482 81.7534 119.308C81.9049 119.134 82.0895 118.992 82.2964 118.89C82.5034 118.788 82.7286 118.728 82.9589 118.714C83.4157 118.71 83.858 118.874 84.2026 119.173C84.5472 119.472 84.7702 119.887 84.8296 120.34L85.185 125.402C85.2002 125.633 85.1697 125.864 85.0951 126.083C85.0205 126.302 84.9034 126.504 84.7505 126.678C84.5975 126.851 84.4117 126.993 84.2038 127.095C83.9959 127.196 83.7699 127.256 83.5388 127.27Z" fill="#263238"/>
<path d="M78.6564 119.013C78.6412 118.782 78.6717 118.551 78.7463 118.332C78.8209 118.113 78.938 117.911 79.0909 117.738C79.2439 117.564 79.4296 117.422 79.6376 117.321C79.8455 117.219 80.0715 117.159 80.3026 117.145L85.3721 116.79C85.8288 116.786 86.2712 116.949 86.6158 117.249C86.9604 117.548 87.1834 117.963 87.2427 118.415C87.2736 118.878 87.1198 119.335 86.8148 119.685C86.5099 120.035 86.0786 120.25 85.6153 120.284L80.5458 120.638C80.0858 120.647 79.6389 120.486 79.2904 120.186C78.9418 119.886 78.7161 119.469 78.6564 119.013Z" fill="#263238"/>
<path d="M3.85926 135.296C11.3724 134.777 17.0413 128.273 16.5212 120.77C16.0011 113.267 9.48892 107.606 1.97582 108.125C-5.53729 108.645 -11.2062 115.148 -10.6862 122.651C-10.1661 130.154 -3.65385 135.815 3.85926 135.296Z" fill="#263238"/>
<path d="M9.49224 114.144C9.33954 114.022 9.21387 113.87 9.12322 113.697C9.03257 113.524 8.97893 113.334 8.96566 113.139C8.95239 112.944 8.97978 112.748 9.04613 112.565C9.11248 112.381 9.21632 112.213 9.35107 112.072L12.1743 108.843C12.4349 108.552 12.7995 108.374 13.1901 108.347C13.5806 108.321 13.966 108.448 14.2635 108.702C14.5556 108.963 14.734 109.327 14.7604 109.717C14.7868 110.107 14.6591 110.492 14.4047 110.789L11.5814 114.003C11.4593 114.158 11.3059 114.285 11.1314 114.377C10.9569 114.469 10.765 114.523 10.5682 114.537C10.3713 114.55 10.1739 114.522 9.98853 114.454C9.80321 114.386 9.63414 114.281 9.49224 114.144Z" fill="#263238"/>
<path d="M11.5109 106.334C11.6331 106.182 11.7856 106.056 11.9589 105.966C12.1321 105.875 12.3224 105.821 12.5174 105.808C12.7125 105.795 12.9083 105.822 13.0922 105.889C13.2762 105.955 13.4443 106.059 13.586 106.193L16.8045 109.013C16.9582 109.134 17.085 109.285 17.1769 109.458C17.2689 109.63 17.3239 109.82 17.3385 110.015C17.3531 110.209 17.3269 110.405 17.2618 110.589C17.1966 110.774 17.0937 110.942 16.9598 111.085C16.8376 111.24 16.6843 111.367 16.5098 111.459C16.3352 111.551 16.1434 111.605 15.9465 111.618C15.7496 111.632 15.5522 111.604 15.3669 111.536C15.1816 111.468 15.0125 111.363 14.8706 111.226L11.6521 108.406C11.3641 108.147 11.1884 107.785 11.162 107.399C11.1357 107.012 11.2608 106.63 11.5109 106.334Z" fill="#263238"/>
<path d="M10.5228 128.269C10.6449 128.117 10.7975 127.991 10.9707 127.901C11.144 127.81 11.3342 127.757 11.5293 127.743C11.7244 127.73 11.9201 127.757 12.104 127.824C12.288 127.89 12.4561 127.994 12.5978 128.128L15.8304 130.948C16.1226 131.208 16.301 131.572 16.3274 131.962C16.3537 132.352 16.226 132.737 15.9716 133.034C15.8495 133.187 15.6969 133.312 15.5236 133.403C15.3504 133.493 15.1602 133.547 14.9651 133.56C14.77 133.573 14.5743 133.546 14.3903 133.48C14.2064 133.413 14.0382 133.31 13.8965 133.175L10.6639 130.356C10.509 130.234 10.3814 130.081 10.2894 129.906C10.1973 129.732 10.1429 129.54 10.1296 129.344C10.1163 129.147 10.1444 128.95 10.2121 128.765C10.2799 128.58 10.3857 128.411 10.5228 128.269Z" fill="#263238"/>
<path d="M18.2866 130.285C18.4393 130.407 18.5649 130.559 18.6556 130.732C18.7462 130.906 18.7999 131.095 18.8132 131.29C18.8264 131.485 18.799 131.681 18.7327 131.864C18.6663 132.048 18.5625 132.216 18.4278 132.357L15.6045 135.586C15.3464 135.876 14.9841 136.054 14.5959 136.081C14.2076 136.107 13.8246 135.98 13.5294 135.727C13.2373 135.466 13.0589 135.102 13.0325 134.712C13.0061 134.322 13.1338 133.937 13.3883 133.64L16.2115 130.426C16.3337 130.274 16.4862 130.148 16.6595 130.058C16.8327 129.967 17.0229 129.913 17.218 129.9C17.4131 129.887 17.6088 129.914 17.7928 129.981C17.9767 130.047 18.1449 130.151 18.2866 130.285Z" fill="#263238"/>
<path d="M11.9343 121.08C11.9209 120.906 11.9421 120.732 11.9968 120.567C12.0515 120.402 12.1385 120.249 12.2528 120.118C12.3671 119.987 12.5064 119.88 12.6625 119.803C12.8187 119.726 12.9886 119.681 13.1624 119.67L16.9879 119.402C17.1615 119.389 17.3361 119.41 17.5014 119.465C17.6667 119.519 17.8195 119.606 17.9509 119.72C18.0823 119.834 18.1896 119.973 18.2666 120.129C18.3437 120.285 18.3888 120.455 18.3996 120.629C18.4228 120.978 18.3068 121.322 18.0767 121.586C17.8465 121.851 17.5211 122.013 17.1715 122.038L13.346 122.306C12.9961 122.329 12.6513 122.214 12.3868 121.984C12.1223 121.754 11.9597 121.429 11.9343 121.08Z" fill="#263238"/>
<path d="M18.1314 117.4C18.305 117.387 18.4795 117.408 18.6448 117.463C18.8102 117.517 18.963 117.604 19.0944 117.718C19.2257 117.833 19.333 117.972 19.4101 118.128C19.4871 118.284 19.5323 118.453 19.543 118.627L19.8112 122.447C19.8246 122.621 19.8034 122.795 19.7487 122.96C19.6941 123.125 19.607 123.278 19.4927 123.409C19.3784 123.54 19.2392 123.647 19.083 123.724C18.9268 123.801 18.7569 123.846 18.5831 123.857C18.2384 123.86 17.9046 123.737 17.6446 123.511C17.3845 123.285 17.2163 122.972 17.1715 122.63L16.9033 118.81C16.88 118.461 16.9961 118.116 17.2262 117.852C17.4563 117.588 17.7817 117.426 18.1314 117.4Z" fill="#263238"/>
<path d="M3.5352 130.609C3.87985 130.606 4.21366 130.73 4.4737 130.955C4.73373 131.181 4.90202 131.495 4.94681 131.836L5.2009 135.656C5.21433 135.83 5.1931 136.004 5.13843 136.169C5.08376 136.334 4.99675 136.487 4.88245 136.618C4.76816 136.749 4.62888 136.856 4.47271 136.933C4.31654 137.01 4.14659 137.055 3.97279 137.066C3.62299 137.089 3.27817 136.973 3.01368 136.743C2.74918 136.514 2.58651 136.189 2.56118 135.839L2.30707 132.019C2.28378 131.67 2.39988 131.325 2.62999 131.061C2.8601 130.797 3.18553 130.635 3.5352 130.609Z" fill="#263238"/>
<path d="M7.21949 136.911C7.22241 137.255 7.09912 137.588 6.87289 137.848C6.64667 138.108 6.33311 138.276 5.99136 138.32L2.15178 138.574C1.80197 138.597 1.45716 138.482 1.19267 138.252C0.928173 138.022 0.765496 137.697 0.740163 137.348C0.73724 137.004 0.860506 136.67 1.08674 136.411C1.31296 136.151 1.62652 135.983 1.96826 135.938L5.80787 135.67C6.15467 135.668 6.49026 135.793 6.75061 136.022C7.01097 136.25 7.17788 136.567 7.21949 136.911Z" fill="#263238"/>
<path d="M2.27883 112.72C1.92902 112.743 1.58421 112.627 1.31971 112.398C1.05522 112.168 0.89254 111.843 0.867207 111.494L0.613105 107.673C0.599668 107.5 0.620919 107.326 0.675591 107.161C0.730264 106.995 0.817274 106.843 0.931568 106.712C1.04586 106.58 1.18515 106.473 1.34132 106.396C1.49749 106.319 1.66743 106.274 1.84123 106.264C2.18589 106.261 2.5197 106.384 2.77973 106.61C3.03976 106.836 3.20805 107.149 3.25285 107.49L3.52104 111.31C3.53252 111.484 3.50948 111.659 3.45321 111.824C3.39694 111.989 3.30856 112.142 3.19314 112.273C3.07772 112.404 2.93754 112.511 2.78063 112.588C2.62373 112.664 2.4532 112.709 2.27883 112.72Z" fill="#263238"/>
<path d="M-1.40546 106.489C-1.41694 106.315 -1.39388 106.14 -1.33761 105.975C-1.28133 105.81 -1.19295 105.658 -1.07754 105.527C-0.96212 105.396 -0.821955 105.289 -0.665054 105.212C-0.508152 105.135 -0.337622 105.09 -0.163246 105.079L3.66225 104.812C4.00691 104.809 4.34072 104.932 4.60075 105.158C4.86079 105.384 5.02907 105.697 5.07387 106.038C5.09716 106.387 4.98108 106.732 4.75097 106.996C4.52086 107.26 4.19543 107.423 3.84577 107.448L0.0202715 107.716C-0.3268 107.722 -0.664052 107.601 -0.927061 107.374C-1.19007 107.148 -1.36039 106.833 -1.40546 106.489Z" fill="#263238"/>
<path d="M128.938 135.559C133.564 135.239 137.054 131.235 136.734 126.616C136.413 121.997 132.404 118.511 127.778 118.831C123.152 119.15 119.662 123.154 119.982 127.774C120.303 132.393 124.312 135.879 128.938 135.559Z" fill="#263238"/>
<path d="M132.405 122.536C132.311 122.461 132.234 122.367 132.178 122.26C132.122 122.154 132.089 122.037 132.081 121.917C132.073 121.797 132.09 121.677 132.13 121.564C132.171 121.45 132.235 121.347 132.318 121.26L134.056 119.272C134.217 119.093 134.441 118.983 134.682 118.967C134.922 118.951 135.159 119.029 135.343 119.186C135.523 119.346 135.632 119.57 135.649 119.81C135.665 120.05 135.586 120.287 135.43 120.47L133.691 122.449C133.616 122.544 133.522 122.623 133.414 122.679C133.307 122.736 133.189 122.769 133.067 122.778C132.946 122.786 132.825 122.768 132.711 122.727C132.597 122.685 132.492 122.62 132.405 122.536Z" fill="#263238"/>
<path d="M133.648 117.727C133.723 117.634 133.817 117.556 133.924 117.501C134.03 117.445 134.147 117.412 134.268 117.404C134.388 117.396 134.508 117.412 134.621 117.453C134.735 117.494 134.838 117.558 134.925 117.641L136.907 119.377C137.002 119.451 137.08 119.544 137.136 119.65C137.193 119.757 137.227 119.873 137.236 119.993C137.245 120.113 137.229 120.234 137.189 120.347C137.148 120.461 137.085 120.565 137.003 120.652C136.927 120.748 136.833 120.826 136.726 120.883C136.618 120.939 136.5 120.973 136.379 120.981C136.258 120.989 136.136 120.972 136.022 120.93C135.908 120.889 135.804 120.823 135.716 120.739L133.735 119.003C133.557 118.843 133.449 118.621 133.433 118.383C133.417 118.145 133.494 117.91 133.648 117.727Z" fill="#263238"/>
<path d="M124.296 131.805C124.477 131.964 124.589 132.188 124.607 132.428C124.625 132.668 124.547 132.906 124.392 133.09L122.654 135.069C122.493 135.248 122.269 135.358 122.028 135.374C121.788 135.391 121.551 135.312 121.367 135.156C121.188 134.997 121.078 134.774 121.062 134.535C121.046 134.297 121.124 134.061 121.28 133.88L123.019 131.892C123.094 131.798 123.188 131.721 123.294 131.665C123.401 131.61 123.518 131.577 123.638 131.568C123.758 131.56 123.879 131.577 123.992 131.618C124.105 131.659 124.209 131.723 124.296 131.805Z" fill="#263238"/>
<path d="M123.054 136.64C122.979 136.734 122.885 136.811 122.778 136.867C122.672 136.922 122.555 136.955 122.434 136.964C122.314 136.972 122.194 136.955 122.081 136.914C121.967 136.873 121.864 136.809 121.777 136.727L119.795 134.991C119.7 134.916 119.622 134.823 119.566 134.717C119.509 134.61 119.475 134.494 119.466 134.374C119.457 134.254 119.473 134.133 119.513 134.02C119.554 133.906 119.617 133.802 119.699 133.715C119.86 133.535 120.084 133.425 120.325 133.409C120.565 133.393 120.803 133.472 120.986 133.628L122.967 135.364C123.061 135.439 123.139 135.533 123.194 135.639C123.25 135.746 123.283 135.863 123.291 135.983C123.3 136.103 123.283 136.223 123.242 136.336C123.201 136.449 123.137 136.553 123.054 136.64Z" fill="#263238"/>
<path d="M133.04 131.233C133.115 131.139 133.209 131.061 133.315 131.006C133.422 130.95 133.539 130.917 133.659 130.909C133.779 130.901 133.9 130.917 134.013 130.958C134.126 130.999 134.23 131.063 134.317 131.146L136.307 132.882C136.487 133.042 136.597 133.266 136.613 133.506C136.63 133.746 136.551 133.983 136.394 134.166C136.319 134.26 136.225 134.337 136.119 134.393C136.012 134.449 135.895 134.482 135.775 134.49C135.655 134.498 135.534 134.481 135.421 134.44C135.308 134.4 135.204 134.336 135.117 134.253L133.126 132.517C133.031 132.442 132.953 132.348 132.896 132.24C132.839 132.133 132.806 132.015 132.798 131.894C132.789 131.773 132.807 131.652 132.848 131.538C132.89 131.424 132.955 131.32 133.04 131.233Z" fill="#263238"/>
<path d="M137.82 132.474C137.914 132.549 137.991 132.643 138.047 132.749C138.103 132.856 138.136 132.973 138.144 133.093C138.152 133.212 138.135 133.333 138.094 133.446C138.053 133.559 137.99 133.662 137.907 133.75L136.168 135.737C136.009 135.916 135.786 136.026 135.547 136.042C135.308 136.058 135.072 135.98 134.891 135.824C134.711 135.664 134.601 135.439 134.585 135.199C134.569 134.959 134.647 134.722 134.804 134.539L136.542 132.56C136.617 132.467 136.711 132.389 136.818 132.334C136.925 132.278 137.042 132.245 137.162 132.237C137.282 132.229 137.402 132.245 137.516 132.286C137.629 132.327 137.732 132.391 137.82 132.474Z" fill="#263238"/>
<path d="M123.698 123.126C123.623 123.22 123.53 123.298 123.423 123.355C123.317 123.411 123.2 123.445 123.08 123.454C122.96 123.463 122.839 123.447 122.725 123.407C122.612 123.367 122.508 123.304 122.42 123.221L120.43 121.486C120.336 121.41 120.258 121.317 120.203 121.21C120.147 121.104 120.114 120.987 120.106 120.867C120.097 120.747 120.114 120.626 120.155 120.513C120.196 120.4 120.26 120.297 120.343 120.21C120.417 120.115 120.511 120.037 120.617 119.981C120.724 119.924 120.84 119.89 120.961 119.881C121.081 119.872 121.201 119.888 121.315 119.929C121.429 119.969 121.533 120.032 121.62 120.114L123.611 121.85C123.705 121.925 123.782 122.019 123.838 122.126C123.894 122.232 123.927 122.349 123.935 122.469C123.943 122.589 123.926 122.709 123.885 122.822C123.844 122.935 123.781 123.039 123.698 123.126Z" fill="#263238"/>
<path d="M118.882 121.902C118.702 121.742 118.592 121.518 118.576 121.278C118.56 121.037 118.638 120.801 118.795 120.618L120.533 118.639C120.609 118.545 120.702 118.468 120.809 118.412C120.916 118.356 121.033 118.323 121.153 118.315C121.273 118.307 121.394 118.324 121.507 118.364C121.62 118.405 121.724 118.469 121.811 118.552C121.905 118.627 121.982 118.721 122.038 118.827C122.094 118.934 122.127 119.051 122.135 119.171C122.143 119.291 122.126 119.411 122.086 119.524C122.045 119.637 121.981 119.741 121.898 119.828L120.16 121.807C120.085 121.901 119.992 121.979 119.885 122.036C119.779 122.092 119.662 122.126 119.542 122.135C119.422 122.144 119.301 122.128 119.187 122.088C119.074 122.048 118.97 121.985 118.882 121.902Z" fill="#263238"/>
<path d="M133.909 126.806C133.9 126.699 133.913 126.592 133.947 126.49C133.981 126.389 134.034 126.295 134.105 126.214C134.175 126.133 134.261 126.067 134.357 126.02C134.453 125.972 134.558 125.945 134.665 125.938L137.02 125.773C137.127 125.765 137.234 125.778 137.336 125.812C137.438 125.845 137.532 125.899 137.613 125.969C137.694 126.039 137.76 126.125 137.807 126.221C137.855 126.317 137.882 126.421 137.889 126.528C137.903 126.743 137.832 126.955 137.69 127.118C137.549 127.281 137.348 127.381 137.133 127.396L134.778 127.561C134.562 127.575 134.35 127.504 134.187 127.363C134.024 127.221 133.924 127.021 133.909 126.806Z" fill="#263238"/>
<path d="M137.724 124.541C137.831 124.533 137.939 124.546 138.041 124.579C138.142 124.613 138.237 124.666 138.317 124.737C138.398 124.807 138.465 124.893 138.512 124.989C138.559 125.085 138.587 125.189 138.594 125.296L138.759 127.648C138.767 127.755 138.754 127.862 138.721 127.964C138.687 128.065 138.633 128.159 138.563 128.24C138.492 128.321 138.407 128.387 138.31 128.434C138.214 128.482 138.11 128.509 138.003 128.516C137.79 128.518 137.585 128.442 137.424 128.303C137.264 128.164 137.161 127.971 137.133 127.761L136.968 125.409C136.954 125.194 137.025 124.982 137.167 124.819C137.309 124.656 137.509 124.556 137.724 124.541Z" fill="#263238"/>
<path d="M122.819 127.57C122.834 127.785 122.762 127.997 122.62 128.16C122.479 128.322 122.278 128.422 122.063 128.438L119.708 128.603C119.6 128.61 119.493 128.596 119.391 128.561C119.289 128.526 119.195 128.472 119.114 128.401C119.034 128.33 118.968 128.244 118.92 128.147C118.873 128.051 118.845 127.946 118.839 127.839C118.824 127.624 118.896 127.412 119.037 127.249C119.179 127.087 119.379 126.987 119.595 126.971L121.95 126.815C122.057 126.807 122.164 126.82 122.266 126.853C122.368 126.887 122.462 126.94 122.543 127.011C122.624 127.081 122.69 127.167 122.737 127.263C122.785 127.359 122.813 127.463 122.819 127.57Z" fill="#263238"/>
<path d="M118.978 129.835C118.762 129.849 118.55 129.778 118.387 129.637C118.224 129.495 118.124 129.295 118.108 129.08L117.943 126.719C117.929 126.504 118 126.292 118.142 126.13C118.284 125.967 118.484 125.867 118.7 125.851C118.912 125.85 119.117 125.925 119.278 126.064C119.438 126.204 119.541 126.396 119.569 126.606L119.734 128.967C119.736 129.179 119.66 129.384 119.521 129.544C119.381 129.704 119.188 129.808 118.978 129.835Z" fill="#263238"/>
<path d="M128.738 132.673C128.95 132.672 129.156 132.747 129.316 132.886C129.476 133.025 129.58 133.218 129.607 133.428L129.764 135.781C129.772 135.887 129.759 135.995 129.725 136.096C129.691 136.198 129.638 136.292 129.568 136.373C129.497 136.453 129.411 136.519 129.315 136.567C129.219 136.614 129.114 136.642 129.007 136.648C128.792 136.663 128.579 136.591 128.416 136.45C128.253 136.308 128.153 136.108 128.138 135.893L127.981 133.541C127.967 133.326 128.038 133.114 128.18 132.952C128.322 132.789 128.522 132.689 128.738 132.673Z" fill="#263238"/>
<path d="M131.006 136.553C131.008 136.765 130.932 136.97 130.792 137.13C130.653 137.29 130.46 137.393 130.25 137.421L127.886 137.577C127.67 137.591 127.458 137.52 127.295 137.379C127.132 137.237 127.032 137.037 127.017 136.822C127.015 136.61 127.091 136.405 127.23 136.245C127.369 136.085 127.562 135.982 127.773 135.954L130.137 135.789C130.35 135.788 130.557 135.865 130.717 136.005C130.877 136.146 130.98 136.341 131.006 136.553Z" fill="#263238"/>
<path d="M127.964 121.659C127.749 121.674 127.536 121.602 127.374 121.461C127.211 121.319 127.11 121.119 127.095 120.904L126.938 118.552C126.93 118.445 126.943 118.338 126.977 118.236C127.01 118.135 127.064 118.041 127.134 117.96C127.205 117.879 127.291 117.813 127.387 117.766C127.483 117.718 127.588 117.691 127.695 117.684C127.907 117.682 128.113 117.758 128.273 117.897C128.433 118.036 128.537 118.229 128.564 118.439L128.729 120.791C128.737 120.898 128.722 121.006 128.688 121.108C128.653 121.209 128.599 121.303 128.528 121.384C128.456 121.465 128.37 121.53 128.273 121.578C128.177 121.625 128.072 121.653 127.964 121.659Z" fill="#263238"/>
<path d="M125.696 117.823C125.689 117.716 125.703 117.608 125.737 117.507C125.772 117.405 125.826 117.311 125.898 117.23C125.969 117.15 126.055 117.084 126.151 117.037C126.248 116.989 126.353 116.962 126.46 116.955L128.816 116.79C129.028 116.788 129.233 116.864 129.394 117.003C129.554 117.142 129.657 117.335 129.685 117.545C129.699 117.76 129.628 117.972 129.486 118.135C129.344 118.298 129.144 118.398 128.929 118.413L126.573 118.578C126.36 118.582 126.152 118.507 125.99 118.368C125.828 118.229 125.723 118.035 125.696 117.823Z" fill="#263238"/>
<path d="M211.901 186.467C216.527 186.148 220.017 182.144 219.697 177.524C219.376 172.905 215.367 169.419 210.741 169.739C206.115 170.059 202.625 174.063 202.945 178.682C203.266 183.301 207.275 186.787 211.901 186.467Z" fill="#263238"/>
<path d="M215.368 173.444C215.274 173.369 215.197 173.275 215.141 173.169C215.085 173.062 215.052 172.945 215.044 172.825C215.036 172.705 215.053 172.585 215.093 172.472C215.134 172.359 215.198 172.256 215.281 172.168L217.019 170.181C217.18 170.001 217.404 169.892 217.645 169.875C217.885 169.859 218.123 169.938 218.306 170.094C218.486 170.254 218.595 170.478 218.612 170.719C218.628 170.959 218.549 171.196 218.393 171.379L216.654 173.357C216.579 173.453 216.485 173.531 216.377 173.588C216.27 173.644 216.152 173.678 216.031 173.686C215.909 173.694 215.788 173.677 215.674 173.635C215.56 173.594 215.455 173.529 215.368 173.444Z" fill="#263238"/>
<path d="M216.611 168.636C216.686 168.542 216.78 168.465 216.887 168.409C216.993 168.353 217.111 168.32 217.231 168.312C217.351 168.304 217.471 168.321 217.584 168.362C217.698 168.402 217.801 168.466 217.889 168.549L219.87 170.285C219.965 170.359 220.043 170.453 220.099 170.559C220.156 170.665 220.19 170.782 220.199 170.902C220.208 171.022 220.192 171.142 220.152 171.256C220.111 171.369 220.048 171.473 219.966 171.561C219.89 171.656 219.796 171.735 219.689 171.791C219.581 171.848 219.463 171.881 219.342 171.889C219.221 171.898 219.099 171.88 218.985 171.839C218.871 171.797 218.767 171.732 218.679 171.648L216.698 169.912C216.521 169.752 216.412 169.529 216.396 169.291C216.38 169.053 216.457 168.818 216.611 168.636Z" fill="#263238"/>
<path d="M207.259 182.714C207.44 182.873 207.552 183.096 207.57 183.337C207.588 183.577 207.511 183.814 207.355 183.998L205.617 185.977C205.456 186.157 205.232 186.267 204.991 186.283C204.751 186.299 204.514 186.22 204.33 186.064C204.151 185.905 204.041 185.683 204.025 185.444C204.009 185.205 204.087 184.97 204.243 184.788L205.982 182.801C206.057 182.707 206.151 182.629 206.258 182.574C206.364 182.518 206.481 182.485 206.601 182.477C206.722 182.469 206.842 182.486 206.955 182.526C207.069 182.567 207.172 182.631 207.259 182.714Z" fill="#263238"/>
<path d="M206.017 187.548C205.942 187.642 205.848 187.719 205.741 187.775C205.635 187.831 205.518 187.864 205.397 187.872C205.277 187.88 205.157 187.863 205.044 187.823C204.93 187.782 204.827 187.718 204.74 187.635L202.758 185.899C202.663 185.825 202.585 185.731 202.529 185.625C202.472 185.519 202.438 185.402 202.429 185.282C202.42 185.162 202.436 185.042 202.476 184.928C202.517 184.815 202.58 184.711 202.662 184.623C202.823 184.444 203.047 184.334 203.288 184.318C203.528 184.302 203.766 184.38 203.949 184.537L205.93 186.272C206.024 186.347 206.102 186.441 206.157 186.548C206.213 186.654 206.246 186.771 206.254 186.891C206.263 187.011 206.246 187.132 206.205 187.245C206.164 187.358 206.1 187.461 206.017 187.548Z" fill="#263238"/>
<path d="M216.003 182.141C216.078 182.047 216.172 181.97 216.278 181.914C216.385 181.858 216.502 181.825 216.622 181.817C216.742 181.809 216.863 181.826 216.976 181.867C217.089 181.907 217.193 181.971 217.28 182.054L219.27 183.79C219.45 183.95 219.56 184.174 219.576 184.415C219.593 184.655 219.514 184.892 219.357 185.075C219.282 185.168 219.188 185.246 219.082 185.301C218.975 185.357 218.858 185.39 218.738 185.398C218.618 185.407 218.497 185.39 218.384 185.349C218.271 185.308 218.167 185.244 218.08 185.161L216.09 183.426C215.994 183.35 215.916 183.256 215.859 183.149C215.802 183.042 215.769 182.924 215.761 182.803C215.752 182.681 215.77 182.56 215.811 182.446C215.853 182.332 215.918 182.228 216.003 182.141Z" fill="#263238"/>
<path d="M220.783 183.382C220.877 183.457 220.954 183.551 221.01 183.658C221.066 183.764 221.099 183.881 221.107 184.001C221.115 184.121 221.098 184.241 221.057 184.354C221.017 184.467 220.953 184.571 220.87 184.658L219.131 186.646C218.972 186.825 218.749 186.934 218.51 186.95C218.271 186.967 218.036 186.888 217.854 186.732C217.674 186.572 217.564 186.348 217.548 186.108C217.532 185.868 217.61 185.631 217.767 185.448L219.505 183.469C219.58 183.375 219.674 183.298 219.781 183.242C219.888 183.186 220.005 183.153 220.125 183.145C220.245 183.137 220.365 183.154 220.479 183.195C220.592 183.235 220.695 183.299 220.783 183.382Z" fill="#263238"/>
<path d="M206.661 174.034C206.586 174.129 206.493 174.207 206.386 174.263C206.28 174.32 206.163 174.354 206.043 174.363C205.923 174.372 205.802 174.356 205.688 174.316C205.575 174.275 205.471 174.212 205.383 174.13L203.393 172.394C203.299 172.319 203.221 172.225 203.166 172.119C203.11 172.012 203.077 171.895 203.069 171.775C203.06 171.655 203.077 171.535 203.118 171.422C203.159 171.309 203.223 171.205 203.306 171.118C203.38 171.024 203.474 170.946 203.58 170.889C203.687 170.833 203.803 170.799 203.924 170.79C204.044 170.781 204.164 170.797 204.278 170.837C204.392 170.877 204.496 170.94 204.583 171.023L206.574 172.759C206.668 172.834 206.745 172.927 206.801 173.034C206.857 173.141 206.89 173.257 206.898 173.377C206.906 173.497 206.889 173.618 206.848 173.731C206.807 173.844 206.744 173.947 206.661 174.034Z" fill="#263238"/>
<path d="M201.845 172.811C201.665 172.65 201.555 172.426 201.539 172.186C201.523 171.946 201.601 171.709 201.758 171.526L203.496 169.547C203.572 169.453 203.665 169.376 203.772 169.32C203.879 169.265 203.996 169.232 204.116 169.223C204.236 169.215 204.357 169.232 204.47 169.273C204.583 169.314 204.687 169.378 204.774 169.46C204.868 169.536 204.945 169.629 205.001 169.736C205.057 169.842 205.09 169.959 205.098 170.079C205.106 170.199 205.089 170.32 205.049 170.433C205.008 170.546 204.944 170.649 204.861 170.736L203.123 172.715C203.048 172.81 202.955 172.888 202.848 172.944C202.742 173.001 202.625 173.035 202.505 173.043C202.385 173.052 202.264 173.036 202.15 172.996C202.037 172.956 201.933 172.893 201.845 172.811Z" fill="#263238"/>
<path d="M216.872 177.715C216.863 177.608 216.876 177.5 216.91 177.399C216.944 177.297 216.997 177.203 217.068 177.122C217.138 177.042 217.224 176.976 217.32 176.928C217.416 176.881 217.521 176.853 217.628 176.847L219.983 176.682C220.09 176.673 220.197 176.687 220.299 176.72C220.401 176.754 220.495 176.807 220.576 176.878C220.657 176.948 220.723 177.033 220.77 177.129C220.818 177.225 220.846 177.33 220.852 177.437C220.866 177.652 220.795 177.864 220.653 178.027C220.512 178.189 220.311 178.289 220.096 178.305L217.741 178.47C217.525 178.484 217.313 178.413 217.15 178.271C216.987 178.13 216.887 177.93 216.872 177.715Z" fill="#263238"/>
<path d="M220.687 175.449C220.794 175.441 220.902 175.454 221.004 175.488C221.106 175.521 221.2 175.575 221.281 175.645C221.361 175.715 221.428 175.801 221.475 175.897C221.522 175.993 221.55 176.097 221.557 176.204L221.722 178.556C221.73 178.663 221.717 178.771 221.684 178.872C221.65 178.974 221.596 179.068 221.526 179.149C221.456 179.229 221.37 179.295 221.274 179.343C221.177 179.39 221.073 179.418 220.966 179.424C220.753 179.426 220.548 179.35 220.388 179.211C220.227 179.072 220.124 178.879 220.096 178.669L219.931 176.317C219.917 176.102 219.988 175.89 220.13 175.727C220.272 175.565 220.472 175.465 220.687 175.449Z" fill="#263238"/>
<path d="M205.782 178.478C205.797 178.693 205.725 178.905 205.583 179.068C205.442 179.231 205.241 179.331 205.026 179.346L202.671 179.511C202.563 179.518 202.456 179.504 202.354 179.469C202.252 179.435 202.158 179.381 202.077 179.31C201.997 179.239 201.931 179.152 201.883 179.056C201.836 178.959 201.808 178.855 201.802 178.747C201.787 178.532 201.859 178.32 202 178.158C202.142 177.995 202.343 177.895 202.558 177.879L204.913 177.723C205.02 177.715 205.127 177.728 205.229 177.762C205.331 177.795 205.425 177.849 205.506 177.919C205.587 177.989 205.653 178.075 205.7 178.171C205.748 178.267 205.776 178.371 205.782 178.478Z" fill="#263238"/>
<path d="M201.941 180.744C201.725 180.758 201.513 180.687 201.35 180.545C201.187 180.404 201.087 180.204 201.071 179.989L200.906 177.628C200.892 177.413 200.963 177.201 201.105 177.038C201.247 176.875 201.447 176.775 201.663 176.76C201.875 176.758 202.08 176.834 202.241 176.973C202.401 177.112 202.504 177.305 202.532 177.515L202.697 179.876C202.699 180.088 202.623 180.293 202.484 180.453C202.344 180.613 202.151 180.716 201.941 180.744Z" fill="#263238"/>
<path d="M211.701 183.582C211.913 183.58 212.119 183.656 212.279 183.795C212.439 183.934 212.543 184.127 212.57 184.337L212.727 186.689C212.735 186.796 212.722 186.903 212.688 187.005C212.655 187.106 212.601 187.2 212.531 187.281C212.46 187.362 212.374 187.428 212.278 187.475C212.182 187.523 212.077 187.55 211.97 187.557C211.755 187.571 211.542 187.5 211.379 187.358C211.217 187.217 211.116 187.017 211.101 186.802L210.944 184.45C210.93 184.235 211.001 184.023 211.143 183.86C211.285 183.697 211.485 183.597 211.701 183.582Z" fill="#263238"/>
<path d="M213.969 187.461C213.971 187.673 213.895 187.879 213.755 188.038C213.616 188.198 213.423 188.302 213.213 188.329L210.849 188.486C210.633 188.5 210.421 188.429 210.258 188.287C210.095 188.146 209.995 187.945 209.98 187.731C209.978 187.519 210.054 187.313 210.193 187.153C210.332 186.994 210.525 186.89 210.736 186.863L213.1 186.698C213.313 186.696 213.52 186.773 213.68 186.914C213.84 187.055 213.943 187.25 213.969 187.461Z" fill="#263238"/>
<path d="M210.927 172.568C210.712 172.582 210.5 172.511 210.337 172.369C210.174 172.228 210.074 172.028 210.058 171.813L209.901 169.46C209.893 169.354 209.906 169.246 209.94 169.145C209.974 169.043 210.027 168.949 210.098 168.868C210.168 168.788 210.254 168.722 210.35 168.674C210.446 168.627 210.551 168.599 210.658 168.592C210.87 168.591 211.076 168.666 211.236 168.806C211.396 168.945 211.5 169.137 211.527 169.348L211.693 171.7C211.7 171.807 211.685 171.914 211.651 172.016C211.616 172.118 211.562 172.212 211.491 172.292C211.419 172.373 211.333 172.439 211.237 172.486C211.14 172.533 211.035 172.561 210.927 172.568Z" fill="#263238"/>
<path d="M208.659 168.731C208.652 168.624 208.666 168.517 208.7 168.415C208.735 168.313 208.79 168.219 208.861 168.139C208.932 168.058 209.018 167.992 209.115 167.945C209.211 167.898 209.316 167.87 209.423 167.863L211.779 167.699C211.991 167.697 212.197 167.773 212.357 167.912C212.517 168.051 212.62 168.244 212.648 168.454C212.662 168.669 212.591 168.881 212.449 169.043C212.307 169.206 212.107 169.306 211.892 169.322L209.536 169.486C209.323 169.49 209.115 169.416 208.953 169.276C208.791 169.137 208.686 168.943 208.659 168.731Z" fill="#263238"/>
<path d="M241.888 85.6487C246.513 85.3291 250.004 81.3252 249.683 76.7057C249.363 72.0863 245.353 68.6006 240.728 68.9203C236.102 69.2399 232.612 73.2438 232.932 77.8633C233.252 82.4827 237.262 85.9684 241.888 85.6487Z" fill="#263238"/>
<path d="M245.355 72.6256C245.261 72.5505 245.183 72.4567 245.128 72.3501C245.072 72.2436 245.039 72.1267 245.031 72.0067C245.022 71.8868 245.039 71.7664 245.08 71.6533C245.121 71.5402 245.185 71.4368 245.268 71.3497L247.006 69.3621C247.167 69.1825 247.391 69.0728 247.631 69.0566C247.872 69.0404 248.109 69.1189 248.292 69.2753C248.472 69.4355 248.582 69.6598 248.598 69.8999C248.615 70.14 248.536 70.377 248.379 70.5599L246.641 72.5388C246.566 72.634 246.471 72.7125 246.364 72.7691C246.257 72.8257 246.138 72.8591 246.017 72.8673C245.896 72.8755 245.774 72.8582 245.66 72.8165C245.546 72.7749 245.442 72.7099 245.355 72.6256Z" fill="#263238"/>
<path d="M246.598 67.8172C246.673 67.7233 246.767 67.646 246.873 67.5903C246.98 67.5346 247.097 67.5016 247.217 67.4934C247.337 67.4852 247.458 67.5021 247.571 67.5429C247.684 67.5837 247.788 67.6475 247.875 67.7304L249.857 69.4662C249.951 69.5407 250.029 69.634 250.086 69.7402C250.143 69.8464 250.176 69.9632 250.185 70.0832C250.194 70.2032 250.178 70.3237 250.138 70.4371C250.098 70.5506 250.035 70.6544 249.952 70.7421C249.877 70.8374 249.783 70.9158 249.675 70.9724C249.568 71.029 249.45 71.0624 249.328 71.0706C249.207 71.0788 249.086 71.0615 248.972 71.0199C248.857 70.9782 248.753 70.9132 248.666 70.8289L246.684 69.093C246.507 68.9331 246.399 68.7107 246.383 68.4726C246.367 68.2346 246.444 67.9996 246.598 67.8172Z" fill="#263238"/>
<path d="M237.246 81.8951C237.427 82.0541 237.539 82.2777 237.556 82.5179C237.574 82.7581 237.497 82.9956 237.342 83.1796L235.603 85.1585C235.443 85.3382 235.218 85.4478 234.978 85.4641C234.737 85.4803 234.5 85.4018 234.317 85.2453C234.138 85.0866 234.028 84.8639 234.012 84.6252C233.996 84.3865 234.074 84.151 234.23 83.9695L235.968 81.9819C236.044 81.888 236.137 81.8107 236.244 81.755C236.351 81.6993 236.468 81.6663 236.588 81.6581C236.708 81.65 236.829 81.6668 236.942 81.7076C237.055 81.7484 237.159 81.8122 237.246 81.8951Z" fill="#263238"/>
<path d="M236.004 86.7295C235.929 86.8234 235.835 86.9007 235.728 86.9564C235.621 87.0121 235.504 87.0451 235.384 87.0533C235.264 87.0614 235.144 87.0446 235.03 87.0038C234.917 86.963 234.814 86.8992 234.726 86.8163L232.745 85.0804C232.65 85.006 232.572 84.9127 232.515 84.8065C232.459 84.7003 232.425 84.5835 232.416 84.4635C232.407 84.3435 232.423 84.223 232.463 84.1096C232.503 83.9961 232.567 83.8923 232.649 83.8046C232.81 83.6249 233.034 83.5153 233.275 83.499C233.515 83.4828 233.752 83.5613 233.935 83.7178L235.917 85.4536C236.011 85.5288 236.088 85.6225 236.144 85.7291C236.2 85.8356 236.233 85.9525 236.241 86.0725C236.249 86.1925 236.232 86.3128 236.192 86.4259C236.151 86.539 236.087 86.6424 236.004 86.7295Z" fill="#263238"/>
<path d="M245.989 81.3222C246.065 81.2283 246.158 81.1511 246.265 81.0954C246.372 81.0396 246.489 81.0066 246.609 80.9985C246.729 80.9903 246.85 81.0072 246.963 81.048C247.076 81.0887 247.18 81.1526 247.267 81.2354L249.257 82.9713C249.437 83.1315 249.547 83.3557 249.563 83.5959C249.579 83.836 249.501 84.0729 249.344 84.2559C249.269 84.3497 249.175 84.427 249.068 84.4827C248.962 84.5385 248.845 84.5715 248.724 84.5796C248.604 84.5878 248.484 84.5709 248.371 84.5301C248.257 84.4894 248.154 84.4255 248.067 84.3427L246.076 82.6068C245.981 82.5317 245.902 82.4374 245.846 82.3301C245.789 82.2228 245.755 82.1048 245.747 81.9838C245.739 81.8627 245.756 81.7413 245.798 81.6274C245.84 81.5134 245.905 81.4095 245.989 81.3222Z" fill="#263238"/>
<path d="M250.769 82.5634C250.863 82.6385 250.941 82.7323 250.997 82.8388C251.052 82.9453 251.085 83.0623 251.094 83.1822C251.102 83.3022 251.085 83.4225 251.044 83.5356C251.003 83.6487 250.939 83.7521 250.856 83.8393L249.118 85.8268C248.959 86.0059 248.736 86.1153 248.497 86.1316C248.258 86.1478 248.022 86.0695 247.841 85.9136C247.661 85.7534 247.551 85.5292 247.535 85.289C247.518 85.0489 247.597 84.812 247.754 84.6291L249.492 82.6502C249.567 82.5563 249.661 82.479 249.768 82.4233C249.874 82.3676 249.991 82.3346 250.112 82.3264C250.232 82.3182 250.352 82.3351 250.465 82.3759C250.579 82.4167 250.682 82.4805 250.769 82.5634Z" fill="#263238"/>
<path d="M236.647 73.2157C236.573 73.3102 236.479 73.3882 236.373 73.4447C236.267 73.5012 236.15 73.535 236.03 73.544C235.909 73.553 235.789 73.5369 235.675 73.4968C235.562 73.4567 235.458 73.3935 235.37 73.3112L233.379 71.5753C233.285 71.5002 233.208 71.4064 233.152 71.2999C233.096 71.1933 233.063 71.0764 233.055 70.9564C233.047 70.8365 233.064 70.7161 233.105 70.603C233.146 70.4899 233.21 70.3865 233.293 70.2994C233.367 70.2049 233.461 70.1269 233.567 70.0704C233.673 70.0139 233.79 69.9801 233.91 69.9711C234.03 69.9621 234.151 69.9782 234.265 70.0183C234.378 70.0584 234.482 70.1216 234.57 70.2039L236.56 71.9398C236.654 72.0149 236.732 72.1087 236.788 72.2152C236.843 72.3218 236.876 72.4387 236.885 72.5587C236.893 72.6786 236.876 72.799 236.835 72.9121C236.794 73.0252 236.73 73.1286 236.647 73.2157Z" fill="#263238"/>
<path d="M231.832 71.9919C231.652 71.8317 231.542 71.6075 231.526 71.3674C231.51 71.1272 231.588 70.8903 231.745 70.7074L233.483 68.7285C233.558 68.6346 233.652 68.5573 233.759 68.5016C233.866 68.4459 233.983 68.4129 234.103 68.4047C234.223 68.3966 234.343 68.4134 234.457 68.4542C234.57 68.495 234.673 68.5588 234.761 68.6417C234.855 68.7168 234.932 68.8106 234.988 68.9171C235.044 69.0236 235.077 69.1406 235.085 69.2605C235.093 69.3805 235.076 69.5008 235.035 69.6139C234.994 69.727 234.93 69.8304 234.848 69.9175L233.109 71.8964C233.035 71.9909 232.941 72.0689 232.835 72.1254C232.729 72.182 232.612 72.2158 232.492 72.2248C232.371 72.2337 232.251 72.2177 232.137 72.1776C232.024 72.1375 231.92 72.0743 231.832 71.9919Z" fill="#263238"/>
<path d="M246.858 76.8958C246.85 76.789 246.863 76.6817 246.897 76.5801C246.93 76.4784 246.984 76.3845 247.054 76.3037C247.125 76.2229 247.21 76.1569 247.307 76.1096C247.403 76.0622 247.507 76.0344 247.614 76.0279L249.97 75.8629C250.077 75.8547 250.184 75.8677 250.286 75.9013C250.388 75.935 250.482 75.9885 250.563 76.0587C250.643 76.129 250.71 76.2147 250.757 76.3107C250.804 76.4067 250.832 76.5112 250.839 76.618C250.853 76.8331 250.782 77.0451 250.64 77.2078C250.498 77.3704 250.298 77.4704 250.083 77.486L247.727 77.6509C247.512 77.6652 247.3 77.5938 247.137 77.4524C246.974 77.3109 246.874 77.1108 246.858 76.8958Z" fill="#263238"/>
<path d="M250.674 74.6305C250.781 74.6223 250.888 74.6353 250.99 74.6689C251.092 74.7025 251.186 74.756 251.267 74.8263C251.348 74.8966 251.414 74.9822 251.462 75.0782C251.509 75.1743 251.537 75.2788 251.544 75.3856L251.709 77.7377C251.717 77.8445 251.704 77.9518 251.67 78.0534C251.637 78.1551 251.583 78.249 251.513 78.3298C251.442 78.4106 251.356 78.4766 251.26 78.5239C251.164 78.5713 251.059 78.5991 250.952 78.6057C250.74 78.6075 250.534 78.5317 250.374 78.3926C250.214 78.2535 250.11 78.0607 250.083 77.8506L249.918 75.4985C249.903 75.2834 249.975 75.0714 250.116 74.9087C250.258 74.7461 250.459 74.6461 250.674 74.6305Z" fill="#263238"/>
<path d="M235.769 77.6596C235.783 77.8747 235.712 78.0867 235.57 78.2493C235.428 78.4119 235.228 78.512 235.013 78.5275L232.657 78.6925C232.55 78.6995 232.442 78.6853 232.341 78.6507C232.239 78.6161 232.145 78.5618 232.064 78.4908C231.983 78.4199 231.917 78.3337 231.87 78.2372C231.823 78.1407 231.795 78.0359 231.788 77.9287C231.774 77.7136 231.845 77.5016 231.987 77.339C232.129 77.1763 232.329 77.0763 232.544 77.0607L234.9 76.9045C235.007 76.8962 235.114 76.9093 235.216 76.9429C235.318 76.9765 235.412 77.03 235.493 77.1003C235.574 77.1706 235.64 77.2562 235.687 77.3522C235.734 77.4483 235.762 77.5527 235.769 77.6596Z" fill="#263238"/>
<path d="M231.928 79.9249C231.712 79.9392 231.5 79.8678 231.337 79.7264C231.174 79.5849 231.074 79.3848 231.058 79.1698L230.893 76.809C230.878 76.5939 230.95 76.3819 231.092 76.2193C231.233 76.0567 231.434 75.9566 231.649 75.9411C231.862 75.9393 232.067 76.0151 232.227 76.1542C232.388 76.2933 232.491 76.486 232.519 76.6962L232.684 79.057C232.686 79.2689 232.61 79.4741 232.47 79.634C232.331 79.7939 232.138 79.8974 231.928 79.9249Z" fill="#263238"/>
<path d="M241.687 82.763C241.9 82.7612 242.105 82.837 242.265 82.9761C242.426 83.1152 242.529 83.308 242.557 83.5181L242.713 85.8702C242.722 85.977 242.709 86.0843 242.675 86.186C242.641 86.2876 242.588 86.3816 242.517 86.4623C242.447 86.5431 242.361 86.6091 242.265 86.6565C242.169 86.7038 242.064 86.7316 241.957 86.7382C241.741 86.7525 241.529 86.6811 241.366 86.5396C241.203 86.3982 241.103 86.1981 241.087 85.9831L240.931 83.631C240.917 83.4159 240.988 83.2039 241.13 83.0413C241.272 82.8786 241.472 82.7786 241.687 82.763Z" fill="#263238"/>
<path d="M243.956 86.6427C243.957 86.8546 243.881 87.0598 243.742 87.2197C243.603 87.3796 243.41 87.4831 243.199 87.5106L240.835 87.6668C240.62 87.6811 240.408 87.6098 240.245 87.4683C240.082 87.3268 239.982 87.1267 239.966 86.9117C239.965 86.6998 240.04 86.4946 240.18 86.3347C240.319 86.1748 240.512 86.0713 240.722 86.0438L243.086 85.8789C243.3 85.8773 243.507 85.9543 243.667 86.0952C243.827 86.2361 243.93 86.431 243.956 86.6427Z" fill="#263238"/>
<path d="M240.914 71.7489C240.699 71.7632 240.486 71.6919 240.323 71.5504C240.16 71.4089 240.06 71.2088 240.045 70.9938L239.888 68.6417C239.88 68.535 239.893 68.4276 239.927 68.326C239.96 68.2243 240.014 68.1304 240.084 68.0496C240.155 67.9688 240.24 67.9029 240.337 67.8555C240.433 67.8081 240.537 67.7804 240.645 67.7738C240.857 67.772 241.062 67.8478 241.223 67.9869C241.383 68.126 241.486 68.3188 241.514 68.5289L241.679 70.881C241.686 70.9882 241.672 71.0957 241.637 71.1974C241.603 71.2991 241.548 71.393 241.477 71.4736C241.406 71.5542 241.32 71.6201 241.223 71.6673C241.126 71.7146 241.021 71.7423 240.914 71.7489Z" fill="#263238"/>
<path d="M238.645 67.9126C238.638 67.8055 238.652 67.6979 238.687 67.5962C238.722 67.4945 238.776 67.4007 238.847 67.32C238.918 67.2394 239.005 67.1736 239.101 67.1263C239.198 67.0791 239.303 67.0513 239.41 67.0447L241.765 66.8798C241.978 66.878 242.183 66.9538 242.343 67.0929C242.503 67.232 242.607 67.4248 242.635 67.6349C242.649 67.85 242.577 68.062 242.436 68.2246C242.294 68.3872 242.094 68.4873 241.878 68.5028L239.523 68.6677C239.309 68.6717 239.102 68.5969 238.94 68.4576C238.778 68.3183 238.673 68.1243 238.645 67.9126Z" fill="#263238"/>
<path d="M153.177 72.0881C170.944 70.8598 184.349 55.4809 183.12 37.7382C181.89 19.9955 166.49 6.60795 148.723 7.83619C130.957 9.06443 117.551 24.4434 118.781 42.186C120.011 59.9287 135.41 73.3163 153.177 72.0881Z" fill="#263238"/>
<path d="M166.498 22.0688C166.137 21.7803 165.839 21.4201 165.625 21.0109C165.411 20.6017 165.284 20.1526 165.253 19.6918C165.221 19.2311 165.286 18.7689 165.443 18.3345C165.6 17.9001 165.845 17.503 166.164 17.1684L172.84 9.53437C173.456 8.84448 174.319 8.42321 175.242 8.36089C176.166 8.29857 177.077 8.60017 177.781 9.20101C178.471 9.81635 178.893 10.6775 178.956 11.5999C179.018 12.5222 178.716 13.4322 178.114 14.1348L171.438 21.7354C171.149 22.1013 170.787 22.4026 170.374 22.62C169.961 22.8373 169.508 22.9658 169.042 22.9972C168.577 23.0286 168.11 22.9622 167.671 22.8023C167.233 22.6424 166.833 22.3925 166.498 22.0688Z" fill="#263238"/>
<path d="M171.271 3.60048C171.56 3.23987 171.921 2.94314 172.331 2.72907C172.74 2.51501 173.19 2.38827 173.652 2.35693C174.113 2.32559 174.576 2.39031 175.011 2.54699C175.446 2.70368 175.843 2.9489 176.178 3.26712L183.789 9.93437C184.153 10.2204 184.453 10.5787 184.67 10.9866C184.887 11.3946 185.018 11.8431 185.052 12.3039C185.087 12.7647 185.025 13.2277 184.871 13.6634C184.717 14.099 184.473 14.498 184.157 14.8348C183.868 15.2007 183.505 15.502 183.092 15.7193C182.68 15.9367 182.226 16.0652 181.76 16.0966C181.295 16.128 180.828 16.0616 180.39 15.9017C179.952 15.7418 179.552 15.4919 179.216 15.1682L171.605 8.50091C170.924 7.88675 170.509 7.03239 170.446 6.11809C170.384 5.2038 170.68 4.30109 171.271 3.60048Z" fill="#263238"/>
<path d="M135.353 57.6718C136.049 58.2826 136.477 59.1414 136.545 60.0638C136.614 60.9863 136.318 61.8988 135.72 62.6056L129.044 70.2062C128.428 70.8961 127.565 71.3174 126.642 71.3797C125.718 71.4421 124.807 71.1405 124.103 70.5396C123.415 69.9301 122.994 69.0745 122.931 68.1577C122.869 67.2408 123.17 66.3362 123.77 65.6392L130.446 58.0052C130.735 57.6446 131.095 57.3478 131.505 57.1337C131.915 56.9197 132.365 56.793 132.826 56.7617C133.287 56.7303 133.75 56.795 134.185 56.9517C134.62 57.1084 135.018 57.3536 135.353 57.6718Z" fill="#263238"/>
<path d="M130.579 76.2401C130.291 76.6007 129.93 76.8975 129.52 77.1115C129.11 77.3256 128.661 77.4523 128.199 77.4837C127.738 77.515 127.275 77.4503 126.84 77.2936C126.405 77.1369 126.007 76.8917 125.672 76.5735L118.061 69.9062C117.698 69.6202 117.398 69.2619 117.181 68.854C116.963 68.4461 116.833 67.9974 116.799 67.5366C116.764 67.0758 116.826 66.6129 116.98 66.1772C117.134 65.7416 117.377 65.3426 117.694 65.0058C118.31 64.3159 119.173 63.8946 120.096 63.8323C121.02 63.77 121.931 64.0716 122.635 64.6724L130.246 71.3397C130.607 71.6282 130.904 71.9884 131.118 72.3975C131.333 72.8067 131.459 73.2559 131.491 73.7166C131.522 74.1773 131.457 74.6396 131.301 75.074C131.144 75.5083 130.898 75.9055 130.579 76.2401Z" fill="#263238"/>
<path d="M168.935 55.4715C169.224 55.1109 169.584 54.8142 169.994 54.6001C170.404 54.386 170.854 54.2593 171.315 54.228C171.776 54.1966 172.239 54.2614 172.674 54.4181C173.109 54.5747 173.507 54.82 173.842 55.1382L181.486 61.8054C182.177 62.4208 182.599 63.2819 182.661 64.2043C182.724 65.1266 182.422 66.0366 181.82 66.7392C181.531 67.0998 181.17 67.3965 180.761 67.6106C180.351 67.8247 179.901 67.9514 179.44 67.9827C178.978 68.0141 178.516 67.9494 178.081 67.7927C177.646 67.636 177.248 67.3908 176.913 67.0726L169.269 60.4053C168.902 60.1168 168.6 59.7548 168.383 59.3426C168.165 58.9304 168.036 58.4773 168.005 58.0124C167.974 57.5475 168.04 57.0812 168.2 56.6435C168.36 56.2059 168.611 55.8066 168.935 55.4715Z" fill="#263238"/>
<path d="M187.294 60.2387C187.655 60.5272 187.952 60.8874 188.167 61.2966C188.381 61.7058 188.508 62.1549 188.54 62.6157C188.571 63.0764 188.506 63.5386 188.349 63.973C188.192 64.4074 187.947 64.8045 187.628 65.1391L180.952 72.7731C180.341 73.4608 179.485 73.8812 178.567 73.9436C177.649 74.006 176.743 73.7053 176.045 73.1065C175.354 72.4912 174.932 71.6299 174.87 70.7076C174.807 69.7853 175.109 68.8752 175.711 68.1727L182.387 60.572C182.676 60.2114 183.037 59.9147 183.447 59.7006C183.856 59.4866 184.306 59.3598 184.767 59.3285C185.229 59.2971 185.692 59.3619 186.127 59.5186C186.562 59.6753 186.959 59.9205 187.294 60.2387Z" fill="#263238"/>
<path d="M133.05 24.3355C132.763 24.6985 132.405 24.998 131.996 25.2151C131.588 25.4322 131.138 25.562 130.677 25.5965C130.216 25.631 129.752 25.5693 129.316 25.4153C128.879 25.2614 128.48 25.0186 128.143 24.7022L120.498 18.035C120.137 17.7465 119.84 17.3863 119.626 16.9771C119.411 16.5679 119.285 16.1187 119.253 15.658C119.222 15.1973 119.287 14.7351 119.443 14.3007C119.6 13.8663 119.846 13.4692 120.165 13.1345C120.451 12.7716 120.81 12.4721 121.218 12.255C121.627 12.038 122.076 11.908 122.537 11.8736C122.999 11.8391 123.462 11.9008 123.899 12.0547C124.335 12.2087 124.734 12.4515 125.072 12.7678L132.716 19.4351C133.077 19.7236 133.374 20.0838 133.589 20.493C133.803 20.9022 133.93 21.3513 133.961 21.8121C133.993 22.2728 133.928 22.735 133.771 23.1694C133.614 23.6038 133.368 24.0009 133.05 24.3355Z" fill="#263238"/>
<path d="M114.557 19.6351C113.866 19.0197 113.444 18.1586 113.381 17.2362C113.319 16.3139 113.621 15.4039 114.223 14.7013L120.899 7.10066C121.188 6.74005 121.549 6.4433 121.958 6.22923C122.368 6.01516 122.818 5.88845 123.279 5.85711C123.741 5.82577 124.203 5.8905 124.638 6.04718C125.073 6.20386 125.471 6.44908 125.806 6.7673C126.167 7.05577 126.464 7.41599 126.679 7.82516C126.893 8.23434 127.02 8.68352 127.051 9.14425C127.083 9.60497 127.018 10.0672 126.861 10.5016C126.704 10.936 126.458 11.3331 126.14 11.6677L119.464 19.2684C119.177 19.6313 118.818 19.9308 118.41 20.1479C118.001 20.365 117.552 20.4949 117.091 20.5294C116.629 20.5639 116.166 20.5022 115.73 20.3482C115.293 20.1943 114.894 19.9514 114.557 19.6351Z" fill="#263238"/>
<path d="M172.273 38.4702C172.241 38.0602 172.291 37.648 172.42 37.2576C172.55 36.8671 172.755 36.5063 173.026 36.1961C173.296 35.8858 173.625 35.6324 173.995 35.4505C174.364 35.2686 174.766 35.1619 175.177 35.1366L184.223 34.5032C184.634 34.4715 185.047 34.5216 185.437 34.6507C185.828 34.7798 186.19 34.9853 186.5 35.2552C186.811 35.5251 187.065 35.8541 187.247 36.2229C187.429 36.5917 187.536 36.993 187.561 37.4034C187.616 38.2295 187.342 39.0438 186.798 39.6685C186.254 40.2931 185.484 40.6772 184.657 40.7371L175.611 41.3705C174.784 41.4255 173.968 41.1513 173.343 40.6079C172.717 40.0645 172.333 39.296 172.273 38.4702Z" fill="#263238"/>
<path d="M186.927 29.7694C187.338 29.7377 187.75 29.7878 188.141 29.917C188.532 30.0461 188.894 30.2515 189.204 30.5215C189.515 30.7914 189.769 31.1203 189.951 31.4891C190.133 31.8579 190.24 32.2592 190.265 32.6697L190.9 41.7038C190.931 42.1138 190.881 42.526 190.752 42.9164C190.623 43.3069 190.417 43.6677 190.146 43.9779C189.876 44.2882 189.547 44.5417 189.177 44.7235C188.808 44.9054 188.406 45.0121 187.995 45.0374C187.18 45.0444 186.391 44.7532 185.776 44.2189C185.161 43.6847 184.763 42.9442 184.657 42.1372L184.023 33.1031C183.968 32.277 184.242 31.4627 184.787 30.8381C185.331 30.2134 186.1 29.8293 186.927 29.7694Z" fill="#263238"/>
<path d="M129.678 41.4037C129.733 42.2298 129.459 43.0441 128.915 43.6688C128.37 44.2934 127.601 44.6775 126.774 44.7374L117.728 45.3708C117.315 45.3979 116.902 45.3434 116.511 45.2105C116.12 45.0776 115.759 44.8689 115.448 44.5964C115.138 44.3238 114.885 43.9928 114.703 43.6223C114.522 43.2517 114.415 42.849 114.39 42.4372C114.334 41.6111 114.609 40.7968 115.153 40.1722C115.697 39.5476 116.467 39.1634 117.294 39.1035L126.34 38.5035C126.751 38.4718 127.163 38.5219 127.554 38.651C127.945 38.7801 128.307 38.9857 128.617 39.2556C128.928 39.5255 129.182 39.8544 129.364 40.2232C129.546 40.592 129.653 40.9933 129.678 41.4037Z" fill="#263238"/>
<path d="M114.924 50.1046C114.097 50.1596 113.281 49.8855 112.656 49.3421C112.03 48.7986 111.645 48.0301 111.586 47.2044L110.951 38.1369C110.896 37.3108 111.171 36.4965 111.715 35.8719C112.259 35.2473 113.029 34.8631 113.855 34.8033C114.671 34.7964 115.46 35.0875 116.075 35.6218C116.69 36.156 117.088 36.8965 117.194 37.7035L117.828 46.771C117.835 47.5849 117.543 48.3733 117.008 48.9874C116.473 49.6015 115.732 49.9988 114.924 50.1046Z" fill="#263238"/>
<path d="M152.411 61.0054C153.226 60.9985 154.015 61.2896 154.63 61.8239C155.245 62.3581 155.643 63.0986 155.749 63.9057L156.35 72.9398C156.382 73.3498 156.331 73.762 156.202 74.1524C156.073 74.5429 155.867 74.9037 155.597 75.2139C155.326 75.5242 154.997 75.7776 154.628 75.9595C154.258 76.1414 153.857 76.2481 153.446 76.2734C152.618 76.3285 151.803 76.0543 151.178 75.5109C150.552 74.9675 150.167 74.199 150.107 73.3732L149.507 64.3391C149.451 63.513 149.726 62.6987 150.27 62.074C150.814 61.4494 151.584 61.0653 152.411 61.0054Z" fill="#263238"/>
<path d="M161.123 75.9067C161.13 76.7206 160.839 77.509 160.304 78.123C159.769 78.7371 159.027 79.1346 158.219 79.2403L149.139 79.8404C148.312 79.8954 147.497 79.6212 146.871 79.0778C146.246 78.5344 145.861 77.7659 145.801 76.9401C145.794 76.1262 146.086 75.3379 146.621 74.7238C147.156 74.1097 147.897 73.7123 148.705 73.6065L157.785 72.9731C158.605 72.9672 159.399 73.263 160.015 73.8041C160.63 74.3451 161.025 75.0936 161.123 75.9067Z" fill="#263238"/>
<path d="M149.44 18.7017C148.613 18.7567 147.797 18.4826 147.172 17.9392C146.546 17.3957 146.162 16.6272 146.102 15.8015L145.501 6.76734C145.469 6.35734 145.519 5.94512 145.649 5.55469C145.778 5.16427 145.984 4.80344 146.254 4.4932C146.524 4.18296 146.854 3.92951 147.223 3.74761C147.592 3.56572 147.994 3.45902 148.405 3.43371C149.22 3.42681 150.01 3.71791 150.624 4.25217C151.239 4.78642 151.637 5.5269 151.743 6.33395L152.377 15.3681C152.405 15.7798 152.35 16.1928 152.217 16.5834C152.084 16.974 151.875 17.3345 151.602 17.6442C151.329 17.954 150.998 18.2068 150.627 18.3883C150.256 18.5698 149.852 18.6763 149.44 18.7017Z" fill="#263238"/>
<path d="M140.727 3.96714C140.7 3.55545 140.755 3.14245 140.888 2.75185C141.021 2.36125 141.23 2.00075 141.503 1.69102C141.776 1.38128 142.107 1.12843 142.478 0.94696C142.849 0.765487 143.253 0.65896 143.665 0.633517L152.711 0.000120017C153.526 -0.00678341 154.316 0.284342 154.931 0.818597C155.546 1.35285 155.944 2.09333 156.049 2.90038C156.105 3.72647 155.83 4.54077 155.286 5.16539C154.742 5.79001 153.972 6.17418 153.145 6.23401L144.099 6.86741C143.278 6.88254 142.481 6.59514 141.859 6.06012C141.237 5.5251 140.834 4.77998 140.727 3.96714Z" fill="#263238"/>
<path d="M126.989 224.055C143.831 222.891 156.538 208.313 155.373 191.494C154.207 174.675 139.609 161.984 122.767 163.148C105.925 164.313 93.2176 178.891 94.3835 195.71C95.5493 212.529 110.147 225.219 126.989 224.055Z" fill="#263238"/>
<path d="M139.616 176.64C139.274 176.366 138.992 176.025 138.789 175.637C138.586 175.249 138.466 174.823 138.436 174.387C138.406 173.95 138.467 173.512 138.616 173.1C138.765 172.688 138.998 172.312 139.3 171.994L145.628 164.758C146.212 164.104 147.03 163.705 147.905 163.646C148.781 163.586 149.645 163.872 150.312 164.442C150.966 165.025 151.366 165.842 151.426 166.716C151.485 167.59 151.198 168.453 150.628 169.119L144.299 176.324C144.025 176.671 143.682 176.956 143.291 177.162C142.899 177.368 142.469 177.49 142.028 177.52C141.587 177.55 141.144 177.487 140.729 177.335C140.313 177.183 139.934 176.947 139.616 176.64Z" fill="#263238"/>
<path d="M144.141 159.133C144.415 158.791 144.757 158.51 145.145 158.307C145.534 158.104 145.96 157.984 146.398 157.954C146.835 157.925 147.274 157.986 147.686 158.134C148.098 158.283 148.475 158.515 148.793 158.817L156.008 165.137C156.352 165.408 156.636 165.748 156.842 166.135C157.048 166.521 157.172 166.947 157.205 167.383C157.237 167.82 157.179 168.259 157.033 168.672C156.886 169.085 156.656 169.463 156.356 169.782C156.082 170.129 155.738 170.415 155.347 170.621C154.956 170.827 154.526 170.949 154.084 170.979C153.643 171.008 153.2 170.945 152.785 170.794C152.37 170.642 151.991 170.405 151.672 170.098L144.458 163.778C143.812 163.196 143.418 162.386 143.359 161.52C143.3 160.653 143.581 159.797 144.141 159.133Z" fill="#263238"/>
<path d="M110.093 210.389C110.752 210.968 111.158 211.782 111.223 212.657C111.288 213.531 111.007 214.396 110.441 215.066L104.112 222.271C103.528 222.925 102.711 223.324 101.835 223.384C100.96 223.443 100.096 223.157 99.429 222.587C98.7762 222.009 98.3771 221.198 98.3179 220.329C98.2587 219.46 98.5441 218.603 99.1126 217.942L105.441 210.705C105.715 210.364 106.057 210.082 106.445 209.879C106.834 209.676 107.26 209.556 107.698 209.527C108.135 209.497 108.574 209.558 108.986 209.707C109.398 209.855 109.775 210.088 110.093 210.389Z" fill="#263238"/>
<path d="M105.568 227.991C105.294 228.333 104.952 228.614 104.564 228.817C104.175 229.02 103.749 229.14 103.312 229.17C102.874 229.199 102.436 229.138 102.023 228.989C101.611 228.841 101.234 228.608 100.916 228.307L93.7016 221.987C93.3571 221.716 93.0728 221.376 92.8667 220.989C92.6607 220.603 92.5373 220.177 92.5046 219.74C92.4719 219.304 92.5305 218.865 92.6766 218.452C92.8227 218.039 93.0532 217.661 93.3535 217.341C93.9376 216.687 94.7551 216.288 95.6306 216.229C96.5061 216.17 97.3699 216.456 98.0367 217.025L105.251 223.346C105.594 223.619 105.875 223.96 106.079 224.348C106.282 224.736 106.402 225.162 106.432 225.599C106.462 226.035 106.4 226.474 106.251 226.885C106.103 227.297 105.87 227.674 105.568 227.991Z" fill="#263238"/>
<path d="M141.926 208.304C142.2 207.962 142.542 207.681 142.93 207.478C143.319 207.275 143.745 207.155 144.182 207.125C144.62 207.095 145.059 207.157 145.471 207.305C145.883 207.454 146.26 207.686 146.578 207.988L153.824 214.308C154.479 214.891 154.879 215.707 154.938 216.582C154.997 217.456 154.711 218.319 154.141 218.985C153.867 219.327 153.525 219.608 153.136 219.811C152.748 220.014 152.322 220.134 151.884 220.163C151.447 220.193 151.008 220.132 150.596 219.983C150.184 219.835 149.807 219.602 149.489 219.301L142.243 212.981C141.895 212.707 141.609 212.364 141.403 211.973C141.197 211.582 141.075 211.153 141.045 210.712C141.015 210.272 141.078 209.83 141.23 209.415C141.382 209 141.619 208.621 141.926 208.304Z" fill="#263238"/>
<path d="M159.33 212.823C159.672 213.096 159.954 213.438 160.157 213.825C160.36 214.213 160.481 214.639 160.51 215.076C160.54 215.513 160.479 215.951 160.33 216.362C160.181 216.774 159.948 217.151 159.646 217.468L153.318 224.704C152.739 225.356 151.927 225.755 151.057 225.814C150.186 225.873 149.328 225.588 148.666 225.02C148.011 224.437 147.611 223.621 147.552 222.746C147.493 221.872 147.779 221.009 148.35 220.343L154.678 213.139C154.952 212.797 155.294 212.515 155.683 212.313C156.071 212.11 156.497 211.989 156.935 211.96C157.372 211.93 157.811 211.991 158.223 212.14C158.635 212.288 159.012 212.521 159.33 212.823Z" fill="#263238"/>
<path d="M107.91 178.789C107.638 179.133 107.298 179.417 106.911 179.622C106.523 179.828 106.098 179.951 105.66 179.984C105.223 180.017 104.783 179.958 104.37 179.812C103.956 179.666 103.578 179.436 103.258 179.136L96.0116 172.816C95.6693 172.543 95.3876 172.201 95.1844 171.813C94.9812 171.425 94.861 171 94.8312 170.563C94.8015 170.126 94.8629 169.688 95.0116 169.276C95.1603 168.864 95.3931 168.488 95.6952 168.171C95.9666 167.827 96.3068 167.543 96.694 167.337C97.0812 167.131 97.507 167.008 97.9444 166.975C98.3818 166.943 98.8212 167.001 99.2348 167.147C99.6484 167.293 100.027 167.523 100.347 167.823L107.593 174.143C107.935 174.417 108.217 174.758 108.42 175.146C108.623 175.534 108.744 175.96 108.773 176.397C108.803 176.833 108.742 177.271 108.593 177.683C108.444 178.095 108.212 178.471 107.91 178.789Z" fill="#263238"/>
<path d="M90.3792 174.333C89.7243 173.75 89.3244 172.933 89.2653 172.059C89.2061 171.185 89.4924 170.322 90.0627 169.656L96.3914 162.451C96.6652 162.109 97.0072 161.828 97.3956 161.625C97.784 161.422 98.2103 161.302 98.6477 161.272C99.085 161.243 99.5237 161.304 99.9361 161.453C100.348 161.601 100.725 161.834 101.043 162.135C101.385 162.409 101.667 162.75 101.87 163.138C102.073 163.526 102.194 163.952 102.223 164.388C102.253 164.825 102.192 165.263 102.043 165.675C101.894 166.087 101.661 166.463 101.359 166.78L95.0307 173.985C94.7592 174.329 94.4191 174.613 94.0319 174.819C93.6447 175.025 93.2189 175.148 92.7815 175.181C92.3441 175.213 91.9047 175.155 91.4911 175.009C91.0775 174.863 90.6989 174.633 90.3792 174.333Z" fill="#263238"/>
<path d="M145.091 192.187C145.06 191.799 145.108 191.408 145.231 191.038C145.353 190.668 145.548 190.326 145.804 190.032C146.061 189.737 146.373 189.497 146.723 189.325C147.073 189.152 147.454 189.051 147.843 189.027L156.419 188.427C156.808 188.397 157.199 188.444 157.57 188.567C157.94 188.689 158.283 188.884 158.577 189.14C158.872 189.396 159.113 189.707 159.285 190.057C159.458 190.407 159.559 190.787 159.583 191.176C159.635 191.959 159.375 192.731 158.859 193.323C158.344 193.915 157.614 194.279 156.83 194.336L148.255 194.937C147.471 194.989 146.698 194.729 146.105 194.214C145.512 193.699 145.147 192.97 145.091 192.187Z" fill="#263238"/>
<path d="M158.982 183.94C159.371 183.91 159.762 183.957 160.133 184.079C160.504 184.202 160.846 184.397 161.141 184.652C161.435 184.908 161.676 185.22 161.848 185.57C162.021 185.919 162.122 186.3 162.146 186.689L162.748 195.253C162.778 195.641 162.73 196.032 162.607 196.402C162.485 196.772 162.29 197.114 162.034 197.408C161.777 197.702 161.465 197.943 161.115 198.115C160.765 198.288 160.384 198.389 159.995 198.413C159.222 198.419 158.474 198.143 157.891 197.637C157.308 197.13 156.931 196.428 156.83 195.663L156.229 187.1C156.177 186.317 156.437 185.545 156.953 184.953C157.469 184.36 158.198 183.996 158.982 183.94Z" fill="#263238"/>
<path d="M104.714 194.968C104.766 195.751 104.506 196.523 103.99 197.115C103.474 197.707 102.744 198.072 101.961 198.128L93.3852 198.729C92.9944 198.754 92.6024 198.703 92.2316 198.577C91.8608 198.451 91.5187 198.253 91.2246 197.995C90.9306 197.736 90.6907 197.422 90.5184 197.071C90.3461 196.72 90.245 196.338 90.2209 195.948C90.1687 195.165 90.4289 194.393 90.9447 193.801C91.4605 193.209 92.19 192.844 92.9738 192.788L101.549 192.219C101.938 192.189 102.33 192.236 102.7 192.359C103.071 192.481 103.413 192.676 103.708 192.932C104.002 193.188 104.243 193.5 104.416 193.849C104.588 194.199 104.69 194.579 104.714 194.968Z" fill="#263238"/>
<path d="M90.7272 203.216C89.9431 203.268 89.1701 203.008 88.5772 202.493C87.9843 201.978 87.6197 201.249 87.5629 200.467L86.9617 191.871C86.9094 191.088 87.1697 190.316 87.6855 189.724C88.2013 189.132 88.9308 188.768 89.7146 188.711C90.4872 188.705 91.2355 188.981 91.8184 189.487C92.4013 189.994 92.7785 190.695 92.879 191.46L93.4802 200.056C93.4867 200.827 93.2104 201.575 92.7033 202.157C92.1961 202.739 91.4933 203.116 90.7272 203.216Z" fill="#263238"/>
<path d="M126.263 213.549C127.035 213.543 127.784 213.819 128.366 214.325C128.949 214.832 129.327 215.534 129.427 216.299L129.997 224.862C130.027 225.251 129.979 225.642 129.857 226.012C129.734 226.382 129.539 226.724 129.283 227.018C129.026 227.312 128.714 227.553 128.364 227.725C128.014 227.897 127.633 227.998 127.244 228.022C126.459 228.075 125.686 227.815 125.094 227.3C124.501 226.785 124.136 226.056 124.079 225.273L123.51 216.709C123.457 215.926 123.718 215.154 124.234 214.562C124.749 213.97 125.479 213.606 126.263 213.549Z" fill="#263238"/>
<path d="M134.522 227.675C134.528 228.446 134.252 229.194 133.745 229.776C133.238 230.358 132.535 230.735 131.769 230.835L123.162 231.404C122.378 231.456 121.605 231.196 121.012 230.681C120.419 230.166 120.054 229.437 119.997 228.654C119.991 227.883 120.267 227.136 120.774 226.553C121.281 225.971 121.984 225.595 122.75 225.494L131.357 224.894C132.135 224.888 132.887 225.169 133.471 225.682C134.054 226.195 134.428 226.904 134.522 227.675Z" fill="#263238"/>
<path d="M123.446 173.448C122.662 173.5 121.889 173.24 121.296 172.725C120.704 172.21 120.339 171.482 120.282 170.699L119.713 162.135C119.682 161.746 119.73 161.356 119.853 160.986C119.975 160.615 120.17 160.273 120.426 159.979C120.683 159.685 120.995 159.445 121.345 159.273C121.695 159.1 122.076 158.999 122.466 158.975C123.238 158.968 123.986 159.244 124.569 159.751C125.152 160.257 125.529 160.959 125.63 161.724L126.231 170.288C126.257 170.678 126.205 171.07 126.079 171.44C125.953 171.81 125.755 172.152 125.496 172.446C125.237 172.739 124.923 172.979 124.571 173.151C124.22 173.323 123.837 173.424 123.446 173.448Z" fill="#263238"/>
<path d="M115.188 159.481C115.162 159.09 115.214 158.699 115.34 158.329C115.466 157.958 115.664 157.617 115.923 157.323C116.181 157.029 116.496 156.79 116.847 156.618C117.199 156.446 117.581 156.345 117.972 156.321L126.548 155.72C127.32 155.714 128.068 155.99 128.651 156.496C129.234 157.002 129.611 157.704 129.712 158.469C129.764 159.252 129.504 160.024 128.988 160.616C128.472 161.209 127.743 161.573 126.959 161.629L118.384 162.23C117.606 162.244 116.85 161.972 116.26 161.465C115.67 160.957 115.289 160.251 115.188 159.481Z" fill="#263238"/>
</g>
</svg>
