<svg xmlns="http://www.w3.org/2000/svg" xmlns:xlink="http://www.w3.org/1999/xlink" viewBox="0 0 693.36 252.99">
  <defs>
    <style>.cls-1{fill:url(#linear-gradient);}.cls-2{fill:url(#linear-gradient-2);}</style>
    <linearGradient id="linear-gradient" x1="-3.15" y1="189.74" x2="687.53" y2="189.74" gradientUnits="userSpaceOnUse">
      <stop offset="0" stop-color="#00a6e1"/>
      <stop offset="1" stop-color="#4fc1bc"/>
    </linearGradient>
    <linearGradient id="linear-gradient-2" x1="-3.15" y1="63.25" x2="687.53" y2="63.25" xlink:href="#linear-gradient"/>
  </defs>
  <g>
    <path class="cls-1" d="M236.59,220.19a93.8,93.8,0,0,1-93.69-93.69,125.71,125.71,0,0,1-16.4,62.23,126.44,126.44,0,0,0,220.19,0,125.71,125.71,0,0,1-16.4-62.23A93.8,93.8,0,0,1,236.59,220.19Z"/>
    <path class="cls-2" d="M456.78,32.8a93.8,93.8,0,0,1,93.69,93.69,125.72,125.72,0,0,1,16.4-62.23,126.44,126.44,0,0,0-220.19,0,125.71,125.71,0,0,1,16.4,62.23A93.8,93.8,0,0,1,456.78,32.8Z"/>
    <path class="cls-2" d="M16.4,0a16.4,16.4,0,0,0,0,32.8,93.8,93.8,0,0,1,93.69,93.69,125.72,125.72,0,0,1,16.4-62.23A126.58,126.58,0,0,0,16.4,0Z"/>
    <path class="cls-2" d="M677,0A126.58,126.58,0,0,0,566.87,64.26a125.71,125.71,0,0,1,16.4,62.23A93.8,93.8,0,0,1,677,32.8,16.4,16.4,0,0,0,677,0Z"/>
    <path class="cls-1" d="M16.4,220.19a16.4,16.4,0,1,0,0,32.8,126.58,126.58,0,0,0,110.09-64.26,125.72,125.72,0,0,1-16.4-62.23A93.8,93.8,0,0,1,16.4,220.19Z"/>
    <path class="cls-1" d="M566.87,142.89a16.4,16.4,0,0,1-16.4-16.4,93.69,93.69,0,0,1-187.39,0,125.71,125.71,0,0,1-16.4,62.23,126.47,126.47,0,0,0,236.59-62.23A16.4,16.4,0,0,1,566.87,142.89Z"/>
    <path class="cls-2" d="M236.59,32.8a93.8,93.8,0,0,1,93.69,93.69,125.71,125.71,0,0,1,16.4-62.23,126.44,126.44,0,0,0-220.19,0,125.71,125.71,0,0,1,16.4,62.23A93.8,93.8,0,0,1,236.59,32.8Z"/>
  </g>
</svg>