<svg width="88" height="57" viewBox="0 0 88 57" fill="none" xmlns="http://www.w3.org/2000/svg">
<path d="M33.1126 23.4949C33.5678 23.0481 34.0222 22.7015 34.4259 22.4046C34.8292 22.1578 35.2325 21.911 35.5847 21.7639C35.9876 21.5672 36.3908 21.3204 36.6433 21.1223C36.9965 20.875 37.3005 20.5271 37.5558 20.0283C37.9118 19.4803 38.5656 19.2358 39.3675 19.2434C40.1192 19.2505 40.9192 19.4585 41.8671 19.9185C42.8652 20.3789 43.7115 20.9883 44.5559 21.7982C45.4004 22.6081 46.0434 23.5163 46.5838 24.6742C47.1748 25.7824 47.4637 27.0381 47.3995 28.5411C47.3362 29.9439 46.9211 31.4436 46.1543 33.0402C45.3368 34.6865 44.0178 36.3782 42.1966 38.1653C41.287 38.9587 40.3282 39.6514 39.2209 40.1422C38.1643 40.5833 37.0097 40.7729 36.0074 40.7635C34.955 40.7536 33.9545 40.5437 33.0567 40.0841C32.1588 39.6246 31.4638 38.9164 30.8208 38.0082C30.2279 37.1004 29.8374 35.9941 29.5475 34.8386C29.3083 33.6335 29.2695 32.4302 29.4321 31.1286C29.5947 29.827 29.9582 28.4772 30.5213 27.2295C31.1354 25.882 32.0493 24.6376 33.1126 23.4949ZM34.2055 35.1832C34.7468 36.2408 35.4437 36.7486 36.3458 36.757C37.0474 36.7636 37.7022 36.419 38.4109 35.6738C39.2705 34.88 39.9305 33.984 40.5909 33.038C41.2509 32.142 41.6608 31.1936 41.9203 30.2437C42.23 29.2944 42.239 28.3422 41.9969 27.4377C41.7552 26.4832 41.2626 25.5764 40.4683 24.767C39.7231 24.0583 39.0749 23.7013 38.4234 23.6952C37.822 23.6895 37.2684 23.9349 36.7119 24.481C36.2061 24.9775 35.6988 25.6243 35.1896 26.4715C34.7315 27.219 34.3736 27.9674 34.1651 28.8175C33.9571 29.6175 33.8484 30.5186 33.7907 31.32C33.7331 32.1214 33.7761 32.8736 33.8192 33.6258C33.8631 34.2778 34.0589 34.7808 34.2055 35.1832Z" fill="url(#paint0_linear_1027_869)"/>
<path d="M53.2578 23.6845C53.7131 23.2377 54.1674 22.8912 54.5712 22.5943C54.9745 22.3475 55.3778 22.1006 55.73 21.9536C56.1328 21.7569 56.5361 21.5101 56.8387 21.3125C57.1417 21.0647 57.4457 20.7167 57.7511 20.2184C58.1071 19.6704 58.7109 19.4255 59.5628 19.4335C60.3146 19.4406 61.1145 19.6486 62.0124 20.1081C62.9603 20.5681 63.8568 21.178 64.6511 21.9874C65.4454 22.7968 66.1385 23.7055 66.6789 24.8634C67.27 25.9716 67.5087 27.2268 67.4445 28.7298C67.3812 30.1326 66.9661 31.6323 66.1491 33.2285C65.3317 34.8747 64.0628 36.5669 62.1915 38.3536C61.332 39.1475 60.3231 39.8396 59.2158 40.3304C58.109 40.7711 57.0547 40.9617 56.0023 40.9518C54.9499 40.9418 53.9494 40.732 53.0516 40.2724C52.2039 39.8134 51.4587 39.1047 50.8157 38.1964C50.2228 37.2887 49.7821 36.1819 49.5424 35.0269C49.3031 33.8217 49.3145 32.619 49.427 31.3169C49.5896 30.0153 49.9531 28.6655 50.5663 27.4182C51.2806 26.0717 52.1945 24.8273 53.2578 23.6845ZM54.3507 35.3729C54.8921 36.4305 55.589 36.9382 56.4409 36.9463C57.1426 36.9529 57.7974 36.6082 58.5061 35.863C59.3155 35.0687 60.0757 34.1737 60.6359 33.2267C61.2959 32.3308 61.7058 31.3823 61.9654 30.4325C62.2249 29.4826 62.284 28.5309 62.0419 27.6265C61.8003 26.6719 61.3076 25.7651 60.5133 24.9557C59.7681 24.247 59.1199 23.8901 58.4684 23.8839C57.867 23.8783 57.3134 24.1237 56.757 24.6698C56.2511 25.1662 55.7438 25.813 55.2346 26.6602C54.7765 27.4077 54.4186 28.1562 54.16 29.0058C53.952 29.8058 53.8433 30.7069 53.7856 31.5083C53.728 32.3097 53.771 33.0619 53.814 33.8141C54.0084 34.4675 54.154 34.97 54.3507 35.3729Z" fill="url(#paint1_linear_1027_869)"/>
<path d="M86.9972 36.9012C86.9496 36.5424 86.8506 36.2344 86.7012 35.8746C86.4519 35.3092 85.7951 34.7399 84.8318 34.2701C83.8689 33.7492 82.8038 33.2784 81.6867 32.9096C80.5701 32.4895 79.5039 32.1212 78.4882 31.8045C77.524 31.4371 76.9152 31.1754 76.6625 30.9682C76.8158 30.9185 77.2246 30.7688 77.8387 30.4674C78.4532 30.1149 79.1696 29.7633 79.9379 29.3098C80.7061 28.8563 81.4235 28.4023 82.1922 27.8977C82.961 27.393 83.5251 26.9888 83.9354 26.6855C84.8598 25.8752 85.3259 25.0605 85.3331 24.2927C85.3404 23.5249 84.9901 22.8561 84.3343 22.1845C83.6785 21.5128 82.818 20.9417 81.7523 20.5221C80.6871 20.0514 79.5186 19.7332 78.2978 19.5682C77.5348 19.4586 76.7713 19.4002 76.0583 19.3935C75.0907 19.3844 74.3757 19.5824 73.9145 19.8853C73.5042 20.1885 73.2447 20.698 73.0856 21.362C72.9266 22.026 72.8166 22.8952 72.7555 23.9696C72.6945 25.044 72.5296 26.3222 72.2101 27.8037C72.1563 28.1104 72.1025 28.417 71.9473 28.6715C71.8939 28.9269 71.6883 29.1298 71.3808 29.3316C70.4583 29.9372 70.2468 30.7543 70.6965 31.68C71.0972 32.4004 71.1909 33.2715 71.0294 34.1914C70.8675 35.1625 70.706 36.0824 70.4437 36.899C70.3884 37.3592 70.2298 37.972 70.1741 38.4834C70.1693 38.9952 70.164 39.5583 70.1592 40.0701C70.1558 40.4284 70.2038 40.736 70.3028 41.0441C70.4018 41.3522 70.6545 41.5593 71.0605 41.7167C71.5683 41.8751 71.9763 41.8277 72.2833 41.677C72.6417 41.4756 72.8997 41.1197 73.1083 40.6098C73.3168 40.0999 73.5273 39.3852 73.6368 38.5672C73.7973 37.7496 73.9593 36.7785 74.1736 35.6543C74.2274 35.3477 74.2807 35.0923 74.2817 34.9899C74.3341 34.8368 74.4873 34.7871 74.742 34.7895C75.098 34.844 75.7577 35.1062 76.7215 35.5248C77.6853 35.9433 79.2578 36.6236 81.4401 37.4632C82.4553 37.8311 83.5724 38.1999 84.6895 38.5688C85.5533 38.7817 86.2678 38.6348 86.7314 38.0761C86.9909 37.5666 87.0961 37.2093 86.9972 36.9012ZM75.3303 26.3998C75.3932 25.1206 75.4533 24.1485 75.4596 23.4831C75.5168 22.8182 75.5725 22.3068 75.6259 22.0514C75.7306 21.7452 75.8844 21.6443 76.0881 21.6462C76.1899 21.6471 76.2918 21.6481 76.4446 21.6495C76.4955 21.65 78.2242 21.9734 79.3379 22.7006C80.0461 23.2191 80.5491 23.8893 79.9803 24.8054C79.9803 24.8054 79.4671 25.2101 78.6983 25.7148C78.4937 25.8152 78.3394 25.9674 78.1348 26.0678C77.6226 26.3701 77.1104 26.6725 76.5987 26.9236C76.5478 26.9231 76.5473 26.9743 76.4963 26.9738C76.0361 27.1743 75.7295 27.2738 75.5263 27.2207C75.373 27.2704 75.274 26.9623 75.3303 26.3998Z" fill="url(#paint2_linear_1027_869)"/>
<path fill-rule="evenodd" clip-rule="evenodd" d="M28.9673 6.8334C28.0149 7.85317 25.2552 10.8081 23.1809 13.2762C23.1809 13.2762 20.1225 17.3175 17.3239 21.017C16.9667 19.7875 16.6209 18.5513 16.2836 17.3014C16.2101 17.0293 16.1368 16.7569 16.0636 16.4847C14.1092 9.223 12.1863 2.07815 8.6046 3.1064C5.61461 3.96477 6.67727 10.0345 7.43236 14.3475C7.56501 15.1052 7.68816 15.8086 7.77818 16.4201C8.24334 19.5793 9.22788 24.3864 10.9285 29.9935C10.0207 31.4187 9.14125 32.8654 8.16381 34.4733C8.00705 34.7312 7.84777 34.9932 7.68544 35.26C6.81814 36.6852 6.01677 37.9512 5.29607 39.0897C3.81201 41.4341 2.67002 43.2382 1.99884 44.7798C1.90249 45.0011 1.77892 45.2628 1.64085 45.5552C0.537883 47.8907 -1.49088 52.1867 2.02869 53.5302C4.8906 54.6245 6.2506 52.0192 7.6237 49.3888C7.8432 48.9683 8.06304 48.5471 8.2894 48.1403C9.47248 46.0127 10.5171 43.9675 11.5482 41.9488C12.2042 40.6645 12.8548 39.3908 13.532 38.1135C13.5694 38.043 13.608 37.9703 13.6478 37.8955C14.0599 38.9616 14.4962 40.0403 14.9576 41.1273C18.1056 48.5432 21.6415 53.9852 23.8377 55.4081C26.034 56.8311 28.4369 56.2783 29.3506 54.9848C30.0434 54.0039 28.5139 50.4676 26.282 45.3076C25.5708 43.6633 24.7882 41.8541 23.9836 39.9101C22.1947 35.5884 20.6921 31.5586 19.3694 27.5865C20.1183 26.2966 20.7619 25.2279 21.1792 24.6076C22.6765 22.3821 25.2729 18.7406 26.6599 16.9628C27.6127 15.7414 28.7935 14.3178 29.6916 13.235C30.1007 12.7418 30.4512 12.3193 30.6948 12.0187C31.1603 11.4427 32.2882 10.1607 33.543 8.73467C35.3803 6.64645 37.4894 4.24926 38.1887 3.30715C39.3655 1.72165 38.4523 -0.650755 35.9126 0.795712C34.3497 1.68646 30.9177 4.72712 29.0315 6.76468L28.9673 6.8334Z" fill="url(#paint3_linear_1027_869)"/>
<defs>
<linearGradient id="paint0_linear_1027_869" x1="33.7939" y1="34.2876" x2="43.1238" y2="17.7842" gradientUnits="userSpaceOnUse">
<stop stop-color="#30D4C6"/>
<stop offset="0.643486" stop-color="#00A8E0"/>
</linearGradient>
<linearGradient id="paint1_linear_1027_869" x1="53.818" y1="34.4762" x2="63.1401" y2="17.9602" gradientUnits="userSpaceOnUse">
<stop stop-color="#30D4C6"/>
<stop offset="0.643486" stop-color="#00A8E0"/>
</linearGradient>
<linearGradient id="paint2_linear_1027_869" x1="74.3877" y1="35.1128" x2="84.6309" y2="18.8536" gradientUnits="userSpaceOnUse">
<stop stop-color="#30D4C6"/>
<stop offset="0.643486" stop-color="#00A8E0"/>
</linearGradient>
<linearGradient id="paint3_linear_1027_869" x1="9.63575" y1="39.3147" x2="36.1524" y2="1.01724" gradientUnits="userSpaceOnUse">
<stop stop-color="#30D4C6"/>
<stop offset="0.643486" stop-color="#00A8E0"/>
</linearGradient>
</defs>
</svg>
