<svg viewBox="0 0 49 17" fill="none" xmlns="http://www.w3.org/2000/svg">
<path d="M46.8064 13.602C46.804 13.4826 46.8256 13.3639 46.87 13.2534C46.9144 13.1428 46.9806 13.0426 47.0646 12.959C47.1722 12.843 47.3029 12.7516 47.448 12.6908C47.5931 12.6301 47.7493 12.6013 47.9062 12.6065C48.1813 12.5969 48.4526 12.6734 48.6835 12.8256C48.7534 12.8645 48.8128 12.9202 48.8566 12.9879C48.9003 13.0555 48.9271 13.133 48.9345 13.2136C48.9339 13.3142 48.8962 13.4109 48.8289 13.4847C48.7976 13.5236 48.758 13.5548 48.7133 13.5761C48.6685 13.5974 48.6196 13.6082 48.5701 13.6078C48.45 13.5815 48.3333 13.5407 48.2227 13.4864C48.1097 13.4338 47.9881 13.4032 47.864 13.3961C47.7298 13.4048 47.6603 13.4532 47.6555 13.5413C47.6563 13.5701 47.6638 13.5984 47.6776 13.6237C47.6914 13.649 47.7109 13.6705 47.7346 13.6865C47.7947 13.7319 47.8608 13.7686 47.9309 13.7955L48.1147 13.8686C48.3613 13.948 48.5891 14.0781 48.7841 14.2508C48.921 14.3942 48.9984 14.5856 49.0001 14.7854C49.0002 14.9279 48.971 15.0689 48.9145 15.1993C48.8592 15.3295 48.7757 15.4454 48.6703 15.5384C48.4429 15.725 48.1557 15.8199 47.8637 15.805C47.7008 15.8019 47.5389 15.7787 47.3814 15.736C47.2137 15.6962 47.0554 15.6232 46.9155 15.5211C46.8545 15.4807 46.8045 15.4255 46.7698 15.3606C46.7351 15.2956 46.7169 15.2229 46.7168 15.149C46.7193 15.05 46.7583 14.9555 46.8262 14.8844C46.8561 14.8462 46.894 14.8151 46.9372 14.7934C46.9803 14.7718 47.0277 14.7601 47.0758 14.7592C47.1154 14.7595 47.1548 14.7645 47.1933 14.774C47.231 14.7827 47.268 14.7942 47.304 14.8085C47.338 14.822 47.3743 14.8389 47.4181 14.8599C47.4619 14.881 47.5003 14.8999 47.5356 14.9175C47.6437 14.9728 47.7616 15.0056 47.8824 15.0138C47.9454 15.0135 48.0071 14.9952 48.0603 14.961C48.0858 14.9475 48.1072 14.9272 48.1221 14.9023C48.137 14.8774 48.1449 14.8487 48.1449 14.8196C48.1471 14.7879 48.1405 14.7563 48.1258 14.7284C48.111 14.7004 48.0888 14.6773 48.0617 14.6616C47.9785 14.6171 47.8923 14.5788 47.8036 14.5471L47.5659 14.4567C47.3591 14.383 47.1681 14.2697 47.0034 14.1228C46.9362 14.0548 46.8838 13.9731 46.8497 13.8831C46.8157 13.7931 46.8007 13.6969 46.8058 13.6006" fill="#4E92CE"/>
<path d="M42.8192 14.2127C42.832 13.9952 42.8 13.7773 42.7252 13.573C42.6504 13.3687 42.5344 13.1825 42.3847 13.0263C42.235 12.8702 42.0549 12.7474 41.8558 12.666C41.6568 12.5845 41.4432 12.5461 41.2287 12.5533C41.0113 12.5458 40.7947 12.5832 40.5919 12.6631C40.3891 12.743 40.2044 12.8639 40.0488 13.0183C39.8933 13.1727 39.7702 13.3576 39.687 13.5617C39.6037 13.7658 39.5621 13.9849 39.5646 14.2058C39.568 14.4326 39.6166 14.6564 39.7075 14.8636C39.7983 15.0708 39.9295 15.2572 40.0931 15.4116C40.2567 15.566 40.4494 15.6852 40.6596 15.7619C40.8697 15.8387 41.093 15.8715 41.316 15.8584C41.6726 15.868 42.0258 15.7869 42.3437 15.6224C42.388 15.5983 42.4272 15.5654 42.4587 15.5256C42.4902 15.4857 42.5135 15.4398 42.5271 15.3906C42.5407 15.3425 42.5445 15.292 42.5382 15.2423C42.5319 15.1926 42.5156 15.1447 42.4904 15.1016L42.4507 15.0326C42.4008 14.9478 42.321 14.8855 42.2275 14.8584C42.1339 14.8313 42.0338 14.8414 41.9473 14.8867C41.7817 14.9746 41.5969 15.0188 41.4101 15.0154C41.2333 15.0272 41.0572 14.9843 40.9049 14.8924C40.7527 14.8005 40.6314 14.6638 40.5573 14.5004H42.5325C42.57 14.5006 42.6071 14.4934 42.6418 14.479C42.6764 14.4646 42.708 14.4435 42.7346 14.4167C42.7612 14.39 42.7824 14.3582 42.7969 14.3231C42.8114 14.288 42.819 14.2504 42.8192 14.2124V14.2127ZM41.8652 13.8312H40.562C40.61 13.6841 40.705 13.5575 40.832 13.4715C40.9589 13.3854 41.1105 13.3449 41.2627 13.3563C41.402 13.3512 41.5386 13.3959 41.6488 13.4828C41.7589 13.5696 41.8355 13.6929 41.8652 13.8312Z" fill="#4E92CE"/>
<path d="M46.1536 13.4971C46.0711 13.2914 45.9462 13.106 45.7872 12.9535C45.5396 12.7247 45.2143 12.6025 44.8797 12.6127C44.74 12.6141 44.6022 12.6456 44.4753 12.705C44.3484 12.7645 44.2354 12.8506 44.1437 12.9576C44.1256 12.8832 44.0907 12.8142 44.0418 12.7558C44.0014 12.7082 43.9508 12.6704 43.8939 12.6455C43.837 12.6205 43.7753 12.6089 43.7134 12.6116C43.6506 12.6084 43.5878 12.6194 43.5298 12.644C43.4717 12.6686 43.4198 12.7061 43.3779 12.7538C43.2956 12.853 43.2524 12.9797 43.2566 13.1094V16.5017C43.253 16.6307 43.2965 16.7565 43.3786 16.8549C43.419 16.9026 43.4696 16.9404 43.5265 16.9654C43.5833 16.9905 43.645 17.0021 43.707 16.9994C43.7698 17.0027 43.8326 16.9916 43.8907 16.967C43.9488 16.9423 44.0007 16.9047 44.0425 16.857C44.1249 16.7578 44.1681 16.6311 44.1638 16.5014V15.5432C44.3658 15.7068 44.6152 15.7983 44.8736 15.8036C45.1456 15.8103 45.4125 15.7278 45.6347 15.5683C45.8483 15.4117 46.0157 15.1987 46.1186 14.9523C46.2274 14.6966 46.2828 14.4207 46.2813 14.1421C46.281 13.9203 46.2375 13.7007 46.1533 13.496L46.1536 13.4971ZM45.3042 14.5674C45.2619 14.6817 45.1918 14.7832 45.1004 14.8626C45.0119 14.9394 44.8987 14.9808 44.7822 14.9789C44.6561 14.9821 44.5324 14.9434 44.43 14.8685C44.3316 14.7946 44.2549 14.6949 44.2079 14.5801C44.1584 14.4625 44.133 14.3359 44.1332 14.208C44.1329 14.0798 44.1583 13.9529 44.2079 13.8351C44.255 13.7206 44.3318 13.6212 44.43 13.5474C44.5324 13.4725 44.6561 13.4338 44.7822 13.4371C44.8986 13.4351 45.0117 13.4762 45.1004 13.5526C45.192 13.632 45.2622 13.7339 45.3042 13.8485C45.3488 13.963 45.3719 14.0849 45.3721 14.208C45.372 14.331 45.349 14.453 45.3042 14.5674Z" fill="#4E92CE"/>
<path d="M28.8887 7.51641H23.1542C23.4361 8.5091 24.3945 9.25827 25.7476 9.25827C26.295 9.26822 26.8361 9.13848 27.3214 8.88093C27.5292 8.77063 27.7708 8.74559 27.9963 8.811C28.2218 8.87641 28.414 9.02725 28.5331 9.2324L28.6445 9.42556C28.7048 9.53062 28.7435 9.64699 28.7583 9.76764C28.7731 9.88829 28.7638 10.0107 28.7308 10.1276C28.6978 10.2445 28.6418 10.3534 28.5663 10.4477C28.4908 10.5421 28.3973 10.6199 28.2913 10.6766C27.4238 11.1268 26.4585 11.3476 25.4847 11.3185C22.7405 11.3185 20.73 9.37072 20.73 6.84242C20.73 4.33275 22.5904 2.36633 25.2408 2.36633C27.8532 2.36633 29.5445 4.27687 29.5445 6.86139V6.87105C29.5416 7.04487 29.471 7.21043 29.3481 7.3315C29.2253 7.45258 29.0602 7.51931 28.8891 7.51709L28.8887 7.51641ZM23.1732 5.94389H27.195C27.1458 5.4834 26.9263 5.05906 26.5809 4.7566C26.2355 4.45414 25.7899 4.29611 25.3342 4.31446C24.8425 4.28269 24.3556 4.42894 23.9599 4.72725C23.5643 5.02556 23.2856 5.45662 23.1732 5.94389Z" fill="#4E92CE"/>
<path d="M35.7616 1.27351C35.7616 1.43157 35.7309 1.58809 35.6713 1.73412C35.6118 1.88016 35.5245 2.01284 35.4144 2.1246C35.3043 2.23635 35.1737 2.32499 35.0299 2.38545C34.8861 2.44591 34.7319 2.477 34.5763 2.47695C34.262 2.47695 33.9606 2.35016 33.7384 2.12447C33.5162 1.89878 33.3914 1.59268 33.3914 1.27351C33.3914 0.954333 33.5162 0.648241 33.7384 0.422551C33.9606 0.196862 34.262 0.0700684 34.5763 0.0700684C34.7319 0.0700231 34.8861 0.101115 35.0299 0.161573C35.1737 0.222032 35.3043 0.31067 35.4144 0.422425C35.5245 0.534179 35.6118 0.666866 35.6713 0.812897C35.7309 0.958928 35.7616 1.11544 35.7616 1.27351Z" fill="#ED1D24"/>
<path d="M34.0426 11.1878C33.7474 11.0461 33.5197 10.7912 33.4095 10.479C33.2994 10.1668 33.3159 9.82303 33.4554 9.5232L36.4654 3.04895C36.6049 2.74913 36.856 2.51787 37.1633 2.40603C37.4707 2.29419 37.8092 2.31093 38.1045 2.45258C38.2507 2.52265 38.3818 2.6213 38.4905 2.74287C38.5991 2.86444 38.6831 3.00656 38.7377 3.16111C38.7922 3.31566 38.8163 3.4796 38.8085 3.64359C38.8006 3.80758 38.7611 3.96839 38.692 4.11684L35.6819 10.5911C35.5424 10.8909 35.2914 11.1222 34.9841 11.2341C34.6767 11.346 34.3382 11.3293 34.0429 11.1878" fill="#ED1D24"/>
<path d="M35.0844 11.1878C35.2306 11.1177 35.3617 11.019 35.4704 10.8974C35.579 10.7758 35.663 10.6337 35.7176 10.4791C35.7722 10.3245 35.7962 10.1605 35.7884 9.99652C35.7805 9.83251 35.741 9.67168 35.6719 9.5232L32.6618 3.04895C32.5224 2.74913 32.2713 2.51787 31.9639 2.40603C31.6566 2.29419 31.318 2.31093 31.0228 2.45258C30.8766 2.52265 30.7455 2.6213 30.6368 2.74287C30.5282 2.86444 30.4442 3.00656 30.3896 3.16111C30.335 3.31566 30.311 3.4796 30.3188 3.64359C30.3267 3.80758 30.3662 3.96839 30.4353 4.11684L33.4453 10.5911C33.5848 10.8909 33.8359 11.1222 34.1432 11.2341C34.4506 11.346 34.7891 11.3293 35.0844 11.1878Z" fill="#ED1D24"/>
<path d="M47.7645 2.36569C47.4803 2.36578 47.2048 2.46571 46.9849 2.64853C46.765 2.83135 46.6141 3.0858 46.5578 3.36873L46.5143 3.35838C45.772 2.69811 44.8131 2.34398 43.8266 2.36569C41.4397 2.36569 39.6152 4.29485 39.6152 6.84177C39.6152 9.3887 41.3813 11.3179 43.7688 11.3179C44.2907 11.3291 44.8087 11.2239 45.2862 11.0098C45.7637 10.7957 46.1892 10.4778 46.5327 10.0785C46.5354 10.4082 46.6663 10.7233 46.8967 10.9554C47.1272 11.1875 47.4386 11.3178 47.7631 11.3179C48.0896 11.3179 48.4028 11.1861 48.6337 10.9516C48.8645 10.7172 48.9942 10.3991 48.9942 10.0675V3.61742C48.9942 3.28581 48.8645 2.96777 48.6337 2.73329C48.4028 2.4988 48.0896 2.36707 47.7631 2.36707L47.7645 2.36569ZM44.3159 9.0893C44.0234 9.09543 43.7327 9.04153 43.4612 8.93082C43.1897 8.82011 42.943 8.65486 42.7359 8.445C42.5288 8.23513 42.3655 7.98496 42.2559 7.70948C42.1462 7.43399 42.0925 7.13886 42.0979 6.84177C42.0911 6.54429 42.1438 6.24851 42.2529 5.97236C42.3621 5.69621 42.5253 5.44544 42.7327 5.23528C42.9401 5.02511 43.1874 4.85992 43.4595 4.74973C43.7317 4.63954 44.023 4.58665 44.3159 4.59425C44.6112 4.57698 44.9068 4.62325 45.1833 4.73003C45.4597 4.8368 45.7109 5.00166 45.9203 5.21383C46.1297 5.426 46.2926 5.68069 46.3983 5.96123C46.5041 6.24177 46.5503 6.54183 46.534 6.84177C46.5504 7.14173 46.5042 7.44182 46.3984 7.72238C46.2927 8.00294 46.1298 8.25766 45.9204 8.46984C45.711 8.68202 45.4598 8.84689 45.1833 8.95364C44.9068 9.06039 44.6112 9.10662 44.3159 9.0893Z" fill="#4E92CE"/>
<path d="M19.0343 2.91701C19.0122 2.88252 18.9884 2.85148 18.9637 2.82078C18.9156 2.76196 18.8624 2.70769 18.8047 2.65867C18.7207 2.58717 18.6276 2.52742 18.5279 2.48103C18.3668 2.40515 18.1913 2.36573 18.0137 2.36548C17.9713 2.36548 17.9292 2.3679 17.8881 2.37204C17.847 2.37618 17.8059 2.38273 17.7658 2.391C17.5299 2.44017 17.3134 2.55868 17.1433 2.73179C17.0876 2.78847 17.0373 2.85037 16.9932 2.91667C16.8557 3.12307 16.7825 3.36665 16.7829 3.61583V6.94643C16.7985 7.22233 16.7577 7.49851 16.6632 7.75765C16.5686 8.01678 16.4223 8.25326 16.2335 8.45223C16.0446 8.65121 15.8173 8.80838 15.5658 8.91388C15.3143 9.01938 15.0441 9.07094 14.772 9.0653C13.6445 9.0653 12.8739 8.20644 12.8739 6.8702V3.61583C12.8739 3.28422 12.7442 2.96618 12.5133 2.7317C12.2824 2.49721 11.9693 2.36548 11.6428 2.36548C11.3162 2.36548 11.0031 2.49721 10.7722 2.7317C10.5413 2.96618 10.4116 3.28422 10.4116 3.61583V7.21374C10.4116 9.71445 11.8965 11.3183 14.2086 11.3183C15.1663 11.3519 16.1006 11.0139 16.8217 10.3729C16.8884 10.6429 17.042 10.8825 17.258 11.0538C17.4741 11.2251 17.7403 11.3182 18.0144 11.3183C18.3409 11.3183 18.6541 11.1866 18.8849 10.9521C19.1158 10.7176 19.2455 10.3996 19.2455 10.068V3.6179C19.246 3.36873 19.1727 3.12515 19.0353 2.91874" fill="#4E92CE"/>
<path d="M5.03694 2.3663C4.07926 2.3327 3.14493 2.67075 2.42388 3.31174C2.35716 3.04174 2.20357 2.8021 1.9875 2.63082C1.77142 2.45955 1.50523 2.36645 1.23113 2.3663C0.904616 2.3663 0.591473 2.49803 0.360591 2.73252C0.129709 2.967 1.5062e-06 3.28504 1.5062e-06 3.61665V10.0667C-0.000256137 10.2339 0.0325422 10.3994 0.0964531 10.5534C0.112076 10.5907 0.130415 10.6273 0.148415 10.6628C0.224007 10.8041 0.325713 10.9293 0.447963 11.0315C0.508965 11.0827 0.574702 11.1277 0.644261 11.166C0.82435 11.2654 1.02616 11.3173 1.23113 11.3168C1.4361 11.3173 1.63791 11.2654 1.818 11.166C1.85196 11.1467 1.88592 11.1257 1.91989 11.1036C1.9822 11.0607 2.04051 11.0121 2.09411 10.9584L2.10226 10.9508L2.10939 10.9429C2.18986 10.8596 2.25845 10.7653 2.31316 10.6628C2.41107 10.4799 2.46222 10.2749 2.46192 10.0667V6.73581C2.44636 6.45992 2.48715 6.18374 2.58171 5.92463C2.67627 5.66552 2.82256 5.42906 3.0114 5.23012C3.20024 5.03117 3.42755 4.87402 3.67904 4.76856C3.93054 4.6631 4.20079 4.61159 4.47283 4.61728C5.60037 4.61728 6.37097 5.47614 6.37097 6.81237V10.0667C6.37097 10.3984 6.50068 10.7164 6.73156 10.9509C6.96244 11.1854 7.27558 11.3171 7.6021 11.3171C7.76379 11.3171 7.9239 11.2848 8.07329 11.222C8.22268 11.1592 8.35842 11.0671 8.47275 10.951C8.58708 10.8349 8.67776 10.697 8.73961 10.5453C8.80146 10.3936 8.83328 10.2309 8.83323 10.0667V6.47021C8.83323 3.9695 7.3484 2.3656 5.03659 2.3656" fill="#4E92CE"/>
</svg>
