<svg width="375" height="372" viewBox="0 0 375 372" fill="none" xmlns="http://www.w3.org/2000/svg">
<path opacity="0.1" d="M-27.2327 172.719C-20.2545 202.524 -5.48226 228.288 17.8599 240.777C66.3813 266.73 175.801 253.341 257.46 237.965C298.724 230.221 336.18 208.825 363.796 177.222L-27.2327 172.719Z" fill="#407BFF"/>
<path opacity="0.1" d="M401.002 32.4203H356.195C355.168 32.4203 354.184 32.0127 353.458 31.2873C352.732 30.5618 352.324 29.5779 352.324 28.552C352.324 27.5261 352.732 26.5422 353.458 25.8167C354.184 25.0913 355.168 24.6837 356.195 24.6837H363.941C362.935 24.6514 361.982 24.2294 361.282 23.5071C360.582 22.7849 360.191 21.8189 360.191 20.8135C360.191 19.8081 360.582 18.8421 361.282 18.1198C361.982 17.3975 362.935 16.9756 363.941 16.9432H358.41C357.404 16.9108 356.451 16.4889 355.751 15.7666C355.051 15.0443 354.66 14.0783 354.66 13.0729C354.66 12.0675 355.051 11.1016 355.751 10.3793C356.451 9.657 357.404 9.23505 358.41 9.20267H381.796C376.607 6.79254 370.541 5.07733 363.551 4.18157C299.783 -4.00484 277.016 1.40992 268.984 6.99339C259.076 13.8623 248.022 18.9155 236.208 21.3497C196.864 29.4598 123.284 39.2209 56.5933 18.2286C23.4471 7.78471 -1.18542 25.4229 -15.9537 54.8947H408.78C408.226 46.3267 406.566 38.4255 403.519 31.4964C402.818 32.0962 401.925 32.4241 401.002 32.4203Z" fill="#407BFF"/>
<path opacity="0.1" d="M-31.0355 110.513C-32.7564 127.846 -32.1725 145.331 -29.299 162.511L364.098 176.892C375.049 164.303 384.243 150.291 391.431 135.236L-31.0355 110.513ZM124.558 147.608H116.812C117.839 147.608 118.823 148.016 119.549 148.741C120.275 149.467 120.683 150.451 120.683 151.477C120.683 152.503 120.275 153.487 119.549 154.212C118.823 154.937 117.839 155.345 116.812 155.345H72.0046C70.978 155.345 69.9934 154.937 69.2675 154.212C68.5415 153.487 68.1337 152.503 68.1337 151.477C68.1337 150.451 68.5415 149.467 69.2675 148.741C69.9934 148.016 70.978 147.608 72.0046 147.608H79.7505C78.745 147.576 77.7914 147.154 77.0916 146.432C76.3917 145.71 76.0004 144.744 76.0004 143.738C76.0004 142.733 76.3917 141.767 77.0916 141.045C77.7914 140.322 78.745 139.9 79.7505 139.868H74.2195C73.2139 139.836 72.2604 139.414 71.5605 138.691C70.8606 137.969 70.4693 137.003 70.4693 135.998C70.4693 134.992 70.8606 134.026 71.5605 133.304C72.2604 132.582 73.2139 132.16 74.2195 132.127H119.027C120.032 132.16 120.986 132.582 121.686 133.304C122.386 134.026 122.777 134.992 122.777 135.998C122.777 137.003 122.386 137.969 121.686 138.691C120.986 139.414 120.032 139.836 119.027 139.868H124.558C125.563 139.9 126.517 140.322 127.217 141.045C127.917 141.767 128.308 142.733 128.308 143.738C128.308 144.744 127.917 145.71 127.217 146.432C126.517 147.154 125.563 147.576 124.558 147.608Z" fill="#407BFF"/>
<path opacity="0.1" d="M408.8 55.1558L-20.693 65.5997C-25.9185 79.0161 -29.3634 94.1878 -30.9713 109.918H401.276C404.096 100.678 406.184 91.2308 407.518 81.6632C408.804 72.4203 409.319 63.4828 408.8 55.1558ZM56.2234 89.3636H48.4775C49.5041 89.3636 50.4887 89.7711 51.2146 90.4965C51.9406 91.222 52.3484 92.2059 52.3484 93.2318C52.3484 94.2577 51.9406 95.2416 51.2146 95.9671C50.4887 96.6925 49.5041 97.1001 48.4775 97.1001H3.67023C2.64359 97.1001 1.65901 96.6925 0.933067 95.9671C0.207125 95.2416 -0.200703 94.2577 -0.200703 93.2318C-0.200703 92.2059 0.207125 91.222 0.933067 90.4965C1.65901 89.7711 2.64359 89.3636 3.67023 89.3636H11.4161C10.4106 89.3312 9.45701 88.9092 8.75714 88.187C8.05727 87.4647 7.66596 86.4987 7.66596 85.4933C7.66596 84.4879 8.05727 83.5219 8.75714 82.7996C9.45701 82.0773 10.4106 81.6554 11.4161 81.623H5.88507C4.8795 81.5906 3.92595 81.1687 3.22608 80.4464C2.52621 79.7241 2.1349 78.7581 2.1349 77.7527C2.1349 76.7473 2.52621 75.7814 3.22608 75.0591C3.92595 74.3368 4.8795 73.9149 5.88507 73.8825H50.6923C51.6979 73.9149 52.6514 74.3368 53.3513 75.0591C54.0512 75.7814 54.4425 76.7473 54.4425 77.7527C54.4425 78.7581 54.0512 79.7241 53.3513 80.4464C52.6514 81.1687 51.6979 81.5906 50.6923 81.623H56.2234C57.2289 81.6554 58.1825 82.0773 58.8823 82.7996C59.5822 83.5219 59.9735 84.4879 59.9735 85.4933C59.9735 86.4987 59.5822 87.4647 58.8823 88.187C58.1825 88.9092 57.2289 89.3312 56.2234 89.3636Z" fill="#407BFF"/>
<path opacity="0.1" d="M29.8716 352.58C52.9306 360.321 81.0624 355.609 107.224 356.16C110.807 356.237 114.601 356.459 117.475 357.795C120.348 359.132 121.756 361.312 123.726 363.164C131.063 370.067 146.082 372.294 159.212 371.116C172.343 369.938 184.382 366.064 196.745 363.111C218.162 358.001 242.646 355.68 263.77 361.247C265.711 361.757 267.751 362.343 269.827 362.138C274.46 361.687 275.839 357.977 279.082 355.862C284.946 352.041 297.625 353.078 300.194 348.044C301.701 345.114 298.235 342.06 294.464 340.05C280.032 332.332 259.377 331.06 240.476 332.256C221.575 333.451 203.002 336.721 184.007 336.733C160.344 336.733 137.478 331.705 114.044 329.642C97.8113 328.206 80.0948 328.388 64.8765 332.572C48.415 337.161 44.779 347.382 29.8716 352.58Z" fill="#6C63FF"/>
<path d="M322.033 307.842L321.473 311.868L322.216 311.971L322.776 307.945L322.033 307.842Z" fill="#407BFF"/>
<path d="M325.028 286.246L322.733 302.736L323.476 302.84L325.77 286.349L325.028 286.246Z" fill="#407BFF"/>
<path d="M324.287 278.089H279.138L283.788 311.598C284.299 315.287 286.127 318.666 288.935 321.111C291.743 323.557 295.342 324.904 299.065 324.903H304.36C308.084 324.904 311.682 323.557 314.49 321.111C317.298 318.666 319.126 315.287 319.637 311.598L324.287 278.089Z" fill="#407BFF"/>
<path d="M301.675 280.684C314.143 280.684 324.249 279.523 324.249 278.089C324.249 276.656 314.143 275.495 301.675 275.495C289.208 275.495 279.101 276.656 279.101 278.089C279.101 279.523 289.208 280.684 301.675 280.684Z" fill="#263238"/>
<path d="M308.83 264.035C295.45 261.208 300.58 234.433 309.46 214.477C318.46 194.287 324.114 190.125 330.879 190.755C337.801 191.407 329.912 214.124 326.522 228.149C323.132 242.173 324.354 267.32 308.83 264.035Z" fill="#407BFF"/>
<path opacity="0.4" d="M308.83 264.035C295.45 261.208 300.58 234.433 309.46 214.477C318.46 194.287 324.114 190.125 330.879 190.755C337.801 191.407 329.912 214.124 326.522 228.149C323.132 242.173 324.354 267.32 308.83 264.035Z" fill="white"/>
<path d="M307.787 278.824C307.702 278.824 307.62 278.79 307.559 278.73C307.499 278.669 307.465 278.587 307.465 278.502C307.607 254.675 313.465 219.711 323.964 201.862C324.008 201.786 324.08 201.731 324.164 201.709C324.249 201.686 324.339 201.698 324.414 201.742C324.486 201.787 324.538 201.858 324.559 201.941C324.58 202.023 324.569 202.11 324.527 202.184C314.065 219.944 308.267 254.758 308.132 278.502C308.131 278.546 308.121 278.589 308.104 278.629C308.086 278.67 308.06 278.706 308.028 278.736C307.995 278.766 307.958 278.789 307.916 278.804C307.875 278.82 307.831 278.826 307.787 278.824Z" fill="#263238"/>
<path d="M307.585 239.946C305.125 241.671 302.552 241.933 300.985 243.606C299.92 253.01 301.292 260.72 306.7 263.337C308.725 261.298 309.13 247.745 307.585 239.946Z" fill="#263238"/>
<path d="M307.457 225.771C307 240.201 313.36 264.552 297.49 264.515C283.811 264.515 283.323 237.246 287.958 215.879C292.653 194.28 299.035 183.78 305.785 183.015C308.537 182.708 309.43 187.125 309.482 193.47C305.028 193.837 303.858 194.887 303.858 194.887C305.748 195.223 307.618 195.664 309.46 196.207C309.287 205.589 307.705 217.874 307.457 225.771Z" fill="#407BFF"/>
<path d="M290.155 270.035C298.99 267.252 293.815 249.538 286.503 236.661C279.116 223.634 275.043 221.189 270.521 222.059C265.999 222.929 272.696 237.748 275.891 246.988C279.086 256.228 279.896 273.26 290.155 270.035Z" fill="#407BFF"/>
<path opacity="0.4" d="M290.155 270.035C298.99 267.252 293.815 249.538 286.503 236.661C279.116 223.634 275.043 221.189 270.521 222.059C265.999 222.929 272.696 237.748 275.891 246.988C279.086 256.228 279.896 273.26 290.155 270.035Z" fill="white"/>
<path d="M291.783 280.047C291.703 280.046 291.626 280.015 291.566 279.961C291.507 279.908 291.469 279.834 291.46 279.754C289.825 263.765 283.661 240.696 275.463 229.446C275.437 229.411 275.419 229.372 275.409 229.33C275.398 229.288 275.397 229.244 275.404 229.201C275.411 229.159 275.426 229.118 275.449 229.081C275.473 229.045 275.503 229.013 275.538 228.989C275.572 228.963 275.611 228.945 275.653 228.934C275.694 228.924 275.737 228.923 275.779 228.93C275.821 228.937 275.862 228.952 275.898 228.975C275.933 228.998 275.964 229.028 275.988 229.064C284.238 240.433 290.463 263.645 292.105 279.717C292.112 279.759 292.109 279.802 292.098 279.843C292.087 279.884 292.067 279.923 292.04 279.956C292.013 279.989 291.98 280.016 291.942 280.036C291.904 280.055 291.863 280.067 291.82 280.069L291.783 280.047Z" fill="#263238"/>
<path d="M299.448 279.215C299.371 279.216 299.297 279.19 299.238 279.142C299.179 279.094 299.139 279.027 299.125 278.952C294.385 255.605 292.93 220.191 299.575 200.557C299.604 200.476 299.663 200.41 299.74 200.372C299.817 200.334 299.906 200.328 299.987 200.355C300.028 200.368 300.066 200.39 300.098 200.418C300.13 200.446 300.156 200.48 300.175 200.518C300.194 200.557 300.205 200.599 300.208 200.641C300.21 200.684 300.204 200.727 300.19 200.767C293.583 220.266 295.038 255.553 299.762 278.825C299.771 278.866 299.772 278.91 299.763 278.952C299.755 278.994 299.739 279.034 299.715 279.069C299.691 279.105 299.661 279.135 299.625 279.159C299.59 279.183 299.55 279.199 299.508 279.207L299.448 279.215Z" fill="#263238"/>
<path d="M317.672 217.334C317.615 217.333 317.56 217.318 317.51 217.29C317.461 217.263 317.418 217.224 317.387 217.176C317.345 217.101 317.333 217.013 317.354 216.929C317.375 216.845 317.427 216.773 317.5 216.726C320.8 214.762 325.554 214.597 325.749 214.589C325.827 214.601 325.899 214.64 325.95 214.7C326.001 214.76 326.03 214.836 326.03 214.915C326.03 214.994 326.001 215.071 325.95 215.13C325.899 215.19 325.827 215.23 325.749 215.242C325.704 215.242 320.965 215.407 317.815 217.289C317.771 217.314 317.722 217.33 317.672 217.334Z" fill="#263238"/>
<path d="M312.677 235.851C312.609 235.85 312.542 235.828 312.487 235.787C312.432 235.747 312.391 235.691 312.369 235.626C311.602 233.41 311.099 231.112 310.869 228.779C310.867 228.736 310.874 228.694 310.888 228.654C310.902 228.614 310.925 228.577 310.953 228.546C310.982 228.515 311.016 228.489 311.055 228.471C311.093 228.453 311.135 228.443 311.177 228.441C311.219 228.438 311.262 228.444 311.303 228.458C311.343 228.472 311.38 228.494 311.412 228.522C311.443 228.551 311.469 228.586 311.486 228.625C311.504 228.664 311.513 228.706 311.514 228.749C311.761 231.021 312.264 233.257 313.014 235.416C313.041 235.497 313.034 235.586 312.997 235.663C312.959 235.74 312.893 235.799 312.812 235.828L312.677 235.851Z" fill="#263238"/>
<path d="M151.1 113.81L151.375 112.485C151.495 111.917 151.825 111.415 152.299 111.08C152.772 110.744 153.355 110.598 153.931 110.673L156.676 111.023C157.138 111.084 157.572 111.284 157.92 111.596C158.267 111.907 158.513 112.317 158.623 112.771L158.911 113.829C159.075 114.515 159.069 115.23 158.895 115.912C158.72 116.595 158.381 117.225 157.908 117.748L155.883 119.994C155.355 120.579 154.703 121.038 153.973 121.337C153.243 121.635 152.456 121.766 151.669 121.719L150.695 121.667C149.606 118.319 151.1 113.81 151.1 113.81Z" fill="#FFC3BD"/>
<path d="M155.952 173.489L155.321 172.675L154.756 171.925C154.394 171.425 154.045 170.915 153.7 170.41C153.01 169.401 152.37 168.369 151.736 167.321C150.483 165.225 149.348 163.06 148.336 160.838C147.302 158.589 146.421 156.274 145.699 153.907C144.942 151.491 144.391 149.016 144.054 146.508C143.948 145.683 143.911 144.851 143.944 144.021C143.96 143.304 144.025 142.655 144.095 142.011C144.238 140.751 144.429 139.548 144.635 138.372C145.061 136.027 145.595 133.738 146.148 131.482C147.277 126.994 148.633 122.566 150.21 118.216C150.426 117.622 150.852 117.127 151.406 116.824C151.961 116.521 152.607 116.43 153.224 116.568C153.841 116.707 154.386 117.065 154.758 117.576C155.13 118.086 155.304 118.715 155.246 119.345C154.838 123.85 154.312 128.368 153.871 132.813C153.621 135.007 153.457 137.254 153.305 139.413C153.225 140.47 153.175 141.562 153.18 142.557C153.186 143.047 153.191 143.536 153.218 143.959C153.224 144.261 153.258 144.563 153.32 144.86C154.297 148.844 155.75 152.696 157.647 156.332C158.597 158.196 159.628 160.039 160.732 161.84C161.281 162.743 161.853 163.626 162.43 164.505L163.311 165.805L163.737 166.427L164.137 166.984L164.308 167.183C165.092 168.295 165.411 169.669 165.195 171.013C164.979 172.357 164.247 173.563 163.154 174.373C162.061 175.184 160.694 175.535 159.346 175.352C157.997 175.169 156.774 174.465 155.938 173.392L155.952 173.489Z" fill="#FFC3BD"/>
<path d="M188.021 132.877C203.402 139.534 190.116 154.02 204.862 161.666C219.609 169.313 230.558 174.727 224.555 188.689C219.721 199.926 198.861 211.154 178.036 201.53C157.212 191.906 179.625 173.812 165.207 168.659C150.788 163.506 159.918 139.636 163.703 136.601C160.537 127.278 179.766 120.097 188.021 132.877Z" fill="#263238"/>
<path d="M234.813 182.931C234.764 182.957 234.71 182.973 234.655 182.979C226.048 181.653 223.09 176.379 220.227 171.265C217.504 166.406 214.698 161.377 207.084 159.212C195.872 156.023 196.144 149.926 196.402 144.539C196.628 139.434 196.825 135.013 187.648 133.459C187.549 133.442 187.46 133.386 187.402 133.304C187.343 133.222 187.319 133.12 187.336 133.021C187.356 132.921 187.413 132.833 187.496 132.775C187.579 132.717 187.681 132.692 187.782 132.706C197.624 134.389 197.405 139.334 197.172 144.573C196.94 149.812 196.684 155.442 207.315 158.469C215.23 160.723 218.122 165.884 220.919 170.885C223.818 176.066 226.553 180.937 234.791 182.209C234.892 182.225 234.982 182.279 235.041 182.361C235.101 182.443 235.126 182.545 235.111 182.646C235.094 182.717 235.058 182.782 235.005 182.833C234.952 182.884 234.885 182.918 234.813 182.931Z" fill="#263238"/>
<path d="M148.87 206.995C148.87 206.995 148.125 241.5 149.039 265.771C149.153 268.754 149.658 271.709 150.541 274.561C157.732 297.647 172.099 343.589 172.099 343.589L177.834 342.686C177.834 342.686 176.234 288.343 167.201 270.479C176.061 230.696 176.499 211.438 176.499 211.438L148.87 206.995Z" fill="#263238"/>
<path opacity="0.2" d="M165.802 230.651L173.571 237.312C172.767 242.498 171.709 248.474 170.398 255.239C168.732 248.271 166.036 241.591 162.397 235.419L165.802 230.651Z" fill="black"/>
<path d="M158.04 224.92C156.962 230.343 159.665 235.318 163.525 239.27C170.903 246.816 186.202 258.487 195.66 270.756C203.693 281.183 257.003 288.541 263.518 291.295L266.205 286.351C266.205 286.351 223.676 259.544 209.665 261.262C192.149 217.09 175.1 209.079 175.1 209.079C165.183 210.192 159.852 215.822 158.04 224.92Z" fill="#263238"/>
<path d="M268.592 284.732C266.793 284.819 264.896 283.824 261.37 282.206C261.23 282.138 261.074 282.105 260.918 282.111C260.762 282.116 260.609 282.16 260.474 282.238C260.338 282.315 260.224 282.425 260.14 282.557C260.057 282.69 260.007 282.84 259.995 282.996C259.856 285.309 259.497 287.604 258.925 289.85C258.85 290.081 258.865 290.331 258.966 290.552C259.067 290.772 259.247 290.947 259.471 291.041C267.686 294.473 267.183 295.847 268.16 298.051C269.388 300.752 269.7 306.344 271.574 305.232C274.23 303.649 274.835 299.488 273.749 296.612C272.823 294.157 272.154 291.077 272.351 288.973C272.534 287.187 271.165 284.615 268.592 284.732Z" fill="#407BFF"/>
<path d="M180.687 344.411C179.461 342.94 179.048 341.568 179.261 334.831C179.267 334.691 179.243 334.55 179.19 334.42C179.136 334.29 179.055 334.172 178.951 334.077C178.848 333.981 178.725 333.909 178.591 333.866C178.457 333.823 178.315 333.809 178.175 333.827C176.056 334.151 171.569 334.906 169.371 335.803C169.251 335.85 169.142 335.92 169.049 336.01C168.957 336.1 168.883 336.207 168.833 336.326C168.782 336.445 168.756 336.573 168.756 336.702C168.756 336.831 168.781 336.959 168.831 337.078C170.669 341.545 170.563 350.145 166.212 355.441C164.354 357.699 166.323 358.54 168.267 357.611C171.459 356.141 173.151 353.697 175.294 351.58C176.656 350.222 178.5 349.973 180.21 348.784C180.566 348.558 180.866 348.254 181.089 347.895C181.312 347.536 181.452 347.132 181.498 346.712C181.543 346.293 181.494 345.868 181.354 345.47C181.214 345.072 180.986 344.71 180.687 344.411Z" fill="#407BFF"/>
<path d="M150.169 172.042C149.837 174.922 144.249 180.817 149.214 185.55C148.943 191.442 148.826 197.273 148.87 206.995L177.989 211.679C178.108 203.279 179.867 193.977 186.7 176.163C187.072 175.187 187.235 174.144 187.178 173.101C187.121 172.058 186.846 171.038 186.369 170.109C185.893 169.179 185.227 168.36 184.414 167.704C183.601 167.049 182.659 166.571 181.649 166.303C180.508 165.997 179.29 165.697 178.038 165.44C173.688 164.416 169.271 163.707 164.82 163.317C163.371 163.212 161.866 163.156 160.425 163.128C157.915 163.079 155.476 163.964 153.581 165.611C151.686 167.258 150.47 169.549 150.169 172.042Z" fill="#407BFF"/>
<path d="M165 165.454C161.612 165.089 157.566 160.957 157.551 156.58C153.499 158.102 149.419 162.188 148.87 166.494C149.374 170.573 151.674 178.293 151.674 178.293L165 165.454Z" fill="#407BFF"/>
<path d="M208.092 113.868L207.934 112.526C207.862 111.95 207.576 111.421 207.132 111.047C206.688 110.672 206.119 110.478 205.539 110.504L202.763 110.647C202.296 110.667 201.845 110.829 201.472 111.111C201.098 111.393 200.819 111.782 200.671 112.226L200.315 113.274C200.093 113.943 200.037 114.657 200.154 115.352C200.27 116.048 200.555 116.704 200.983 117.264L202.799 119.665C203.275 120.292 203.886 120.805 204.587 121.164C205.288 121.524 206.06 121.721 206.848 121.741L207.827 121.764C209.196 118.487 208.092 113.868 208.092 113.868Z" fill="#FFC3BD"/>
<path d="M175.903 166.739L184.163 155.287C185.52 153.376 186.897 151.477 188.218 149.571L190.158 146.714C190.783 145.784 191.452 144.75 191.824 144.081C192.775 142.232 193.793 140.024 194.712 137.915L197.553 131.42C199.458 127.067 201.381 122.681 203.428 118.366C203.7 117.79 204.174 117.333 204.76 117.083C205.346 116.833 206.003 116.807 206.607 117.009C207.211 117.211 207.72 117.627 208.038 118.18C208.355 118.732 208.459 119.381 208.33 120.005C207.351 124.748 206.166 129.399 204.857 134.04C204.205 136.363 203.507 138.676 202.769 141C202.03 143.324 201.274 145.604 200.22 148.085C199.544 149.573 198.979 150.58 198.37 151.692C197.762 152.804 197.136 153.855 196.512 154.95C195.251 157.054 193.965 159.126 192.628 161.152C189.96 165.225 187.202 169.152 184.222 173.012C183.341 173.955 182.144 174.539 180.86 174.656C179.575 174.772 178.293 174.411 177.257 173.642C176.222 172.873 175.506 171.75 175.245 170.486C174.985 169.223 175.199 167.908 175.846 166.793L175.903 166.739Z" fill="#FFC3BD"/>
<path d="M178.785 204.461C180.093 204.851 178.872 210.215 180.429 211.799C181.987 213.382 182.73 214.239 181.903 214.77C181.076 215.301 161.637 217.071 149.32 212.499C149.092 212.408 148.89 212.263 148.731 212.076C148.572 211.889 148.462 211.666 148.41 211.426C147.514 207.357 147.743 201.406 148.869 200.981C149.994 200.556 173.955 203.064 178.785 204.461Z" fill="#407BFF"/>
<path opacity="0.4" d="M178.785 204.461C180.093 204.851 178.872 210.215 180.429 211.799C181.987 213.382 182.73 214.239 181.903 214.77C181.076 215.301 161.637 217.071 149.32 212.499C149.092 212.408 148.89 212.263 148.731 212.076C148.572 211.889 148.462 211.666 148.41 211.426C147.514 207.357 147.743 201.406 148.869 200.981C149.994 200.556 173.955 203.064 178.785 204.461Z" fill="white"/>
<path d="M179.116 150.313C177.597 154.427 175.509 162.089 178.029 165.411C178.029 165.411 168.121 165.385 160.723 172.969C158.973 165.46 164.774 163.268 164.774 163.268C169.697 162.891 170.145 159.357 169.845 155.915L179.116 150.313Z" fill="#FFC3BD"/>
<path opacity="0.2" d="M175.35 152.605L169.889 155.932C169.971 156.734 169.98 157.541 169.918 158.344C171.775 158.372 174.579 156.785 175.082 154.918C175.312 154.17 175.402 153.386 175.35 152.605Z" fill="black"/>
<path d="M184.624 144.128C181.849 150.782 181.08 154.264 176.237 155.972C167.952 158.889 162.802 152.967 163.402 147.39C164.142 140.792 167.846 130.929 175.29 130.498C182.734 130.066 187.392 137.476 184.624 144.128Z" fill="#FFC3BD"/>
<path d="M167.792 130.851C169.42 134.88 178.722 138.386 181.539 139.026C178.808 141.508 179.433 148.737 185.387 147.572C191.341 146.406 189.403 121.41 167.792 130.851Z" fill="#263238"/>
<path d="M165.613 146.043C165.613 146.043 168.036 145.87 174.618 146.764C173.553 148.431 171.872 149.689 168.5 149.208C165.128 148.727 165.613 146.043 165.613 146.043Z" fill="#263238"/>
<path d="M170.298 148.025C169.02 147.784 167.7 147.91 166.491 148.387C167.07 148.849 167.77 149.133 168.507 149.206C169.785 149.455 171.107 149.329 172.314 148.843C171.738 148.377 171.036 148.092 170.298 148.025Z" fill="#ED847E"/>
<path d="M165.914 146.031C165.953 146.267 166.056 146.488 166.213 146.669C166.37 146.85 166.574 146.984 166.802 147.056C168.757 147.315 170.729 147.429 172.7 147.395C173.006 147.419 173.312 147.371 173.596 147.254C173.879 147.137 174.131 146.956 174.331 146.724C171.545 146.296 168.733 146.064 165.914 146.031Z" fill="white"/>
<path d="M169.121 140.132C168.191 141.22 167.116 142.176 165.927 142.973C166.421 143.913 167.765 144.033 167.765 144.033L169.121 140.132Z" fill="#ED847E"/>
<path d="M184.475 149.953C184.031 150.428 183.492 150.804 182.893 151.056C182.294 151.308 181.648 151.43 180.999 151.414C179.34 151.318 179.162 149.398 180.173 147.864C181.08 146.479 183.032 144.873 184.433 145.728C185.834 146.584 185.691 148.71 184.475 149.953Z" fill="#FFC3BD"/>
<path d="M176.319 140.863C176.289 140.828 176.266 140.787 176.253 140.742C176.239 140.698 176.235 140.651 176.241 140.605C176.306 140.173 176.265 139.732 176.121 139.319C175.978 138.907 175.737 138.535 175.418 138.236C175.35 138.178 175.307 138.095 175.299 138.005C175.291 137.915 175.319 137.826 175.376 137.756C175.403 137.72 175.437 137.69 175.477 137.668C175.516 137.646 175.559 137.632 175.604 137.627C175.649 137.623 175.694 137.627 175.737 137.641C175.78 137.654 175.82 137.676 175.854 137.706C176.256 138.075 176.564 138.536 176.751 139.05C176.939 139.563 177 140.114 176.93 140.656C176.919 140.746 176.873 140.828 176.802 140.885C176.731 140.941 176.641 140.967 176.551 140.958C176.508 140.959 176.465 140.952 176.425 140.935C176.385 140.919 176.349 140.894 176.319 140.863Z" fill="#263238"/>
<path d="M173.684 141.891C173.626 141.861 173.582 141.81 173.562 141.748C173.484 141.456 173.337 141.187 173.133 140.963C172.93 140.74 172.676 140.568 172.392 140.463C172.333 140.443 172.284 140.4 172.255 140.345C172.227 140.289 172.221 140.224 172.24 140.164C172.248 140.134 172.263 140.105 172.282 140.081C172.302 140.056 172.326 140.036 172.354 140.021C172.382 140.006 172.412 139.997 172.443 139.994C172.475 139.991 172.506 139.995 172.536 140.004C172.891 140.136 173.21 140.352 173.464 140.632C173.719 140.912 173.903 141.25 174 141.616C174.017 141.678 174.009 141.744 173.978 141.8C173.946 141.857 173.894 141.898 173.833 141.917C173.782 141.925 173.729 141.916 173.684 141.891Z" fill="#263238"/>
<path d="M167.925 139.231C167.895 139.243 167.862 139.248 167.83 139.247C167.797 139.246 167.765 139.239 167.736 139.225C167.465 139.098 167.167 139.036 166.868 139.044C166.568 139.053 166.275 139.131 166.012 139.274C165.986 139.291 165.957 139.303 165.927 139.309C165.896 139.315 165.865 139.315 165.835 139.309C165.805 139.303 165.776 139.291 165.75 139.273C165.725 139.256 165.703 139.233 165.686 139.207C165.651 139.155 165.638 139.09 165.65 139.028C165.662 138.965 165.698 138.91 165.751 138.875C166.08 138.686 166.449 138.58 166.828 138.566C167.207 138.551 167.584 138.629 167.926 138.792C167.982 138.822 168.023 138.873 168.041 138.933C168.06 138.994 168.053 139.059 168.024 139.115C168.003 139.162 167.968 139.202 167.925 139.231Z" fill="#263238"/>
<path d="M166.782 135.799C166.739 135.797 166.696 135.786 166.656 135.767C166.617 135.748 166.582 135.721 166.553 135.688C166.495 135.618 166.465 135.529 166.472 135.438C166.478 135.347 166.519 135.262 166.587 135.2C166.988 134.83 167.472 134.562 167.999 134.418C168.525 134.275 169.079 134.26 169.612 134.376C169.7 134.4 169.775 134.457 169.821 134.536C169.866 134.614 169.879 134.708 169.856 134.796C169.831 134.885 169.773 134.96 169.693 135.006C169.613 135.052 169.518 135.065 169.429 135.042C169.006 134.955 168.568 134.972 168.152 135.09C167.736 135.208 167.355 135.425 167.041 135.722C167.006 135.752 166.964 135.774 166.92 135.787C166.875 135.801 166.829 135.805 166.782 135.799Z" fill="#263238"/>
<path opacity="0.2" d="M159.161 181.961C161.773 185.222 165.397 187.52 169.46 188.494C162.925 189.161 159.787 184.772 159.161 181.961Z" fill="black"/>
<path d="M171.984 169.964C175.306 167.427 179.23 158.664 180.476 155.73C180.513 155.63 180.577 155.543 180.66 155.477C180.743 155.411 180.842 155.37 180.947 155.357C181.053 155.344 181.159 155.36 181.256 155.404C181.353 155.447 181.435 155.517 181.495 155.604C182.446 157.453 187.201 164.06 190.289 165.32C190.599 165.447 190.86 165.671 191.031 165.959C191.202 166.247 191.276 166.582 191.24 166.915C190.144 176.309 189.469 173.628 184.92 180.802C181.495 184.211 171.984 169.964 171.984 169.964Z" fill="#407BFF"/>
<path d="M231.133 16H147.731C141.804 16 137 20.4613 137 25.9646V103.409C137 108.913 141.804 113.374 147.731 113.374H231.133C237.06 113.374 241.864 108.913 241.864 103.409V25.9646C241.864 20.4613 237.06 16 231.133 16Z" fill="#407BFF"/>
<path d="M171.849 73.358C170.602 73.3573 169.393 73.7887 168.429 74.5787C167.465 75.3686 166.805 76.4683 166.561 77.6903C166.317 78.9122 166.505 80.1808 167.093 81.2798C167.68 82.3788 168.631 83.2403 169.782 83.7173C170.934 84.1943 172.216 84.2574 173.409 83.8958C174.602 83.5342 175.633 82.7703 176.326 81.7342C177.019 80.6982 177.33 79.4542 177.208 78.2143C177.086 76.9743 176.537 75.8151 175.655 74.9343C175.16 74.4275 174.568 74.0265 173.914 73.7555C173.259 73.4846 172.557 73.3493 171.849 73.358Z" fill="white"/>
<path d="M170.648 61.9962C170.653 60.6035 170.174 59.2523 169.293 58.1731C168.412 57.094 167.184 56.3537 165.817 56.0786C164.451 55.8035 163.032 56.0105 161.801 56.6645C160.571 57.3185 159.605 58.3788 159.07 59.6646C158.534 60.9504 158.462 62.3821 158.865 63.7154C159.268 65.0487 160.121 66.201 161.279 66.9757C162.437 67.7505 163.828 68.0997 165.215 67.9638C166.603 67.828 167.899 67.2154 168.885 66.2306C169.453 65.6829 169.903 65.0245 170.206 64.2962C170.509 63.5678 170.66 62.785 170.648 61.9962Z" fill="white"/>
<path d="M205.434 48.1869C206.129 48.1846 206.801 47.9418 207.336 47.4998C207.872 47.0579 208.237 46.4442 208.371 45.7632C208.504 45.0821 208.398 44.3759 208.069 43.7647C207.74 43.1536 207.209 42.6752 206.567 42.4111C205.924 42.147 205.211 42.1136 204.546 42.3164C203.882 42.5192 203.309 42.9458 202.924 43.5235C202.539 44.1012 202.367 44.7943 202.436 45.4848C202.505 46.1753 202.812 46.8206 203.303 47.3107C203.58 47.5947 203.911 47.8191 204.278 47.9698C204.644 48.1205 205.038 48.1944 205.434 48.1869Z" fill="white"/>
<path d="M171.849 38.6019C170.325 38.6041 168.849 39.134 167.672 40.1015C166.495 41.0691 165.69 42.4143 165.394 43.9082C165.099 45.4021 165.33 46.9523 166.05 48.2947C166.769 49.6371 167.932 50.6888 169.34 51.2706C170.749 51.8525 172.315 51.9285 173.773 51.4857C175.231 51.0429 176.491 50.1088 177.337 48.8423C178.183 47.5759 178.564 46.0554 178.415 44.5399C178.265 43.0244 177.594 41.6076 176.517 40.5307C175.912 39.908 175.185 39.4156 174.382 39.0839C173.579 38.7522 172.717 38.5882 171.849 38.6019Z" fill="white"/>
<path d="M215.182 59.4262C214.592 58.8298 213.812 58.4568 212.977 58.3708C212.142 58.2848 211.303 58.4911 210.603 58.9546C209.903 59.4181 209.386 60.11 209.14 60.9121C208.894 61.7143 208.934 62.5769 209.253 63.3528C209.573 64.1287 210.152 64.7696 210.892 65.1663C211.632 65.5629 212.486 65.6906 213.31 65.5276C214.134 65.3646 214.875 64.921 215.408 64.2724C215.94 63.6239 216.231 62.8107 216.231 61.9717C216.239 61.4984 216.15 61.0284 215.97 60.5906C215.789 60.1529 215.521 59.7566 215.182 59.4262Z" fill="white"/>
<path d="M205.434 74.5573C204.455 74.5458 203.503 74.8745 202.739 75.4872C201.976 76.0999 201.45 76.9585 201.25 77.9161C201.051 78.8738 201.19 79.871 201.645 80.7372C202.1 81.6034 202.842 82.2848 203.744 82.6649C204.646 83.0449 205.652 83.1 206.59 82.8208C207.528 82.5415 208.34 81.9452 208.887 81.1338C209.433 80.3225 209.681 79.3465 209.588 78.3728C209.494 77.3991 209.064 76.4881 208.373 75.7958C207.992 75.4016 207.536 75.0886 207.03 74.8757C206.525 74.6628 205.982 74.5545 205.434 74.5573Z" fill="white"/>
<path d="M188.641 81.1512C187.53 81.1512 186.454 81.5362 185.595 82.2403C184.737 82.9445 184.149 83.9243 183.933 85.0129C183.716 86.1015 183.884 87.2314 184.407 88.2102C184.931 89.189 185.778 89.9561 186.804 90.3808C187.83 90.8055 188.972 90.8614 190.035 90.5392C191.098 90.2169 192.016 89.5364 192.633 88.6135C193.25 87.6907 193.528 86.5826 193.419 85.478C193.31 84.3735 192.821 83.3409 192.036 82.5561C191.595 82.1035 191.067 81.7454 190.483 81.5038C189.899 81.2623 189.273 81.1423 188.641 81.1512Z" fill="white"/>
<path d="M188.64 30.8081C186.986 30.817 185.386 31.3981 184.113 32.4527C182.839 33.5073 181.97 34.9702 181.654 36.5927C181.338 38.2152 181.593 39.897 182.378 41.3522C183.163 42.8074 184.427 43.9461 185.957 44.5747C187.487 45.2032 189.188 45.2828 190.769 44.7999C192.351 44.317 193.717 43.3014 194.634 41.9259C195.552 40.5503 195.964 38.8997 195.801 37.2548C195.638 35.6099 194.909 34.0722 193.74 32.9033C193.078 32.2252 192.284 31.6895 191.407 31.3292C190.53 30.9689 189.588 30.7916 188.64 30.8081Z" fill="white"/>
</svg>
