<svg viewBox="0 0 155 90" fill="none" xmlns="http://www.w3.org/2000/svg">
<path d="M17.5564 6.60336C11.0039 16.0908 21.4891 29.7347 13.9323 32.0506C21.3868 37.4798 33.6554 32.3572 35.1874 30.4788C35.3243 32.4997 33.4319 33.6955 33.4319 33.6955C33.4319 33.6955 44.3827 34.2962 41.5977 24.935C38.8127 15.5739 38.6495 13.2405 39.3517 10.3757C40.0539 7.51083 38.3753 4.99129 36.6763 5.50381C34.1926 -1.52616 22.4861 -0.507333 17.5564 6.60336Z" fill="#263238"/>
<path d="M32.1578 23.3964C31.2431 27.6904 30.2147 35.5694 32.9272 38.696C32.9272 38.696 37.1496 46.9184 19.2065 48.7762C14.0023 39.9163 20.529 37.8762 20.529 37.8762C25.0122 37.0141 25.0066 33.4059 24.3707 29.9728L32.1578 23.3964Z" fill="#FFC3BD"/>
<path opacity="0.2" d="M29.5133 26.1519L24.8444 30.0611C25.0136 30.8716 25.1178 31.6896 25.156 32.5055C26.8791 32.3781 29.2954 30.4578 29.5361 28.5209C29.6633 27.7515 29.6556 26.9482 29.5133 26.1519Z" fill="black"/>
<path d="M36.4696 15.2899C35.5249 22.2692 35.2672 25.2494 31.7148 28.3938C26.3726 33.1154 18.6693 29.9152 17.671 22.6708C16.7694 16.1493 18.4594 5.83261 25.0181 3.94178C26.4086 3.48049 27.9252 3.45047 29.4104 3.85486C30.8956 4.25924 32.2952 5.08329 33.4638 6.24139C34.6325 7.39949 35.5276 8.84942 36.0562 10.4406C36.5847 12.0318 36.7275 13.7062 36.4696 15.2899Z" fill="#FFC3BD"/>
<path d="M33.0102 6.24316C29.7809 10.1541 36.5754 17.1548 36.7895 20.6289C40.7716 15.2596 38.2051 1.56486 33.0102 6.24316Z" fill="#263238"/>
<path d="M35.3498 5.98172C35.8738 13.9144 24.9168 4.9833 17.5041 10.9573C18.1631 4.70155 27.6834 -1.66014 35.3498 5.98172Z" fill="#263238"/>
<path opacity="0.2" d="M28.1902 15.5112C28.4757 15.3452 28.7918 15.2519 29.1204 15.2365C29.449 15.2211 29.7836 15.284 30.105 15.4215C29.4898 15.5972 28.8399 15.6276 28.1902 15.5112Z" fill="black"/>
<path opacity="0.2" d="M28.2527 15.9402C28.5363 15.8661 28.8373 15.8645 29.1347 15.9357C29.4321 16.0069 29.7186 16.1491 29.9742 16.3523C29.3932 16.3567 28.8054 16.216 28.2527 15.9402Z" fill="black"/>
<path opacity="0.2" d="M18.6785 14.5681C18.6785 14.5681 18.1455 14.0359 17.8971 14.3825C18.1367 14.5503 18.4162 14.6167 18.6785 14.5681Z" fill="black"/>
<path opacity="0.2" d="M18.6505 14.9947C18.6505 14.9947 18.2091 14.5122 18.0651 15.0382C18.1611 15.0983 18.2687 15.1263 18.3734 15.1185C18.4781 15.1108 18.5748 15.0675 18.6505 14.9947Z" fill="black"/>
<path d="M27.3271 15.9301C27.2668 16.5176 26.9479 16.9568 26.5965 16.9031C26.2451 16.8495 26.0158 16.3314 26.0691 15.7444C26.1223 15.1573 26.4483 14.7177 26.7997 14.7713C27.1511 14.825 27.3804 15.343 27.3271 15.9301Z" fill="#263238"/>
<path d="M20.3533 14.9618C20.3013 15.5567 19.9742 15.9884 19.6313 15.9421C19.2884 15.8958 19.0509 15.3705 19.1029 14.7757C19.1549 14.1808 19.4832 13.757 19.8261 13.8033C20.1691 13.8496 20.4197 14.4138 20.3533 14.9618Z" fill="#263238"/>
<path d="M20.0502 13.9009L18.7666 13.2905C18.7666 13.2905 19.3491 14.5595 20.0502 13.9009Z" fill="#263238"/>
<path d="M22.0759 16.1142C21.4733 17.3935 20.7161 18.5656 19.8225 19.6023C20.0806 19.8574 20.3826 20.0497 20.7054 20.1644C21.0282 20.2791 21.3631 20.3131 21.6844 20.2638L22.0759 16.1142Z" fill="#ED893E"/>
<path d="M37.5741 18.4366C37.2878 17.9836 36.8888 17.6027 36.4194 17.3343C35.95 17.0658 35.4277 16.9198 34.9079 16.9117C33.0553 16.8352 31.6912 17.621 28.1313 18.3866C24.5714 19.1522 21.355 17.4601 20.5303 17.4308C19.7056 17.4015 16.4625 17.6795 16.4625 17.6795C16.4625 17.6795 15.4234 25.8244 20.8015 29.9421C20.8015 29.9421 23.6182 31.1598 28.5104 29.4359C33.4026 27.7121 35.1849 23.8085 37.4557 22.3535C36.978 23.873 36.69 22.4654 35.5754 23.5773C34.4609 24.6893 32.5346 26.723 30.9927 27.2185C30.9927 27.2185 29.655 23.5935 29.6361 18.5787C29.6076 18.5723 35.4794 16.1036 37.5741 18.4366Z" fill="white"/>
<path d="M38.5892 21.6594C38.3038 22.2404 37.9036 22.7367 37.4144 23.1164C36.9253 23.496 36.3581 23.7507 35.7492 23.8639C34.2351 24.0726 33.6418 22.1062 34.2003 20.3119C34.6731 18.6687 36.1018 16.6331 37.5638 17.2646C39.0259 17.8961 39.3987 20.128 38.5892 21.6594Z" fill="#FFC3BD"/>
<path d="M29.17 13.3924C29.1271 13.3707 29.0878 13.3401 29.0545 13.3025C29.0212 13.2648 28.9946 13.2209 28.9764 13.1733C28.8024 12.728 28.5418 12.3216 28.2143 11.9848C27.8868 11.648 27.501 11.3895 27.086 11.2289C27.0426 11.2185 27.0008 11.1987 26.963 11.1707C26.9253 11.1427 26.8924 11.1071 26.8663 11.0661C26.8403 11.0251 26.8217 10.9795 26.8116 10.9322C26.8015 10.8848 26.8002 10.8367 26.8078 10.7908C26.8344 10.6993 26.8931 10.626 26.9719 10.5858C27.0508 10.5456 27.1438 10.5415 27.232 10.5743C27.7599 10.7669 28.2524 11.0861 28.6713 11.5073C29.0902 11.9285 29.4242 12.4403 29.6475 13.0029C29.6629 13.0491 29.6696 13.0973 29.6672 13.1444C29.6648 13.1916 29.6533 13.2366 29.6335 13.2767C29.6137 13.3168 29.586 13.3511 29.5522 13.3773C29.5184 13.4035 29.4792 13.4211 29.4371 13.4289C29.3498 13.449 29.2559 13.4362 29.17 13.3924Z" fill="#263238"/>
<path d="M17.9159 11.4332C17.874 11.4252 17.8331 11.4082 17.7955 11.383C17.7579 11.3579 17.7244 11.3251 17.6969 11.2867C17.6443 11.2018 17.6219 11.1004 17.6344 11.0045C17.6469 10.9087 17.6934 10.8262 17.7638 10.775C18.1772 10.43 18.6657 10.2044 19.1918 10.1154C19.7179 10.0264 20.2676 10.0764 20.7989 10.2615C20.8409 10.2788 20.8801 10.3057 20.9137 10.3403C20.9473 10.375 20.9746 10.4166 20.9937 10.4624C21.0128 10.5082 21.0233 10.5571 21.0244 10.6057C21.0255 10.6543 21.0173 10.7016 21.0002 10.7443C20.9691 10.8349 20.9079 10.9059 20.8283 10.9436C20.7487 10.9813 20.6563 10.9832 20.569 10.9487C20.1479 10.8048 19.7126 10.7687 19.297 10.8434C18.8814 10.9181 18.4967 11.1015 18.1728 11.3794C18.0997 11.4341 18.0079 11.4533 17.9159 11.4332Z" fill="#263238"/>
<path d="M27.0172 14.8699L25.7329 14.2592C25.7329 14.2592 26.3107 15.4965 27.0172 14.8699Z" fill="#263238"/>
<path d="M34.9403 38.3282C35.7167 38.3282 38.8225 38.3282 41.1519 39.1105C43.4812 39.8927 45.4665 43.3401 46.0907 46.6508C46.871 50.8926 47.0791 55.1861 46.9751 59.4797C46.819 64.0836 46.6109 68.6358 46.1948 73.2397C45.6225 78.7747 44.7902 84.3098 44.1139 89.8448C44.1139 89.8966 44.0619 89.8966 44.0099 90C41.2007 89.8966 38.3396 89.7414 35.4784 89.6379C36.2587 78.5678 37.039 67.4977 37.8194 56.4276C37.7153 56.4276 37.6113 56.4276 37.5072 56.4276C36.7269 67.4977 35.9986 78.5161 35.2183 89.6379C26.3227 89.2758 17.4271 88.9137 8.42742 88.4999C9.3638 79.1368 10.2482 69.8255 11.1845 60.4625C11.5487 60.8246 11.8608 61.0833 12.1729 61.3937C12.225 61.3937 12.277 61.4454 12.381 61.4454C12.381 61.3937 12.329 61.3419 12.329 61.2902C10.9765 59.8935 10.1961 58.2382 10.2482 56.2724C10.2482 55.8586 10.3522 55.393 10.5083 55.0309C11.3926 52.7031 12.277 50.427 13.1613 48.0992C13.1613 47.9957 13.2134 47.944 13.2134 47.8406C13.1613 47.8406 13.1613 47.8406 13.1093 47.8406C13.0573 47.8923 13.0573 47.9957 13.0053 48.0475C11.9649 50.4788 10.8204 52.8583 9.93604 55.3413C9.46785 56.6346 9.88402 58.0312 10.4562 59.3245C10.6123 59.6866 10.7164 60.1521 10.6643 60.566C10.0921 66.6701 9.46785 72.8258 8.89561 78.9299C8.58349 81.8785 8.32338 84.8271 8.01125 87.8274C8.01125 88.0343 7.95923 88.2929 7.90721 88.5516C5.30615 88.4481 2.7051 88.3447 0 88.1895C0.156063 86.9997 0.312127 85.8616 0.46819 84.7236C1.19649 79.7576 1.92478 74.7398 2.65308 69.7738C3.32935 65.1182 4.00563 60.5143 4.6819 55.8586C5.25413 52.0306 4.92865 48.0745 6.34658 44.3747C7.7645 40.6749 9.94588 39.351 11.1845 38.8397C12.4232 38.3283 17.8584 37.7534 20.8085 37.7533C21.0165 37.9085 21.0966 38.046 20.9642 38.3282C20.2359 39.8801 20.4963 41.3744 20.9645 43.0815C21.5888 45.2541 23.3055 46.6508 25.3343 46.6508C27.2591 46.6508 28.7677 45.7714 30.1202 44.5299C31.7849 43.0297 33.3874 40.5526 33.3874 38.3282C33.3874 38.3282 34.1638 38.3282 34.9403 38.3282ZM13.0053 62.0144C13.0573 62.0144 13.1093 62.0661 13.1613 62.0661C13.1093 62.0144 13.1093 62.0144 13.0053 62.0144C13.0053 61.9109 12.9012 61.8592 12.8492 61.8075C12.7452 61.7558 12.6411 61.6523 12.5891 61.6006C12.5371 61.5488 12.4851 61.5488 12.4331 61.4971C12.4331 61.5488 12.4331 61.6006 12.4331 61.704C12.5371 61.7558 12.6411 61.8592 12.7452 61.9109C12.8492 61.9109 12.9533 61.9627 13.0053 62.0144ZM37.6633 56.2207H37.7153C37.7153 55.8069 37.7153 55.4448 37.7153 55.0309H37.6633C37.6633 55.4448 37.6633 55.8069 37.6633 56.2207ZM13.3694 62.2213C13.4215 62.1696 13.3694 62.1696 13.3694 62.1696C13.3694 62.1696 13.3174 62.1696 13.3694 62.2213Z" fill="#72AAFF"/>
<path d="M119.251 37.3731C122.427 40.265 130.841 39.1065 130.841 39.1065C130.841 39.1065 135.7 37.7686 134.68 36.2478C131.82 35.7741 130.435 34.4362 129.863 32.7243C129.55 31.6632 129.451 30.55 129.573 29.4501C129.62 28.8368 129.701 28.2266 129.813 27.6219L120.196 20.4835C121.456 25.1953 122.361 33.9576 119.251 37.3731Z" fill="#E4897B"/>
<path opacity="0.2" d="M122.419 25.0208C122.8 30.8379 127.542 32.4002 129.88 32.7243C129.567 31.6632 129.468 30.55 129.59 29.4501L122.419 25.0208Z" fill="black"/>
<path d="M139.911 7.09585C139.911 7.09585 141.346 16.3783 136.446 19.9683C131.546 23.5582 131.471 6.26483 131.471 6.26483L139.911 7.09585Z" fill="#263238"/>
<path d="M122.195 27.3892C123.227 28.9161 124.733 30.0599 126.478 30.6442C128.224 31.2284 130.113 31.2206 131.854 30.6218C134.124 29.8994 136.032 28.332 137.185 26.2424C137.349 25.9537 137.498 25.657 137.632 25.3532C140.028 19.6691 140.775 9.74676 134.772 6.04043C133.451 5.21779 131.943 4.74718 130.39 4.6733C128.837 4.59943 127.291 4.92474 125.899 5.61834C124.506 6.31194 123.314 7.3508 122.435 8.63624C121.556 9.92168 121.019 11.411 120.876 12.9628C120.155 19.6026 119.426 23.4751 122.195 27.3892Z" fill="#E4897B"/>
<path d="M130.535 16.4863C130.402 17.0099 130.651 17.5002 131.008 17.5583C131.364 17.6165 131.712 17.2259 131.837 16.7273C131.961 16.2287 131.712 15.7052 131.364 15.647C131.016 15.5888 130.626 15.9378 130.535 16.4863Z" fill="#263238"/>
<path d="M136.579 17.5001C136.455 18.0237 136.704 18.514 137.052 18.5722C137.4 18.6303 137.757 18.2397 137.881 17.7411C138.005 17.2425 137.757 16.719 137.408 16.6691C137.06 16.6193 136.662 16.9932 136.579 17.5001Z" fill="#263238"/>
<path d="M134.614 17.4421C134.979 19.1777 135.579 20.8552 136.397 22.4282C135.986 22.6287 135.537 22.737 135.08 22.7456C134.623 22.7543 134.17 22.6629 133.752 22.478L134.614 17.4421Z" fill="#DE5753"/>
<path d="M139.249 15.2897C139.194 15.3078 139.135 15.3113 139.079 15.2996C139.022 15.2879 138.969 15.2616 138.926 15.2232C138.633 14.9519 138.281 14.7528 137.899 14.6417C137.516 14.5307 137.112 14.5107 136.72 14.5833C136.638 14.6063 136.55 14.5956 136.475 14.5535C136.4 14.5115 136.346 14.4415 136.322 14.3589C136.304 14.2775 136.317 14.1922 136.358 14.1198C136.4 14.0475 136.467 13.9934 136.546 13.9683C137.04 13.8654 137.552 13.8825 138.038 14.0185C138.524 14.1544 138.971 14.405 139.34 14.7495C139.372 14.7753 139.399 14.8073 139.419 14.8436C139.438 14.8799 139.45 14.9198 139.454 14.9609C139.458 15.002 139.454 15.0435 139.441 15.0828C139.429 15.1222 139.408 15.1586 139.382 15.1899C139.341 15.228 139.297 15.2614 139.249 15.2897Z" fill="#263238"/>
<path d="M129.739 13.8521C129.68 13.8351 129.626 13.8037 129.581 13.7607C129.559 13.7254 129.543 13.6858 129.536 13.6444C129.528 13.603 129.529 13.5605 129.539 13.5195C129.548 13.4785 129.565 13.4397 129.59 13.4055C129.614 13.3713 129.645 13.3423 129.681 13.3203C130.108 13.0504 130.594 12.8869 131.097 12.8436C131.601 12.8002 132.107 12.8782 132.574 13.0709C132.612 13.0887 132.646 13.1139 132.674 13.1449C132.702 13.1759 132.724 13.2122 132.737 13.2516C132.751 13.291 132.757 13.3328 132.755 13.3746C132.753 13.4163 132.742 13.4572 132.724 13.4948C132.685 13.5703 132.618 13.6278 132.538 13.6557C132.458 13.6835 132.37 13.6794 132.293 13.6443C131.92 13.5004 131.518 13.4464 131.121 13.4868C130.723 13.5273 130.341 13.6609 130.004 13.877C129.916 13.9002 129.822 13.8914 129.739 13.8521Z" fill="#263238"/>
<path d="M133.055 24.1316C132.591 24.8376 132.178 25.5764 131.82 26.3421L131.397 26.2257C129.457 25.6523 128.744 24.7465 128.545 23.9155C128.448 23.5085 128.448 23.0843 128.545 22.6773C128.6 22.4476 128.686 22.2267 128.802 22.0208C129.843 22.9054 131.062 23.5545 132.375 23.9238C132.806 24.0651 133.055 24.1316 133.055 24.1316Z" fill="#263238"/>
<path d="M132.4 23.9238L132.019 24.572C130.195 24.0319 128.985 23.4003 128.57 22.6773C128.625 22.4476 128.712 22.2267 128.827 22.0208C129.868 22.9054 131.087 23.5545 132.4 23.9238Z" fill="white"/>
<path d="M131.397 26.2259C129.457 25.6525 128.744 24.7467 128.545 23.9157C129.279 24.1429 129.964 24.5034 130.568 24.9794C130.968 25.2972 131.258 25.7334 131.397 26.2259Z" fill="#DE5753"/>
<path d="M127.078 8.52524C127.078 8.52524 141.811 13.5695 140.111 3.61395C140.111 3.61395 132.16 -1.08128 125.229 0.231722C118.298 1.54472 118.837 8.74131 118.837 8.74131L127.078 8.52524Z" fill="#263238"/>
<path d="M127.061 5.54199V8.5004C126.539 8.67788 126.104 9.04594 125.841 9.53114C125.578 10.0163 125.508 10.583 125.643 11.1181C126.29 13.6859 124.449 17.3341 122.385 18.5972C122.385 18.5972 122.451 17.5335 121.556 17.6748C120.66 17.8161 120.221 23.3922 121.655 26.2426C121.655 26.2426 119.301 23.5418 118.497 17.5418C117.75 11.9907 118.115 7.48657 119.467 5.54199H127.061Z" fill="#263238"/>
<path d="M139.191 19.4946C139.191 19.4946 137.607 21.2314 135.8 20.3256C133.992 19.4198 131.157 20.2674 129.996 20.1012C125.975 19.5361 122.535 12.5307 120.578 15.863C120.578 15.863 120.901 12.9545 126.68 19.3118C126.68 19.3118 126.332 25.0125 123.463 25.6524C121.548 23.0134 120.431 19.8774 120.246 16.6193C120.064 20.2795 121.206 23.8827 123.463 26.7659C128.885 33.4639 135.228 31.1952 135.228 31.1952C135.228 31.1952 140.194 28.5859 139.191 19.4946Z" fill="#407BFF"/>
<path d="M117.104 17.8825C117.34 18.6801 117.732 19.4232 118.255 20.0691C118.779 20.7151 119.424 21.2512 120.155 21.647C122.111 22.7024 123.571 21.057 123.43 18.9462C123.289 17.0764 122.12 14.2177 119.956 14.0598C117.792 13.9019 116.54 15.8964 117.104 17.8825Z" fill="#E4897B"/>
<path d="M147.913 42.4349C146.078 37.0883 141.319 36.2812 134.471 36.2812C134.471 36.2812 133.71 38.1358 128.383 38.1358C123.056 38.1358 120.013 36.2812 120.013 36.2812C120.013 36.2812 116.208 35.848 113.925 36.6103C111.642 37.3727 109.779 40.0643 108.759 42.9898C107.586 46.2179 107.178 49.6479 107.076 53.0274C106.975 56.306 106.975 59.635 107.076 62.9136C107.178 66.1922 107.382 69.4708 107.739 72.699C108.249 77.2386 108.861 81.7782 109.422 86.2674C109.575 87.4779 109.779 88.7388 109.982 89.9997L109.982 90C112.939 89.8487 115.896 89.7478 118.802 89.5965V88.8399C118.751 88.4363 118.751 88.0328 118.7 87.6293C118.446 85.0064 118.242 82.3835 118.038 79.7606C117.732 75.4228 117.426 71.0849 117.12 66.6966C116.865 62.7119 116.661 58.7775 116.406 54.8432V54.8432C116.406 54.7423 116.406 54.6919 116.508 54.591L116.508 54.591C116.61 55.4989 116.712 56.4069 116.763 57.3148C117.12 61.8544 117.477 66.3436 117.783 70.8327C118.191 76.1794 118.497 81.4756 118.853 86.8223V87.6797C118.853 88.0833 118.904 88.4868 118.904 88.8903C118.955 89.1425 118.955 89.3947 119.006 89.6469C121.301 89.546 123.646 89.4956 125.94 89.3947L140.623 88.7894C142.56 88.6885 144.498 88.6381 146.486 88.5372C146.486 88.2346 146.486 87.9319 146.435 87.6797C146.129 84.7542 145.874 81.7782 145.568 78.8527C144.956 72.9008 144.396 66.9993 143.784 61.0473L143.631 59.5341C143.631 59.4333 143.733 59.3828 143.784 59.2819C143.835 59.3324 143.988 59.3828 143.988 59.4837C144.039 59.7863 144.039 60.0385 144.09 60.3412C144.447 63.872 144.753 67.3524 145.109 70.8327C145.568 75.6245 146.078 80.4668 146.537 85.2586C146.639 86.3683 146.792 87.478 146.894 88.5877C149.596 88.4868 152.298 88.3355 155 88.2346V88.0328C154.439 84.4011 153.929 80.7694 153.369 77.1377C152.553 71.8415 151.788 66.5453 150.972 61.2491C150.208 56.4573 149.545 51.6655 148.78 46.8737C148.576 45.3605 148.372 43.8473 147.913 42.4349Z" fill="#1E6FE9"/>
<path d="M100.354 55.3536C100.549 55.1583 100.549 54.8417 100.354 54.6464L97.1716 51.4645C96.9763 51.2692 96.6597 51.2692 96.4645 51.4645C96.2692 51.6597 96.2692 51.9763 96.4645 52.1716L99.2929 55L96.4645 57.8284C96.2692 58.0237 96.2692 58.3403 96.4645 58.5355C96.6597 58.7308 96.9763 58.7308 97.1716 58.5355L100.354 55.3536ZM88 55.5L100 55.5L100 54.5L88 54.5L88 55.5Z" fill="black"/>
<path d="M51.6464 54.6464C51.4512 54.8417 51.4512 55.1583 51.6464 55.3536L54.8284 58.5355C55.0237 58.7308 55.3403 58.7308 55.5355 58.5355C55.7308 58.3403 55.7308 58.0237 55.5355 57.8284L52.7071 55L55.5355 52.1716C55.7308 51.9763 55.7308 51.6597 55.5355 51.4645C55.3403 51.2692 55.0237 51.2692 54.8284 51.4645L51.6464 54.6464ZM64 54.5H52V55.5H64V54.5Z" fill="black"/>
</svg>
