<svg viewBox="0 0 192 86" fill="none" xmlns="http://www.w3.org/2000/svg">
<g clip-path="url(#clip0)">
<path d="M173.4 41.2766C178.962 37.1834 184.438 40.6734 186.003 45.2405C186.394 46.4469 186.568 47.7395 186.742 49.0321C187.393 53.1253 187.958 57.2185 188.61 61.3117C189.306 65.8357 189.957 70.3598 190.653 74.8838C191.131 77.986 191.565 81.0882 192.043 84.1904C192.043 84.2335 192.043 84.2766 192.043 84.3628C189.74 84.4489 187.437 84.5782 185.134 84.6644C185.047 83.7165 184.916 82.7686 184.829 81.8207C184.438 77.7275 184.004 73.5912 183.613 69.498C183.308 66.5251 183.048 63.5521 182.743 60.5361C182.7 60.2776 182.7 60.0622 182.656 59.8037C182.656 59.7175 182.526 59.6744 182.483 59.6313C182.439 59.7175 182.352 59.7606 182.352 59.8467C182.396 60.2776 182.439 60.7085 182.483 61.1393C183.004 66.2235 183.482 71.2646 184.004 76.3487C184.264 78.8477 184.482 81.3898 184.742 83.8888C184.786 84.1042 184.786 84.3628 184.786 84.6213C183.091 84.7075 181.44 84.7505 179.788 84.8367C175.616 85.0091 171.444 85.1814 167.272 85.3538C165.316 85.4399 163.317 85.483 161.362 85.5692C161.318 85.3538 161.318 85.1383 161.275 84.9229C161.275 84.5782 161.231 84.2335 161.231 83.8888C161.231 83.6303 161.231 83.4149 161.231 83.1564C160.927 78.5892 160.666 74.0652 160.319 69.498C160.058 65.6634 159.754 61.8287 159.45 57.9509C159.406 57.1754 159.319 56.3998 159.232 55.6243C159.145 55.7105 159.145 55.7536 159.145 55.8397C159.363 59.2004 159.536 62.5612 159.754 65.965C160.014 69.7135 160.275 73.4189 160.536 77.1243C160.71 79.3648 160.884 81.6053 161.101 83.8457C161.144 84.1904 161.144 84.5351 161.188 84.8798C161.188 85.0952 161.188 85.3107 161.188 85.5261C158.711 85.6554 156.19 85.7415 153.67 85.8708C153.496 84.7936 153.322 83.7165 153.191 82.6824C152.713 78.8477 152.192 74.97 151.757 71.0922C151.453 68.3347 151.279 65.5341 151.192 62.7335C151.105 59.9329 151.105 57.0892 151.192 54.2886C151.279 51.4019 151.627 48.472 152.627 45.7145C153.496 43.2155 155.104 41.3197 157.45 40.0271C158.841 39.2516 160.362 39.2516 161.796 39.984C162.448 40.2856 163.057 40.6734 163.708 41.0612C163.491 42.1383 163.622 43.1724 164.056 44.1203C165.012 46.2315 166.837 47.3087 169.01 47.7826C170.618 48.1273 172.053 47.6964 173.139 46.49C174.269 45.1974 174.486 43.6463 173.878 42.0091C173.617 41.8367 173.53 41.5782 173.4 41.2766Z" fill="#00A588"/>
<path d="M26.727 41.0612C29.4215 39.1654 31.6813 38.0882 34.8103 40.8457C36.9833 42.7415 37.9828 45.1974 38.5043 47.955C39.1562 51.488 39.33 55.0642 39.2431 58.6403C39.1127 62.475 38.9389 66.2666 38.5912 70.1012C38.1132 74.7115 37.4178 79.3217 36.8529 83.9319C36.8529 83.975 36.8094 83.975 36.766 84.0612C34.4192 83.975 32.029 83.8457 29.6388 83.7596C30.2906 74.5391 30.9425 65.3187 31.5944 56.0982C31.5075 56.0982 31.4206 56.0982 31.3336 56.0982C30.6818 65.3187 30.0733 74.496 29.4215 83.7596C21.99 83.458 14.5586 83.1564 7.04029 82.8117C7.82255 75.0131 8.56134 67.2576 9.34359 59.459C9.64781 59.7606 9.90856 59.976 10.1693 60.2345C10.2128 60.2345 10.2562 60.2776 10.3431 60.2776C10.3431 60.2345 10.2997 60.1914 10.2997 60.1483C9.16976 58.985 8.51788 57.6063 8.56134 55.969C8.56134 55.6243 8.64826 55.2365 8.77863 54.9349C9.51743 52.996 10.2562 51.1002 10.995 49.1614C10.995 49.0752 11.0385 49.0321 11.0385 48.9459C10.995 48.9459 10.995 48.9459 10.9516 48.9459C10.9081 48.989 10.9081 49.0752 10.8646 49.1183C9.99547 51.1433 9.03938 53.1253 8.30059 55.1934C7.90946 56.2706 8.25713 57.4339 8.73518 58.5111C8.86555 58.8127 8.95247 59.2004 8.90901 59.5451C8.43096 64.6293 7.90946 69.7566 7.43142 74.8407C7.17067 77.2966 6.95337 79.7525 6.69262 82.2515C6.69262 82.4239 6.64916 82.6393 6.6057 82.8548C4.43278 82.7686 2.25985 82.6824 0 82.5532C0.130376 81.5622 0.260751 80.6143 0.391127 79.6664C0.999547 75.5301 1.60797 71.3507 2.21639 67.2145C2.78135 63.3367 3.34631 59.502 3.91127 55.6243C4.38932 52.4359 4.86736 49.2475 5.30195 46.0592C5.73653 42.7846 8.56134 39.7255 11.8207 39.1654C13.8633 38.8207 15.6885 39.4239 17.3834 40.5441C17.5573 40.6734 17.7311 40.8026 17.9484 40.9319C17.34 42.2245 17.1227 43.5602 17.5138 44.982C18.0353 46.7916 19.4694 47.955 21.1643 47.955C22.7723 47.955 24.0326 47.2225 25.1625 46.1884C26.5532 44.9389 27.0747 43.3016 27.0747 41.4489C27.1182 41.2766 27.0747 41.0181 26.727 41.0612ZM10.8646 60.7515C10.9081 60.7515 10.9516 60.7946 10.995 60.7946C10.9516 60.7515 10.9516 60.7515 10.8646 60.7515C10.8646 60.6654 10.7777 60.6223 10.7343 60.5792C10.6474 60.5361 10.5604 60.4499 10.517 60.4069C10.4735 60.3638 10.4301 60.3638 10.3866 60.3207C10.3866 60.3638 10.3866 60.4069 10.3866 60.493C10.4735 60.5361 10.5604 60.6223 10.6474 60.6654C10.7343 60.6654 10.8212 60.7085 10.8646 60.7515ZM31.464 55.9259H31.5075C31.5075 55.5812 31.5075 55.2796 31.5075 54.9349H31.464C31.464 55.2796 31.464 55.5812 31.464 55.9259ZM11.1689 60.9239C11.1689 60.9239 11.1689 60.8808 11.1689 60.9239C11.2123 60.8808 11.1689 60.8808 11.1689 60.8808C11.1689 60.8808 11.1254 60.8808 11.1689 60.9239C11.1254 60.9239 11.1689 60.9239 11.1689 60.9239Z" fill="#00A588"/>
<path d="M33.8109 21.8446C33.6805 21.6723 33.5936 21.4569 33.4632 21.2414C32.1595 22.017 30.8557 22.7925 29.5954 23.5681C29.465 23.6542 29.2912 23.6973 29.1173 23.7835C29.1173 23.6112 29.1173 23.4819 29.1173 23.3096C28.9435 20.0781 28.7697 16.8466 28.5524 13.6152C28.5089 13.012 28.4655 12.4518 28.422 11.8486C28.2047 11.9348 28.0309 12.021 27.857 12.1072C24.25 13.1843 20.6429 14.2615 16.9924 15.3386C14.1241 16.2003 11.2993 17.0621 8.43106 17.9238C8.17031 15.5971 8.3876 13.3997 9.77828 11.3747C11.2124 9.26347 13.2115 7.9278 15.6017 7.06607C17.9485 6.24744 20.3387 6.03201 22.7724 6.29052C23.0766 6.33361 23.2504 6.24744 23.4243 5.94583C25.8145 1.98191 29.4216 -0.0431452 34.0282 -5.90543e-05C38.5913 0.0430271 42.1549 2.06808 44.4148 6.032C47.5003 11.5039 45.1101 18.4408 39.2432 21.1983C37.5918 21.9739 35.8969 22.3617 34.0716 22.3617C33.9847 22.1893 33.8978 22.017 33.8109 21.8446ZM29.0304 11.4178C28.987 11.4609 28.9435 11.4609 28.9001 11.5039C28.8566 11.547 28.8131 11.547 28.7697 11.5901C28.7697 11.6332 28.7262 11.6763 28.7262 11.7194C28.7697 11.7194 28.8131 11.6763 28.8566 11.6763C28.9001 11.6332 28.9001 11.5901 28.9435 11.547C28.987 11.4609 28.987 11.4178 29.0304 11.4178C29.0739 11.3747 29.1173 11.3316 29.1173 11.3316C29.1173 11.2885 29.1608 11.2885 29.1608 11.2454C29.1608 11.2885 29.1173 11.2885 29.1173 11.3316C29.1173 11.3316 29.0739 11.3747 29.0304 11.4178Z" fill="#2B2D2B"/>
<path d="M161.449 22.8358C159.971 21.974 158.493 21.0692 157.016 20.2075C156.885 20.3798 156.755 20.5091 156.581 20.7245C155.625 19.5181 155.06 18.1825 154.799 16.7175C154.104 12.8398 155.929 9.69447 159.623 8.31572C159.797 8.22954 159.971 8.14337 160.145 8.01411C163.274 5.2566 167.011 4.22253 171.14 4.43796C173.53 4.56722 175.79 5.17043 177.876 6.29067C180.005 7.45399 181.57 9.13435 182.613 11.2887C183.178 12.452 183.221 13.7015 183.265 14.951C183.265 15.468 183.221 16.0281 183.221 16.5452C183.048 16.5021 182.83 16.5021 182.656 16.459C180.005 15.6835 177.354 14.9079 174.703 14.0893C171.357 13.0983 168.011 12.1504 164.708 11.1163C163.752 10.8147 162.622 10.7285 161.883 9.9099C161.709 9.78065 161.536 9.65139 161.362 9.47904C161.318 9.43596 161.275 9.39287 161.275 9.39287C161.231 9.34978 161.188 9.3067 161.188 9.3067C161.144 9.26361 161.101 9.22053 161.101 9.22053C161.057 9.17744 161.014 9.13435 160.971 9.09127V9.04818C160.971 9.04818 160.971 9.04818 160.927 9.04818C160.927 9.04818 160.927 9.04818 160.971 9.09127C161.014 9.13435 161.057 9.17744 161.101 9.22053C161.144 9.26361 161.188 9.3067 161.188 9.3067C161.231 9.34978 161.275 9.39287 161.275 9.39287C161.318 9.43596 161.362 9.47904 161.362 9.47904C161.492 9.65139 161.666 9.82373 161.796 9.99608C162.187 10.2977 162.274 10.7285 162.231 11.2025C162.144 12.1504 162.1 13.0983 162.014 14.0893C161.883 16.2005 161.796 18.3548 161.666 20.466C161.579 21.2847 161.492 22.0602 161.449 22.8358Z" fill="#2F2E41"/>
<path d="M161.449 22.8356C161.536 22.0601 161.579 21.2845 161.666 20.4659C161.796 18.3547 161.883 16.2004 162.014 14.0891C162.057 13.1412 162.144 12.1934 162.231 11.2024C162.274 10.7284 162.188 10.3406 161.796 9.99596C161.84 9.95287 161.883 9.90979 161.927 9.8667C162.666 10.6853 163.752 10.7715 164.752 11.0731C168.098 12.1072 171.401 13.0551 174.747 14.0461C177.398 14.8216 180.049 15.6402 182.7 16.4158C182.874 16.4589 183.091 16.4589 183.265 16.502C183.004 19.4749 182.743 22.4909 182.439 25.5932C180.266 24.3006 177.963 23.525 175.573 23.2234C175.269 21.9308 175.008 20.6813 174.704 19.3457C174.53 19.4318 174.443 19.4749 174.486 19.4749C174.704 20.7244 174.964 21.9739 175.182 23.1803C171.922 22.8787 168.837 23.525 165.925 24.9899C165.621 25.1192 165.403 25.1623 165.143 24.9899C163.839 24.3006 162.622 23.5681 161.449 22.8356ZM175.92 17.7946C175.964 17.8376 176.007 17.9238 176.051 17.9669C176.181 17.8807 176.312 17.7946 176.398 17.7084C177.311 16.5451 178.745 16.502 179.658 17.7084C179.745 17.7946 179.919 17.8376 180.006 17.9238C179.962 17.7946 180.006 17.5791 179.919 17.493C179.441 16.7605 178.702 16.4158 177.833 16.502C176.92 16.5451 176.312 17.0621 175.92 17.7946ZM166.49 17.493C166.577 17.493 166.62 17.493 166.707 17.536C167.75 16.028 168.967 15.9849 170.184 17.4068C170.227 17.493 170.401 17.4499 170.662 17.536C170.488 17.2775 170.401 17.1052 170.314 17.019C169.402 15.7695 167.533 15.7695 166.62 17.019C166.533 17.1052 166.533 17.3206 166.49 17.493ZM169.271 19.9058C169.141 19.8196 168.924 19.5611 168.663 19.518C168.272 19.4749 168.054 19.7334 168.011 20.1212C168.011 20.509 168.272 20.7244 168.619 20.7244C169.054 20.6813 169.228 20.4659 169.271 19.9058ZM178.658 20.6382C178.615 20.3366 178.441 20.0781 178.05 20.0781C177.659 20.0781 177.441 20.3366 177.441 20.6813C177.441 21.026 177.659 21.2845 178.05 21.2845C178.354 21.3276 178.615 21.1122 178.658 20.6382Z" fill="#CCF6EF"/>
<path d="M8.47437 17.9238C11.3426 17.0621 14.1674 16.2003 17.0357 15.3386C20.6428 14.2615 24.2498 13.1843 27.9003 12.1071C28.0742 12.0641 28.248 11.9779 28.4653 11.8486C28.5088 12.4518 28.5522 13.055 28.5957 13.6152C28.7695 16.8466 28.9434 20.0781 29.1606 23.3096C29.1606 23.4819 29.1606 23.6112 29.1606 23.7835C27.9873 24.516 26.7704 25.2484 25.597 25.9809C25.5101 26.024 25.2928 26.024 25.1625 25.9809C22.5549 24.6452 19.7736 24.0851 16.8619 24.0851C17.0792 23.9128 17.3399 23.7404 17.5137 23.525C18.0787 22.9218 18.0353 22.2324 17.4703 21.5861C17.4268 21.7154 17.3399 21.8446 17.3834 21.9308C17.6441 22.9649 17.5137 23.2665 16.5577 23.8266C16.4273 23.9128 16.3838 24.042 16.2969 24.1713C13.9501 24.3436 11.8207 25.0761 9.77812 26.1963C9.64775 26.2825 9.51737 26.3256 9.34354 26.4118C9.21316 25.2053 9.03933 23.9558 8.90895 22.7494C8.73512 21.1552 8.60474 19.518 8.47437 17.9238ZM15.2974 19.1733C15.3408 19.1302 15.3408 19.0871 15.3843 19.0009C15.0366 18.2685 14.4282 17.7945 13.6025 17.7084C12.7333 17.6222 12.038 18.01 11.5165 18.7424C11.473 18.8286 11.473 19.0009 11.473 19.0871C11.6034 19.044 11.7338 19.0009 11.8207 18.9148C12.7333 17.7945 14.0371 17.7945 14.9062 18.9148C14.9932 19.044 15.167 19.0871 15.2974 19.1733ZM22.4246 17.2775C21.6423 17.3206 21.0339 17.6653 20.5993 18.3116C20.5559 18.3977 20.5993 18.527 20.5558 18.6562C20.6862 18.6132 20.8166 18.5701 20.8601 18.4839C21.5119 17.3637 23.2937 17.3206 23.9891 18.4839C24.0325 18.5701 24.2064 18.5701 24.2933 18.6562C24.2933 18.527 24.3367 18.3977 24.2498 18.3116C23.9022 17.6653 23.2937 17.3206 22.4246 17.2775ZM12.6898 21.5861C12.6898 21.6723 12.6898 21.7585 12.6898 21.8446C12.9071 22.017 13.081 22.2755 13.3417 22.3617C13.6894 22.4478 13.9501 22.1893 13.9936 21.8446C14.0371 21.4999 13.7763 21.1983 13.4721 21.2414C13.1679 21.1983 12.9506 21.4138 12.6898 21.5861ZM22.9026 21.2414C22.9026 20.8536 22.7288 20.6382 22.3811 20.5951C21.99 20.552 21.7727 20.7675 21.7727 21.1552C21.7727 21.4999 21.99 21.7154 22.3377 21.7585C22.6853 21.7585 22.8592 21.5861 22.9026 21.2414Z" fill="#CCF6EF"/>
<path d="M173.4 41.2765C173.487 41.535 173.574 41.8366 173.704 42.0951C174.356 43.7324 174.095 45.2835 172.965 46.5761C171.879 47.8256 170.445 48.2134 168.837 47.8687C166.62 47.3947 164.838 46.3176 163.882 44.2064C163.448 43.2585 163.274 42.2244 163.535 41.1472C163.839 41.2334 164.1 41.3627 164.447 41.4919C164.143 38.7775 163.839 36.1493 163.535 33.521C163.708 33.6072 163.882 33.6933 164.056 33.8226C164.491 34.0811 164.969 34.3827 165.403 34.6412C165.447 34.6843 165.49 34.7274 165.534 34.7705C166.968 35.8907 168.75 36.1923 170.445 36.6232C171.531 36.9248 171.531 36.8817 171.792 38.002C172.009 39.1653 172.226 40.2855 172.487 41.4488C172.791 41.4058 173.096 41.3196 173.4 41.2765Z" fill="#CCF6EF"/>
<path d="M58.8429 50.1522C58.8429 51.1432 58.8429 52.048 58.8429 53.039C55.4531 51.6172 52.1068 50.1953 48.6736 48.7735C52.1068 47.3516 55.4097 45.9729 58.7994 44.551C58.7994 45.542 58.7994 46.4468 58.7994 47.3947C62.1023 47.3947 65.3182 47.3947 68.5776 47.3947C68.5776 48.3426 68.5776 49.2474 68.5776 50.1953C65.3182 50.1522 62.1023 50.1522 58.8429 50.1522Z" fill="#00A588"/>
<path d="M142.501 48.1272C139.067 49.5491 135.765 50.9709 132.375 52.3927C132.375 51.4018 132.375 50.497 132.375 49.5491C132.114 49.5491 131.94 49.5491 131.766 49.5491C128.898 49.5491 126.03 49.5491 123.162 49.5491C122.727 49.5491 122.553 49.4629 122.553 48.9889C122.597 48.2565 122.553 47.5671 122.553 46.7916C125.813 46.7916 129.072 46.7916 132.331 46.7916C132.331 45.8437 132.331 44.9389 132.331 43.9048C135.765 45.3266 139.111 46.7054 142.501 48.1272Z" fill="#00A588"/>
<path d="M161.449 23.8698C162.579 24.5592 163.709 25.2916 164.752 25.8948C164.534 27.7044 164.317 29.4279 164.056 31.2375C162.883 31.2806 161.84 30.8497 160.884 30.0311C160.71 29.9018 160.449 29.7726 160.232 29.7726C158.276 29.8157 157.233 28.6093 156.538 27.0151C155.669 24.9469 155.799 22.8357 156.668 20.7676C157.581 21.3277 158.45 21.9309 159.319 22.491C159.363 22.5341 159.406 22.5772 159.45 22.6634C159.623 23.3958 159.797 24.1283 159.971 24.9038C161.623 24.6453 161.275 24.8608 161.449 23.8698Z" fill="#CCF6EF"/>
<path d="M26.7271 41.061C27.0748 41.0179 27.1182 41.2334 27.1182 41.4919C27.1182 43.3015 26.5967 44.9388 25.206 46.2314C24.0761 47.2654 22.8158 47.9979 21.2079 47.9979C19.513 47.9979 18.0788 46.8346 17.5573 45.025C17.1662 43.6031 17.3835 42.2674 17.9919 40.9749C18.2527 41.061 18.5134 41.1041 18.7742 41.1903C18.9046 41.2765 19.0784 41.4488 19.2088 41.4919C19.9476 41.6642 20.7298 41.8797 21.4686 41.9658C23.207 42.1382 24.9018 41.9658 26.5098 41.2334C26.5967 41.1472 26.6836 41.1041 26.7271 41.061Z" fill="#393939"/>
<path d="M33.8109 21.8447C33.8978 22.0171 33.9847 22.1894 34.0282 22.4048C34.1586 23.0511 34.3324 23.6974 34.3759 24.3868C34.5497 26.1533 34.202 27.7906 33.0721 29.2125C32.4202 30.0311 31.5945 30.5481 30.4646 30.505C30.1604 30.505 29.8996 30.5912 29.6389 30.8066C28.8132 31.5822 27.6398 31.97 26.5533 31.9269C26.5098 31.1513 26.5098 30.3758 26.3795 29.6002C26.2926 28.8247 26.1187 28.0922 25.9449 27.3167C25.9014 27.0582 25.9014 26.8858 26.1622 26.7135C27.1617 26.1103 28.1613 25.464 29.1608 24.8608C29.1608 25.7225 29.465 25.8948 30.508 25.8087C30.6819 25.0762 30.8992 24.3868 31.073 23.6974C32.0291 23.0081 32.9417 22.4048 33.8109 21.8447Z" fill="#CCF6EF"/>
<path d="M26.5533 41.1904C24.9453 41.9228 23.2504 42.1383 21.5121 41.9228C20.7298 41.8367 19.991 41.6212 19.2522 41.4489C19.0784 41.4058 18.948 41.2765 18.8176 41.1473C19.0784 39.8547 19.3391 38.6052 19.5999 37.3126C19.6433 37.2264 19.6868 37.1403 19.7303 37.0972C21.1644 36.7094 22.642 36.3647 24.0327 35.8908C24.5976 35.7184 25.0322 35.2876 25.5537 34.9429C25.7275 34.8998 25.9014 34.8567 26.0318 34.7274C26.4663 34.4689 26.8575 34.1673 27.2486 33.8657C26.9878 36.02 26.7705 38.1743 26.5098 40.3717C26.4663 40.5872 26.5533 40.8026 26.5967 41.018C26.5533 41.1473 26.5533 41.1473 26.5533 41.1904Z" fill="#CCF6EF"/>
<path d="M171.922 37.0541C179.571 38.8637 184.091 32.2716 182.569 26.1102C182.917 25.8948 182.917 26.1964 182.961 26.4118C183.352 28.5231 183.221 30.5912 182.352 32.5732C180.57 36.6233 176.616 38.3898 172.183 37.4419C172.053 37.3988 171.966 37.2696 171.835 37.1834C171.835 37.1403 171.879 37.0972 171.922 37.0541Z" fill="#3D3E3C"/>
<path d="M19.6868 37.1402C19.6433 37.2264 19.5999 37.3125 19.5564 37.3556C18.6438 37.4418 17.6877 37.5711 16.7751 37.5711C13.0376 37.4849 10.039 34.9859 9.12636 31.3236C8.77869 29.8586 8.69177 28.3506 9.03944 26.8857C9.0829 26.7134 9.21328 26.5841 9.30019 26.4548C9.34365 26.5841 9.38711 26.7564 9.38711 26.8857C8.90907 29.6432 9.34365 32.1853 11.1255 34.4258C12.9073 36.6663 15.3409 37.4418 18.1223 37.2264C18.5569 37.1833 18.9915 37.0971 19.3826 37.0109C19.4695 36.9679 19.5564 37.0971 19.6868 37.1402Z" fill="#3D3E3C"/>
<path d="M165.403 34.6413C164.969 34.3828 164.491 34.0812 164.056 33.8226C163.882 33.7365 163.708 33.6072 163.534 33.521C163.274 33.2625 163.056 33.004 162.796 32.7455C162.405 32.3577 162.013 31.9268 161.579 31.5391C162.448 31.6252 163.23 31.7114 164.056 31.8407C164.143 31.8407 164.273 32.0561 164.317 32.1423C164.447 33.0902 164.838 33.9088 165.403 34.6413Z" fill="#CCF6EF"/>
<path d="M27.2051 33.952C26.814 34.2536 26.3794 34.5121 25.9883 34.8137C25.8579 34.8999 25.6841 34.9429 25.5103 35.0291C25.9883 34.3397 26.336 33.5642 26.4663 32.7455C26.4663 32.6594 26.5967 32.487 26.6836 32.4439C27.4224 32.3578 28.1612 32.2716 29.0739 32.1423C28.3785 32.7886 27.7701 33.3487 27.2051 33.952Z" fill="#CCF6EF"/>
<path d="M161.449 23.8697C161.275 24.8607 161.622 24.6453 159.971 24.9038C159.797 24.1713 159.623 23.4389 159.449 22.6633C160.101 23.0511 160.797 23.482 161.449 23.8697Z" fill="#CCF6EF"/>
<path d="M31.1597 23.5681C30.9859 24.2575 30.7686 24.99 30.5948 25.6793C29.5518 25.7655 29.2476 25.5501 29.2476 24.7314C29.8994 24.3437 30.5079 23.9559 31.1597 23.5681Z" fill="#2F322F"/>
<path d="M175.095 23.2666C174.834 22.0171 174.616 20.7676 174.399 19.5611C174.399 19.5611 174.486 19.5181 174.616 19.4319C174.921 20.7245 175.181 22.0171 175.486 23.3096C175.355 23.2666 175.225 23.2666 175.095 23.2666Z" fill="#313830"/>
<path d="M16.21 24.2143C16.2969 24.0851 16.3838 23.9127 16.4707 23.8696C17.4268 23.3095 17.5572 23.0079 17.2964 21.9738C17.253 21.8877 17.3399 21.7584 17.3833 21.6292C17.9918 22.2754 17.9918 22.9648 17.4268 23.568C17.253 23.7835 16.9922 23.9558 16.7749 24.1281C16.6445 24.1281 16.4273 24.1712 16.21 24.2143Z" fill="#343933"/>
<path d="M161.014 85.6553C161.014 85.4399 161.014 85.2245 161.014 85.009C161.058 85.009 161.101 85.009 161.101 85.009C161.145 85.2245 161.145 85.4399 161.188 85.6553C161.145 85.6553 161.101 85.6553 161.014 85.6553Z" fill="#E6ECEC"/>
<path d="M26.5532 41.1904C26.5532 41.1473 26.5532 41.1042 26.5532 41.0612C26.6401 41.0612 26.6836 41.0612 26.7705 41.0181C26.6836 41.1042 26.5967 41.1473 26.5532 41.1904Z" fill="#4B776A"/>
<path d="M159.449 22.6633C159.406 22.6202 159.363 22.5771 159.319 22.491C159.363 22.5771 159.406 22.6202 159.449 22.6633Z" fill="#366967"/>
<path d="M165.534 34.7706C165.49 34.7275 165.447 34.6844 165.403 34.6414C165.447 34.6844 165.49 34.7275 165.534 34.7706Z" fill="#72BD73"/>
<path d="M160.927 83.9749C160.753 81.7344 160.536 79.4939 160.362 77.2534C160.101 73.548 159.797 69.7995 159.58 66.0941C159.363 62.7334 159.189 59.3727 158.971 55.9688C158.971 55.9258 158.971 55.8396 159.058 55.7534C159.145 56.529 159.232 57.3045 159.276 58.0801C159.58 61.9147 159.884 65.7494 160.145 69.6272C160.449 74.1943 160.753 78.7184 161.057 83.2855C161.057 83.544 161.057 83.7594 161.057 84.018C161.057 83.9749 161.014 83.9749 160.927 83.9749Z" fill="#E6ECEC"/>
<path d="M29.1606 11.2886C29.1606 11.2455 29.2041 11.2455 29.2041 11.2024C29.1606 11.2455 29.1606 11.2886 29.1606 11.2886Z" fill="#7CA97C"/>
<path d="M28.8565 11.6333C28.813 11.6333 28.7695 11.6764 28.7261 11.6764C28.7261 11.6333 28.7695 11.5902 28.7695 11.5471C28.813 11.5902 28.813 11.5902 28.8565 11.6333Z" fill="#7CA97C"/>
<path d="M28.9434 11.504C28.8999 11.5471 28.8999 11.5902 28.8564 11.6333L28.813 11.5902C28.813 11.5471 28.8564 11.504 28.9434 11.504C28.8999 11.4609 28.9434 11.504 28.9434 11.504Z" fill="#7CA97C"/>
<path d="M29.0303 11.4177C28.9868 11.4608 28.9434 11.5039 28.9434 11.547L28.8999 11.5039C28.9434 11.4608 28.9868 11.4177 29.0303 11.4177Z" fill="#7CA97C"/>
<path d="M29.1606 11.2886C29.1172 11.3317 29.0737 11.3747 29.0737 11.3747C29.0737 11.3747 29.1172 11.3317 29.1606 11.2886Z" fill="#7CA97C"/>
<path d="M161.84 9.95296C161.796 9.99605 161.753 10.0391 161.709 10.0822C161.579 9.90987 161.405 9.73753 161.275 9.56519C161.492 9.65136 161.666 9.8237 161.84 9.95296Z" fill="#55976B"/>
<path d="M161.231 9.43579C161.275 9.47888 161.318 9.52196 161.318 9.52196C161.275 9.52196 161.231 9.47888 161.231 9.43579Z" fill="#55976B"/>
<path d="M161.101 9.30664C161.145 9.34973 161.188 9.39281 161.188 9.39281C161.188 9.39281 161.145 9.39281 161.101 9.30664C161.101 9.34973 161.101 9.30664 161.101 9.30664Z" fill="#55976B"/>
<path d="M161.014 9.22045C160.97 9.17736 160.927 9.13428 160.927 9.13428C160.927 9.17736 160.97 9.17736 161.014 9.22045Z" fill="#55976B"/>
<path d="M161.101 9.3496C161.058 9.30651 161.014 9.26343 161.014 9.26343C161.058 9.26343 161.101 9.30651 161.101 9.3496C161.101 9.30651 161.101 9.3496 161.101 9.3496Z" fill="#55976B"/>
<path d="M175.92 17.7947C176.312 17.0622 176.92 16.5452 177.789 16.459C178.658 16.3728 179.397 16.7175 179.875 17.45C179.962 17.5793 179.962 17.7516 179.962 17.8809C179.832 17.7947 179.658 17.7516 179.614 17.6654C178.702 16.5021 177.268 16.5021 176.355 17.6654C176.268 17.7516 176.138 17.8378 176.007 17.9239C176.007 17.9239 175.964 17.8809 175.92 17.7947Z" fill="#323A31"/>
<path d="M166.49 17.493C166.533 17.3206 166.533 17.1052 166.62 16.9759C167.533 15.7264 169.401 15.7264 170.314 16.9759C170.401 17.1052 170.488 17.2345 170.662 17.493C170.401 17.4499 170.227 17.4499 170.184 17.3637C168.967 15.9419 167.707 15.985 166.707 17.493C166.62 17.5361 166.533 17.5361 166.49 17.493Z" fill="#313830"/>
<path d="M169.271 19.9059C169.228 20.466 169.054 20.7245 168.663 20.7245C168.272 20.7245 168.054 20.5091 168.054 20.1213C168.054 19.7335 168.315 19.475 168.706 19.5181C168.924 19.5181 169.097 19.7766 169.271 19.9059Z" fill="#30352F"/>
<path d="M178.658 20.6382C178.615 21.0691 178.397 21.2845 178.006 21.2845C177.659 21.2845 177.398 21.026 177.398 20.6813C177.398 20.3366 177.615 20.0781 178.006 20.0781C178.441 20.0781 178.571 20.3366 178.658 20.6382Z" fill="#30352F"/>
<path d="M15.2975 19.1734C15.1671 19.0873 15.0367 19.0442 14.9498 18.958C14.0807 17.7947 12.7769 17.7947 11.8643 18.958C11.7774 19.0442 11.647 19.0873 11.5166 19.1304C11.5166 19.0011 11.5166 18.8718 11.5601 18.7857C12.0381 18.0532 12.7334 17.6654 13.6461 17.7516C14.4718 17.8378 15.0802 18.3117 15.4279 19.0442C15.341 19.0442 15.2975 19.0873 15.2975 19.1734Z" fill="#343933"/>
<path d="M22.4245 17.2776C23.2937 17.2776 23.9021 17.6654 24.3367 18.3117C24.3801 18.3978 24.3801 18.5702 24.3801 18.6563C24.2498 18.6133 24.1194 18.5702 24.0759 18.484C23.3806 17.3207 21.5988 17.3638 20.9469 18.484C20.9035 18.5702 20.7296 18.5702 20.6427 18.6563C20.6427 18.5271 20.5992 18.3978 20.6862 18.3117C21.0338 17.6654 21.6857 17.3207 22.4245 17.2776Z" fill="#343933"/>
<path d="M12.6899 21.5863C12.9072 21.457 13.168 21.1985 13.3853 21.1985C13.733 21.1985 13.9502 21.457 13.9068 21.8017C13.8633 22.1464 13.646 22.4049 13.2549 22.3187C12.9942 22.2756 12.8203 21.974 12.603 21.8017C12.6899 21.7155 12.6899 21.6724 12.6899 21.5863Z" fill="#30332F"/>
<path d="M22.9026 21.2415C22.8592 21.5862 22.6853 21.7585 22.3377 21.7585C21.99 21.7585 21.7727 21.5431 21.7727 21.1553C21.7727 20.8106 22.0335 20.5952 22.3811 20.5952C22.7288 20.6383 22.9026 20.8537 22.9026 21.2415Z" fill="#2E312D"/>
</g>
<defs>
<clipPath id="clip0">
<rect width="192" height="86" fill="white"/>
</clipPath>
</defs>
</svg>
