<?xml version="1.0" encoding="UTF-8"?>
<svg width="99" height="108" viewBox="0 0 99 108" fill="none" xmlns="http://www.w3.org/2000/svg">
  <g clip-path="url(#clip0_8467_8518)">
  <path d="M48.9985 6.44269C48.9985 6.44269 46.1687 -1.19923 37.3416 0.347701C27.0362 2.152 24.9999 4.49994 22.4999 14.4999C19.9999 24.4998 21.4548 30.7359 18.9999 43.4999C14.8179 65.2367 23.8371 58.6529 30.4309 54.1579C37.0248 49.663 36.057 27.3 36.057 27.3L48.9985 6.44269Z" fill="#734C13"/>
  <path d="M45.1486 5.95274C48.6248 4.49204 53.1489 4.06545 55.5001 7.5C57.8513 10.9346 58 10.5 58.5 16.5C59 22.5 54.5125 36.6088 51 41.9999C48 49.4999 51.1173 47.9447 49.5 57C47.8828 66.0552 49.4115 61.9397 42.3861 55.6486C35.3607 49.3575 35.0367 24.9897 37.657 15.9962C40.2773 7.00263 45.1486 5.95274 45.1486 5.95274Z" fill="#734C13"/>
  <path d="M19.7744 108.479L22.3023 86.741L11.1796 88.7631L12.6963 108.479H19.7744Z" fill="#CE7A63"/>
  <path d="M52.1315 67.0252L56.1754 108.479H21.2913L24.3248 67.0252L22.3025 86.741L11.1798 88.7631C11.1798 88.7631 13.2021 58.4312 15.2244 54.3869C17.2467 50.3427 22.8081 45.7927 27.8638 46.2984C32.9196 46.8041 45.9997 46.4036 52.1315 50.8482C58.2633 55.2928 64.9091 70.6678 65.5874 72.6704C66.2498 74.6262 72.5968 79.1602 71.3604 82.1491C70.966 83.1026 71.3603 84.2555 68.2115 86.8885C65.0627 89.5215 62.4387 88.9949 59.8147 87.9417C57.1907 86.8885 52.1315 67.0252 52.1315 67.0252Z" fill="#407BFF"/>
  <path d="M33.6209 28.4918C33.4659 33.9152 31.3765 44.2387 27.8787 46.2407C27.8787 46.2407 29.5301 54.8106 38.5964 56.9545C47.6628 59.0984 42.5782 47.8327 42.5782 47.8327C37.4814 45.2817 39.7498 43.0738 41.6867 39.2922L33.6209 28.4918Z" fill="#CE7A63"/>
  <path opacity="0.2" d="M36.937 32.8764L41.7066 39.2619C41.2458 40.1399 40.861 41.0559 40.5564 42.0001C38.4002 41.1548 35.8897 38.0072 36.1834 35.6442C36.2633 34.6819 36.5186 33.744 36.937 32.8764Z" fill="black"/>
  <path d="M29.0753 16.9999C28.7765 25.8952 28.4744 29.6541 32.542 34.6606C38.662 42.1996 49.7356 40.7461 52.6977 32.1455C55.362 24.4089 55.3849 11.1614 46.9673 6.71665C45.1226 5.73618 43.0622 5.23639 40.9814 5.26459C38.9005 5.29279 36.868 5.84805 35.0763 6.8778C33.2846 7.90755 31.7931 9.3777 30.7429 11.149C29.6928 12.9203 29.1188 14.9342 29.0753 16.9999Z" fill="#CE7A63"/>
  <path d="M47.8019 5.93635C50.493 8.37666 47.761 10.9171 41.7111 11.7459C35.6612 12.5747 35.237 12.8878 35.1311 17.5538C35.0251 22.2198 25.9836 24.4226 26.9296 19.7985C27.8756 15.1744 28.2114 6.05712 33.0895 4.65171C37.9676 3.2463 44.9487 3.38638 47.8019 5.93635Z" fill="#734C13"/>
  <path d="M47.7408 8.10146C50.2714 9.61849 54.9536 17.7531 54.9969 15.4495C55.0403 13.1459 54.5733 9.83159 51.5539 7.93551C50.1449 6.96189 48.6074 6.18835 46.9865 5.63765L47.7408 8.10146Z" fill="#734C13"/>
  <path d="M25.8722 23.8448C26.3424 25.5015 27.4285 26.9259 28.9094 27.828C30.8795 29.007 32.3667 27.4413 32.2393 25.3154C32.1219 23.3987 30.9657 20.4806 28.7845 20.1642C26.6033 19.8478 25.3192 21.8179 25.8722 23.8448Z" fill="#CE7A63"/>
  <path d="M48.5157 23.3034C48.5157 23.3034 49.4537 26.5301 50.6748 28.1678C49.6293 28.9556 48.0363 28.3791 48.0363 28.3791L48.5157 23.3034Z" fill="#BA4D3C"/>
  <path d="M40.0175 16.7598C39.9741 16.7719 39.9282 16.7728 39.884 16.7624C39.8399 16.7519 39.799 16.7305 39.7653 16.7001C39.7399 16.6746 39.7198 16.6443 39.7061 16.6112C39.6924 16.578 39.6854 16.5426 39.6855 16.5069C39.6857 16.4713 39.6929 16.436 39.7068 16.4033C39.7207 16.3706 39.741 16.341 39.7666 16.3163C40.2132 15.85 40.7683 15.4994 41.3843 15.2945C42.0003 15.0896 42.659 15.0364 43.3041 15.1396C43.3435 15.1425 43.3819 15.1538 43.4166 15.1729C43.4514 15.1919 43.4816 15.2181 43.5053 15.2498C43.529 15.2814 43.5455 15.3177 43.5538 15.3562C43.5621 15.3946 43.5618 15.4342 43.5531 15.4724C43.5444 15.5105 43.5275 15.5462 43.5034 15.577C43.4794 15.6077 43.4489 15.6329 43.4139 15.6507C43.3789 15.6685 43.3404 15.6784 43.301 15.6799C43.2616 15.6814 43.2222 15.6744 43.1856 15.6593C42.6286 15.5813 42.0627 15.6354 41.5341 15.8171C41.0056 15.9988 40.5295 16.303 40.1451 16.7045C40.1075 16.7325 40.0639 16.7514 40.0175 16.7598Z" fill="#5B3700"/>
  <path d="M54.134 16.9359C54.0873 16.9505 54.0373 16.9522 53.9894 16.9409C53.9414 16.9296 53.8973 16.9057 53.8617 16.8717C53.5215 16.4238 53.078 16.0628 52.5691 15.8193C52.0602 15.5759 51.5009 15.4572 50.939 15.4735C50.8672 15.4795 50.7954 15.4576 50.7389 15.4126C50.6823 15.3675 50.6453 15.3027 50.6356 15.2318C50.6312 15.1963 50.634 15.1605 50.6437 15.1263C50.6535 15.0921 50.67 15.0602 50.6923 15.0325C50.7146 15.0048 50.7424 14.9819 50.7739 14.965C50.8053 14.9481 50.84 14.9376 50.8758 14.9341C51.5267 14.9084 52.1764 15.0375 52.7704 15.3108C53.3643 15.5841 53.8854 15.9936 54.2899 16.505C54.3129 16.5326 54.3302 16.5645 54.3409 16.5986C54.3515 16.6328 54.3552 16.6687 54.3518 16.7041C54.3483 16.7395 54.3378 16.7739 54.3209 16.8051C54.3039 16.8363 54.2808 16.8638 54.253 16.886C54.2191 16.9137 54.1778 16.931 54.134 16.9359Z" fill="#5B3700"/>
  <path d="M80.2816 47.9204C80.8078 47.9205 81.3281 48.4472 81.3327 49.5003C81.3346 49.9277 80.2762 52.1189 79.7632 53.713C79.4453 54.606 80.9068 54.9905 82.9056 55.2928C84.8817 55.5916 87.383 55.8164 89.2094 55.2928C88.4957 57.4753 78.7072 60.0321 78.7072 60.0321C78.7072 60.0321 71.6239 61.612 72.1487 59.5056C72.6735 57.3992 73.984 56.3459 76.0832 54.7662C77.1646 52.6394 78.1058 51.4998 78.7072 50.0268C78.9857 49.3447 79.7554 47.9203 80.2816 47.9204Z" fill="#C46950"/>
  <path d="M91.1989 52.1164L91.409 52.1969L91.6131 52.2836L91.1989 52.1164ZM91.1989 52.1164L91.6131 52.2836L91.9945 52.4708L91.1989 52.1164ZM90.7708 51.9792L90.9854 52.0434L91.1989 52.1164L90.7708 51.9792ZM91.6131 52.2836L91.8091 52.3754L91.9945 52.4708L91.6131 52.2836ZM91.9945 52.4708L92.1669 52.5687L92.3241 52.6677L91.9945 52.4708ZM91.1989 52.1164L91.9945 52.4708L92.5831 52.8641L91.1989 52.1164ZM91.9945 52.4708L92.3241 52.6677L92.5831 52.8641L91.9945 52.4708ZM92.3241 52.6677L92.4636 52.7666L92.5831 52.8641L92.3241 52.6677ZM92.5831 52.8641L92.6803 52.9589L92.7527 53.0498L92.5831 52.8641ZM73.9913 47.3373L90.7708 51.9792L91.1989 52.1164L73.9913 47.3373ZM91.1989 52.1164L92.5831 52.8641L94.4085 55.9161L91.1989 52.1164ZM92.5831 52.8641L92.7527 53.0498L94.5139 55.6969L92.5831 52.8641ZM73.9913 47.3373L74.1983 47.3898L90.7708 51.9792L73.9913 47.3373ZM73.3374 47.2602L73.9913 47.3373L91.1989 52.1164L73.3374 47.2602ZM92.7527 53.0498L94.4698 55.6138L94.5139 55.6969L92.7527 53.0498ZM92.5831 52.8641L94.5139 55.6969L94.4085 55.9161L92.5831 52.8641ZM73.6268 47.2726L73.8003 47.2983L73.9913 47.3373L73.6268 47.2726ZM73.3374 47.2602L73.6268 47.2726L73.9913 47.3373L73.3374 47.2602ZM73.3374 47.2602L73.472 47.26L73.6268 47.2726L73.3374 47.2602ZM74.7796 50.1627L73.3374 47.2602L91.1989 52.1164L74.7796 50.1627ZM73.1338 47.2981L73.2242 47.273L73.3374 47.2602L73.1338 47.2981ZM94.5139 55.6969L94.5285 55.7689L94.5149 55.8296L94.5139 55.6969ZM73.0267 47.3843L73.1338 47.2981L73.3374 47.2602L73.0267 47.3843ZM74.7796 50.1627L91.1989 52.1164L94.4085 55.9161L74.7796 50.1627ZM94.5149 55.8296L94.2554 56.4819L94.215 56.5311L94.5149 55.8296ZM94.5139 55.6969L94.5149 55.8296L94.4085 55.9161L94.5139 55.6969ZM73.0267 47.3843L73.0675 47.3353L73.1338 47.2981L73.0267 47.3843ZM94.4745 55.8788L94.5149 55.8296L94.215 56.5311L94.4745 55.8788ZM94.4745 55.8788L94.215 56.5311L94.149 56.5684L94.4745 55.8788ZM94.5149 55.8296L94.4745 55.8788L94.4085 55.9161L94.5149 55.8296ZM73.0267 47.3843L73.0128 47.4448L72.7674 48.0367L73.0267 47.3843ZM94.4085 55.9161L94.4745 55.8788L94.149 56.5684L94.4085 55.9161ZM73.0128 47.4448L72.7535 48.0972L72.7674 48.0367L73.0128 47.4448ZM94.4085 55.9161L94.149 56.5684L94.0589 56.5937L94.4085 55.9161ZM73.027 47.5167L73.0128 47.4448L73.0267 47.3843L73.027 47.5167ZM94.3185 55.9413L94.4085 55.9161L94.0589 56.5937L94.3185 55.9413ZM73.0128 47.4448L73.027 47.5167L72.7535 48.0972L73.0128 47.4448ZM73.027 47.5167L72.7677 48.1692L72.7535 48.0972L73.027 47.5167ZM94.3185 55.9413L94.0589 56.5937L93.946 56.6066L94.3185 55.9413ZM94.4085 55.9161L94.3185 55.9413L94.2055 55.9542L94.4085 55.9161ZM94.2055 55.9542L94.3185 55.9413L93.946 56.6066L94.2055 55.9542ZM73.027 47.5167L73.0708 47.5997L72.7677 48.1692L73.027 47.5167ZM73.0708 47.5997L72.8114 48.2521L72.7677 48.1692L73.0708 47.5997ZM94.2055 55.9542L93.946 56.6066L93.8116 56.6069L94.2055 55.9542ZM94.4085 55.9161L94.2055 55.9542L93.9166 55.9421L94.4085 55.9161ZM94.0712 55.9546L94.2055 55.9542L93.8116 56.6069L94.0712 55.9546ZM94.0712 55.9546L93.8116 56.6069L93.6571 56.5944L94.0712 55.9546ZM94.2055 55.9542L94.0712 55.9546L93.9166 55.9421L94.2055 55.9542ZM93.9166 55.9421L94.0712 55.9546L93.6571 56.5944L93.9166 55.9421ZM93.9166 55.9421L93.6571 56.5944L93.4838 56.5689L93.9166 55.9421ZM93.7433 55.9165L93.9166 55.9421L93.4838 56.5689L93.7433 55.9165ZM93.7433 55.9165L93.4838 56.5689L93.2929 56.5299L93.7433 55.9165ZM93.9166 55.9421L93.7433 55.9165L93.5525 55.8776L93.9166 55.9421ZM93.5525 55.8776L93.7433 55.9165L93.2929 56.5299L93.5525 55.8776ZM93.5525 55.8776L93.2929 56.5299L93.086 56.4774L93.5525 55.8776ZM93.3455 55.8251L93.5525 55.8776L93.086 56.4774L93.3455 55.8251ZM74.7796 50.1627L73.0267 47.3843L73.3374 47.2602L74.7796 50.1627ZM74.7796 50.1627L73.027 47.5167L73.0267 47.3843L74.7796 50.1627ZM74.7796 50.1627L73.0708 47.5997L73.027 47.5167L74.7796 50.1627ZM73.0708 47.5997L74.7796 50.1627L72.8114 48.2521L73.0708 47.5997ZM94.4085 55.9161L93.9166 55.9421L76.7625 51.2344L94.4085 55.9161ZM93.9166 55.9421L93.5525 55.8776L76.7625 51.2344L93.9166 55.9421ZM93.3455 55.8251L93.086 56.4774L76.503 51.8871L93.3455 55.8251ZM93.5525 55.8776L93.3455 55.8251L76.7625 51.2344L93.5525 55.8776ZM74.7796 50.1627L74.5201 50.8154L72.8114 48.2521L74.7796 50.1627ZM94.4085 55.9161L75.9191 50.9295L74.7796 50.1627L94.4085 55.9161ZM94.4085 55.9161L76.7625 51.2344L75.9191 50.9295L94.4085 55.9161ZM76.7625 51.2344L93.3455 55.8251L76.503 51.8871L76.7625 51.2344ZM74.7796 50.1627L74.8518 50.2536L74.5201 50.8154L74.7796 50.1627ZM74.8518 50.2536L74.5923 50.9063L74.5201 50.8154L74.8518 50.2536ZM74.9488 50.3485L74.8518 50.2536L74.7796 50.1627L74.9488 50.3485ZM74.8518 50.2536L74.9488 50.3485L74.5923 50.9063L74.8518 50.2536ZM74.9488 50.3485L74.6893 51.0012L74.5923 50.9063L74.9488 50.3485ZM75.2077 50.545L74.9488 50.3485L74.7796 50.1627L75.2077 50.545ZM74.9488 50.3485L75.0682 50.446L74.6893 51.0012L74.9488 50.3485ZM75.0682 50.446L74.8087 51.0988L74.6893 51.0012L75.0682 50.446ZM75.2077 50.545L75.0682 50.446L74.9488 50.3485L75.2077 50.545ZM75.0682 50.446L75.2077 50.545L74.8087 51.0988L75.0682 50.446ZM75.2077 50.545L74.9482 51.1978L74.8087 51.0988L75.2077 50.545ZM75.9191 50.9295L75.2077 50.545L74.7796 50.1627L75.9191 50.9295ZM75.3649 50.6441L75.1054 51.2969L74.9482 51.1978L75.3649 50.6441ZM75.2077 50.545L75.3649 50.6441L74.9482 51.1978L75.2077 50.545ZM75.5374 50.7421L75.2779 51.3949L75.1054 51.2969L75.5374 50.7421ZM75.3649 50.6441L75.5374 50.7421L75.1054 51.2969L75.3649 50.6441ZM75.5374 50.7421L75.3649 50.6441L75.2077 50.545L75.5374 50.7421ZM76.7625 51.2344L76.503 51.8871L76.2881 51.8229L76.7625 51.2344ZM75.7229 50.8377L75.4634 51.4904L75.2779 51.3949L75.7229 50.8377ZM75.9191 50.9295L75.5374 50.7421L75.2077 50.545L75.9191 50.9295ZM75.5374 50.7421L75.7229 50.8377L75.2779 51.3949L75.5374 50.7421ZM76.5476 51.1701L76.2881 51.8229L76.0743 51.7498L76.5476 51.1701ZM75.9191 50.9295L75.6596 51.5823L75.4634 51.4904L75.9191 50.9295ZM76.5476 51.1701L76.7625 51.2344L76.2881 51.8229L76.5476 51.1701ZM75.7229 50.8377L75.9191 50.9295L75.4634 51.4904L75.7229 50.8377ZM76.1235 51.0164L75.864 51.6691L75.6596 51.5823L76.1235 51.0164ZM76.3338 51.097L76.0743 51.7498L75.864 51.6691L76.3338 51.097ZM75.9191 50.9295L75.7229 50.8377L75.5374 50.7421L75.9191 50.9295ZM76.3338 51.097L76.5476 51.1701L76.0743 51.7498L76.3338 51.097ZM76.7625 51.2344L76.5476 51.1701L76.3338 51.097L76.7625 51.2344ZM75.9191 50.9295L76.1235 51.0164L75.6596 51.5823L75.9191 50.9295ZM76.7625 51.2344L76.3338 51.097L75.9191 50.9295L76.7625 51.2344ZM76.1235 51.0164L76.3338 51.097L75.864 51.6691L76.1235 51.0164ZM76.3338 51.097L76.1235 51.0164L75.9191 50.9295L76.3338 51.097Z" fill="black"/>
  <path d="M76.6148 49.5C77.4314 49.5003 77.8838 50.7088 78.19 51.0799C78.4961 51.451 78.9163 52.1331 79.4975 54.9129C79.2728 55.7189 78.8297 56.4796 78.4113 57.45C78.6793 57.3124 78.8545 57.2919 78.9163 57.2138C78.9163 57.2138 81.2113 54.4307 81.2702 53.6779C81.3291 52.9251 79.7624 50.0267 80.8075 50.0267C81.8527 50.0267 82.6044 51.6064 82.6044 51.6064C82.6044 51.6064 83.4122 52.9393 83.5553 53.4893C83.6984 54.0392 81.3362 58.4522 81.3362 58.4522C81.9319 57.7801 84.5552 54.6475 84.8266 53.974C85.098 53.3005 83.9563 52.1331 83.9563 52.1331C83.436 51.6064 83.4384 50.5441 83.9563 50.5533C84.4742 50.5625 85.5372 51.6063 86.0555 52.1331C86.5739 52.6598 86.7519 53.4078 86.5841 54.766C86.4162 56.1243 84.4849 57.9256 84.4849 57.9256C85.2357 57.4899 87.391 55.4652 87.5124 54.589C87.5124 54.589 86.7975 52.4758 87.5124 52.1331C88.5072 51.6561 89.4172 54.5891 89.4172 54.5891C89.4172 54.5891 89.7281 55.9754 88.6785 57.2138C87.629 58.4522 86.2329 60.0319 85.5297 60.5585C84.8266 61.0851 78.1958 62.1309 77.6644 62.3979C77.133 62.6649 75.5408 71.3606 75.5408 71.3606C74.3145 74.5166 73.1233 77.6686 71.897 80.8246C71.7321 81.2338 71.5363 81.682 71.3714 82.0911C70.3429 83.3101 69.3453 84.49 67.7354 84.9971C66.814 85.3174 65.9111 85.4938 64.932 85.3246C62.8685 84.9986 61.0606 83.225 60.5513 81.016C60.475 80.6705 60.3636 80.3291 60.5986 79.9117C63.9623 74.0957 67.322 68.2448 70.6465 62.3979C71.1742 61.4502 71.6977 60.4675 72.2212 59.4847C72.4768 59.2422 72.6932 58.9688 72.9921 58.7921C73.8187 58.2702 74.6494 57.7833 75.4759 57.2613C75.6738 57.1319 75.7892 56.9057 75.9438 56.7105C76.7003 55.5942 77.1318 53.974 77.1318 53.974C77.0421 53.2419 76.6018 52.5341 76.3453 51.807C76.0888 51.0799 75.7982 49.4997 76.6148 49.5Z" fill="#CE7A63"/>
  <path d="M91 30.3542C91 35.6458 83.8505 39.9354 75.0312 39.9354C71.1933 39.9354 67.6716 39.1231 64.9177 37.7693C64.3517 37.491 59.5597 38.0909 59.0625 37.7693C58.4778 37.3911 62.2017 36.0834 61.724 35.6523C60.0423 34.1348 59.0625 32.3131 59.0625 30.3542C59.0625 25.0626 66.2119 20.7729 75.0312 20.7729C83.8505 20.7729 91 25.0626 91 30.3542Z" fill="#F0F0F0"/>
  <path d="M67.8329 26.8138C67.8031 26.9032 67.7733 27.0373 67.7509 27.1417C67.6242 27.7676 67.4975 28.9451 67.4975 29.966C67.4975 30.9348 67.7062 31.829 67.9372 32.5295L67.3932 32.6935C67.1771 32.0302 66.9759 30.972 66.9759 30.0256C66.9759 29.0047 67.1249 27.7975 67.192 27.1566C67.2069 27.0224 67.2143 26.8883 67.2143 26.7914L67.8329 26.8138ZM66.6331 27.7304C67.9446 27.7304 69.2413 27.6261 70.2697 27.395L70.2772 27.9465C69.2041 28.1328 67.736 28.2446 66.6256 28.2446C66.3052 28.2446 65.7239 28.2148 65.4184 28.1999L65.4035 27.641C65.6643 27.6857 66.3126 27.7304 66.6331 27.7304ZM69.7406 28.6097C69.6959 28.7066 69.6288 28.9078 69.5841 29.027C69.1444 30.4057 68.3992 31.4415 67.6168 32.0451C67.1398 32.4103 66.5437 32.686 66.0146 32.686C65.5227 32.686 65.1352 32.3879 65.1352 31.7545C65.1352 30.7336 66.0816 29.6828 67.1845 29.2581C67.6838 29.0643 68.2874 28.9525 68.7718 28.9525C70.1803 28.9525 71.0671 29.7723 71.0671 30.8155C71.0671 31.8812 70.3591 32.8127 68.6302 33.0884L68.3098 32.5891C69.6512 32.4401 70.4858 31.7471 70.4858 30.7857C70.4858 30.0629 69.8747 29.4295 68.7644 29.4295C68.1384 29.4295 67.5869 29.6083 67.2069 29.7797C66.3648 30.1523 65.6941 30.972 65.6941 31.6576C65.6941 31.9632 65.8432 32.1122 66.1189 32.1122C66.4915 32.1122 66.9759 31.9035 67.4528 31.4862C68.116 30.905 68.7271 30.1001 69.0699 28.8929C69.0997 28.7811 69.137 28.5799 69.1444 28.4607L69.7406 28.6097ZM72.5277 29.4816C72.7587 29.504 73.1462 29.5263 73.571 29.5263C74.115 29.5263 77.1033 29.5263 77.6547 29.5263C78.0273 29.5263 78.2881 29.4965 78.4595 29.4816V30.2119C78.303 30.2045 77.9901 30.1821 77.6622 30.1821C77.0958 30.1821 74.1224 30.1821 73.571 30.1821C73.1611 30.1821 72.7661 30.197 72.5277 30.2119V29.4816Z" fill="black"/>
  <path d="M51.3646 20.0654C51.4712 20.6671 51.8657 21.1158 52.2484 21.0763C52.631 21.0368 52.8561 20.5127 52.7486 19.9181C52.641 19.3236 52.2474 18.8677 51.8648 18.9072C51.4821 18.9467 51.257 19.4708 51.3646 20.0654Z" fill="#263238"/>
  <path d="M51.6989 18.9591L53.0398 18.3997C53.0398 18.3997 52.5092 19.6267 51.6989 18.9591Z" fill="#263238"/>
  <path d="M42.1759 20.1539C42.2834 20.7484 42.6779 21.1971 43.0677 21.1585C43.4575 21.1199 43.6746 20.6021 43.5679 20.0004C43.4613 19.3987 43.0668 18.95 42.6832 18.9966C42.2997 19.0433 42.0692 19.5521 42.1759 20.1539Z" fill="#263238"/>
  <path d="M42.5168 19.0485L43.8506 18.4882C43.8506 18.4882 43.3102 19.6776 42.5168 19.0485Z" fill="#263238"/>
  <path d="M30.3964 20.1862L35.633 25.737C35.633 25.737 35.6313 30.3632 32.8198 31.6362L28.9776 26.3542C28.9776 26.3542 29.8672 36.0328 40.8297 39.4679C51.7921 42.9031 53.4773 27.4884 53.4773 27.4884C53.4773 27.4884 49.8083 23.77 47.7629 23.5914C45.7174 23.4129 40.5197 24.3117 38.0673 24.2583C35.615 24.2049 30.3964 20.1862 30.3964 20.1862Z" fill="white"/>
  </g>
  <defs>
  <clipPath id="clip0_8467_8518">
  <rect width="99" height="108" fill="white" transform="matrix(-1 0 0 1 99 0)"/>
  </clipPath>
  </defs>
</svg>
