<?xml version="1.0" encoding="UTF-8"?>
<svg width="84px" height="109px" viewBox="0 0 84 109" version="1.1" xmlns="http://www.w3.org/2000/svg" xmlns:xlink="http://www.w3.org/1999/xlink">
    <title>img_2</title>
    <g id="Page-1" stroke="none" stroke-width="1" fill="none" fill-rule="evenodd">
        <g id="Frame-1" transform="translate(-224.000000, -83.000000)">
            <g id="Group" transform="translate(224.179551, 83.141026)">
                <path d="M37.8190887,6.30172486 C37.8190887,6.30172486 34.9892539,-1.34019977 26.1621095,0.206737122 C15.8567135,2.01103542 13.82047,4.35897428 11.3204657,14.3589173 C8.82046139,24.3588562 10.2752884,30.5949317 7.8204533,43.3589147 C3.63841912,65.0957429 12.6575604,58.5118883 19.2514193,54.016979 C25.845278,49.5220706 24.8775517,27.1589921 24.8775517,27.1589921 L37.8190887,6.30172486 Z" id="Fill-54" fill="#734D13"></path>
                <path d="M33.9689134,5.81171239 C37.4451555,4.35101443 41.9692197,3.92442177 44.3204223,7.35897537 C46.6716265,10.7935263 46.8203716,10.3589561 47.320381,16.358947 C47.8203912,22.358939 43.3329142,36.4677692 39.8203849,41.8589229 C36.8203868,49.358921 39.9376794,47.8036762 38.3204158,56.858932 C36.7031522,65.9141877 38.2318622,61.7986979 31.2064856,55.5075752 C24.1811087,49.2164535 23.8570778,24.8487059 26.477371,15.8551542 C29.0976633,6.86160234 33.9689134,5.81171239 33.9689134,5.81171239 Z" id="Fill-55" fill="#734D13"></path>
                <polygon id="Fill-56" fill="#CE7A63" points="8.59481 108.337721 11.122695 86.5998494 4.26325641e-14 88.6219774 1.516731 108.337721"></polygon>
                <path d="M40.951958,66.8841094 L44.995872,108.337749 L10.111777,108.337749 L13.145243,66.8841094 L11.122931,86.5998804 L0.000239,88.6220054 C0.000239,88.6220054 2.022548,58.2900884 4.044856,54.2458344 C6.067164,50.2015804 11.628508,45.6516494 16.684279,46.1573414 C21.74005,46.6630324 34.820193,46.2624704 40.951958,50.7070694 C47.083725,55.1516724 53.729597,70.5266994 54.407832,72.5293314 C55.070215,74.4851574 61.417204,79.0190694 60.180832,82.0080534 C59.786446,82.9614984 60.180714,84.1144374 57.031915,86.7474134 C53.883115,89.3803904 51.259114,88.8537984 48.635114,87.8006064 C46.011115,86.7474134 40.951958,66.8841094 40.951958,66.8841094 Z" id="Fill-57" fill="#407BFF"></path>
                <path d="M22.441413,28.3508099 C22.2863577,33.7742406 20.1969703,44.0977369 16.6991713,46.0997453 C16.6991713,46.0997453 18.3506119,54.6696825 27.4169494,56.8135407 C36.4832878,58.9573992 31.3987195,47.6917162 31.3987195,47.6917162 C26.3018751,45.1407783 28.5703425,42.932861 30.5072261,39.1512606 L22.441413,28.3508099 Z" id="Fill-58" fill="#CE7A63"></path>
                <path d="M25.7574081,32.7354232 L30.5270991,39.1209214 C30.0662892,39.9988969 29.6814977,40.9148931 29.3768467,41.8591371 C27.2206021,41.0138455 24.7101661,37.8662903 25.003896,35.503283 C25.0837441,34.5408932 25.339058,33.6030731 25.7574081,32.7354232 L25.7574081,32.7354232 Z" id="Fill-59" fill-opacity="0.2" fill="#000000"></path>
                <path d="M17.8956771,16.8589285 C17.5969127,25.7542592 17.2947501,29.5131312 21.3623966,34.5196146 C27.4823916,42.0586844 38.5559358,40.6051338 41.518082,32.0045505 C44.1824042,24.267924 44.2053044,11.0204933 35.7876657,6.57569938 C33.9429681,5.59522775 31.8826251,5.09543683 29.801759,5.12363745 C27.7208928,5.15183395 25.6883918,5.70709739 23.8967095,6.73684489 C22.1050285,7.76659577 20.6134741,9.23673904 19.5633192,11.008061 C18.5131663,12.7793784 17.9391717,14.7932409 17.8956771,16.8589285 L17.8956771,16.8589285 Z" id="Fill-60" fill="#CE7A63"></path>
                <path d="M36.6223115,5.79539392 C39.313347,8.23570393 36.5813978,10.7761914 30.5315152,11.6049663 C24.4816329,12.4337401 24.0574305,12.7468851 23.9514687,17.4128673 C23.8455081,22.0788488 14.8039565,24.2816333 15.7499933,19.6575414 C16.6960286,15.0334512 17.0318307,5.91615867 21.9099172,4.51074828 C26.7880027,3.10533767 33.7690694,3.24541983 36.6223115,5.79539392 Z" id="Fill-61" fill="#734C13"></path>
                <path d="M36.5611851,7.96055982 C39.09175,9.4775827 43.7739725,17.6121641 43.8173138,15.3085589 C43.8606543,13.0049524 43.3937074,9.69069131 40.3742779,7.79460438 C38.9652598,6.82098757 37.4277243,6.04744663 35.8069027,5.49675236 L36.5611851,7.96055982 Z" id="Fill-62" fill="#734C13"></path>
                <path d="M14.6926697,23.7037951 C15.1628838,25.3604661 16.2489535,26.7848489 17.7298075,27.6870183 C19.6999842,28.8659262 21.1871066,27.3002416 21.0597522,25.1744155 C20.9423337,23.2576599 19.7861375,20.3395658 17.6049635,20.0231539 C15.4237892,19.706743 14.1396297,21.6768552 14.6926697,23.7037951 Z" id="Fill-63" fill="#CE7A63"></path>
                <path d="M37.3361475,23.1623581 C37.3361475,23.1623581 38.2741405,26.3891062 39.4951807,28.0268262 C38.4496862,28.8146025 36.8567355,28.2381187 36.8567355,28.2381187 L37.3361475,23.1623581 Z" id="Fill-64" fill="#BA4D3C"></path>
                <path d="M28.8379731,16.618736 C28.7945595,16.6308964 28.7486014,16.6317947 28.7044555,16.6213553 C28.6603095,16.610916 28.619443,16.5894861 28.5857341,16.5590883 C28.5603387,16.5335396 28.5402134,16.5033197 28.5265259,16.4701669 C28.5128394,16.4370143 28.5058648,16.4015844 28.5059847,16.3659122 C28.5061077,16.3302399 28.5133331,16.2950237 28.5272436,16.2623029 C28.541155,16.2295823 28.5614797,16.1999956 28.5870469,16.1752459 C29.0336975,15.708949 29.5887452,15.3583705 30.2047714,15.1534593 C30.8207966,14.9485478 31.4794771,14.8953918 32.1245296,14.9985492 C32.1639295,15.0014535 32.2023288,15.0128201 32.2370731,15.0318498 C32.2718186,15.0508787 32.3020838,15.0771238 32.3257688,15.1087701 C32.3494529,15.1404162 32.3659872,15.1767092 32.3742444,15.2151365 C32.3825013,15.2535648 32.3822711,15.2932084 32.3735775,15.3313326 C32.3648842,15.3694557 32.3479356,15.4051459 32.3238944,15.4359365 C32.2998532,15.4667272 32.2693056,15.4918866 32.2343508,15.5096662 C32.1993951,15.5274456 32.16087,15.5374225 32.1214456,15.5389122 C32.0820219,15.5404032 32.0426354,15.5333653 32.0060108,15.5182908 C31.4490911,15.4403219 30.8831325,15.4944079 30.3545874,15.6761065 C29.8260433,15.8578054 29.3499916,16.1619333 28.9655252,16.5635246 C28.9279617,16.5914577 28.8843147,16.6103537 28.8379731,16.618736 Z" id="Fill-65" fill="#5B3700"></path>
                <path d="M42.9544154,16.7950044 C42.9077145,16.8095798 42.857745,16.8113091 42.8098099,16.8 C42.7618758,16.7886911 42.7177698,16.7647669 42.6821695,16.7307746 C42.3419288,16.2829354 41.8984558,15.9219047 41.3895441,15.6784465 C40.8806335,15.4349886 40.3213694,15.3163196 39.7594176,15.3325582 C39.6876019,15.3385618 39.6158824,15.3167468 39.5593105,15.2716907 C39.5027396,15.2266348 39.4657135,15.1618346 39.4559894,15.0908891 C39.4516309,15.0554412 39.4544056,15.0195793 39.4641472,14.9853723 C39.4738898,14.9511656 39.4904051,14.9192975 39.5127441,14.8916132 C39.5350832,14.863929 39.5628025,14.8409734 39.5942892,14.8240856 C39.6257769,14.8071981 39.6604123,14.796711 39.696186,14.793226 C40.347159,14.7674743 40.9968113,14.8966466 41.5907947,15.1699377 C42.184778,15.4432288 42.705811,15.8526912 43.1103005,16.364061 C43.1333445,16.391714 43.1506794,16.4235536 43.1613062,16.4577352 C43.171933,16.4919168 43.1756353,16.5277585 43.1722058,16.5631958 C43.1687752,16.5986338 43.1582745,16.6329668 43.141317,16.6641933 C43.1243596,16.6954197 43.1012808,16.7229253 43.0734111,16.7451253 C43.039534,16.772772 42.99823,16.7900867 42.9544154,16.7950044 L42.9544154,16.7950044 Z" id="Fill-66" fill="#5B3700"></path>
                <path d="M19.6417222,21.7112513 L24.8783615,27.2620626 C24.8783615,27.2620626 24.876687,31.8882188 22.0652081,33.1612291 L18.2229548,27.879278 C18.2229548,27.879278 19.1125807,37.5578443 30.0750397,40.9929841 C41.0374973,44.4281255 42.7226445,29.013477 42.7226445,29.013477 C42.7226445,29.013477 39.053662,25.2950078 37.008225,25.1164884 C34.9627863,24.9379673 29.7650183,25.8367116 27.312693,25.7833129 C24.8603684,25.7299162 19.6417222,21.7112513 19.6417222,21.7112513 Z" id="Fill-67" fill="#FFFFFF"></path>
                <path d="M69.1020533,47.7793549 C69.6282853,47.7793549 70.1485203,48.3061443 70.1531394,49.3592075 C70.1550138,49.7866477 69.0966459,51.9778773 68.5836467,53.5719729 C68.2657836,54.4649605 69.7272546,54.8494053 71.7260522,55.1516954 C73.7021669,55.4505556 76.2034825,55.6753501 78.0298,55.1517594 C77.3161605,57.3342766 67.5276538,59.8910579 67.5276538,59.8910579 C67.5276538,59.8910579 60.4443343,61.4709085 60.9691345,59.3645258 C61.4939346,57.2581431 62.8044553,56.2048867 64.903655,54.6250992 C65.9850934,52.4983472 66.9262984,51.3587787 67.5276538,49.8857386 C67.8061253,49.2036117 68.5758214,47.7793549 69.1020533,47.7793549 Z" id="Fill-68" fill="#C46950"></path>
                <path d="M80.0193998,51.9753021 L80.2294149,52.0558259 L80.4335803,52.1425978 L80.0193998,51.9753021 Z M80.0193998,51.9753021 L80.4335803,52.1425978 L80.814925,52.3297895 L80.0193998,51.9753021 Z M79.5912668,51.838104 L79.8058977,51.9023028 L80.0193998,51.9753021 L79.5912668,51.838104 Z M80.4335803,52.1425978 L80.6295366,52.2343447 L80.814925,52.3297895 L80.4335803,52.1425978 Z M80.814925,52.3297895 L80.9873849,52.4276586 L81.1445541,52.5266778 L80.814925,52.3297895 Z M80.0193998,51.9753021 L80.814925,52.3297895 L81.4035815,52.7230609 L80.0193998,51.9753021 Z M80.814925,52.3297895 L81.1445541,52.5266778 L81.4035815,52.7230609 L80.814925,52.3297895 Z M81.1445541,52.5266778 L81.2840738,52.62557 L81.4035815,52.7230609 L81.1445541,52.5266778 Z M81.4035815,52.7230609 L81.500716,52.8178766 L81.5731143,52.9087396 L81.4035815,52.7230609 Z M62.8117593,47.1962103 L79.5912668,51.838104 L80.0193998,51.9753021 L62.8117593,47.1962103 Z M80.0193998,51.9753021 L81.4035815,52.7230609 L83.2289955,55.7750468 L80.0193998,51.9753021 Z M81.4035815,52.7230609 L81.5731143,52.9087396 L83.3343554,55.5558505 L81.4035815,52.7230609 Z M62.8117593,47.1962103 L63.0187929,47.2487773 L79.5912668,51.838104 L62.8117593,47.1962103 Z M62.1578544,47.1191404 L62.8117593,47.1962103 L80.0193998,51.9753021 L62.1578544,47.1191404 Z M81.5731143,52.9087396 L83.2902573,55.4727541 L83.3343554,55.5558505 L81.5731143,52.9087396 Z M81.4035815,52.7230609 L83.3343554,55.5558505 L83.2289955,55.7750468 L81.4035815,52.7230609 Z M62.4472755,47.1315353 L62.6208052,47.1572125 L62.8117593,47.1962103 L62.4472755,47.1315353 Z M62.1578544,47.1191404 L62.4472755,47.1315353 L62.8117593,47.1962103 L62.1578544,47.1191404 Z M62.1578544,47.1191404 L62.2925118,47.118928 L62.4472755,47.1315353 L62.1578544,47.1191404 Z M63.6000294,50.0216009 L62.1578544,47.1191404 L80.0193998,51.9753021 L63.6000294,50.0216009 Z M61.9542429,47.1570296 L62.0446502,47.1319245 L62.1578544,47.1191404 L61.9542429,47.1570296 Z M83.3343554,55.5558505 L83.34894,55.6278802 L83.3353486,55.6885917 L83.3343554,55.5558505 Z M61.8471952,47.2432069 L61.9542429,47.1570296 L62.1578544,47.1191404 L61.8471952,47.2432069 Z M63.6000294,50.0216009 L80.0193998,51.9753021 L83.2289955,55.7750468 L63.6000294,50.0216009 Z M83.3353486,55.6885917 L83.075845,56.3408928 L83.0354137,56.3900438 L83.3353486,55.6885917 Z M83.3343554,55.5558505 L83.3353486,55.6885917 L83.2289955,55.7750468 L83.3343554,55.5558505 Z M61.8471952,47.2432069 L61.8879756,47.1942062 L61.9542429,47.1570296 L61.8471952,47.2432069 Z M83.2949209,55.7377312 L83.3353486,55.6885917 L83.0354137,56.3900438 L83.2949209,55.7377312 Z M83.2949209,55.7377312 L83.0354137,56.3900438 L82.9694843,56.4273696 L83.2949209,55.7377312 Z M83.3353486,55.6885917 L83.2949209,55.7377312 L83.2289955,55.7750468 L83.3353486,55.6885917 Z M61.8471952,47.2432069 L61.8332454,47.3037805 L61.5878914,47.8956034 L61.8471952,47.2432069 Z M83.2289955,55.7750468 L83.2949209,55.7377312 L82.9694843,56.4273696 L83.2289955,55.7750468 Z M61.8332454,47.3037805 L61.5739357,47.9561865 L61.5878914,47.8956034 L61.8332454,47.3037805 Z M83.2289955,55.7750468 L82.9694843,56.4273696 L82.8793932,56.4526185 L83.2289955,55.7750468 Z M61.847473,47.3756771 L61.8332454,47.3037805 L61.8471952,47.2432069 L61.847473,47.3756771 Z M83.1389081,55.8002863 L83.2289955,55.7750468 L82.8793932,56.4526185 L83.1389081,55.8002863 Z M61.8332454,47.3037805 L61.847473,47.3756771 L61.5739357,47.9561865 L61.8332454,47.3037805 Z M61.847473,47.3756771 L61.5881579,48.0280939 L61.5739357,47.9561865 L61.847473,47.3756771 Z M83.1389081,55.8002863 L82.8793932,56.4526185 L82.7664822,56.4655394 L83.1389081,55.8002863 Z M83.2289955,55.7750468 L83.1389081,55.8002863 L83.0259998,55.8131977 L83.2289955,55.7750468 Z M83.0259998,55.8131977 L83.1389081,55.8002863 L82.7664822,56.4655394 L83.0259998,55.8131977 Z M61.847473,47.3756771 L61.8912201,47.4586493 L61.5881579,48.0280939 L61.847473,47.3756771 Z M61.8912201,47.4586493 L61.6319032,48.1110762 L61.5881579,48.0280939 L61.8912201,47.4586493 Z M83.0259998,55.8131977 L82.7664822,56.4655394 L82.6320875,56.4658786 L83.0259998,55.8131977 Z M83.2289955,55.7750468 L83.0259998,55.8131977 L82.737071,55.801026 L83.2289955,55.7750468 Z M82.8916066,55.8135277 L83.0259998,55.8131977 L82.6320875,56.4658786 L82.8916066,55.8135277 Z M82.8916066,55.8135277 L82.6320875,56.4658786 L82.4775499,56.4533847 L82.8916066,55.8135277 Z M83.0259998,55.8131977 L82.8916066,55.8135277 L82.737071,55.801026 L83.0259998,55.8131977 Z M82.737071,55.801026 L82.8916066,55.8135277 L82.4775499,56.4533847 L82.737071,55.801026 Z M82.737071,55.801026 L82.4775499,56.4533847 L82.304208,56.4278036 L82.737071,55.801026 Z M82.5637308,55.7754381 L82.737071,55.801026 L82.304208,56.4278036 L82.5637308,55.7754381 Z M82.5637308,55.7754381 L82.304208,56.4278036 L82.1134017,56.388886 L82.5637308,55.7754381 Z M82.737071,55.801026 L82.5637308,55.7754381 L82.3729239,55.7365137 L82.737071,55.801026 Z M82.3729239,55.7365137 L82.5637308,55.7754381 L82.1134017,56.388886 L82.3729239,55.7365137 Z M82.3729239,55.7365137 L82.1134017,56.388886 L81.9064718,56.3363774 L82.3729239,55.7365137 Z M82.1659944,55.6839988 L82.3729239,55.7365137 L81.9064718,56.3363774 L82.1659944,55.6839988 Z M63.6000294,50.0216009 L61.8471952,47.2432069 L62.1578544,47.1191404 L63.6000294,50.0216009 Z M63.6000294,50.0216009 L61.847473,47.3756771 L61.8471952,47.2432069 L63.6000294,50.0216009 Z M63.6000294,50.0216009 L61.8912201,47.4586493 L61.847473,47.3756771 L63.6000294,50.0216009 Z M61.8912201,47.4586493 L63.6000294,50.0216009 L61.6319032,48.1110762 L61.8912201,47.4586493 Z M83.2289955,55.7750468 L82.737071,55.801026 L65.5829949,51.09333 L83.2289955,55.7750468 Z M82.737071,55.801026 L82.3729239,55.7365137 L65.5829949,51.09333 L82.737071,55.801026 Z M82.1659944,55.6839988 L81.9064718,56.3363774 L65.3234991,51.7460796 L82.1659944,55.6839988 Z M82.3729239,55.7365137 L82.1659944,55.6839988 L65.5829949,51.09333 L82.3729239,55.7365137 Z M63.6000294,50.0216009 L63.3405725,50.6743122 L61.6319032,48.1110762 L63.6000294,50.0216009 Z M83.2289955,55.7750468 L64.7395413,50.7884558 L63.6000294,50.0216009 L83.2289955,55.7750468 Z M83.2289955,55.7750468 L65.5829949,51.09333 L64.7395413,50.7884558 L83.2289955,55.7750468 Z M65.5829949,51.09333 L82.1659944,55.6839988 L65.3234991,51.7460796 L65.5829949,51.09333 Z M63.6000294,50.0216009 L63.6722262,50.1125184 L63.3405725,50.6743122 L63.6000294,50.0216009 Z M63.6722262,50.1125184 L63.4127636,50.7652414 L63.3405725,50.6743122 L63.6722262,50.1125184 Z M63.7692156,50.2074014 L63.6722262,50.1125184 L63.6000294,50.0216009 L63.7692156,50.2074014 Z M63.6722262,50.1125184 L63.7692156,50.2074014 L63.4127636,50.7652414 L63.6722262,50.1125184 Z M63.7692156,50.2074014 L63.5097488,50.8601323 L63.4127636,50.7652414 L63.7692156,50.2074014 Z M64.0281308,50.4039583 L63.7692156,50.2074014 L63.6000294,50.0216009 L64.0281308,50.4039583 Z M63.7692156,50.2074014 L63.8886383,50.3049736 L63.5097488,50.8601323 L63.7692156,50.2074014 Z M63.8886383,50.3049736 L63.6291675,50.9577117 L63.5097488,50.8601323 L63.8886383,50.3049736 Z M64.0281308,50.4039583 L63.8886383,50.3049736 L63.7692156,50.2074014 L64.0281308,50.4039583 Z M63.8886383,50.3049736 L64.0281308,50.4039583 L63.6291675,50.9577117 L63.8886383,50.3049736 Z M64.0281308,50.4039583 L63.7686556,51.0567021 L63.6291675,50.9577117 L64.0281308,50.4039583 Z M64.7395413,50.7884558 L64.0281308,50.4039583 L63.6000294,50.0216009 L64.7395413,50.7884558 Z M64.1853309,50.5030759 L63.925852,51.1558236 L63.7686556,51.0567021 L64.1853309,50.5030759 Z M64.0281308,50.4039583 L64.1853309,50.5030759 L63.7686556,51.0567021 L64.0281308,50.4039583 Z M64.3578748,50.6010504 L64.0983922,51.253802 L63.925852,51.1558236 L64.3578748,50.6010504 Z M64.1853309,50.5030759 L64.3578748,50.6010504 L63.925852,51.1558236 L64.1853309,50.5030759 Z M64.3578748,50.6010504 L64.1853309,50.5030759 L64.0281308,50.4039583 L64.3578748,50.6010504 Z M65.5829949,51.09333 L65.3234991,51.7460796 L65.1085312,51.6817998 L65.5829949,51.09333 Z M64.5433993,50.6966019 L64.2839121,51.3493571 L64.0983922,51.253802 L64.5433993,50.6966019 Z M64.7395413,50.7884558 L64.3578748,50.6010504 L64.0281308,50.4039583 L64.7395413,50.7884558 Z M64.3578748,50.6010504 L64.5433993,50.6966019 L64.0983922,51.253802 L64.3578748,50.6010504 Z M65.3680278,51.0290483 L65.1085312,51.6817998 L64.8947243,51.6087119 L65.3680278,51.0290483 Z M64.7395413,50.7884558 L64.4800501,51.4412127 L64.2839121,51.3493571 L64.7395413,50.7884558 Z M65.3680278,51.0290483 L65.5829949,51.09333 L65.1085312,51.6817998 L65.3680278,51.0290483 Z M64.5433993,50.6966019 L64.7395413,50.7884558 L64.2839121,51.3493571 L64.5433993,50.6966019 Z M64.9439339,50.875333 L64.6844433,51.5280911 L64.4800501,51.4412127 L64.9439339,50.875333 Z M65.1542192,50.9559565 L64.8947243,51.6087119 L64.6844433,51.5280911 L65.1542192,50.9559565 Z M64.7395413,50.7884558 L64.5433993,50.6966019 L64.3578748,50.6010504 L64.7395413,50.7884558 Z M65.1542192,50.9559565 L65.3680278,51.0290483 L64.8947243,51.6087119 L65.1542192,50.9559565 Z M65.5829949,51.09333 L65.3680278,51.0290483 L65.1542192,50.9559565 L65.5829949,51.09333 Z M64.7395413,50.7884558 L64.9439339,50.875333 L64.4800501,51.4412127 L64.7395413,50.7884558 Z M65.5829949,51.09333 L65.1542192,50.9559565 L64.7395413,50.7884558 L65.5829949,51.09333 Z M64.9439339,50.875333 L65.1542192,50.9559565 L64.6844433,51.5280911 L64.9439339,50.875333 Z M65.1542192,50.9559565 L64.9439339,50.875333 L64.7395413,50.7884558 L65.1542192,50.9559565 Z" id="Fill-69" fill="#000000"></path>
                <path d="M65.4352572,49.3590245 C66.2518555,49.3590245 66.7042597,50.5678181 67.0104273,50.9389431 C67.3165959,51.310068 67.7368027,51.9920973 68.3179463,54.7719418 C68.0933132,55.577962 67.6501739,56.338623 67.2317843,57.3090591 C67.4997522,57.1714156 67.6749645,57.1509433 67.7368006,57.0728293 C67.7368006,57.0728293 70.0317272,54.2897811 70.0906283,53.5369342 C70.1495283,52.7840875 68.5828435,49.8857443 69.628008,49.8857446 C70.6731715,49.8857451 71.4248752,51.4654714 71.4248752,51.4654714 C71.4248752,51.4654714 72.2326665,52.7983124 72.3757673,53.3482916 C72.5188641,53.8982702 70.1566785,58.3112651 70.1566785,58.3112651 C70.7523665,57.6391113 73.3756635,54.5065028 73.6470701,53.833011 C73.9184767,53.1595201 72.776809,51.9920966 72.776809,51.9920966 C72.2564466,51.4654716 72.2589034,50.4031312 72.7768133,50.4123099 C73.2947232,50.4214886 74.3576349,51.4653826 74.8760131,51.9920963 C75.3943953,52.5188106 75.5723791,53.2668398 75.404547,54.6250656 C75.2367187,55.9832899 73.3053435,57.7846402 73.3053435,57.7846402 C74.0562179,57.3488882 76.2114983,55.3242824 76.3328231,54.4480778 C76.3328231,54.4480778 75.6179516,52.3348509 76.3328264,51.9920964 C77.3276293,51.5151253 78.2376423,54.448141 78.2376423,54.448141 C78.2376423,54.448141 78.5486098,55.8344596 77.4990199,57.072828 C76.4494272,58.3111977 75.0533646,59.8908911 74.3502167,60.4175343 C73.6470647,60.944177 67.0162565,61.9899544 66.4848378,62.2569594 C65.9534193,62.5239653 64.3612671,71.2195987 64.3612671,71.2195987 C63.1349757,74.3756412 61.9437158,77.5275895 60.7174234,80.6836321 C60.5525434,81.0927833 60.3567417,81.540991 60.1918606,81.9501424 C59.1633275,83.1690896 58.165713,84.3489979 56.5558277,84.8560974 C55.6344247,85.1764234 54.7315635,85.352802 53.7524082,85.1836563 C51.6889687,84.8576484 49.8810316,83.0839998 49.3717278,80.8750789 C49.2954352,80.5295503 49.1840959,80.1881157 49.4190623,79.7707754 C52.7827994,73.9547809 56.1424174,68.1038242 59.4669867,62.2569616 C59.9946294,61.3092046 60.5181522,60.3264865 61.0416698,59.343767 C61.2972608,59.1012392 61.5136771,58.8278372 61.8125617,58.6511378 C62.6391311,58.1292286 63.4698331,57.642285 64.2964025,57.1203758 C64.4942842,56.9909223 64.6097041,56.7647695 64.764291,56.5694858 C65.520734,55.4532182 65.9522539,53.8330118 65.9522539,53.8330118 C65.8625721,53.1009101 65.4222399,52.393149 65.1657423,51.6660469 C64.9092437,50.9389438 64.6186559,49.3590245 65.4352572,49.3590245 Z" id="Fill-70" fill="#CE7A63"></path>
                <path d="M79.820432,30.2131104 C79.820432,35.5046884 72.670987,39.7943584 63.851691,39.7943584 C60.013752,39.7943584 56.492041,38.9819924 53.738151,37.6282094 C53.172114,37.3499524 48.380196,37.9498614 47.882957,37.6282094 C47.298267,37.2499884 51.02217,35.9423544 50.544402,35.5112144 C48.862768,33.9936944 47.882945,32.1720574 47.882945,30.2131104 C47.882945,24.9215334 55.032397,20.6318624 63.851691,20.6318624 C72.670987,20.6318624 79.820432,24.9215334 79.820432,30.2131104 Z" id="Fill-71" fill="#F0F0F0"></path>
                <path d="M56.188927,31.8431224 L56.188927,29.8090834 C56.188927,29.6028894 56.145262,29.4258054 56.057933,29.2778314 C55.970604,29.1298564 55.843249,29.0170564 55.675868,28.9394314 C55.508488,28.8593794 55.303507,28.8193534 55.060926,28.8193534 C54.835326,28.8193534 54.632771,28.8593794 54.453261,28.9394314 C54.276177,29.0170564 54.136693,29.1237924 54.034809,29.2596384 C53.932925,29.3954834 53.881983,29.5470964 53.881983,29.7144764 L53.590887,29.7108374 C53.590887,29.5604374 53.626061,29.4161014 53.696409,29.2778314 C53.769183,29.1395604 53.871067,29.0170564 54.002061,28.9103214 C54.13548,28.8011604 54.291945,28.7150444 54.471455,28.6519734 C54.65339,28.5889014 54.852307,28.5573664 55.068203,28.5573664 C55.344746,28.5573664 55.588539,28.6046694 55.799585,28.6992764 C56.013056,28.7914574 56.179223,28.9309414 56.298088,29.1177274 C56.416953,29.3045154 56.476385,29.5373924 56.476385,29.8163604 L56.476385,31.7594334 C56.476385,31.9001294 56.486088,32.0420394 56.505495,32.1851614 C56.524901,32.3282844 56.551585,32.4435104 56.585546,32.5308394 L56.585546,32.5672264 L56.268979,32.5672264 C56.242294,32.4750454 56.221675,32.3622454 56.20712,32.2288264 C56.194991,32.0954064 56.188927,31.9668394 56.188927,31.8431224 Z M56.283533,30.3330574 L56.290811,30.5841284 L55.330191,30.5841284 C55.08761,30.5841284 54.8705,30.6071744 54.678861,30.6532644 C54.487223,30.6993544 54.324693,30.7648514 54.191274,30.8497544 C54.057855,30.9346574 53.955971,31.0353294 53.885622,31.1517684 C53.815274,31.2682064 53.7801,31.3991994 53.7801,31.5447484 C53.7801,31.6951484 53.820125,31.8334204 53.900177,31.9595614 C53.980229,32.0857034 54.093029,32.1863754 54.238577,32.2615754 C54.384126,32.3343494 54.552719,32.3707364 54.744358,32.3707364 C55.006345,32.3707364 55.23801,32.3258594 55.439352,32.2361044 C55.64312,32.1439234 55.814139,32.0202064 55.95241,31.8649554 C56.090681,31.7072774 56.191353,31.5253424 56.254424,31.3191484 L56.381778,31.5301934 C56.34054,31.6587614 56.276256,31.7885424 56.188927,31.9195364 C56.101598,32.0505294 55.988798,32.1706064 55.850526,32.2797684 C55.712255,32.3865044 55.549726,32.4738334 55.362939,32.5417564 C55.176152,32.6072524 54.963894,32.6400004 54.726165,32.6400004 C54.476306,32.6400004 54.257984,32.5939104 54.071197,32.5017304 C53.886835,32.4071224 53.743712,32.2785554 53.641829,32.1160264 C53.539945,31.9510724 53.489003,31.7630714 53.489003,31.5520264 C53.489003,31.3700904 53.530241,31.2039224 53.612719,31.0535224 C53.695196,30.9031224 53.814061,30.7745544 53.969313,30.6678194 C54.12699,30.5586584 54.317416,30.4761804 54.54059,30.4203864 C54.76619,30.3621674 55.019687,30.3330574 55.301081,30.3330574 L56.283533,30.3330574 Z M60.147845,31.8431224 L60.147845,29.8090834 C60.147845,29.6028894 60.10418,29.4258054 60.016852,29.2778314 C59.929522,29.1298564 59.802168,29.0170564 59.634787,28.9394314 C59.467406,28.8593794 59.262425,28.8193534 59.019844,28.8193534 C58.794244,28.8193534 58.591689,28.8593794 58.41218,28.9394314 C58.235096,29.0170564 58.095612,29.1237924 57.993728,29.2596384 C57.891844,29.3954834 57.840902,29.5470964 57.840902,29.7144764 L57.549805,29.7108374 C57.549805,29.5604374 57.584979,29.4161014 57.655327,29.2778314 C57.728102,29.1395604 57.829986,29.0170564 57.960979,28.9103214 C58.094399,28.8011604 58.250864,28.7150444 58.430373,28.6519734 C58.612309,28.5889014 58.811225,28.5573664 59.027122,28.5573664 C59.303664,28.5573664 59.547458,28.6046694 59.758503,28.6992764 C59.971974,28.7914574 60.138142,28.9309414 60.257006,29.1177274 C60.375871,29.3045154 60.435303,29.5373924 60.435303,29.8163604 L60.435303,31.7594334 C60.435303,31.9001294 60.445007,32.0420394 60.464413,32.1851614 C60.48382,32.3282844 60.510503,32.4435104 60.544465,32.5308394 L60.544465,32.5672264 L60.227897,32.5672264 C60.201213,32.4750454 60.180594,32.3622454 60.166039,32.2288264 C60.153909,32.0954064 60.147845,31.9668394 60.147845,31.8431224 Z M60.242452,30.3330574 L60.249729,30.5841284 L59.289109,30.5841284 C59.046528,30.5841284 58.829418,30.6071744 58.63778,30.6532644 C58.446141,30.6993544 58.283612,30.7648514 58.150192,30.8497544 C58.016773,30.9346574 57.914889,31.0353294 57.844541,31.1517684 C57.774192,31.2682064 57.739018,31.3991994 57.739018,31.5447484 C57.739018,31.6951484 57.779044,31.8334204 57.859095,31.9595614 C57.939147,32.0857034 58.051947,32.1863754 58.197496,32.2615754 C58.343044,32.3343494 58.511638,32.3707364 58.703276,32.3707364 C58.965264,32.3707364 59.196928,32.3258594 59.39827,32.2361044 C59.602039,32.1439234 59.773058,32.0202064 59.911329,31.8649554 C60.0496,31.7072774 60.150271,31.5253424 60.213342,31.3191484 L60.340697,31.5301934 C60.299458,31.6587614 60.235174,31.7885424 60.147845,31.9195364 C60.060516,32.0505294 59.947716,32.1706064 59.809445,32.2797684 C59.671174,32.3865044 59.508645,32.4738334 59.321858,32.5417564 C59.13507,32.6072524 58.922812,32.6400004 58.685083,32.6400004 C58.435225,32.6400004 58.216902,32.5939104 58.030115,32.5017304 C57.845753,32.4071224 57.702631,32.2785554 57.600747,32.1160264 C57.498863,31.9510724 57.447921,31.7630714 57.447921,31.5520264 C57.447921,31.3700904 57.48916,31.2039224 57.571637,31.0535224 C57.654114,30.9031224 57.772979,30.7745544 57.928231,30.6678194 C58.085909,30.5586584 58.276334,30.4761804 58.499509,30.4203864 C58.725109,30.3621674 58.978606,30.3330574 59.259999,30.3330574 L60.242452,30.3330574 Z M64.106763,31.8431224 L64.106763,29.8090834 C64.106763,29.6028894 64.063099,29.4258054 63.97577,29.2778314 C63.888441,29.1298564 63.761086,29.0170564 63.593705,28.9394314 C63.426325,28.8593794 63.221344,28.8193534 62.978763,28.8193534 C62.753163,28.8193534 62.550608,28.8593794 62.371098,28.9394314 C62.194014,29.0170564 62.05453,29.1237924 61.952646,29.2596384 C61.850763,29.3954834 61.79982,29.5470964 61.79982,29.7144764 L61.508723,29.7108374 C61.508723,29.5604374 61.543898,29.4161014 61.614246,29.2778314 C61.687019,29.1395604 61.788903,29.0170564 61.919897,28.9103214 C62.053317,28.8011604 62.209782,28.7150444 62.389292,28.6519734 C62.571227,28.5889014 62.770143,28.5573664 62.98604,28.5573664 C63.262582,28.5573664 63.506376,28.6046694 63.717422,28.6992764 C63.930893,28.7914574 64.09706,28.9309414 64.215924,29.1177274 C64.334789,29.3045154 64.394221,29.5373924 64.394221,29.8163604 L64.394221,31.7594334 C64.394221,31.9001294 64.403925,32.0420394 64.423331,32.1851614 C64.442738,32.3282844 64.469422,32.4435104 64.503383,32.5308394 L64.503383,32.5672264 L64.186815,32.5672264 C64.160132,32.4750454 64.139512,32.3622454 64.124957,32.2288264 C64.112827,32.0954064 64.106763,31.9668394 64.106763,31.8431224 Z M64.20137,30.3330574 L64.208647,30.5841284 L63.248027,30.5841284 C63.005447,30.5841284 62.788337,30.6071744 62.596698,30.6532644 C62.405059,30.6993544 62.24253,30.7648514 62.109111,30.8497544 C61.975691,30.9346574 61.873807,31.0353294 61.803459,31.1517684 C61.733111,31.2682064 61.697936,31.3991994 61.697936,31.5447484 C61.697936,31.6951484 61.737962,31.8334204 61.818013,31.9595614 C61.898066,32.0857034 62.010865,32.1863754 62.156414,32.2615754 C62.301963,32.3343494 62.470556,32.3707364 62.662194,32.3707364 C62.924182,32.3707364 63.155847,32.3258594 63.357188,32.2361044 C63.560957,32.1439234 63.731977,32.0202064 63.870247,31.8649554 C64.008518,31.7072774 64.109189,31.5253424 64.17226,31.3191484 L64.299615,31.5301934 C64.258376,31.6587614 64.194092,31.7885424 64.106763,31.9195364 C64.019434,32.0505294 63.906634,32.1706064 63.768363,32.2797684 C63.630093,32.3865044 63.467564,32.4738334 63.280776,32.5417564 C63.093989,32.6072524 62.88173,32.6400004 62.644001,32.6400004 C62.394143,32.6400004 62.17582,32.5939104 61.989033,32.5017304 C61.804671,32.4071224 61.661549,32.2785554 61.559665,32.1160264 C61.457781,31.9510724 61.40684,31.7630714 61.40684,31.5520264 C61.40684,31.3700904 61.448078,31.2039224 61.530556,31.0535224 C61.613032,30.9031224 61.731898,30.7745544 61.887149,30.6678194 C62.044827,30.5586584 62.235253,30.4761804 62.458427,30.4203864 C62.684027,30.3621674 62.937524,30.3330574 63.218918,30.3330574 L64.20137,30.3330574 Z M68.065682,31.8431224 L68.065682,29.8090834 C68.065682,29.6028894 68.022017,29.4258054 67.934688,29.2778314 C67.847359,29.1298564 67.720003,29.0170564 67.552623,28.9394314 C67.385243,28.8593794 67.180262,28.8193534 66.93768,28.8193534 C66.71208,28.8193534 66.509525,28.8593794 66.330016,28.9394314 C66.152932,29.0170564 66.013448,29.1237924 65.911564,29.2596384 C65.80968,29.3954834 65.758739,29.5470964 65.758739,29.7144764 L65.467641,29.7108374 C65.467641,29.5604374 65.502815,29.4161014 65.573164,29.2778314 C65.645938,29.1395604 65.747822,29.0170564 65.878816,28.9103214 C66.012236,28.8011604 66.1687,28.7150444 66.34821,28.6519734 C66.530145,28.5889014 66.729061,28.5573664 66.944958,28.5573664 C67.221501,28.5573664 67.465294,28.6046694 67.676339,28.6992764 C67.889811,28.7914574 68.055978,28.9309414 68.174843,29.1177274 C68.293708,29.3045154 68.35314,29.5373924 68.35314,29.8163604 L68.35314,31.7594334 C68.35314,31.9001294 68.362843,32.0420394 68.382249,32.1851614 C68.401655,32.3282844 68.42834,32.4435104 68.462301,32.5308394 L68.462301,32.5672264 L68.145733,32.5672264 C68.119049,32.4750454 68.09843,32.3622454 68.083875,32.2288264 C68.071746,32.0954064 68.065682,31.9668394 68.065682,31.8431224 Z M68.160288,30.3330574 L68.167565,30.5841284 L67.206946,30.5841284 C66.964364,30.5841284 66.747255,30.6071744 66.555617,30.6532644 C66.363978,30.6993544 66.201449,30.7648514 66.068029,30.8497544 C65.93461,30.9346574 65.832726,31.0353294 65.762377,31.1517684 C65.692029,31.2682064 65.656855,31.3991994 65.656855,31.5447484 C65.656855,31.6951484 65.69688,31.8334204 65.776932,31.9595614 C65.856983,32.0857034 65.969783,32.1863754 66.115332,32.2615754 C66.260881,32.3343494 66.429474,32.3707364 66.621113,32.3707364 C66.8831,32.3707364 67.114764,32.3258594 67.316107,32.2361044 C67.519875,32.1439234 67.690894,32.0202064 67.829166,31.8649554 C67.967436,31.7072774 68.068107,31.5253424 68.131178,31.3191484 L68.258534,31.5301934 C68.217295,31.6587614 68.153011,31.7885424 68.065682,31.9195364 C67.978353,32.0505294 67.865552,32.1706064 67.727282,32.2797684 C67.58901,32.3865044 67.426481,32.4738334 67.239694,32.5417564 C67.052906,32.6072524 66.840649,32.6400004 66.60292,32.6400004 C66.353062,32.6400004 66.134739,32.5939104 65.947951,32.5017304 C65.76359,32.4071224 65.620467,32.2785554 65.518583,32.1160264 C65.4167,31.9510724 65.365757,31.7630714 65.365757,31.5520264 C65.365757,31.3700904 65.406996,31.2039224 65.489473,31.0535224 C65.571951,30.9031224 65.690816,30.7745544 65.846068,30.6678194 C66.003745,30.5586584 66.194171,30.4761804 66.417345,30.4203864 C66.642945,30.3621674 66.896442,30.3330574 67.177836,30.3330574 L68.160288,30.3330574 Z M69.870483,26.9781654 L69.870483,32.5672264 L69.583024,32.5672264 L69.583024,26.9781654 L69.870483,26.9781654 Z M69.815902,30.2966704 L69.673991,30.1292904 C69.695825,29.9206704 69.746766,29.7217544 69.826818,29.5325414 C69.909295,29.3433274 70.017244,29.1759474 70.150663,29.0303984 C70.28651,28.8848494 70.444186,28.7696244 70.623696,28.6847214 C70.805633,28.5998184 71.005761,28.5573664 71.224084,28.5573664 C71.420573,28.5573664 71.596444,28.5852634 71.751697,28.6410564 C71.906949,28.6944254 72.037942,28.7793274 72.144677,28.8957664 C72.253839,29.0122054 72.336316,29.1626054 72.39211,29.3469674 C72.447904,29.5289024 72.475801,29.7508644 72.475801,30.0128514 L72.475801,32.5672264 L72.188342,32.5672264 L72.188342,30.0128514 C72.188342,29.7023474 72.14589,29.4621924 72.060987,29.2923864 C71.976085,29.1201534 71.857219,28.9988634 71.704393,28.9285144 C71.553992,28.8581674 71.378122,28.8229924 71.17678,28.8229924 C70.943902,28.8229924 70.742561,28.8751474 70.572755,28.9794574 C70.405374,29.0813414 70.267102,29.2111214 70.157941,29.3687994 C70.04878,29.5240514 69.965089,29.6853674 69.906869,29.8527474 C69.851077,30.0201284 69.820754,30.1681024 69.815902,30.2966704 Z" id="Fill-72" fill="#000000"></path>
                <text id="-----" font-family="Helvetica" font-size="96.877066" font-weight="normal"></text>
                <path d="M39.9812841,19.4991515 C40.0777825,20.0306295 40.4281407,20.425779 40.7662357,20.3894399 C41.1043315,20.3531009 41.3013522,19.8890279 41.2040925,19.3638773 C41.106832,18.8387255 40.7572359,18.4372497 40.41914,18.4735887 C40.0810451,18.5099278 39.8840246,18.9739999 39.9812841,19.4991515 Z" id="Fill-73" fill="#263238"></path>
                <path d="M40.2726302,18.5200472 L41.4558309,18.0205938 C41.4558309,18.0205938 40.9913782,19.1071372 40.2726302,18.5200472 Z" id="Fill-74" fill="#263238"></path>
                <path d="M30.979418,20.4989377 C31.0766775,21.0240893 31.4270315,21.4192414 31.7714537,21.3836636 C32.115875,21.3480856 32.3058179,20.88958 32.2093186,20.3581019 C32.1128202,19.8266239 31.7624633,19.4314715 31.4236062,19.4741368 C31.0847502,19.5168023 30.8829197,19.9674597 30.979418,20.4989377 Z" id="Fill-75" fill="#263238"></path>
                <path d="M31.2766244,19.5206234 L32.4534928,19.0204082 C32.4534928,19.0204082 31.9802001,20.0737982 31.2766244,19.5206234 Z" id="Fill-76" fill="#263238"></path>
            </g>
        </g>
    </g>
</svg>