<svg width="199" height="166" viewBox="0 0 199 166" fill="none" xmlns="http://www.w3.org/2000/svg">
<g clip-path="url(#clip0)">
<path d="M175.193 44.3052C178.74 52.8076 180.716 62.1198 180.716 71.8947C180.716 111.515 148.422 143.645 108.599 143.645C73.0774 143.645 43.5733 118.109 37.5853 84.5038L17.5864 93.5557" stroke="#CFE8E7" stroke-miterlimit="10"/>
<path d="M36.4805 71.8948C36.4805 32.2746 68.7751 0.144592 108.598 0.144592C132.376 0.144592 153.479 11.5969 166.618 29.2669L188.797 15.4721" stroke="#CFE8E7" stroke-miterlimit="10"/>
<path d="M179.583 59.2568L188.768 52.4895" stroke="#129F81" stroke-miterlimit="10"/>
<g opacity="0.43">
<path opacity="0.43" d="M114.382 71.7502H103.743V93.5558H114.382V71.7502Z" fill="#97D5EB" stroke="#97D5EB" stroke-miterlimit="10"/>
<path opacity="0.43" d="M135.021 53.7909C135.021 56.7407 132.782 59.17 129.905 59.517C126.504 69.6679 117.958 76.8689 107.929 76.8689C97.8717 76.8689 89.2676 69.5811 85.9248 59.3435C85.4306 59.4881 84.9364 59.546 84.4132 59.546C81.2157 59.546 78.5996 56.9721 78.5996 53.762C78.5996 50.5808 81.1867 47.978 84.4132 47.978H84.4714C85.2562 33.8362 95.4591 22.6442 107.958 22.6442C120.574 22.6442 130.864 34.0676 131.474 48.4118C133.538 49.3083 135.021 51.3906 135.021 53.7909Z" fill="#97D5EB" stroke="#97D5EB" stroke-miterlimit="10"/>
<path opacity="0.43" d="M103.744 34.4435C112.638 34.4435 119.848 27.2704 119.848 18.4219C119.848 9.57345 112.638 2.40033 103.744 2.40033C94.85 2.40033 87.6401 9.57345 87.6401 18.4219C87.6401 27.2704 94.85 34.4435 103.744 34.4435Z" fill="#97D5EB" stroke="#97D5EB" stroke-miterlimit="10"/>
<path opacity="0.43" d="M84.4131 48.0069C83.1632 29.209 98.3658 15.9348 110.836 17.2073C122.173 18.393 133.422 31.8118 131.445 48.4407C130.573 47.255 122.55 36.6993 108.249 36.4679C93.7149 36.2076 85.2561 46.8791 84.4131 48.0069Z" fill="#97D5EB" stroke="#97D5EB" stroke-miterlimit="10"/>
<path opacity="0.43" d="M83.7446 90.9819C90.4012 88.2056 97.0578 85.4293 103.743 82.653C107.813 82.653 111.912 82.653 115.981 82.653L133.073 90.6638C132.085 91.9362 123.452 102.781 108.423 102.839C93.4824 102.897 84.762 92.2833 83.7446 90.9819Z" fill="#97D5EB" stroke="#97D5EB" stroke-miterlimit="10"/>
<path opacity="0.43" d="M78.6865 110.214C86.1195 110.214 92.145 105.501 92.145 99.6867C92.145 93.8729 86.1195 89.1599 78.6865 89.1599C71.2536 89.1599 65.228 93.8729 65.228 99.6867C65.228 105.501 71.2536 110.214 78.6865 110.214Z" fill="#97D5EB" stroke="#97D5EB" stroke-miterlimit="10"/>
<path opacity="0.43" d="M83.7446 90.9819C88.4246 93.2087 98.017 96.9683 110.487 96.4477C120.748 96.0139 128.597 92.8617 133.044 90.6638C131.097 114.609 129.178 138.555 127.23 162.501H87.2909C86.1282 138.671 84.9364 114.812 83.7446 90.9819Z" fill="#97D5EB" stroke="#97D5EB" stroke-miterlimit="10"/>
<path opacity="0.43" d="M65.2283 97.6045L58.6299 157.353C61.2751 164.207 68.5421 167.215 73.7743 165.046C77.5823 163.455 80.1402 159.233 80.2274 154.461C83.018 135.489 85.8085 116.547 88.599 97.5756H65.2283V97.6045Z" fill="#97D5EB" stroke="#97D5EB" stroke-miterlimit="10"/>
<path opacity="0.43" d="M114.121 119.641H99.4994C97.5809 119.641 96.0112 118.08 96.0112 116.171V92.6592C96.0112 90.7505 97.5809 89.1888 99.4994 89.1888H114.121C116.039 89.1888 117.609 90.7505 117.609 92.6592V116.171C117.609 118.08 116.039 119.641 114.121 119.641Z" fill="#97D5EB" stroke="#97D5EB" stroke-miterlimit="10"/>
<path opacity="0.43" d="M62.8158 152.552L92.1455 114.378L99.5579 119.497L73.6001 162.472C73.2803 162.53 68.3678 163.253 65.0541 159.58C62.4379 156.717 62.7577 153.16 62.8158 152.552Z" fill="#97D5EB" stroke="#97D5EB" stroke-miterlimit="10"/>
<path opacity="0.43" d="M97.2906 99.976C101.011 100.93 104.703 101.914 108.424 102.868C106.767 109.375 105.081 115.911 103.424 122.418C99.6741 119.757 95.8953 117.068 92.1455 114.407C93.8605 109.577 95.5755 104.777 97.2906 99.976Z" fill="#97D5EB" stroke="#97D5EB" stroke-miterlimit="10"/>
<path opacity="0.43" d="M135.835 110.3C143.268 110.3 149.294 105.587 149.294 99.7735C149.294 93.9597 143.268 89.2467 135.835 89.2467C128.402 89.2467 122.376 93.9597 122.376 99.7735C122.376 105.587 128.402 110.3 135.835 110.3Z" fill="#97D5EB" stroke="#97D5EB" stroke-miterlimit="10"/>
<path opacity="0.43" d="M149.293 97.6913L155.892 157.44C153.246 164.294 145.979 167.301 140.747 165.132C136.939 163.542 134.381 159.32 134.294 154.548C131.503 135.576 128.713 116.634 125.922 97.6624H149.293V97.6913Z" fill="#97D5EB" stroke="#97D5EB" stroke-miterlimit="10"/>
<path opacity="0.43" d="M151.706 152.639L122.376 114.465L114.964 119.584L140.922 162.559C141.241 162.616 146.154 163.339 149.468 159.667C152.055 156.775 151.764 153.246 151.706 152.639Z" fill="#97D5EB" stroke="#97D5EB" stroke-miterlimit="10"/>
<path opacity="0.43" d="M117.231 100.034C113.51 100.988 109.819 101.971 106.098 102.926C107.755 109.433 109.441 115.969 111.098 122.476C114.848 119.815 118.626 117.125 122.376 114.465C120.661 109.664 118.946 104.863 117.231 100.034Z" fill="#97D5EB" stroke="#97D5EB" stroke-miterlimit="10"/>
<path opacity="0.43" d="M84.9945 59.1411C85.8956 61.2233 88.2211 61.8596 89.471 61.1366C90.3721 60.616 90.8081 59.2857 90.4593 57.9554C92.058 59.4014 92.6103 61.4836 91.8546 63.2188C91.1569 64.8094 89.6454 65.5035 89.2384 65.677C88.6861 65.4456 86.7095 64.578 85.634 62.4669C84.9655 61.0787 84.9654 59.7773 84.9945 59.1411Z" fill="#97D5EB" stroke="#97D5EB" stroke-miterlimit="10"/>
<path opacity="0.43" d="M129.527 60.4136C128.626 62.4958 126.3 63.132 125.05 62.409C124.149 61.8885 123.713 60.5582 124.062 59.2278C122.463 60.6738 121.911 62.7561 122.667 64.4913C123.364 66.0818 124.876 66.7759 125.283 66.9494C125.835 66.7181 127.812 65.8505 128.887 63.7393C129.556 62.3223 129.556 61.0498 129.527 60.4136Z" fill="#97D5EB" stroke="#97D5EB" stroke-miterlimit="10"/>
<path opacity="0.43" d="M100.284 28.0234L96.0112 43.2063L103.743 40.6324L100.284 28.0234Z" fill="#97D5EB" stroke="#97D5EB" stroke-miterlimit="10"/>
</g>
<path opacity="0.25" d="M199 33.9808C199 40.3432 193.215 45.6934 185.396 47.1683C184.989 47.2551 184.582 47.3129 184.175 47.3707C183.914 47.3997 183.681 47.3997 183.419 47.3997H122.783C122.696 47.3997 122.638 47.3997 122.551 47.3997C121.475 47.2551 120.4 47.0237 119.411 46.7056C112.348 44.5077 107.29 38.4056 107.29 31.2045C107.29 22.1526 115.284 14.8359 125.167 14.8359C129.033 14.8359 132.579 15.9638 135.515 17.8436C136.881 10.0352 144.265 4.0777 153.159 4.0777C163.043 4.0777 171.036 11.3944 171.036 20.4463C171.036 21.285 170.978 22.1237 170.833 22.9624C173.769 21.3718 177.315 20.4463 181.181 20.4463C191.006 20.4174 199 26.4906 199 33.9808Z" fill="#98CFB8"/>
<path opacity="0.25" d="M91.7388 127.218C91.7388 133.581 85.9543 138.931 78.135 140.406C77.728 140.493 77.3211 140.55 76.9141 140.608C76.6525 140.637 76.42 140.637 76.1584 140.637H15.5224C15.4351 140.637 15.377 140.637 15.2898 140.637C14.2143 140.493 13.1388 140.261 12.1505 139.943C5.08691 137.745 0 131.614 0 124.413C0 115.361 7.99372 108.045 17.8769 108.045C21.7429 108.045 25.2892 109.172 28.2251 111.052C29.5913 103.244 36.9746 97.2863 45.8694 97.2863C55.7526 97.2863 63.7463 104.603 63.7463 113.655C63.7463 114.494 63.6882 115.332 63.5428 116.171C66.4787 114.58 70.025 113.655 73.891 113.655C83.7451 113.655 91.7388 119.728 91.7388 127.218Z" fill="#98CFB8"/>
<path d="M119.179 71.7502H108.54V93.5558H119.179V71.7502Z" fill="#393939"/>
<path d="M139.818 53.791C139.818 56.7408 137.579 59.1701 134.702 59.5171C131.301 69.668 122.755 76.869 112.726 76.869C102.669 76.869 94.0645 69.5812 90.7216 59.3436C90.2275 59.4882 89.7333 59.546 89.2101 59.546C86.0126 59.546 83.3965 56.9721 83.3965 53.762C83.3965 50.5809 85.9835 47.9781 89.2101 47.9781H89.2682C90.0531 33.8363 100.256 22.6443 112.755 22.6443C125.371 22.6443 135.661 34.0676 136.271 48.4119C138.335 49.3084 139.818 51.3906 139.818 53.791Z" fill="#CFE8E7"/>
<path d="M108.54 34.4435C117.434 34.4435 124.644 27.2704 124.644 18.4219C124.644 9.57345 117.434 2.40033 108.54 2.40033C99.6464 2.40033 92.4365 9.57345 92.4365 18.4219C92.4365 27.2704 99.6464 34.4435 108.54 34.4435Z" fill="#008E73"/>
<path d="M89.21 48.0069C87.9601 29.209 103.163 15.9348 115.633 17.2073C126.969 18.393 138.219 31.8118 136.242 48.4407C135.37 47.255 127.347 36.6993 113.046 36.4679C98.5118 36.2076 90.053 46.8791 89.21 48.0069Z" fill="#00A588"/>
<path d="M88.5703 90.9819C95.2269 88.2056 101.883 85.4293 108.569 82.653C112.639 82.653 116.737 82.653 120.807 82.653L137.899 90.6638C136.911 91.9362 128.277 102.781 113.249 102.839C98.279 102.897 89.5877 92.2833 88.5703 90.9819Z" fill="#CFE8E7"/>
<path d="M83.4834 110.214C90.9164 110.214 96.9419 105.501 96.9419 99.6867C96.9419 93.8729 90.9164 89.1599 83.4834 89.1599C76.0505 89.1599 70.0249 93.8729 70.0249 99.6867C70.0249 105.501 76.0505 110.214 83.4834 110.214Z" fill="#00A588"/>
<path d="M88.5703 90.9819C93.2503 93.2087 102.843 96.9683 115.313 96.4477C125.574 96.0139 133.422 92.8617 137.87 90.6638C135.922 114.609 134.004 138.555 132.056 162.501H92.1166C90.9248 138.671 89.733 114.812 88.5703 90.9819Z" fill="#00A588"/>
<path d="M70.0247 97.6045L63.4263 157.353C66.0715 164.207 73.3385 167.215 78.5707 165.046C82.3786 163.455 84.9366 159.233 85.0238 154.461C87.8144 135.489 90.6049 116.547 93.3954 97.5756H70.0247V97.6045Z" fill="#00A588"/>
<path d="M118.918 119.641H104.296C102.378 119.641 100.808 118.08 100.808 116.171V92.6592C100.808 90.7505 102.378 89.1888 104.296 89.1888H118.918C120.836 89.1888 122.406 90.7505 122.406 92.6592V116.171C122.406 118.08 120.836 119.641 118.918 119.641Z" fill="#393939"/>
<path d="M67.6124 152.552L96.9421 114.378L104.354 119.497L78.3967 162.472C78.0769 162.53 73.1644 163.253 69.8507 159.58C67.2636 156.717 67.5543 153.16 67.6124 152.552Z" fill="#CFE8E7"/>
<path d="M102.116 99.976C105.837 100.93 109.529 101.914 113.249 102.868C111.592 109.375 109.906 115.911 108.25 122.418C104.5 119.757 100.721 117.068 96.9712 114.407C98.6571 109.577 100.372 104.777 102.116 99.976Z" fill="#CFE8E7"/>
<path d="M140.631 110.3C148.064 110.3 154.09 105.587 154.09 99.7735C154.09 93.9597 148.064 89.2467 140.631 89.2467C133.198 89.2467 127.173 93.9597 127.173 99.7735C127.173 105.587 133.198 110.3 140.631 110.3Z" fill="#00A588"/>
<path d="M154.089 97.6913L160.688 157.44C158.043 164.294 150.776 167.301 145.543 165.132C141.736 163.542 139.178 159.32 139.09 154.548C136.3 135.576 133.509 116.634 130.719 97.6624H154.089V97.6913Z" fill="#00A588"/>
<path d="M156.531 152.639L127.202 114.465L119.76 119.613L145.718 162.587C146.038 162.645 150.95 163.368 154.264 159.695C156.88 156.775 156.589 153.246 156.531 152.639Z" fill="#CFE8E7"/>
<path d="M122.028 100.034C118.307 100.988 114.615 101.971 110.895 102.926C112.551 109.433 114.237 115.969 115.894 122.476C119.644 119.815 123.423 117.125 127.173 114.465C125.458 109.664 123.743 104.863 122.028 100.034Z" fill="#CFE8E7"/>
<path d="M89.8205 59.1411C90.7216 61.2233 93.047 61.8596 94.297 61.1366C95.1981 60.616 95.6341 59.2857 95.2853 57.9554C96.884 59.4014 97.4363 61.4836 96.6805 63.2188C95.9829 64.8094 94.4714 65.5035 94.0644 65.677C93.5121 65.4456 91.5355 64.578 90.46 62.4669C89.7624 61.0787 89.7624 59.7773 89.8205 59.1411Z" fill="#00A588"/>
<path d="M134.324 60.4136C133.422 62.4958 131.097 63.1321 129.847 62.4091C128.946 61.8885 128.51 60.5582 128.859 59.2279C127.26 60.6739 126.708 62.7561 127.463 64.4913C128.161 66.0819 129.673 66.776 130.08 66.9495C130.632 66.7181 132.609 65.8506 133.684 63.7394C134.382 62.3223 134.382 61.0499 134.324 60.4136Z" fill="#00A588"/>
<path d="M105.081 28.0233L100.808 43.2062L108.54 40.6324L105.081 28.0233Z" fill="#CFE8E7"/>
<path d="M176.908 55.6418C176.152 63.9418 168.798 70.0439 160.456 69.3209C154.991 68.8293 150.485 65.5324 148.218 60.992L142.462 59.4592L146.735 55.7864C146.648 54.861 146.648 53.9355 146.735 52.9812C147.491 44.6812 154.845 38.5502 163.188 39.3021C171.501 39.9962 177.635 47.3418 176.908 55.6418Z" stroke="#00A588" stroke-width="3" stroke-miterlimit="10"/>
</g>
<defs>
<clipPath id="clip0">
<rect width="199" height="166" fill="white"/>
</clipPath>
</defs>
</svg>
