<svg viewBox="0 0 206 156" fill="none" xmlns="http://www.w3.org/2000/svg">
<path d="M19.8087 150.341L186.185 150.341V115.948L19.8087 115.948V150.341Z" fill="#407BFF"/>
<path opacity="0.1" d="M19.8087 150.341L186.185 150.341V115.948L19.8087 115.948V150.341Z" fill="white"/>
<path d="M19.8087 100.827H186.185L188.71 74.9795C189.055 71.4489 188.657 67.8853 187.542 64.5177C186.427 61.15 184.62 58.053 182.237 55.4256C179.854 52.7982 176.947 50.6986 173.704 49.2619C170.461 47.8252 166.953 47.083 163.406 47.0833H42.5883C39.0412 47.083 35.5333 47.8252 32.2901 49.2619C29.0469 50.6986 26.1402 52.7982 23.757 55.4256C21.3737 58.053 19.5666 61.15 18.4519 64.5177C17.3371 67.8853 16.9394 71.4489 17.2842 74.9795L19.8087 100.827Z" fill="#407BFF"/>
<path opacity="0.3" d="M19.8087 100.827H186.185L188.71 74.9795C189.055 71.4489 188.657 67.8853 187.542 64.5177C186.427 61.15 184.62 58.053 182.237 55.4256C179.854 52.7982 176.947 50.6986 173.704 49.2619C170.461 47.8252 166.953 47.083 163.406 47.0833H42.5883C39.0412 47.083 35.5333 47.8252 32.2901 49.2619C29.0469 50.6986 26.1402 52.7982 23.757 55.4256C21.3737 58.053 19.5666 61.15 18.4519 64.5177C17.3371 67.8853 16.9394 71.4489 17.2842 74.9795L19.8087 100.827Z" fill="black"/>
<path opacity="0.9" d="M19.8087 117.898L186.185 117.898V115.948L19.8087 115.948V117.898Z" fill="#407BFF"/>
<path d="M19.8087 115.948L186.185 115.948V97.7934L19.8087 97.7934V115.948Z" fill="#407BFF"/>
<path opacity="0.2" d="M19.8087 115.948L186.185 115.948V97.7934L19.8087 97.7934V115.948Z" fill="black"/>
<path d="M188.511 69.4412C186.202 69.4414 183.918 69.9142 181.799 70.8306C179.679 71.747 177.77 73.0875 176.188 74.7697C174.606 76.4518 173.386 78.44 172.601 80.6118C171.817 82.7835 171.485 85.0929 171.627 87.3976L174.931 141.518C175.027 143.111 175.727 144.606 176.889 145.7C178.051 146.793 179.587 147.401 181.183 147.4H195.801C197.396 147.4 198.932 146.791 200.094 145.698C201.257 144.606 201.96 143.111 202.059 141.518L205.363 87.3976C205.505 85.0956 205.174 82.789 204.391 80.6195C203.609 78.45 202.391 76.4634 200.813 74.7817C199.235 73.1 197.329 71.7588 195.214 70.8404C193.098 69.922 190.818 69.4459 188.511 69.4412Z" fill="#407BFF"/>
<path opacity="0.1" d="M200.827 92.5031C203.684 85.7063 200.49 77.8801 193.694 75.0229C186.897 72.1658 179.072 75.3596 176.215 82.1565C173.358 88.9534 176.551 96.7795 183.348 99.6367C190.144 102.494 197.97 99.3 200.827 92.5031Z" fill="white"/>
<path d="M185.438 153.282H191.584L192.543 147.4H184.48L185.438 153.282Z" fill="#263238"/>
<path d="M14.0857 153.282H20.2316L21.1899 147.4H13.1274L14.0857 153.282Z" fill="#263238"/>
<path d="M17.4826 69.4412C15.1736 69.4414 12.8891 69.9142 10.7697 70.8306C8.65039 71.747 6.74104 73.0875 5.15927 74.7697C3.57749 76.4518 2.35678 78.44 1.5723 80.6118C0.787811 82.7835 0.456159 85.0929 0.597764 87.3976L3.90203 141.518C4.00123 143.111 4.70372 144.606 5.86645 145.698C7.02917 146.791 8.56469 147.4 10.1603 147.4H24.7784C26.3738 147.401 27.9095 146.793 29.0715 145.7C30.2334 144.606 30.9341 143.111 31.0301 141.518L34.3344 87.3976C34.4758 85.0956 34.1451 82.789 33.3626 80.6195C32.5802 78.45 31.3624 76.4634 29.7842 74.7817C28.206 73.1 26.3006 71.7588 24.1851 70.8404C22.0697 69.922 19.7888 69.4459 17.4826 69.4412Z" fill="#407BFF"/>
<path opacity="0.1" d="M29.7715 92.5072C32.6244 85.7086 29.4288 77.8776 22.634 75.0163C15.8393 72.155 8.01835 75.3468 5.16551 82.1455C2.31268 88.9441 5.50824 96.7751 12.303 99.6364C19.0978 102.498 26.9187 99.3059 29.7715 92.5072Z" fill="white"/>
<path d="M121.527 94.7732L128.387 93.6893L126.583 76.1955L119.723 77.2794L121.527 94.7732Z" fill="#CE7A63"/>
<path d="M128.698 89.7504L120.517 89.8693C120.374 89.8765 120.239 89.9345 120.136 90.0328C120.033 90.131 119.969 90.2629 119.955 90.4046L118.904 97.2184C118.878 97.377 118.885 97.5394 118.926 97.6948C118.967 97.8502 119.041 97.9952 119.142 98.1201C119.243 98.245 119.37 98.3471 119.513 98.4195C119.657 98.4919 119.814 98.533 119.975 98.5402C122.671 98.4477 125.532 98.2428 128.929 98.1965C131.017 98.1635 136.166 98.3155 139.053 98.2758C141.941 98.2362 142.173 95.0507 140.977 94.7797C135.617 93.5703 131.612 91.852 129.835 90.1535C129.522 89.8771 129.115 89.7326 128.698 89.7504Z" fill="#263238"/>
<path d="M71.4214 74.8803C71.4214 74.8803 96.5338 45.9465 109.678 48.7355C124.752 51.9408 130.753 83.9808 130.753 83.9808L119.082 85.3026C119.082 85.3026 112.983 70.9745 106.024 65.727C91.7625 88.759 55.2767 105.784 50.7896 82.0179C56.7835 79.6057 71.4214 74.8803 71.4214 74.8803Z" fill="#263238"/>
<path d="M131.883 84.1857L117.324 87.0341L116.227 82.2295L131.414 78.9448L131.883 84.1857Z" fill="#263238"/>
<path opacity="0.2" d="M67.2382 85.7454C67.0069 86.5847 67.6612 89.3142 71.6395 92.4072C77.0387 90.9334 82.874 87.999 88.3657 84.1064C80.3099 81.8329 68.8573 79.8965 67.2382 85.7454Z" fill="black"/>
<path d="M119.842 152.978L125.711 149.409L117.424 133.673L111.555 137.242L119.842 152.978Z" fill="#CE7A63"/>
<path d="M123.325 144.532L116.492 147.948C116.375 148.018 116.288 148.127 116.247 148.256C116.205 148.385 116.213 148.525 116.267 148.649L118.455 155.152C118.494 155.305 118.565 155.447 118.662 155.571C118.76 155.695 118.883 155.796 119.022 155.87C119.161 155.943 119.315 155.987 119.472 155.997C119.629 156.008 119.787 155.986 119.935 155.932C122.109 154.789 123.629 153.83 126.398 152.449C128.103 151.597 133.357 149.237 135.709 148.061C138.062 146.884 136.833 143.95 135.709 144.181C130.766 145.212 126.649 145.285 124.475 144.492C124.291 144.419 124.094 144.385 123.896 144.391C123.698 144.398 123.504 144.446 123.325 144.532Z" fill="#263238"/>
<path d="M66.128 79.4207C66.128 79.4207 78.8957 81.1786 97.4921 93.3853C110.372 101.845 121.613 136.561 121.613 136.561L111.542 143.441C111.542 143.441 98.7411 115.571 88.022 105.281C52.7985 96.8946 42.4231 107.859 40.6719 83.7429C46.8971 82.0114 66.128 79.4207 66.128 79.4207Z" fill="#263238"/>
<path d="M124.032 138.088L110.769 144.743L108.423 140.408L122.175 133.171L124.032 138.088Z" fill="#263238"/>
<path d="M41.65 8.63897C50.1437 10.8565 50.9401 29.0299 58.9622 25.8438C66.9843 22.6577 68.7047 35.0898 52.1635 34.1595C55.1646 38.7028 46.2951 42.4433 36.1512 37.1544C35.839 41.3982 23.535 44.5142 24.7138 33.5095C25.8926 22.5048 20.5721 14.5778 28.2374 11.9079C31.3086 6.33224 40.758 7.9444 41.65 8.63897Z" fill="#407BFF"/>
<path opacity="0.5" d="M41.65 8.63897C50.1437 10.8565 50.9401 29.0299 58.9622 25.8438C66.9843 22.6577 68.7047 35.0898 52.1635 34.1595C55.1646 38.7028 46.2951 42.4433 36.1512 37.1544C35.839 41.3982 23.535 44.5142 24.7138 33.5095C25.8926 22.5048 20.5721 14.5778 28.2374 11.9079C31.3086 6.33224 40.758 7.9444 41.65 8.63897Z" fill="black"/>
<path d="M52.9471 45.8779L52.8515 46.2666L52.7878 46.5725L52.6795 47.146C52.6157 47.5219 52.5648 47.8915 52.5202 48.2547C52.4437 48.9875 52.3927 49.714 52.3864 50.4404C52.3607 51.8938 52.4695 53.3465 52.7113 54.7798C53.1882 57.6823 54.2225 60.4651 55.757 62.9744C56.5224 64.213 57.4012 65.3778 58.3822 66.4536C58.8665 66.9889 59.3826 67.4859 59.9051 67.9766L60.7079 68.6775C60.9947 68.9069 61.3069 69.1299 61.6318 69.3147C63.0441 70.2759 64.6605 70.8954 66.3534 71.1244C67.3526 71.2438 68.3659 71.1438 69.3226 70.8313C69.8131 70.6613 70.2783 70.4255 70.7053 70.1304C70.928 69.9807 71.1408 69.8168 71.3425 69.6397C71.4381 69.5441 71.5273 69.4485 71.6228 69.3402L71.9669 68.9324C72.1477 68.7424 72.2892 68.5187 72.3835 68.2741C72.4778 68.0294 72.523 67.7686 72.5165 67.5064C72.51 67.2443 72.4519 66.986 72.3456 66.7464C72.2393 66.5067 72.0868 66.2903 71.8968 66.1095C71.7069 65.9288 71.4832 65.7872 71.2385 65.6929C70.9939 65.5986 70.7331 65.5534 70.471 65.5599C70.2088 65.5664 69.9506 65.6245 69.7109 65.7308C69.4712 65.8372 69.2548 65.9897 69.0741 66.1796C69.1442 66.0904 69.106 66.1095 69.1123 66.0904C69.1187 66.0713 69.1123 66.0904 69.0741 66.0904H68.9849L68.7938 66.0394C68.6708 66.0011 68.5514 65.9521 68.4369 65.8929C68.2133 65.7586 68.0003 65.6073 67.7997 65.4404C67.1892 64.9576 66.6259 64.4178 66.1176 63.8283C65.9583 63.6626 65.8181 63.4778 65.6461 63.2994L65.1172 62.745C64.7859 62.3627 64.4482 61.9867 64.1487 61.5853C63.539 60.8084 62.9995 59.9789 62.5366 59.1065C61.6328 57.3688 61.0316 55.4897 60.7589 53.55C60.6238 52.5704 60.562 51.5821 60.5741 50.5933C60.5741 50.1027 60.5741 49.6056 60.6506 49.1277L60.7334 48.4204L60.8099 47.8915L60.88 47.4263C61.0159 46.4094 60.7579 45.3789 60.1588 44.5459C59.5597 43.713 58.6648 43.1406 57.6575 42.9459C56.6502 42.7513 55.6065 42.9492 54.7403 43.499C53.8741 44.0488 53.2508 44.909 52.9981 45.9034L52.9471 45.8779Z" fill="#CE7A63"/>
<path d="M62.9892 49.3125C63.8068 52.8424 64.388 56.423 64.7287 60.0304C65.3659 65.2875 66.0087 67.9694 66.614 76.6355C66.614 76.6355 59.1012 79.9744 52.0892 81.6444C45.0772 83.3143 40.0686 84.6497 40.0686 84.6497C40.0686 84.6497 37.279 67.5177 29.9259 51.6001C29.5091 50.7729 29.2828 49.8629 29.2635 48.9369C29.2441 48.0108 29.4323 47.0922 29.8142 46.2483C30.1961 45.4045 30.762 44.6568 31.4704 44.0601C32.1788 43.4635 33.0118 43.0329 33.9083 42.8001C34.9278 42.5325 36.0237 42.2712 37.1452 42.0355C41.075 41.1158 45.0654 40.477 49.0859 40.1238C50.3985 40.041 51.7684 39.99 53.0874 39.9645C57.8217 39.9071 62.1099 44.7054 62.9892 49.3125Z" fill="#407BFF"/>
<path d="M35.8517 28.4755C37.4956 32.1523 39.885 38.9832 37.7632 41.9463C37.7632 41.9463 41.3187 40.8184 49.7995 44.3741C51.5263 40.812 49.704 40.0537 49.704 40.0537C45.18 39.7224 44.5492 36.5618 44.6065 33.4968L35.8517 28.4755Z" fill="#CE7A63"/>
<path d="M48.022 43.6859C45.537 44.4505 45.3458 48.4204 45.3458 48.4204C45.3458 48.4204 38.5535 45.0623 36.1322 42.3222C36.8328 41.7686 37.5029 41.1772 38.1393 40.5508C38.1393 40.5508 46.3334 42.4115 48.022 43.6859Z" fill="white"/>
<path d="M50.4049 42.8766C50.4049 42.8766 52.6987 43.1251 53.9858 46.0626C53.68 40.3659 50.9083 39.8307 50.9083 39.8307C50.1517 39.539 49.3137 39.539 48.5571 39.8307C49.1753 40.0381 49.7002 40.4578 50.0384 41.0154C50.3767 41.573 50.5065 42.2324 50.4049 42.8766Z" fill="white"/>
<path opacity="0.2" d="M39.4327 30.5209L44.6321 33.4904C44.6112 34.2104 44.6517 34.931 44.7532 35.6442C43.0646 35.6442 40.4012 34.2487 39.8278 32.5855C39.5721 31.9269 39.4382 31.2274 39.4327 30.5209Z" fill="black"/>
<path d="M31.3468 21.2813C33.4941 27.303 34.2779 29.8837 38.2857 32.2988C44.3198 35.9309 51.2587 32.4071 50.9529 25.9712C50.6853 20.1853 47.219 11.3153 40.5031 10.2766C39.0683 10.0052 37.587 10.1224 36.2128 10.6162C34.8385 11.1099 33.6213 11.9623 32.6873 13.0848C31.7533 14.2074 31.1365 15.5593 30.9008 17.0005C30.6651 18.4417 30.8191 19.9197 31.3468 21.2813Z" fill="#CE7A63"/>
<path d="M38.4259 7.41553C43.0965 7.41553 49.9334 11.7167 43.9949 12.9912C44.0522 14.9028 40.5605 15.0621 37.9799 14.1636C38.4005 15.5464 36.1576 18.4202 32.9335 17.6938C34.845 18.6242 35.1508 23.4288 32.9335 23.7729C30.7161 24.117 26.1029 25.5889 26.5617 17.6938C27.0204 9.79871 33.4305 7.41553 38.4259 7.41553Z" fill="#407BFF"/>
<path opacity="0.5" d="M38.4259 7.41553C43.0965 7.41553 49.9334 11.7167 43.9949 12.9912C44.0522 14.9028 40.5605 15.0621 37.9799 14.1636C38.4005 15.5464 36.1576 18.4202 32.9335 17.6938C34.845 18.6242 35.1508 23.4288 32.9335 23.7729C30.7161 24.117 26.1029 25.5889 26.5617 17.6938C27.0204 9.79871 33.4305 7.41553 38.4259 7.41553Z" fill="black"/>
<path d="M25.8417 1.15165C31.8503 -2.59518 37.5212 3.70052 36.4061 7.2052L28.0527 11.0285C23.4714 11.1878 20.6232 4.38871 25.8417 1.15165Z" fill="#407BFF"/>
<path opacity="0.5" d="M25.8417 1.15165C31.8503 -2.59518 37.5212 3.70052 36.4061 7.2052L28.0527 11.0285C23.4714 11.1878 20.6232 4.38871 25.8417 1.15165Z" fill="black"/>
<path d="M33.9404 8.95758C36.2151 8.2439 38.7383 7.89343 37.1263 6.96947C35.5142 6.0455 31.7867 6.96947 29.7095 8.42869C27.4539 10.0217 26.1731 12.6279 28.1675 12.2966C30.1619 11.9652 29.0532 10.4869 33.9404 8.95758Z" fill="#407BFF"/>
<path d="M39.4327 21.0647C39.592 21.5745 39.9871 21.9249 40.3248 21.8485C40.6625 21.772 40.7963 21.2941 40.637 20.778C40.4777 20.2618 40.0827 19.9113 39.7513 19.9942C39.42 20.077 39.2735 20.5486 39.4327 21.0647Z" fill="#263238"/>
<path d="M45.8555 19.3442C46.0148 19.8604 46.4098 20.2108 46.7412 20.1344C47.0725 20.0579 47.2127 19.5736 47.0534 19.0638C46.8941 18.5541 46.499 18.1972 46.1677 18.2737C45.8364 18.3502 45.6962 18.8344 45.8555 19.3442Z" fill="#263238"/>
<path d="M46.0278 18.3374L47.1428 17.7002C47.1428 17.7002 46.8115 18.8344 46.0278 18.3374Z" fill="#263238"/>
<path d="M44.199 20.9373C45.0142 22.0014 45.9605 22.9584 47.0154 23.7856C46.5439 24.5758 45.3141 24.5503 45.3141 24.5503L44.199 20.9373Z" fill="#BA4D3C"/>
<path d="M43.0072 27.1182C43.3013 27.1048 43.5935 27.0643 43.8801 26.9972C43.8999 26.992 43.9185 26.9829 43.9348 26.9705C43.9511 26.958 43.9646 26.9424 43.9748 26.9245C43.9849 26.9067 43.9913 26.887 43.9936 26.8667C43.996 26.8463 43.9942 26.8257 43.9884 26.806C43.9752 26.766 43.9478 26.7323 43.9114 26.7111C43.875 26.69 43.8322 26.683 43.7909 26.6913C43.1412 26.8465 42.4649 26.8538 41.8121 26.7126C41.1592 26.5714 40.5463 26.2854 40.0188 25.8757C39.989 25.8465 39.949 25.8301 39.9073 25.8301C39.8656 25.8301 39.8255 25.8465 39.7958 25.8757C39.7815 25.8899 39.7702 25.9068 39.7625 25.9254C39.7548 25.9439 39.7508 25.9639 39.7508 25.984C39.7508 26.0041 39.7548 26.0241 39.7625 26.0426C39.7702 26.0612 39.7815 26.0781 39.7958 26.0923C40.7015 26.8217 41.8464 27.1874 43.0072 27.1182Z" fill="#263238"/>
<path d="M30.7733 26.7869C31.2403 27.2702 31.7982 27.6563 32.4149 27.9231C33.0317 28.19 33.6951 28.3322 34.367 28.3417C36.1065 28.3417 36.3805 26.5448 35.4056 25.0537C34.5263 23.7091 32.5638 22.097 31.0601 22.8298C29.5563 23.5626 29.5436 25.5507 30.7733 26.7869Z" fill="#CE7A63"/>
<path d="M37.4894 18.0698C37.5301 18.066 37.5693 18.0524 37.6037 18.0302C37.6381 18.008 37.6666 17.9779 37.6869 17.9423C37.8894 17.6162 38.1706 17.3462 38.5045 17.1569C38.8385 16.9677 39.2146 16.8653 39.5984 16.8591C39.6382 16.8609 39.678 16.8544 39.7151 16.84C39.7523 16.8256 39.786 16.8036 39.8142 16.7754C39.8424 16.7472 39.8644 16.7135 39.8788 16.6763C39.8932 16.6391 39.8997 16.5994 39.8979 16.5596C39.8963 16.4756 39.8622 16.3955 39.8028 16.3361C39.7434 16.2767 39.6633 16.2426 39.5793 16.241C39.0978 16.2432 38.6248 16.3678 38.2046 16.6029C37.7844 16.8381 37.4308 17.1762 37.1771 17.5855C37.1364 17.6579 37.1249 17.7431 37.1451 17.8237C37.1652 17.9043 37.2154 17.9741 37.2855 18.0188C37.3461 18.0575 37.4177 18.0754 37.4894 18.0698Z" fill="#263238"/>
<path d="M47.4612 15.3488C47.5403 15.348 47.6159 15.3159 47.6714 15.2596C47.7009 15.2311 47.7244 15.1969 47.7404 15.1591C47.7564 15.1214 47.7646 15.0808 47.7646 15.0397C47.7646 14.9987 47.7564 14.9581 47.7404 14.9204C47.7244 14.8826 47.7009 14.8484 47.6714 14.8199C47.3179 14.4609 46.8858 14.1889 46.4093 14.0253C45.9327 13.8616 45.4247 13.8108 44.9252 13.8768C44.8858 13.8839 44.8483 13.8994 44.8154 13.9223C44.7824 13.9451 44.7547 13.9747 44.7342 14.0091C44.7137 14.0435 44.7008 14.082 44.6963 14.1218C44.6919 14.1616 44.6961 14.202 44.7086 14.24C44.731 14.3206 44.7825 14.3899 44.8532 14.4346C44.9238 14.4793 45.0085 14.4963 45.0909 14.4822C45.4878 14.4374 45.8897 14.4835 46.2662 14.6171C46.6426 14.7507 46.9838 14.9682 47.2637 15.2532C47.3164 15.307 47.3862 15.3408 47.4612 15.3488Z" fill="#263238"/>
<path d="M39.611 20.0579L40.7197 19.4207C40.7197 19.4207 40.3757 20.523 39.611 20.0579Z" fill="#263238"/>
<path d="M75.2423 64.5674L74.9747 66.2815C74.9246 66.5996 74.7989 66.901 74.6082 67.1604C74.4175 67.4199 74.1673 67.6298 73.8788 67.7726L71.1453 69.1299C70.6079 69.3996 70.0134 69.5358 69.4123 69.5269C68.8111 69.518 68.2209 69.3644 67.6917 69.0789L67.0546 68.7284C67.3094 65.8546 69.7052 62.9361 69.7052 62.9361L70.2978 62.0313C70.4132 61.8412 70.5654 61.676 70.7453 61.5453C70.9252 61.4145 71.1294 61.321 71.3459 61.2699C71.5623 61.2189 71.7868 61.2115 72.0061 61.2482C72.2255 61.2848 72.4354 61.3647 72.6235 61.4833L74.4331 62.6303C74.7423 62.839 74.9836 63.1336 75.1274 63.4778C75.2712 63.822 75.3112 64.2008 75.2423 64.5674Z" fill="#CE7A63"/>
<path d="M64.4173 69.0789H70.6872C70.9864 69.061 71.2719 68.9472 71.5014 68.7544C71.7309 68.5616 71.8923 68.3 71.9616 68.0083L74.8671 54.4356C74.9049 54.3078 74.9115 54.1728 74.8865 54.0419C74.8614 53.911 74.8054 53.788 74.723 53.6832C74.6407 53.5783 74.5344 53.4948 74.4131 53.4395C74.2919 53.3841 74.1591 53.3586 74.026 53.3651H67.7753C67.4764 53.384 67.1914 53.4981 66.962 53.6908C66.7327 53.8834 66.5711 54.1445 66.5009 54.4356L63.5954 68.0083C63.5596 68.1345 63.5538 68.2673 63.5785 68.3961C63.6031 68.5249 63.6576 68.6461 63.7374 68.7501C63.8173 68.8541 63.9204 68.938 64.0384 68.9951C64.1565 69.0522 64.2862 69.0809 64.4173 69.0789Z" fill="#263238"/>
<path d="M66.5002 61.0818L64.5886 60.6549C64.2297 60.574 63.8567 60.5804 63.5008 60.6736C63.1449 60.7667 62.8166 60.9438 62.5433 61.1901L59.9436 63.5223C59.4338 63.9843 59.0413 64.5611 58.7987 65.2049C58.556 65.8487 58.4701 66.541 58.5482 67.2246L58.6501 68.0784C61.836 69.0151 65.9267 67.6897 65.9267 67.6897L67.1373 67.4476C67.389 67.4055 67.6297 67.3134 67.8452 67.1768C68.0608 67.0402 68.2467 66.8618 68.3922 66.6521C68.5377 66.4425 68.6398 66.2058 68.6924 65.9561C68.745 65.7064 68.747 65.4487 68.6984 65.1982L68.2397 62.7895C68.1475 62.3664 67.9337 61.9794 67.6247 61.6761C67.3157 61.3727 66.9249 61.1662 66.5002 61.0818Z" fill="#CE7A63"/>
<path d="M29.5436 56.3601C29.6647 56.9081 29.773 57.335 29.9004 57.8066C30.0279 58.2781 30.1553 58.7241 30.2891 59.1766C30.5631 60.075 30.8498 60.9735 31.1493 61.8656C31.7865 63.6371 32.4555 65.3958 33.2392 67.1227C34.0236 68.8683 34.902 70.57 35.8708 72.2204C36.8685 73.9127 37.9864 75.5311 39.216 77.0632L39.3116 77.1843C39.4407 77.3431 39.5836 77.4902 39.7385 77.624C40.6325 78.3591 41.718 78.8234 42.867 78.9621C43.6817 79.0627 44.507 79.0369 45.3138 78.8857C46.5149 78.6474 47.6815 78.26 48.7864 77.7323C50.6508 76.8338 52.4295 75.7673 54.1005 74.5462C55.719 73.3801 57.2418 72.1567 58.701 70.8759C59.4337 70.2386 60.141 69.6014 60.8419 68.9069C61.5428 68.2123 62.231 67.5751 62.9191 66.8423C63.2619 66.486 63.4616 66.0161 63.4803 65.5221C63.4989 65.0281 63.3352 64.5444 63.0202 64.1634C62.7053 63.7823 62.2612 63.5304 61.7725 63.4557C61.2839 63.3809 60.7848 63.4886 60.3704 63.7582L60.3322 63.79C58.7902 64.7586 57.21 65.7718 55.6298 66.7021C54.0496 67.6324 52.4757 68.5628 50.8891 69.3911C49.3898 70.2036 47.8306 70.9002 46.225 71.4748C45.6099 71.7049 44.9672 71.8527 44.3134 71.9145C44.0777 71.9145 43.9184 71.9145 43.9439 71.8763C44.1543 71.8879 44.3543 71.9711 44.511 72.1121L45.0398 72.6728C44.156 71.3331 43.3497 69.9438 42.6249 68.5118C41.9049 67.0398 41.2167 65.5296 40.5923 63.9748C39.9679 62.42 39.3944 60.8397 38.8592 59.2403C38.5852 58.4438 38.3239 57.6409 38.0818 56.838L37.725 55.6336L37.4 54.493L37.3554 54.3401C37.2228 53.8271 36.9904 53.3453 36.6716 52.9222C36.3528 52.499 35.9538 52.1428 35.4973 51.8739C35.0408 51.6049 34.5358 51.4285 34.0112 51.3548C33.4865 51.281 32.9525 51.3113 32.4396 51.444C31.9266 51.5766 31.4449 51.809 31.0217 52.1278C30.5986 52.4466 30.2424 52.8457 29.9735 53.3022C29.7046 53.7587 29.5282 54.2637 29.4544 54.7884C29.3807 55.313 29.411 55.8471 29.5436 56.3601Z" fill="#CE7A63"/>
<path d="M31.8693 43.756C27.4091 46.9421 27.1669 51.6702 29.5946 60.7505C32.8315 62.3754 40.707 60.3172 40.707 60.3172C40.707 60.3172 38.222 46.2348 31.8693 43.756Z" fill="#407BFF"/>
<path d="M54.6805 40.2067C60.1602 40.6272 62.779 44.5843 65.366 53.6201C63.4226 56.6787 55.6044 58.9599 55.6044 58.9599C55.6044 58.9599 50.4942 45.5975 54.6805 40.2067Z" fill="#407BFF"/>
</svg>
