<svg width="20" height="20" viewBox="0 0 20 20" fill="none" xmlns="http://www.w3.org/2000/svg">
<g clip-path="url(#clip0)">
  <path d="M18.5715 12.8572C18.177 12.8572 17.8572 13.177 17.8572 13.5715V17.8572C17.8572 18.2517 17.5374 18.5715 17.1429 18.5715H2.85725C2.46275 18.5715 2.14295 18.2517 2.14295 17.8572V13.5715C2.14295 13.177 1.82316 12.8572 1.42865 12.8572C1.03415 12.8572 0.714355 13.177 0.714355 13.5715V17.8572C0.714355 19.0407 1.67374 20 2.85721 20H17.1429C18.3264 20 19.2858 19.0407 19.2858 17.8572V13.5715C19.2858 13.177 18.966 12.8572 18.5715 12.8572Z" fill="#00A588"/>
  <path d="M14.0599 12.3521C13.7831 12.0848 13.3443 12.0848 13.0675 12.3521L10.7139 14.7043V0.714299C10.7139 0.319796 10.3941 0 9.99961 0C9.60511 0 9.28532 0.319796 9.28532 0.714299V14.7043L6.93316 12.3521C6.6494 12.0781 6.19722 12.086 5.92317 12.3697C5.65582 12.6465 5.65582 13.0853 5.92317 13.3621L9.49458 16.9335C9.77319 17.2128 10.2255 17.2134 10.5047 16.9348C10.5052 16.9344 10.5056 16.934 10.506 16.9335L14.0774 13.3621C14.3515 13.0784 14.3437 12.6262 14.0599 12.3521Z" fill="#00A588"/>
</g>
<defs>
  <clipPath id="clip0">
    <rect width="20" height="20" fill="white"/>
  </clipPath>
</defs>
</svg>
