<svg viewBox="0 0 28 28" fill="none" xmlns="http://www.w3.org/2000/svg">
<path d="M13.9993 16.2528C15.8692 16.2528 17.3674 14.7434 17.3674 12.8735L17.3786 6.1149C17.3786 4.24501 15.8692 2.73559 13.9993 2.73559C12.1294 2.73559 10.62 4.24501 10.62 6.1149V12.8735C10.62 14.7434 12.1294 16.2528 13.9993 16.2528ZM12.6476 6.00226C12.6476 5.25881 13.2559 4.65053 13.9993 4.65053C14.7428 4.65053 15.351 5.25881 15.351 6.00226L15.3398 12.9862C15.3398 13.7296 14.7428 14.3379 13.9993 14.3379C13.2559 14.3379 12.6476 13.7296 12.6476 12.9862V6.00226ZM19.9694 12.8735C19.9694 16.2528 17.1083 18.6184 13.9993 18.6184C10.8904 18.6184 8.0292 16.2528 8.0292 12.8735H6.11426C6.11426 16.7147 9.17817 19.8912 12.8729 20.4432V24.1379H15.1258V20.4432C18.8205 19.9025 21.8844 16.7259 21.8844 12.8735H19.9694Z" fill="white"/>
</svg>
