<svg viewBox="0 0 16 23" fill="none" xmlns="http://www.w3.org/2000/svg">
<path d="M7.99932 14.2528C9.8692 14.2528 11.3674 12.7434 11.3674 10.8735L11.3786 4.11491C11.3786 2.24502 9.8692 0.735596 7.99932 0.735596C6.12943 0.735596 4.62001 2.24502 4.62001 4.11491V10.8735C4.62001 12.7434 6.12943 14.2528 7.99932 14.2528ZM6.64759 4.00226C6.64759 3.25881 7.25587 2.65054 7.99932 2.65054C8.74277 2.65054 9.35104 3.25881 9.35104 4.00226L9.33978 10.9862C9.33978 11.7296 8.74277 12.3379 7.99932 12.3379C7.25587 12.3379 6.64759 11.7296 6.64759 10.9862V4.00226ZM13.9694 10.8735C13.9694 14.2528 11.1083 16.6184 7.99932 16.6184C4.89035 16.6184 2.0292 14.2528 2.0292 10.8735H0.114258C0.114258 14.7147 3.17817 17.8912 6.87288 18.4432V22.1379H9.12575V18.4432C12.8205 17.9025 15.8844 14.7259 15.8844 10.8735H13.9694Z" fill="white"/>
</svg>
