<svg width="52" height="70" viewBox="0 0 52 70" fill="none" xmlns="http://www.w3.org/2000/svg">
<path d="M25.9999 44.3333C32.0866 44.3333 36.9633 39.42 36.9633 33.3333L36.9999 11.3333C36.9999 5.24662 32.0866 0.333282 25.9999 0.333282C19.9133 0.333282 14.9999 5.24662 14.9999 11.3333V33.3333C14.9999 39.42 19.9133 44.3333 25.9999 44.3333ZM21.5999 10.9666C21.5999 8.54662 23.5799 6.56662 25.9999 6.56662C28.4199 6.56662 30.3999 8.54662 30.3999 10.9666L30.3633 33.7C30.3633 36.12 28.4199 38.1 25.9999 38.1C23.5799 38.1 21.5999 36.12 21.5999 33.7V10.9666ZM45.4333 33.3333C45.4333 44.3333 36.1199 52.0333 25.9999 52.0333C15.8799 52.0333 6.56659 44.3333 6.56659 33.3333H0.333252C0.333252 45.8366 10.3066 56.1766 22.3333 57.9733V70H29.6666V57.9733C41.6933 56.2133 51.6666 45.8733 51.6666 33.3333H45.4333Z" fill="#00A588"/>
</svg>
