<svg width="14" height="14" viewBox="0 0 14 14" fill="none" xmlns="http://www.w3.org/2000/svg">
<path d="M5.03125 3.58445H6.33027V9.53113C6.33027 9.60847 6.39355 9.67175 6.4709 9.67175H7.52559C7.60293 9.67175 7.66621 9.60847 7.66621 9.53113V3.58445H8.96875C9.08652 3.58445 9.15156 3.4491 9.07949 3.35769L7.11074 0.865113C7.09759 0.848305 7.08078 0.834712 7.06159 0.825364C7.04241 0.816016 7.02134 0.811157 7 0.811157C6.97866 0.811157 6.95759 0.816016 6.93841 0.825364C6.91922 0.834712 6.90241 0.848305 6.88926 0.865113L4.92051 3.35593C4.84844 3.4491 4.91348 3.58445 5.03125 3.58445ZM13.4336 9.00379H12.3789C12.3016 9.00379 12.2383 9.06707 12.2383 9.14441V11.8514H1.76172V9.14441C1.76172 9.06707 1.69844 9.00379 1.62109 9.00379H0.566406C0.489062 9.00379 0.425781 9.06707 0.425781 9.14441V12.6249C0.425781 12.936 0.677148 13.1874 0.988281 13.1874H13.0117C13.3229 13.1874 13.5742 12.936 13.5742 12.6249V9.14441C13.5742 9.06707 13.5109 9.00379 13.4336 9.00379Z" fill="#21242C"/>
</svg>
