<svg width="36" height="36" viewBox="0 0 36 36" fill="none" xmlns="http://www.w3.org/2000/svg">
  <path d="M18.0017 0C13.1131 0 12.4996 0.0213753 10.5796 0.10875C8.66334 0.1965 7.35533 0.499875 6.21081 0.945C5.02693 1.40475 4.02267 2.01975 3.02216 3.02063C2.0209 4.02113 1.40589 5.02537 0.944634 6.20887C0.49838 7.35375 0.194627 8.66213 0.108376 10.5776C0.0225001 12.4976 0 13.1115 0 18C0 22.8885 0.0217506 23.5001 0.108751 25.4201C0.196877 27.3364 0.500255 28.6444 0.94501 29.7889C1.40514 30.9727 2.02015 31.977 3.02103 32.9775C4.02117 33.9788 5.02543 34.5953 6.20856 35.055C7.35383 35.5001 8.66222 35.8035 10.5781 35.8913C12.4981 35.9786 13.1113 36 17.9994 36C22.8884 36 23.5 35.9786 25.42 35.8913C27.3363 35.8035 28.6458 35.5001 29.7911 35.055C30.9746 34.5953 31.9773 33.9788 32.9775 32.9775C33.9787 31.977 34.5937 30.9728 35.055 29.7893C35.4975 28.6444 35.8012 27.336 35.8912 25.4205C35.9775 23.5005 36 22.8885 36 18C36 13.1115 35.9775 12.498 35.8912 10.578C35.8012 8.66175 35.4975 7.35375 35.055 6.20925C34.5937 5.02537 33.9787 4.02113 32.9775 3.02063C31.9762 2.01938 30.9749 1.40438 29.7899 0.945C28.6424 0.499875 27.3337 0.1965 25.4174 0.10875C23.4974 0.0213753 22.8861 0 17.9961 0H18.0017ZM16.3869 3.24375C16.8662 3.243 17.4009 3.24375 18.0017 3.24375C22.8077 3.24375 23.3774 3.261 25.2753 3.34725C27.0303 3.4275 27.9828 3.72075 28.6173 3.96713C29.4573 4.29338 30.0562 4.68337 30.6858 5.31337C31.3158 5.94337 31.7058 6.54337 32.0328 7.38337C32.2792 8.01713 32.5728 8.96962 32.6527 10.7246C32.739 12.6221 32.7577 13.1921 32.7577 17.9959C32.7577 22.7996 32.739 23.3696 32.6527 25.2671C32.5725 27.0221 32.2792 27.9746 32.0328 28.6084C31.7066 29.4484 31.3158 30.0465 30.6858 30.6761C30.0558 31.3061 29.4577 31.6961 28.6173 32.0224C27.9835 32.2699 27.0303 32.5624 25.2753 32.6426C23.3777 32.7289 22.8077 32.7476 18.0017 32.7476C13.1953 32.7476 12.6256 32.7289 10.7281 32.6426C8.97309 32.5616 8.02058 32.2684 7.3857 32.022C6.54569 31.6957 5.94569 31.3057 5.31568 30.6758C4.68567 30.0458 4.29567 29.4473 3.96867 28.6069C3.72229 27.9731 3.42866 27.0206 3.34878 25.2656C3.26253 23.3681 3.24528 22.7981 3.24528 17.9914C3.24528 13.1846 3.26253 12.6176 3.34878 10.7201C3.42904 8.96513 3.72229 8.01262 3.96867 7.37812C4.29492 6.53812 4.68567 5.93812 5.31568 5.30812C5.94569 4.67812 6.54569 4.28813 7.3857 3.96112C8.02021 3.71362 8.97309 3.42113 10.7281 3.3405C12.3886 3.2655 13.0321 3.243 16.3869 3.23925V3.24375ZM27.61 6.2325C26.4175 6.2325 25.45 7.19887 25.45 8.39175C25.45 9.58425 26.4175 10.5518 27.61 10.5518C28.8025 10.5518 29.7701 9.58425 29.7701 8.39175C29.7701 7.19925 28.8025 6.23175 27.61 6.23175V6.2325ZM18.0017 8.75625C12.8968 8.75625 8.75784 12.8951 8.75784 18C8.75784 23.1049 12.8968 27.2419 18.0017 27.2419C23.1066 27.2419 27.244 23.1049 27.244 18C27.244 12.8951 23.1062 8.75625 18.0013 8.75625H18.0017ZM18.0017 12C21.3152 12 24.0017 14.6861 24.0017 18C24.0017 21.3135 21.3152 24 18.0017 24C14.6878 24 12.0016 21.3135 12.0016 18C12.0016 14.6861 14.6878 12 18.0017 12Z" fill="#999999" />
</svg>
