<svg width="43" height="36" viewBox="0 0 43 36" fill="none" xmlns="http://www.w3.org/2000/svg">
  <path d="M13.523 36C29.7502 36 38.6242 22.1512 38.6242 10.142C38.6242 9.74866 38.6165 9.35708 38.5993 8.96728C40.3219 7.68446 41.8191 6.08361 43 4.26124C41.4193 4.98504 39.7182 5.47229 37.9337 5.692C39.7551 4.56688 41.1535 2.78706 41.8132 0.665329C40.1086 1.70629 38.221 2.46287 36.2111 2.87135C34.6013 1.10487 32.3093 0 29.7715 0C24.8996 0 20.9488 4.07001 20.9488 9.08687C20.9488 9.80003 21.0262 10.4937 21.1776 11.1591C13.8453 10.779 7.3436 7.16267 2.99229 1.66376C2.23463 3.00682 1.79776 4.56692 1.79776 6.23158C1.79776 9.3846 3.35526 12.1681 5.72369 13.7965C4.27628 13.7504 2.91661 13.3411 1.72821 12.6598C1.72691 12.698 1.7269 12.7351 1.7269 12.7759C1.7269 17.1772 4.76789 20.852 8.80464 21.6847C8.06332 21.8929 7.28335 22.0045 6.47834 22.0045C5.91075 22.0045 5.35776 21.947 4.82026 21.8406C5.94341 25.4516 9.20028 28.0793 13.0616 28.1528C10.0421 30.5908 6.23838 32.0429 2.10438 32.0429C1.39316 32.0429 0.690544 32.0012 0 31.9171C3.90443 34.4952 8.54011 36 13.523 36Z" fill="#999999"/>
</svg>
