<svg width="52" height="36" viewBox="0 0 52 36" fill="none" xmlns="http://www.w3.org/2000/svg">
  <path d="M50.9289 5.63294C50.3293 3.43059 48.5731 1.69412 46.3458 1.10118C42.2766 0 25.9999 0 25.9999 0C25.9999 0 9.72319 0 5.65401 1.05882C3.46951 1.65176 1.6705 3.43059 1.07084 5.63294C0 9.65647 0 18 0 18C0 18 0 26.3859 1.07084 30.3671C1.6705 32.5694 3.42667 34.3059 5.65401 34.8988C9.76602 36 25.9999 36 25.9999 36C25.9999 36 42.2766 36 46.3458 34.9412C48.5731 34.3482 50.3293 32.6118 50.9289 30.4094C51.9998 26.3859 51.9998 18.0424 51.9998 18.0424C51.9998 18.0424 52.0426 9.65647 50.9289 5.63294Z" fill="#999999"/>
  <path d="M34.3523 18L20.8169 10.2917V25.7082L34.3523 18Z" fill="white"/>
</svg>
