<svg viewBox="0 0 75 41" fill="none" xmlns="http://www.w3.org/2000/svg">
<path d="M37.8564 24.0292H39.7195L39.944 25.8632H40.0787C40.6173 24.4594 41.5227 23.7574 42.7946 23.7574C43.2136 23.7574 43.5803 23.8178 43.8946 23.9386V26.1576H43.064C42.1811 26.1576 41.4778 26.4142 40.954 26.9275C40.4303 27.4408 40.1684 28.2257 40.1684 29.2824V35.9395H37.8564V24.0292ZM49.1606 36.2112C46.6616 36.2112 45.4121 34.8451 45.4121 32.1128V24.0292H47.7241V31.8184C47.7241 32.7091 47.9186 33.3355 48.3077 33.6978C48.7118 34.045 49.2954 34.2186 50.0585 34.2186C50.5822 34.2186 51.0686 34.0903 51.5175 33.8337C51.9665 33.562 52.3181 33.1846 52.5725 32.7016C52.8418 32.2185 52.9766 31.6599 52.9766 31.0259V24.0292H55.2885V35.9395H53.4255L53.201 34.3545H53.0438C52.6099 34.9583 52.0637 35.4187 51.4053 35.7357C50.7469 36.0527 49.9986 36.2112 49.1606 36.2112ZM58.5037 25.9539H56.7978V24.0292H58.5037V22.2856C58.5037 21.4554 58.7132 20.7685 59.1323 20.2251C59.5663 19.6666 60.277 19.3873 61.2647 19.3873C61.5643 19.3873 61.8784 19.4175 62.2072 19.4779C62.5366 19.5383 62.8135 19.6062 63.0377 19.6817V21.3119H61.893C61.1748 21.3119 60.8157 21.6592 60.8157 22.3536V24.0292H63.0377V25.9539H60.8157V35.9395H58.5037V25.9539ZM66.5151 40.0606C65.7824 40.0606 65.206 39.9851 64.7868 39.8341V38.2944H65.7744C67.1361 38.2944 68.0492 37.5094 68.5131 35.9395L63.9342 24.0292H66.3581L68.5577 29.8711C68.8572 30.641 69.2385 31.826 69.7031 33.4261H69.8149C70.2341 31.9166 70.5782 30.7315 70.8478 29.8711L72.688 24.0292H75L71.0947 35.3282C70.5556 36.8377 69.95 38 69.2764 38.8152C68.6029 39.6455 67.6825 40.0606 66.5151 40.0606Z" fill="#393939"/>
<path d="M36.1975 20.0764C36.1879 20.0764 36.1784 20.0783 36.1696 20.082C36.1608 20.0857 36.1528 20.0911 36.146 20.0979C36.1392 20.1047 36.1339 20.1128 36.1302 20.1217C36.1265 20.1306 36.1247 20.1401 36.1247 20.1498V20.2233H35.9243C35.9066 20.071 35.8473 19.9267 35.753 19.8065L35.8948 19.6635L35.9519 19.7122C35.9586 19.719 35.9667 19.7244 35.9755 19.7281C35.9843 19.7318 35.9938 19.7338 36.0033 19.7338C36.0129 19.7338 36.0224 19.7319 36.0312 19.7282C36.0401 19.7245 36.0481 19.7191 36.0549 19.7123C36.0616 19.7054 36.067 19.6973 36.0707 19.6884C36.0744 19.6795 36.0762 19.6699 36.0762 19.6603C36.0762 19.6506 36.0743 19.6411 36.0706 19.6322C36.067 19.6233 36.0616 19.6152 36.0549 19.6083L35.8122 19.3636C35.7986 19.3498 35.7801 19.3421 35.7608 19.3421C35.7414 19.3421 35.7229 19.3498 35.7092 19.3636C35.6956 19.3773 35.6879 19.396 35.6879 19.4155C35.6879 19.435 35.6956 19.4537 35.7092 19.4674L35.7576 19.525L35.6158 19.668C35.4966 19.5729 35.3536 19.5131 35.2026 19.4952V19.2931H35.2754C35.2947 19.2931 35.3133 19.2854 35.3269 19.2716C35.3405 19.2578 35.3483 19.2392 35.3483 19.2197C35.3483 19.2002 35.3405 19.1816 35.3269 19.1678C35.3133 19.154 35.2947 19.1462 35.2754 19.1462H34.9358C34.9165 19.1462 34.8979 19.154 34.8842 19.1678C34.8706 19.1816 34.8629 19.2002 34.8629 19.2197C34.8629 19.2392 34.8706 19.2578 34.8842 19.2716C34.8979 19.2854 34.9165 19.2931 34.9358 19.2931H35.0085V19.4952C34.8576 19.5131 34.7145 19.5729 34.5953 19.668L34.4536 19.525L34.5019 19.4674C34.5087 19.4606 34.514 19.4525 34.5177 19.4436C34.5213 19.4347 34.5233 19.4251 34.5233 19.4155C34.5233 19.4059 34.5213 19.3963 34.5177 19.3874C34.514 19.3785 34.5087 19.3704 34.5019 19.3636C34.4952 19.3568 34.4871 19.3513 34.4783 19.3477C34.4695 19.344 34.46 19.3421 34.4505 19.3421C34.4312 19.3421 34.4127 19.3498 34.399 19.3636L34.1619 19.6083C34.1483 19.6221 34.1407 19.6408 34.1407 19.6602C34.1408 19.6797 34.1484 19.6983 34.1621 19.7121C34.1757 19.7258 34.1942 19.7336 34.2135 19.7336C34.2327 19.7336 34.2512 19.7259 34.2649 19.7122L34.3163 19.6635L34.4581 19.8065C34.3638 19.9267 34.3045 20.071 34.2868 20.2233H34.0865V20.1498C34.0865 20.1303 34.0788 20.1117 34.0652 20.0979C34.0515 20.0841 34.033 20.0764 34.0137 20.0764C33.9944 20.0764 33.9759 20.0841 33.9622 20.0979C33.9486 20.1117 33.9409 20.1303 33.9409 20.1498V20.4925C33.9409 20.5119 33.9486 20.5307 33.9622 20.5444C33.9759 20.5582 33.9944 20.5659 34.0137 20.5659C34.033 20.5659 34.0515 20.5582 34.0652 20.5444C34.0788 20.5307 34.0865 20.5119 34.0865 20.4925V20.4191H34.2868C34.3045 20.5713 34.3638 20.7156 34.4581 20.8358L34.3163 20.9789L34.2593 20.9301C34.2456 20.9164 34.2271 20.9087 34.2078 20.9087C34.1886 20.9087 34.1701 20.9164 34.1564 20.9301C34.1428 20.9439 34.1351 20.9626 34.1351 20.982C34.1351 21.0015 34.1427 21.0202 34.1564 21.0339L34.399 21.2787C34.4057 21.2856 34.4138 21.2909 34.4226 21.2946C34.4314 21.2983 34.4409 21.3002 34.4505 21.3002C34.46 21.3002 34.4695 21.2983 34.4783 21.2946C34.4871 21.2909 34.4952 21.2856 34.5019 21.2787C34.5087 21.2719 34.514 21.2638 34.5177 21.2549C34.5213 21.246 34.5233 21.2364 34.5233 21.2268C34.5233 21.2172 34.5213 21.2076 34.5177 21.1987C34.514 21.1898 34.5087 21.1817 34.5019 21.1749L34.4536 21.1173L34.5953 20.9743C34.7145 21.0694 34.8576 21.1292 35.0085 21.1471V21.3492H34.9358C34.9165 21.3492 34.8979 21.3569 34.8842 21.3707C34.8706 21.3845 34.8629 21.4031 34.8629 21.4226C34.8629 21.4421 34.8706 21.4608 34.8842 21.4746C34.8979 21.4883 34.9165 21.496 34.9358 21.496H35.2754C35.2947 21.496 35.3133 21.4883 35.3269 21.4746C35.3405 21.4608 35.3483 21.4421 35.3483 21.4226C35.3483 21.4031 35.3405 21.3845 35.3269 21.3707C35.3133 21.3569 35.2947 21.3492 35.2754 21.3492H35.2026V21.1471C35.3536 21.1292 35.4966 21.0694 35.6158 20.9743L35.7576 21.1173L35.7092 21.1749C35.6956 21.1887 35.6879 21.2074 35.6879 21.2268C35.6879 21.2463 35.6956 21.265 35.7092 21.2787C35.7229 21.2925 35.7414 21.3002 35.7608 21.3002C35.7801 21.3002 35.7986 21.2925 35.8122 21.2787L36.0549 21.0339C36.0616 21.0272 36.067 21.019 36.0706 21.0101C36.0743 21.0012 36.0762 20.9916 36.0762 20.982C36.0762 20.9724 36.0744 20.9628 36.0707 20.9539C36.067 20.945 36.0616 20.9369 36.0549 20.9301C36.0481 20.9232 36.0401 20.9178 36.0312 20.9141C36.0224 20.9105 36.0129 20.9085 36.0033 20.9085C35.9938 20.9085 35.9843 20.9105 35.9755 20.9142C35.9667 20.9179 35.9586 20.9233 35.9519 20.9301L35.8948 20.9789L35.753 20.8358C35.8473 20.7156 35.9066 20.5713 35.9243 20.4191H36.1247V20.4925C36.1247 20.5119 36.1323 20.5307 36.146 20.5444C36.1597 20.5582 36.1782 20.5659 36.1975 20.5659C36.2168 20.5659 36.2353 20.5582 36.2489 20.5444C36.2626 20.5307 36.2703 20.5119 36.2703 20.4925V20.1498C36.2703 20.1401 36.2684 20.1306 36.2647 20.1217C36.2611 20.1128 36.2557 20.1047 36.2489 20.0979C36.2422 20.0911 36.2342 20.0857 36.2254 20.082C36.2165 20.0783 36.2071 20.0764 36.1975 20.0764Z" fill="#393939"/>
<path d="M36.2703 23.8461H33.9409V35.9308H36.2703V23.8461Z" fill="#393939"/>
<path d="M12.4533 10.5173L24.5608 31.5536H18.3341H12.1074L0 10.5173H12.4533Z" fill="#00B696"/>
<path d="M30.269 0L24.2153 10.5181L18.1617 21.0363L15.1348 26.2953L12.1079 31.5544C12.1079 31.5544 13.7694 35.9393 18.3346 35.9393C22.2966 35.9393 24.5613 31.5544 24.5613 31.5544L36.6687 10.5181L42.7224 0H30.269Z" fill="#00A588"/>
</svg>
