<svg viewBox="0 0 134 177" fill="none" xmlns="http://www.w3.org/2000/svg">
<rect x="16" width="100" height="100" rx="20" fill="white"/>
<path d="M78.1163 26L69.9828 40.1104L61.8492 54.2209L57.7824 61.2761L53.2725 68.3313C53.2725 68.3313 55.948 74.2138 62.0816 74.2138C67.4047 74.2138 70.4462 68.3313 70.4462 68.3313L86.7147 40.1104L94.8482 26H78.1163Z" fill="url(#paint0_linear)"/>
<path d="M61.8657 54.2222L53.7321 40.1118H37.0002L53.2687 68.3326C53.2687 68.3326 56.3102 74.2152 61.6334 74.2152C67.7669 74.2152 70.4414 68.3326 70.4414 68.3326L65.9325 61.2774L61.8657 54.2222Z" fill="#00C44E"/>
<path d="M1 129.4L14.7 165H22.05L35.75 129.4H26.5L18.35 150.4L10.3 129.4H1ZM41.7185 139C44.1685 139 46.2185 136.95 46.2185 134.5C46.2185 132.05 44.1685 130 41.7185 130C39.1685 130 37.2185 132.05 37.2185 134.5C37.2185 136.95 39.1685 139 41.7185 139ZM37.7685 165H45.6685V142.1H37.7685V165ZM57.6026 142.1H49.7026V165H57.6026V152.95C57.6026 151.1 60.0526 149.6 63.0026 149.6L64.9526 141.7C62.5526 141.7 59.9026 142.2 57.6026 143.4V142.1ZM69.5301 162.4C71.6301 164.35 74.2801 165.4 77.1301 165.4C79.9301 165.4 82.6301 164.35 84.6801 162.4C86.7301 160.35 87.8801 157.7 87.8801 154.9V142.1H79.9801V154.9C79.9801 156.35 78.6801 157.6 77.1301 157.6C75.5801 157.6 74.2801 156.35 74.2801 154.9V142.1H66.3801V154.9C66.3801 157.7 67.4801 160.35 69.5301 162.4ZM101.895 128.3C97.2954 128.3 93.5454 131.95 93.5454 136.6V142.1H90.8454V149.85H93.5454V165H101.445V149.85H107.145V142.1H101.445V136.65C101.445 136.35 101.695 136.05 101.995 136.05H106.795L108.845 128.3H101.895ZM118.962 175.55L132.562 142.1H124.612L120.262 152.9L115.812 142.1H107.862L116.312 162.85L111.162 175.55H118.962Z" fill="white"/>
<defs>
<linearGradient id="paint0_linear" x1="89.4005" y1="23.3129" x2="53.611" y2="81.758" gradientUnits="userSpaceOnUse">
<stop stop-color="#3578DE"/>
<stop stop-color="#3578DE"/>
<stop offset="0.260989" stop-color="#3578DE"/>
<stop offset="0.868813" stop-color="#3578DE" stop-opacity="0.52"/>
<stop offset="0.971831" stop-color="#3578DE" stop-opacity="0"/>
</linearGradient>
</defs>
</svg>
