<svg viewBox="0 0 156 54" fill="none" xmlns="http://www.w3.org/2000/svg">
<path d="M33.2708 2.15991L26.6892 13.5023L20.1077 24.8447L16.8169 30.5159L13.1675 36.1871C13.1675 36.1871 15.3325 40.9157 20.2957 40.9157C24.6031 40.9157 27.0642 36.1871 27.0642 36.1871L40.2285 13.5023L46.8101 2.15991H33.2708Z" fill="url(#paint0_linear)"/>
<path d="M20.1207 24.8458L13.5391 13.5034L-0.000120163 13.5034L13.1642 36.1882C13.1642 36.1882 15.6253 40.9167 19.9327 40.9167C24.8959 40.9167 27.0601 36.1882 27.0601 36.1882L23.4115 30.517L20.1207 24.8458Z" fill="#30DA74"/>
<path d="M52.2804 12.8273C54.9352 12.8273 57.1565 10.606 57.1565 7.95123C57.1565 5.2965 54.9352 3.07519 52.2804 3.07519C49.5174 3.07519 47.4044 5.2965 47.4044 7.95123C47.4044 10.606 49.5174 12.8273 52.2804 12.8273ZM48.0004 41H56.5605V16.1863H48.0004V41ZM70.2675 16.1863H61.7073V41H70.2675V27.943C70.2675 25.9384 72.9222 24.3131 76.1188 24.3131L78.2317 15.7529C75.6312 15.7529 72.7597 16.2947 70.2675 17.595V16.1863ZM83.9673 38.1827C86.2428 40.2957 89.1142 41.4334 92.2024 41.4334C95.2364 41.4334 98.162 40.2957 100.383 38.1827C102.605 35.9614 103.851 33.09 103.851 30.056V16.1863H95.2905V30.056C95.2905 31.6272 93.8819 32.9816 92.2024 32.9816C90.5229 32.9816 89.1142 31.6272 89.1142 30.056V16.1863H80.554V30.056C80.554 33.09 81.746 35.9614 83.9673 38.1827ZM119.813 1.23312C114.828 1.23312 110.765 5.18814 110.765 10.2267V16.1863H107.839V24.584H110.765V41H119.325V24.584H125.502V16.1863H119.325V10.2809C119.325 9.95583 119.596 9.63076 119.921 9.63076H125.122L127.344 1.23312H119.813ZM139.082 52.4316L153.818 16.1863H145.204L140.49 27.8888L135.668 16.1863H127.054L136.21 38.6703L130.63 52.4316H139.082Z" fill="#3578DE"/>
<defs>
<linearGradient id="paint0_linear" x1="42.4018" y1="-8.90792e-05" x2="13.7203" y2="47.1496" gradientUnits="userSpaceOnUse">
<stop stop-color="#3578DE"/>
<stop stop-color="#3578DE"/>
<stop offset="0.260989" stop-color="#3578DE"/>
<stop offset="0.868813" stop-color="#3578DE" stop-opacity="0.52"/>
<stop offset="0.971831" stop-color="#3578DE" stop-opacity="0"/>
</linearGradient>
</defs>
</svg>
